<svg width="40" height="40" viewBox="0 0 40 40" fill="none" xmlns="http://www.w3.org/2000/svg">
<rect width="40" height="40" rx="20" fill="#002A50"/>
<path d="M25.625 16.25H14.375C13.8779 16.2505 13.4012 16.4482 13.0497 16.7997C12.6982 17.1512 12.5005 17.6279 12.5 18.125V21.875C12.5003 22.2064 12.6321 22.5242 12.8665 22.7585C13.1008 22.9929 13.4186 23.1247 13.75 23.125V27.5C13.7503 27.8314 13.8821 28.1492 14.1165 28.3835C14.3508 28.6179 14.6686 28.7497 15 28.75H17.5C17.8314 28.7497 18.1492 28.6179 18.3835 28.3835C18.6179 28.1492 18.7497 27.8314 18.75 27.5V20H17.5V27.5H15V21.875H13.75V18.125C13.75 17.9592 13.8158 17.8003 13.9331 17.6831C14.0503 17.5658 14.2092 17.5 14.375 17.5H25.625C25.7908 17.5 25.9497 17.5658 26.0669 17.6831C26.1842 17.8003 26.25 17.9592 26.25 18.125V21.875H25V27.5H22.5V20H21.25V27.5C21.2503 27.8314 21.3821 28.1492 21.6165 28.3835C21.8508 28.6179 22.1686 28.7497 22.5 28.75H25C25.3314 28.7497 25.6492 28.6179 25.8835 28.3835C26.1179 28.1492 26.2497 27.8314 26.25 27.5V23.125C26.5814 23.1247 26.8992 22.9929 27.1335 22.7585C27.3679 22.5242 27.4997 22.2064 27.5 21.875V18.125C27.4995 17.6279 27.3018 17.1512 26.9503 16.7997C26.5988 16.4482 26.1221 16.2505 25.625 16.25ZM16.25 15.625C15.7555 15.625 15.2722 15.4784 14.8611 15.2037C14.45 14.929 14.1295 14.5385 13.9403 14.0817C13.7511 13.6249 13.7016 13.1222 13.798 12.6373C13.8945 12.1523 14.1326 11.7069 14.4822 11.3572C14.8319 11.0076 15.2773 10.7695 15.7623 10.673C16.2472 10.5766 16.7499 10.6261 17.2067 10.8153C17.6635 11.0045 18.054 11.325 18.3287 11.7361C18.6034 12.1472 18.75 12.6305 18.75 13.125C18.7493 13.7878 18.4857 14.4233 18.017 14.892C17.5483 15.3607 16.9128 15.6243 16.25 15.625ZM16.25 11.875C16.0028 11.875 15.7611 11.9483 15.5555 12.0857C15.35 12.223 15.1898 12.4182 15.0952 12.6466C15.0005 12.8751 14.9758 13.1264 15.024 13.3689C15.0722 13.6113 15.1913 13.8341 15.3661 14.0089C15.5409 14.1837 15.7637 14.3028 16.0061 14.351C16.2486 14.3992 16.4999 14.3745 16.7284 14.2799C16.9568 14.1852 17.152 14.025 17.2893 13.8195C17.4267 13.6139 17.5 13.3722 17.5 13.125C17.4997 12.7936 17.3679 12.4758 17.1335 12.2415C16.8992 12.0071 16.5814 11.8753 16.25 11.875ZM23.75 15.625C23.2555 15.625 22.7722 15.4784 22.3611 15.2037C21.95 14.929 21.6295 14.5385 21.4403 14.0817C21.2511 13.6249 21.2016 13.1222 21.298 12.6373C21.3945 12.1523 21.6326 11.7069 21.9822 11.3572C22.3319 11.0076 22.7773 10.7695 23.2623 10.673C23.7472 10.5766 24.2499 10.6261 24.7067 10.8153C25.1635 11.0045 25.554 11.325 25.8287 11.7361C26.1034 12.1472 26.25 12.6305 26.25 13.125C26.2493 13.7878 25.9857 14.4233 25.517 14.892C25.0483 15.3607 24.4128 15.6243 23.75 15.625ZM23.75 11.875C23.5028 11.875 23.2611 11.9483 23.0555 12.0857C22.85 12.223 22.6898 12.4182 22.5951 12.6466C22.5005 12.8751 22.4758 13.1264 22.524 13.3689C22.5722 13.6113 22.6913 13.8341 22.8661 14.0089C23.0409 14.1837 23.2637 14.3028 23.5061 14.351C23.7486 14.3992 23.9999 14.3745 24.2284 14.2799C24.4568 14.1852 24.652 14.025 24.7893 13.8195C24.9267 13.6139 25 13.3722 25 13.125C24.9997 12.7936 24.8679 12.4758 24.6335 12.2415C24.3992 12.0071 24.0814 11.8753 23.75 11.875Z" fill="white"/>
</svg>
