<svg width="48" height="48" viewBox="0 0 48 48" fill="none" xmlns="http://www.w3.org/2000/svg">
<rect width="48" height="48" rx="24" fill="#002A50"/>
<path d="M32 35H30.5V31.25C30.4988 30.2558 30.1033 29.3027 29.4003 28.5997C28.6973 27.8967 27.7442 27.5012 26.75 27.5H22.25C21.2558 27.5012 20.3027 27.8967 19.5997 28.5997C18.8967 29.3027 18.5012 30.2558 18.5 31.25V35H17V31.25C17.0016 29.8581 17.5552 28.5237 18.5394 27.5394C19.5237 26.5552 20.8581 26.0016 22.25 26H26.75C28.1419 26.0016 29.4763 26.5552 30.4606 27.5394C31.4448 28.5237 31.9984 29.8581 32 31.25V35ZM29 17V20C29 20.8273 28.3272 21.5 27.5 21.5H26.75C26.5511 21.5 26.3603 21.579 26.2197 21.7197C26.079 21.8603 26 22.0511 26 22.25C26 22.4489 26.079 22.6397 26.2197 22.7803C26.3603 22.921 26.5511 23 26.75 23H27.5C29.1545 23 30.5 21.6545 30.5 20V17H29ZM24.5 24.5C21.605 24.5 19.25 22.145 19.25 19.25C19.25 16.355 21.605 14 24.5 14C25.9917 14 27.4175 14.6375 28.4127 15.7498L27.2952 16.7502C26.9433 16.3572 26.5124 16.0428 26.0308 15.8273C25.5492 15.6119 25.0276 15.5004 24.5 15.5C22.4323 15.5 20.75 17.1823 20.75 19.25C20.75 21.3177 22.4323 23 24.5 23V24.5Z" fill="white"/>
</svg>
