<svg width="73" height="170" viewBox="0 0 73 170" fill="none" xmlns="http://www.w3.org/2000/svg">
<path d="M60.7401 168.442C60.6612 168.988 61.0405 169.495 61.5871 169.574C62.1337 169.653 62.6408 169.274 62.7196 168.727L60.7401 168.442ZM1.22472 2.67571C0.693457 2.82667 0.385182 3.37972 0.536152 3.91097L2.99632 12.5682C3.14728 13.0994 3.70033 13.4077 4.23158 13.2568C4.76284 13.1058 5.07112 12.5527 4.92014 12.0215L2.73333 4.32618L10.4286 2.13936C10.9599 1.9884 11.2682 1.43535 11.1172 0.904097C10.9662 0.372853 10.4132 0.064572 9.88194 0.215541L1.22472 2.67571ZM35.4046 48.0923L34.4066 48.0289L34.4032 48.0829L34.4056 48.137L35.4046 48.0923ZM70.9678 81.919L70.0385 81.5497L70.9678 81.919ZM48.1358 74.0502L48.9966 74.5592L48.1358 74.0502ZM40.0934 87.6519L40.9542 88.1609L40.0934 87.6519ZM41.9316 106.677L41.1842 107.341L41.9316 106.677ZM40.9542 88.1609L48.9966 74.5592L47.2751 73.5413L39.2326 87.143L40.9542 88.1609ZM70.3284 80.8202L70.0385 81.5497L71.8971 82.2883L72.187 81.5588L70.3284 80.8202ZM36.4685 65.8839C36.6624 60.2513 36.6803 54.2246 36.4036 48.0475L34.4056 48.137C34.6795 54.2532 34.6621 60.2264 34.4696 65.8151L36.4685 65.8839ZM36.4026 48.1557C37.0917 37.3076 32.1917 28.0305 25.3166 20.4652C18.445 12.9038 9.5301 6.96997 1.98495 2.76415L1.01118 4.51109C8.46797 8.66765 17.1723 14.4771 23.8365 21.8103C30.4972 29.1397 35.0495 37.9087 34.4066 48.0289L36.4026 48.1557ZM62.7196 168.727L66.2446 144.283L64.265 143.997L60.7401 168.442L62.7196 168.727ZM60.9131 126.527L42.679 106.013L41.1842 107.341L59.4182 127.856L60.9131 126.527ZM64.0273 87.3815C50.4959 92.29 35.9662 80.47 36.4685 65.8839L34.4696 65.8151C33.9257 81.6136 49.6605 94.7205 64.7093 89.2616L64.0273 87.3815ZM66.2446 144.283C67.1696 137.868 65.2189 131.371 60.9131 126.527L59.4182 127.856C63.3326 132.259 65.106 138.165 64.265 143.997L66.2446 144.283ZM64.7093 89.2616C67.9916 88.071 70.6076 85.533 71.8971 82.2883L70.0385 81.5497C68.9601 84.2633 66.7723 86.3858 64.0273 87.3815L64.7093 89.2616ZM48.9966 74.5592C55.1238 64.1966 71.0415 69.1115 70.2598 81.1246L72.2556 81.2545C73.1739 67.1412 54.4735 61.367 47.2751 73.5413L48.9966 74.5592ZM39.2326 87.143C35.424 93.5843 36.2128 101.748 41.1842 107.341L42.679 106.013C38.2852 101.07 37.588 93.8539 40.9542 88.1609L39.2326 87.143Z" fill="#002A50"/>
</svg>
