<svg width="73" height="170" viewBox="0 0 73 170" fill="none" xmlns="http://www.w3.org/2000/svg">
<path d="M12.3854 1.14323C12.4642 0.5966 12.085 0.0895662 11.5384 0.0107381C10.9918 -0.0680844 10.4847 0.311147 10.4059 0.857779L12.3854 1.14323ZM71.9008 166.909C72.432 166.758 72.7403 166.205 72.5893 165.674L70.1292 157.017C69.9782 156.486 69.4252 156.177 68.8939 156.328C68.3626 156.479 68.0544 157.032 68.2053 157.563L70.3922 165.259L62.6968 167.446C62.1656 167.597 61.8573 168.15 62.0083 168.681C62.1592 169.212 62.7123 169.52 63.2435 169.369L71.9008 166.909ZM37.7209 121.493L38.7188 121.556L38.7223 121.502L38.7199 121.448L37.7209 121.493ZM2.15773 87.6659L3.08703 88.0352L2.15773 87.6659ZM24.9896 95.5347L24.1289 95.0258L24.9896 95.5347ZM33.0321 81.933L32.1713 81.4241L33.0321 81.933ZM31.1939 62.9078L31.9413 62.2435L31.1939 62.9078ZM32.1713 81.4241L24.1289 95.0258L25.8504 96.0437L33.8928 82.442L32.1713 81.4241ZM2.79713 88.7647L3.08703 88.0352L1.22842 87.2966L0.93851 88.0261L2.79713 88.7647ZM36.657 103.701C36.4631 109.334 36.4452 115.36 36.7219 121.537L38.7199 121.448C38.446 115.332 38.4634 109.359 38.6559 103.77L36.657 103.701ZM36.7229 121.429C36.0338 132.277 40.9338 141.554 47.8089 149.12C54.6805 156.681 63.5954 162.615 71.1405 166.821L72.1143 165.074C64.6575 160.917 55.9532 155.108 49.289 147.775C42.6283 140.445 38.076 131.676 38.7188 121.556L36.7229 121.429ZM10.4059 0.857779L6.88092 25.3024L8.86045 25.5879L12.3854 1.14323L10.4059 0.857779ZM12.2124 43.0581L30.4464 63.5722L31.9413 62.2435L13.7072 41.7294L12.2124 43.0581ZM9.09815 82.2034C22.6296 77.295 37.1592 89.115 36.657 103.701L38.6559 103.77C39.1998 87.9713 23.465 74.8644 8.41614 80.3233L9.09815 82.2034ZM6.88092 25.3024C5.95587 31.7174 7.90656 38.2138 12.2124 43.0581L13.7072 41.7294C9.79284 37.3255 8.01949 31.4196 8.86045 25.5879L6.88092 25.3024ZM8.41614 80.3233C5.1339 81.5139 2.51786 84.0519 1.22842 87.2966L3.08703 88.0352C4.1654 85.3217 6.3532 83.1992 9.09815 82.2034L8.41614 80.3233ZM24.1289 95.0258C18.0017 105.388 2.08403 100.473 2.86571 88.4604L0.869929 88.3305C-0.0484014 102.444 18.652 108.218 25.8504 96.0437L24.1289 95.0258ZM33.8928 82.442C37.7015 76.0006 36.9127 67.8365 31.9413 62.2435L30.4464 63.5722C34.8403 68.5155 35.5375 75.731 32.1713 81.4241L33.8928 82.442Z" fill="#002A50"/>
</svg>
