<svg width="391" height="280" viewBox="0 0 391 280" fill="none" xmlns="http://www.w3.org/2000/svg">
<path d="M451.329 252.536C455.811 214.171 450.385 175.298 435.569 139.627C420.753 103.955 397.042 72.6766 366.699 48.7759C336.356 24.8753 300.393 9.1504 262.244 3.10225C224.094 -2.9459 185.031 0.884535 148.783 14.2279C112.536 27.5713 80.3125 49.9824 55.1899 79.3219C30.0673 108.661 12.8836 143.95 5.27905 181.82C-2.32551 219.69 -0.0971549 258.877 11.7514 295.641C23.6 332.404 44.6733 365.518 72.96 391.82L75.7489 388.821C47.9748 362.995 27.2834 330.482 15.6495 294.384C4.01566 258.287 1.82769 219.81 9.29445 182.626C16.7612 145.443 33.6335 110.794 58.3008 81.9857C82.9681 53.1779 114.607 31.173 150.198 18.0714C185.789 4.96977 224.144 1.20875 261.602 7.1473C299.06 13.0858 334.371 28.5257 364.165 51.9933C393.958 75.4608 417.239 106.173 431.787 141.198C446.334 176.223 451.662 214.391 447.262 252.061L451.329 252.536Z" fill="#CBE6FF"/>
</svg>
