<svg width="362" height="242" viewBox="0 0 362 242" fill="none" xmlns="http://www.w3.org/2000/svg">
<path d="M374.398 210.228C378.116 178.399 373.614 146.148 361.323 116.553C349.031 86.9586 329.359 61.0083 304.185 41.1792C279.01 21.3501 249.174 8.30398 217.524 3.28616C185.873 -1.73167 153.465 1.44624 123.392 12.5165C93.3191 23.5868 66.5853 42.1801 45.7424 66.5215C24.8996 90.863 10.6432 120.14 4.3341 151.559C-1.97497 182.977 -0.126228 215.489 9.70389 245.989C19.534 276.49 37.0174 303.963 60.4854 325.784L62.7992 323.296C39.7565 301.87 22.5899 274.895 12.9379 244.947C3.28596 214.999 1.47071 183.077 7.66549 152.228C13.8602 121.379 27.8583 92.6318 48.3234 68.7315C68.7886 44.8312 95.0378 26.5749 124.566 15.7052C154.094 4.83554 185.915 1.71523 216.992 6.64212C248.069 11.569 277.364 24.3787 302.082 43.8484C326.8 63.3182 346.115 88.7982 358.185 117.856C370.254 146.915 374.674 178.581 371.023 209.834L374.398 210.228Z" fill="#CBE6FF"/>
</svg>
