<svg width="40" height="40" viewBox="0 0 40 40" fill="none" xmlns="http://www.w3.org/2000/svg">
<rect width="40" height="40" rx="20" fill="#002A50"/>
<g clip-path="url(#clip0_996_915)">
<path d="M20.8378 14.5507C21.8069 14.5507 22.5924 13.7651 22.5924 12.7961C22.5924 11.8271 21.8069 11.0415 20.8378 11.0415C19.8688 11.0415 19.0833 11.8271 19.0833 12.7961C19.0833 13.7651 19.8688 14.5507 20.8378 14.5507Z" stroke="white" stroke-width="1.25" stroke-linecap="round" stroke-linejoin="round"/>
<path d="M27.2016 20.9349C28.1706 20.9349 28.9562 20.1494 28.9562 19.1804C28.9562 18.2113 28.1706 17.4258 27.2016 17.4258C26.2326 17.4258 25.447 18.2113 25.447 19.1804C25.447 20.1494 26.2326 20.9349 27.2016 20.9349Z" stroke="white" stroke-width="1.25" stroke-linecap="round" stroke-linejoin="round"/>
<path d="M23.0949 28.9584C24.0639 28.9584 24.8495 28.1728 24.8495 27.2038C24.8495 26.2348 24.0639 25.4492 23.0949 25.4492C22.1259 25.4492 21.3403 26.2348 21.3403 27.2038C21.3403 28.1728 22.1259 28.9584 23.0949 28.9584Z" stroke="white" stroke-width="1.25" stroke-linecap="round" stroke-linejoin="round"/>
<path d="M14.1933 27.5326C15.1623 27.5326 15.9479 26.7471 15.9479 25.778C15.9479 24.809 15.1623 24.0234 14.1933 24.0234C13.2243 24.0234 12.4387 24.809 12.4387 25.778C12.4387 26.7471 13.2243 27.5326 14.1933 27.5326Z" stroke="white" stroke-width="1.25" stroke-linecap="round" stroke-linejoin="round"/>
<path d="M12.7983 18.6278C13.7673 18.6278 14.5529 17.8423 14.5529 16.8732C14.5529 15.9042 13.7673 15.1187 12.7983 15.1187C11.8293 15.1187 11.0437 15.9042 11.0437 16.8732C11.0437 17.8423 11.8293 18.6278 12.7983 18.6278Z" stroke="white" stroke-width="1.25" stroke-linecap="round" stroke-linejoin="round"/>
<path d="M20.0445 14.3614L15.0362 24.2389M25.6424 19.9856L15.7995 25.0714M22.8232 25.4706L21.1095 14.5298M14.037 18.1164L21.8562 25.9606M25.4687 18.9027L14.5178 17.2243M19.2457 13.6035L14.3628 16.0802M13.9066 24.0468L13.0662 18.6081M21.3399 26.9468L15.9078 26.1523M26.402 20.7423L23.8941 25.6414M22.0766 14.0389L25.9628 17.9377" stroke="white" stroke-width="1.25" stroke-linecap="round" stroke-linejoin="round"/>
</g>
<defs>
<clipPath id="clip0_996_915">
<rect width="20" height="20" fill="white" transform="translate(10 10)"/>
</clipPath>
</defs>
</svg>
