<svg width="24" height="24" viewBox="0 0 24 24" fill="none" xmlns="http://www.w3.org/2000/svg">
<path d="M14.5713 16.2857C14.7986 16.2857 15.0166 16.376 15.1774 16.5368C15.3381 16.6975 15.4284 16.9155 15.4284 17.1429C15.4284 17.3702 15.3381 17.5882 15.1774 17.7489C15.0166 17.9097 14.7986 18 14.5713 18H9.42843C9.2011 18 8.98309 17.9097 8.82234 17.7489C8.6616 17.5882 8.57129 17.3702 8.57129 17.1429C8.57129 16.9155 8.6616 16.6975 8.82234 16.5368C8.98309 16.376 9.2011 16.2857 9.42843 16.2857H14.5713ZM17.9999 11.1429C18.2272 11.1429 18.4452 11.2332 18.606 11.3939C18.7667 11.5547 18.857 11.7727 18.857 12C18.857 12.2273 18.7667 12.4453 18.606 12.6061C18.4452 12.7668 18.2272 12.8571 17.9999 12.8571H5.99986C5.77253 12.8571 5.55451 12.7668 5.39377 12.6061C5.23302 12.4453 5.14272 12.2273 5.14272 12C5.14272 11.7727 5.23302 11.5547 5.39377 11.3939C5.55451 11.2332 5.77253 11.1429 5.99986 11.1429H17.9999ZM20.5713 6C20.7986 6 21.0166 6.09031 21.1774 6.25105C21.3381 6.4118 21.4284 6.62981 21.4284 6.85714C21.4284 7.08447 21.3381 7.30249 21.1774 7.46323C21.0166 7.62398 20.7986 7.71429 20.5713 7.71429H3.42843C3.2011 7.71429 2.98309 7.62398 2.82234 7.46323C2.66159 7.30249 2.57129 7.08447 2.57129 6.85714C2.57129 6.62981 2.66159 6.4118 2.82234 6.25105C2.98309 6.09031 3.2011 6 3.42843 6H20.5713Z" fill="#909090"/>
</svg>
