<svg width="88" height="46" viewBox="0 0 88 46" fill="none" xmlns="http://www.w3.org/2000/svg">
<rect x="0.5" y="0.5" width="87" height="45" rx="7.5" fill="#FBFBFB"/>
<rect x="0.5" y="0.5" width="87" height="45" rx="7.5" stroke="#DDDDDD"/>
<path d="M15 17C15 16.4696 15.2107 15.9609 15.5858 15.5858C15.9609 15.2107 16.4696 15 17 15H19C19.5304 15 20.0391 15.2107 20.4142 15.5858C20.7893 15.9609 21 16.4696 21 17V19C21 19.5304 20.7893 20.0391 20.4142 20.4142C20.0391 20.7893 19.5304 21 19 21H17C16.4696 21 15.9609 20.7893 15.5858 20.4142C15.2107 20.0391 15 19.5304 15 19V17ZM25 17C25 16.4696 25.2107 15.9609 25.5858 15.5858C25.9609 15.2107 26.4696 15 27 15H29C29.5304 15 30.0391 15.2107 30.4142 15.5858C30.7893 15.9609 31 16.4696 31 17V19C31 19.5304 30.7893 20.0391 30.4142 20.4142C30.0391 20.7893 29.5304 21 29 21H27C26.4696 21 25.9609 20.7893 25.5858 20.4142C25.2107 20.0391 25 19.5304 25 19V17ZM15 27C15 26.4696 15.2107 25.9609 15.5858 25.5858C15.9609 25.2107 16.4696 25 17 25H19C19.5304 25 20.0391 25.2107 20.4142 25.5858C20.7893 25.9609 21 26.4696 21 27V29C21 29.5304 20.7893 30.0391 20.4142 30.4142C20.0391 30.7893 19.5304 31 19 31H17C16.4696 31 15.9609 30.7893 15.5858 30.4142C15.2107 30.0391 15 29.5304 15 29V27ZM25 27C25 26.4696 25.2107 25.9609 25.5858 25.5858C25.9609 25.2107 26.4696 25 27 25H29C29.5304 25 30.0391 25.2107 30.4142 25.5858C30.7893 25.9609 31 26.4696 31 27V29C31 29.5304 30.7893 30.0391 30.4142 30.4142C30.0391 30.7893 29.5304 31 29 31H27C26.4696 31 25.9609 30.7893 25.5858 30.4142C25.2107 30.0391 25 29.5304 25 29V27Z" stroke="#909090" stroke-width="1.5" stroke-linecap="round" stroke-linejoin="round"/>
<rect x="46" y="4" width="38" height="38" rx="7" fill="#002A50"/>
<path d="M57 19C57.5523 19 58 18.5523 58 18C58 17.4477 57.5523 17 57 17C56.4477 17 56 17.4477 56 18C56 18.5523 56.4477 19 57 19Z" fill="white"/>
<path d="M57 24C57.5523 24 58 23.5523 58 23C58 22.4477 57.5523 22 57 22C56.4477 22 56 22.4477 56 23C56 23.5523 56.4477 24 57 24Z" fill="white"/>
<path d="M57 29C57.5523 29 58 28.5523 58 28C58 27.4477 57.5523 27 57 27C56.4477 27 56 27.4477 56 28C56 28.5523 56.4477 29 57 29Z" fill="white"/>
<path d="M73.06 22H60.94C60.4209 22 60 22.4209 60 22.94V23.06C60 23.5791 60.4209 24 60.94 24H73.06C73.5791 24 74 23.5791 74 23.06V22.94C74 22.4209 73.5791 22 73.06 22Z" fill="white"/>
<path d="M73.06 27H60.94C60.4209 27 60 27.4209 60 27.94V28.06C60 28.5791 60.4209 29 60.94 29H73.06C73.5791 29 74 28.5791 74 28.06V27.94C74 27.4209 73.5791 27 73.06 27Z" fill="white"/>
<path d="M73.06 17H60.94C60.4209 17 60 17.4209 60 17.94V18.06C60 18.5791 60.4209 19 60.94 19H73.06C73.5791 19 74 18.5791 74 18.06V17.94C74 17.4209 73.5791 17 73.06 17Z" fill="white"/>
</svg>
