<svg width="20" height="21" viewBox="0 0 20 21" fill="none" xmlns="http://www.w3.org/2000/svg">
<path d="M7.5 18H5.83333C4.94928 18 4.10143 17.6488 3.47631 17.0237C2.85119 16.3986 2.5 15.5507 2.5 14.6667V9.42334C2.49999 8.85019 2.64776 8.28672 2.92906 7.78734C3.21035 7.28796 3.61566 6.86955 4.10583 6.57251L8.2725 4.04751C8.79343 3.73184 9.39089 3.56494 10 3.56494C10.6091 3.56494 11.2066 3.73184 11.7275 4.04751L15.8942 6.57251C16.3842 6.86947 16.7895 7.28775 17.0707 7.78697C17.352 8.2862 17.4999 8.8495 17.5 9.42251V14.6667C17.5 15.5507 17.1488 16.3986 16.5237 17.0237C15.8986 17.6488 15.0507 18 14.1667 18H12.5M7.5 18V14.6667C7.5 14.0036 7.76339 13.3678 8.23223 12.8989C8.70107 12.4301 9.33696 12.1667 10 12.1667C10.663 12.1667 11.2989 12.4301 11.7678 12.8989C12.2366 13.3678 12.5 14.0036 12.5 14.6667V18M7.5 18H12.5" stroke="#909090" stroke-width="1.25" stroke-linecap="round" stroke-linejoin="round"/>
</svg>
