<svg width="40" height="40" viewBox="0 0 40 40" fill="none" xmlns="http://www.w3.org/2000/svg">
<rect width="40" height="40" rx="20" fill="#002A50"/>
<path d="M14.1076 23.6489C12.5992 24.1014 11.6667 24.7264 11.6667 25.4168C11.6667 26.7977 15.3976 27.9168 20.0001 27.9168C24.6026 27.9168 28.3334 26.7977 28.3334 25.4168C28.3334 24.7264 27.4005 24.1014 25.8926 23.6489" stroke="white" stroke-width="1.25" stroke-linecap="round" stroke-linejoin="round"/>
<path d="M20.0002 24.5832C20.0002 24.5832 25.4168 21.0432 25.4168 16.9507C25.4168 14.0323 22.9918 11.6665 20.0002 11.6665C17.0085 11.6665 14.5835 14.0323 14.5835 16.9507C14.5835 21.0432 20.0002 24.5832 20.0002 24.5832Z" stroke="white" stroke-width="1.25" stroke-linejoin="round"/>
<path d="M20.0001 19.1667C20.5526 19.1667 21.0825 18.9472 21.4732 18.5565C21.8639 18.1658 22.0834 17.6359 22.0834 17.0833C22.0834 16.5308 21.8639 16.0009 21.4732 15.6102C21.0825 15.2195 20.5526 15 20.0001 15C19.4475 15 18.9176 15.2195 18.5269 15.6102C18.1362 16.0009 17.9167 16.5308 17.9167 17.0833C17.9167 17.6359 18.1362 18.1658 18.5269 18.5565C18.9176 18.9472 19.4475 19.1667 20.0001 19.1667Z" stroke="white" stroke-width="1.25" stroke-linejoin="round"/>
</svg>
