<svg width="80" height="48" viewBox="0 0 80 48" fill="none" xmlns="http://www.w3.org/2000/svg">
<path fill-rule="evenodd" clip-rule="evenodd" d="M40.0114 0L29.1674 9.20783L29.3481 8.98727L25.7856 6.07413L18.078 12.6188V11.1836L13.6913 11.1836V16.3436L1.90782 26.3492H5.8676L25.8171 9.74181L27.2893 10.8025L8.7778 26.521H13.956L40.0114 4.83061L66.0669 26.5211H71.2451L52.3623 10.4874L53.3972 9.74181L73.3467 26.3492H77.3064L53.4287 6.07413L50.2378 8.68338L40.0114 0ZM51.1038 9.41874L51.4849 9.74234L52.8628 8.74958V7.98035L51.1038 9.41874ZM28.1668 10.0575L28.5224 9.75555L26.3514 7.98035V8.74958L28.1668 10.0575ZM66.5963 25.0603L40.7425 3.53782V2.5379L67.267 25.0603H66.5963ZM39.2803 3.53782V2.5379L12.7558 25.0603H13.4266L39.2803 3.53782ZM18.078 14.105L17.9736 14.1735L4.94984 25.2322H5.46276L25.2333 8.77379V8.00915L18.078 14.0848V14.105ZM53.981 8.77379V8.00915L74.2644 25.2322H73.7515L53.981 8.77379Z" fill="#002A50"/>
<path d="M9.57283 46.9287H11.0029V34.6431H9.57283V39.8784H3.11243V34.6431H1.6824V46.9287H3.11243V41.1389H9.57283V46.9287Z" fill="#002A50"/>
<path fill-rule="evenodd" clip-rule="evenodd" d="M24.6892 43.3573C24.9303 42.5786 25.0509 41.7159 25.0509 40.7691C25.0509 39.4862 24.835 38.3742 24.4032 37.433C23.9769 36.4863 23.346 35.7524 22.5105 35.2314C21.6805 34.7104 20.657 34.4499 19.4401 34.4499C18.1671 34.4499 17.1072 34.7132 16.2604 35.2398C15.4192 35.7664 14.7911 36.5031 14.3761 37.4498C13.9611 38.3966 13.7536 39.4974 13.7536 40.7523C13.7536 41.6991 13.8686 42.5618 14.0985 43.3405C14.334 44.1192 14.6845 44.7887 15.15 45.3489C15.621 45.9091 16.2099 46.3405 16.9165 46.643C17.6287 46.9455 18.4615 47.0968 19.4148 47.0968C20.3402 47.0968 21.1533 46.9455 21.8543 46.643C22.5553 46.3405 23.1414 45.9119 23.6124 45.3573C24.0891 44.7971 24.448 44.1304 24.6892 43.3573ZM15.7052 43.475C15.4079 42.7131 15.2593 41.8111 15.2593 40.7691C15.2593 39.7215 15.4079 38.8224 15.7052 38.0717C16.008 37.3154 16.4679 36.7328 17.0847 36.3238C17.7016 35.9148 18.4867 35.7104 19.4401 35.7104C20.8477 35.7104 21.8824 36.1585 22.5441 37.0549C23.2115 37.9456 23.5451 39.1837 23.5451 40.7691C23.5451 41.8111 23.3993 42.7131 23.1077 43.475C22.8161 44.2369 22.3647 44.8251 21.7534 45.2397C21.1477 45.6542 20.3682 45.8615 19.4148 45.8615C18.4671 45.8615 17.6848 45.6542 17.0679 45.2397C16.4566 44.8251 16.0024 44.2369 15.7052 43.475Z" fill="#002A50"/>
<path d="M37.0968 42.5926V34.6431H35.6752V42.6094C35.6752 43.2537 35.5574 43.8223 35.3219 44.3153C35.092 44.8027 34.7359 45.1836 34.2536 45.4581C33.7769 45.727 33.1628 45.8615 32.4114 45.8615C31.3122 45.8615 30.485 45.5786 29.9298 45.0128C29.3802 44.447 29.1055 43.643 29.1055 42.601V34.6431H27.667V42.559C27.667 43.9372 28.0624 45.038 28.8531 45.8615C29.6494 46.685 30.8075 47.0968 32.3272 47.0968C33.3928 47.0968 34.2788 46.9035 34.9854 46.517C35.692 46.1248 36.2192 45.5898 36.5669 44.9119C36.9202 44.2341 37.0968 43.461 37.0968 42.5926Z" fill="#002A50"/>
<path d="M46.7538 45.5254C47.1183 45.01 47.3006 44.3881 47.3006 43.6598C47.3006 43.01 47.1688 42.475 46.9052 42.0548C46.6416 41.6291 46.2575 41.2705 45.7528 40.9792C45.248 40.6823 44.634 40.4022 43.9105 40.1389C43.2488 39.898 42.716 39.6683 42.3123 39.4498C41.9141 39.2257 41.6225 38.9708 41.4374 38.6851C41.258 38.3994 41.1682 38.0409 41.1682 37.6095C41.1682 37.2229 41.2636 36.8896 41.4542 36.6095C41.6449 36.3294 41.9197 36.1137 42.2786 35.9625C42.6431 35.8056 43.089 35.7272 43.6161 35.7272C44.1433 35.7272 44.6536 35.7888 45.1471 35.912C45.6462 36.0353 46.1173 36.1893 46.5603 36.3742L47.0061 35.1473C46.5407 34.9401 46.0276 34.7748 45.4668 34.6516C44.9116 34.5283 44.3059 34.4667 43.6498 34.4667C42.8815 34.4667 42.2001 34.5927 41.6057 34.8448C41.0168 35.0913 40.5542 35.4499 40.2177 35.9204C39.8868 36.3854 39.7214 36.9456 39.7214 37.6011C39.7214 38.0773 39.7887 38.5002 39.9233 38.87C40.0635 39.2397 40.2681 39.5647 40.5373 39.8448C40.8065 40.1249 41.1402 40.377 41.5384 40.6011C41.9365 40.8195 42.3964 41.0212 42.9179 41.2061C43.6582 41.4694 44.2414 41.7187 44.6676 41.954C45.0994 42.1837 45.4079 42.4414 45.5929 42.7271C45.778 43.0072 45.8705 43.3573 45.8705 43.7775C45.8705 44.2145 45.7584 44.5898 45.534 44.9035C45.3153 45.2116 44.9929 45.4497 44.5667 45.6178C44.1405 45.7803 43.6189 45.8615 43.002 45.8615C42.3403 45.8615 41.7066 45.7887 41.1009 45.643C40.4953 45.4918 39.9821 45.3293 39.5615 45.1556V46.5254C39.8251 46.6486 40.1308 46.7522 40.4784 46.8363C40.8261 46.9203 41.2075 46.9847 41.6225 47.0296C42.0375 47.0744 42.4777 47.0968 42.9432 47.0968C43.8236 47.0968 44.5891 46.9623 45.2396 46.6934C45.8902 46.4245 46.3949 46.0352 46.7538 45.5254Z" fill="#002A50"/>
<path d="M49.8157 34.6431V46.9287H51.2458V34.6431H49.8157Z" fill="#002A50"/>
<path d="M62.5935 46.9287H64.2423V34.6431H62.8964V41.7607C62.8964 42.1192 62.902 42.5086 62.9132 42.9288C62.93 43.3433 62.9468 43.7327 62.9637 44.0968C62.9805 44.4554 62.9945 44.7327 63.0057 44.9287H62.9468L56.2677 34.6431H54.6274V46.9287H55.9565V39.87C55.9565 39.461 55.9481 39.0605 55.9313 38.6683C55.92 38.2706 55.9032 37.898 55.8808 37.5507C55.8584 37.1977 55.8387 36.884 55.8219 36.6095H55.8892L62.5935 46.9287Z" fill="#002A50"/>
<path d="M75.5648 46.9287H77.2136V34.6431H75.8676V41.7607C75.8676 42.1192 75.8733 42.5086 75.8845 42.9288C75.9013 43.3433 75.9181 43.7327 75.9349 44.0968C75.9518 44.4554 75.9658 44.7327 75.977 44.9287H75.9181L69.239 34.6431H67.5987V46.9287H68.9278V39.87C68.9278 39.461 68.9194 39.0605 68.9025 38.6683C68.8913 38.2706 68.8745 37.898 68.8521 37.5507C68.8296 37.1977 68.81 36.884 68.7932 36.6095H68.8605L75.5648 46.9287Z" fill="#002A50"/>
<path d="M80 28.347H0V27.6166H80V28.347Z" fill="#002A50"/>
</svg>
