<svg width="69" height="53" viewBox="0 0 69 53" fill="none" xmlns="http://www.w3.org/2000/svg">
<path d="M23.094 22.7909L20.7456 20.1614C19.6448 18.9288 19.7085 17.0491 20.8925 15.8962C25.5329 11.3775 36.2116 1.00003 36.4105 1.00006C36.6104 1.00009 47.2296 11.4733 51.7679 15.9582C52.9123 17.0892 52.9911 18.9057 51.9549 20.1366L49.7202 22.7909M23.094 22.7909L25.2417 25.0139C26.5604 26.3789 26.3344 28.602 24.7681 29.6737V29.6737C23.7531 30.3682 22.419 30.3873 21.3829 29.7247V29.7247C19.7092 28.6541 19.4688 26.2989 20.8966 24.9173L23.094 22.7909ZM23.094 22.7909C23.094 22.7909 36.241 9.68363 36.4105 9.68363C36.5801 9.68363 49.7202 22.7909 49.7202 22.7909M49.7202 22.7909L51.7878 24.7149C53.1297 25.9636 53.0949 28.0994 51.7131 29.3038L51.6311 29.3752C50.6405 30.2387 49.2102 30.376 48.0734 29.7169V29.7169C46.2825 28.6785 46.0113 26.2015 47.5351 24.8002L49.7202 22.7909Z" stroke="black" stroke-width="1.85294"/>
<path d="M8.59775 42.6226C8.39575 42.6175 8.14324 42.615 7.84024 42.615C7.53723 42.61 7.20645 42.6049 6.8479 42.5999C6.49439 42.5948 6.12321 42.5923 5.73436 42.5923C5.35055 42.5872 4.97432 42.5847 4.60567 42.5847C4.23701 42.5797 3.88603 42.5797 3.55273 42.5847C3.21942 42.5898 2.92904 42.5973 2.68159 42.6074V44.8573C2.68159 45.2865 2.68664 45.6627 2.69674 45.9859C2.71189 46.3041 2.72704 46.5793 2.74219 46.8116C2.76239 47.0439 2.78511 47.2384 2.81037 47.3949C2.84067 47.5515 2.87097 47.6828 2.90127 47.7888V47.8191H1.08324V47.7888C1.11354 47.6828 1.14132 47.5515 1.16657 47.3949C1.19687 47.2384 1.22212 47.0439 1.24232 46.8116C1.26252 46.5793 1.27767 46.3041 1.28777 45.9859C1.29787 45.6627 1.30292 45.2865 1.30292 44.8573V39.9259C1.30292 39.4966 1.29787 39.1229 1.28777 38.8047C1.27767 38.4815 1.26252 38.2038 1.24232 37.9715C1.22212 37.7341 1.19687 37.5372 1.16657 37.3806C1.14132 37.2241 1.11354 37.0928 1.08324 36.9867V36.9564H2.90127V36.9867C2.87097 37.0928 2.84067 37.2241 2.81037 37.3806C2.78511 37.5372 2.76239 37.7341 2.74219 37.9715C2.72704 38.2038 2.71189 38.4815 2.69674 38.8047C2.68664 39.1229 2.68159 39.4966 2.68159 39.9259V41.8651C2.94419 41.8752 3.24215 41.8828 3.57545 41.8878C3.90876 41.8878 4.25721 41.8878 4.62082 41.8878C4.98442 41.8828 5.35308 41.8777 5.72678 41.8727C6.10554 41.8676 6.46914 41.8626 6.8176 41.8575C7.1711 41.8474 7.49936 41.8373 7.80236 41.8272C8.11042 41.8171 8.37555 41.807 8.59775 41.7969V39.9259C8.59775 39.4966 8.59017 39.1229 8.57502 38.8047C8.56492 38.4815 8.54977 38.2038 8.52957 37.9715C8.51442 37.7341 8.4917 37.5372 8.4614 37.3806C8.43615 37.2241 8.40837 37.0928 8.37807 36.9867V36.9564H10.1961V36.9867C10.1658 37.0928 10.1355 37.2241 10.1052 37.3806C10.0799 37.5372 10.0572 37.7341 10.037 37.9715C10.0168 38.2038 10.0017 38.4815 9.99157 38.8047C9.98147 39.1229 9.97642 39.4966 9.97642 39.9259V44.8573C9.97642 45.2865 9.98147 45.6627 9.99157 45.9859C10.0017 46.3041 10.0168 46.5793 10.037 46.8116C10.0572 47.0439 10.0799 47.2384 10.1052 47.3949C10.1355 47.5515 10.1658 47.6828 10.1961 47.7888V47.8191H8.37807V47.7888C8.40837 47.6828 8.43615 47.5515 8.4614 47.3949C8.4917 47.2384 8.51442 47.0439 8.52957 46.8116C8.54977 46.5793 8.56492 46.3041 8.57502 45.9859C8.59017 45.6627 8.59775 45.2865 8.59775 44.8573V42.6226ZM17.3243 36.7746C18.1676 36.7746 18.9453 36.9135 19.6574 37.1912C20.3745 37.4639 20.9932 37.8503 21.5133 38.3502C22.0335 38.8451 22.44 39.4411 22.7329 40.138C23.0258 40.8349 23.1723 41.605 23.1723 42.4484C23.1723 42.9281 23.1167 43.4003 23.0056 43.8649C22.8945 44.3295 22.7304 44.7689 22.5132 45.183C22.3011 45.5971 22.0385 45.9809 21.7254 46.3344C21.4123 46.6829 21.0538 46.9859 20.6497 47.2434C20.2508 47.4959 19.8089 47.6929 19.3241 47.8343C18.8393 47.9807 18.3166 48.054 17.7561 48.054C16.9127 48.054 16.1325 47.9201 15.4153 47.6525C14.7033 47.3798 14.0872 46.996 13.567 46.5011C13.0469 46.0061 12.6403 45.4128 12.3474 44.7209C12.0545 44.024 11.9081 43.2513 11.9081 42.4029C11.9081 41.9232 11.9636 41.451 12.0747 40.9864C12.1858 40.5218 12.3474 40.0799 12.5595 39.6607C12.7767 39.2416 13.0393 38.8578 13.3473 38.5093C13.6604 38.1558 14.0165 37.8503 14.4154 37.5927C14.8194 37.3352 15.2638 37.1357 15.7487 36.9943C16.2385 36.8478 16.7637 36.7746 17.3243 36.7746ZM17.7561 47.3722C18.3166 47.3722 18.8292 47.2712 19.2938 47.0692C19.7584 46.8672 20.1574 46.5743 20.4907 46.1905C20.829 45.8067 21.0916 45.3395 21.2785 44.7891C21.4653 44.2336 21.5588 43.6048 21.5588 42.9029C21.5588 42.1252 21.4679 41.4055 21.2861 40.744C21.1093 40.0774 20.8442 39.5017 20.4907 39.0168C20.1372 38.527 19.6953 38.1457 19.165 37.873C18.6398 37.5953 18.0262 37.4564 17.3243 37.4564C16.7637 37.4564 16.2511 37.5574 15.7865 37.7594C15.3219 37.9563 14.9204 38.2442 14.5821 38.6229C14.2488 39.0017 13.9887 39.4663 13.8018 40.0168C13.615 40.5672 13.5216 41.1934 13.5216 41.8954C13.5216 42.668 13.6099 43.3902 13.7867 44.0619C13.9635 44.7285 14.2286 45.3067 14.5821 45.7966C14.9356 46.2864 15.3775 46.6728 15.9077 46.9556C16.438 47.2333 17.0541 47.3722 17.7561 47.3722ZM32.6563 39.9259C32.6563 39.4966 32.6512 39.1229 32.6411 38.8047C32.631 38.4815 32.6159 38.2038 32.5957 37.9715C32.5755 37.7341 32.5528 37.5372 32.5275 37.3806C32.5023 37.2241 32.4745 37.0928 32.4442 36.9867V36.9564H33.7926V36.9867C33.7623 37.0928 33.732 37.2241 33.7017 37.3806C33.6764 37.5372 33.6537 37.7341 33.6335 37.9715C33.6183 38.2038 33.6032 38.4815 33.588 38.8047C33.5779 39.1229 33.5729 39.4966 33.5729 39.9259V44.0164C33.5729 44.7386 33.4694 45.3547 33.2623 45.8647C33.0552 46.3748 32.7674 46.794 32.3987 47.1222C32.0301 47.4454 31.5882 47.6802 31.0731 47.8267C30.558 47.9782 29.9949 48.054 29.3838 48.054C28.7728 48.054 28.2021 47.9832 27.6719 47.8418C27.1467 47.7004 26.6871 47.4732 26.2932 47.1601C25.9043 46.8419 25.5988 46.4329 25.3766 45.9329C25.1544 45.4279 25.0433 44.8143 25.0433 44.0922V39.9259C25.0433 39.4966 25.0383 39.1229 25.0282 38.8047C25.0181 38.4815 25.0029 38.2038 24.9827 37.9715C24.9625 37.7341 24.9373 37.5372 24.907 37.3806C24.8817 37.2241 24.8539 37.0928 24.8236 36.9867V36.9564H26.6417V36.9867C26.6114 37.0928 26.5811 37.2241 26.5508 37.3806C26.5255 37.5372 26.5028 37.7341 26.4826 37.9715C26.4624 38.2038 26.4472 38.4815 26.4371 38.8047C26.427 39.1229 26.422 39.4966 26.422 39.9259V44.1755C26.422 44.7765 26.5104 45.2739 26.6871 45.6678C26.8689 46.0566 27.1063 46.3672 27.3992 46.5995C27.6921 46.8268 28.0254 46.9859 28.3991 47.0768C28.7728 47.1677 29.1541 47.2131 29.5429 47.2131C29.9318 47.2131 30.3131 47.1677 30.6868 47.0768C31.0605 46.9859 31.3912 46.8268 31.6791 46.5995C31.972 46.3672 32.2068 46.0566 32.3836 45.6678C32.5654 45.2739 32.6563 44.7765 32.6563 44.1755V39.9259ZM40.4284 38.6835H40.2617C40.2213 38.5674 40.1557 38.4361 40.0648 38.2896C39.9789 38.1432 39.8627 38.0068 39.7163 37.8806C39.5749 37.7493 39.4007 37.6407 39.1936 37.5549C38.9916 37.469 38.7517 37.4261 38.474 37.4261C38.2265 37.4261 38.0068 37.4639 37.8149 37.5397C37.623 37.6155 37.4614 37.7215 37.3301 37.8579C37.2039 37.9942 37.1079 38.1558 37.0423 38.3427C36.9766 38.5295 36.9438 38.7366 36.9438 38.9638C36.9438 39.3274 37.0448 39.6759 37.2468 40.0092C37.4539 40.3374 37.7114 40.6632 38.0195 40.9864C38.3275 41.3096 38.6608 41.6328 39.0194 41.956C39.3779 42.2792 39.7112 42.615 40.0193 42.9635C40.3274 43.3119 40.5824 43.6781 40.7844 44.0619C40.9914 44.4406 41.095 44.8497 41.095 45.289C41.095 45.6173 41.0369 45.9481 40.9207 46.2814C40.8096 46.6096 40.6354 46.9051 40.3981 47.1677C40.1607 47.4303 39.8552 47.6449 39.4815 47.8115C39.1078 47.9731 38.6634 48.054 38.1482 48.054C37.8604 48.054 37.5852 48.0262 37.3226 47.9706C37.065 47.9201 36.8251 47.857 36.6029 47.7812C36.3858 47.7004 36.1888 47.6146 36.0121 47.5237C35.8404 47.4328 35.699 47.3495 35.5879 47.2737L35.7621 45.5996H35.9515C36.007 45.837 36.0979 46.0642 36.2242 46.2814C36.3504 46.4935 36.5045 46.6829 36.6863 46.8495C36.8731 47.0111 37.0852 47.1424 37.3226 47.2434C37.5599 47.3394 37.82 47.3873 38.1028 47.3873C38.3604 47.3873 38.5901 47.3495 38.7921 47.2737C38.9992 47.1929 39.1759 47.0843 39.3224 46.948C39.4688 46.8066 39.5799 46.6399 39.6557 46.448C39.7365 46.2561 39.7769 46.0465 39.7769 45.8193C39.7769 45.5011 39.7188 45.2082 39.6027 44.9406C39.4865 44.6679 39.3325 44.4103 39.1406 44.1679C38.9537 43.9255 38.7391 43.6907 38.4967 43.4634C38.2594 43.2362 38.0144 43.0089 37.7619 42.7817C37.5094 42.5494 37.262 42.312 37.0196 42.0696C36.7822 41.8272 36.5676 41.5697 36.3757 41.297C36.1888 41.0192 36.0373 40.7238 35.9212 40.4107C35.805 40.0925 35.7469 39.7441 35.7469 39.3653C35.7469 38.9663 35.8227 38.6078 35.9742 38.2896C36.1307 37.9664 36.3353 37.6912 36.5878 37.4639C36.8453 37.2367 37.1357 37.0625 37.4589 36.9413C37.7821 36.8201 38.1154 36.7595 38.4588 36.7595C38.7113 36.7595 38.9436 36.7797 39.1557 36.8201C39.3678 36.8605 39.5572 36.9084 39.7239 36.964C39.8956 37.0195 40.0446 37.0751 40.1708 37.1306C40.2971 37.1862 40.4006 37.2316 40.4814 37.267L40.4284 38.6835ZM43.0266 47.7888C43.0569 47.6828 43.0847 47.5515 43.1099 47.3949C43.1352 47.2384 43.1579 47.0439 43.1781 46.8116C43.1983 46.5793 43.2135 46.3041 43.2236 45.9859C43.2337 45.6627 43.2387 45.2865 43.2387 44.8573V39.9259C43.2387 39.4966 43.2337 39.1229 43.2236 38.8047C43.2135 38.4815 43.1983 38.2038 43.1781 37.9715C43.1579 37.7341 43.1352 37.5372 43.1099 37.3806C43.0847 37.2241 43.0569 37.0928 43.0266 36.9867V36.9564H44.8371V36.9867C44.8068 37.0928 44.7765 37.2241 44.7462 37.3806C44.7209 37.5372 44.6982 37.7341 44.678 37.9715C44.6628 38.2038 44.6477 38.4815 44.6325 38.8047C44.6224 39.1229 44.6174 39.4966 44.6174 39.9259V44.8573C44.6174 45.2865 44.6224 45.6627 44.6325 45.9859C44.6477 46.3041 44.6628 46.5793 44.678 46.8116C44.6982 47.0439 44.7209 47.2384 44.7462 47.3949C44.7765 47.5515 44.8068 47.6828 44.8371 47.7888V47.8191H43.0266V47.7888ZM47.5035 36.9564L55.3059 45.2587V39.9259C55.3059 39.4966 55.3008 39.1229 55.2907 38.8047C55.2806 38.4815 55.2655 38.2038 55.2453 37.9715C55.2251 37.7341 55.1998 37.5372 55.1695 37.3806C55.1443 37.2241 55.1165 37.0928 55.0862 36.9867V36.9564H56.4346V36.9867C56.4043 37.0928 56.3765 37.2241 56.3512 37.3806C56.326 37.5372 56.3033 37.7341 56.2831 37.9715C56.2629 38.2038 56.2477 38.4815 56.2376 38.8047C56.2275 39.1229 56.2225 39.4966 56.2225 39.9259V47.9706H55.9573L48.155 39.6759V44.8573C48.155 45.2865 48.16 45.6627 48.1701 45.9859C48.1802 46.3041 48.1954 46.5793 48.2156 46.8116C48.2358 47.0439 48.2585 47.2384 48.2837 47.3949C48.309 47.5515 48.3368 47.6828 48.3671 47.7888V47.8191H47.0187V47.7888C47.049 47.6828 47.0768 47.5515 47.102 47.3949C47.1323 47.2384 47.1576 47.0439 47.1778 46.8116C47.198 46.5793 47.2131 46.3041 47.2232 45.9859C47.2333 45.6627 47.2384 45.2865 47.2384 44.8573V39.9259C47.2384 39.4966 47.2333 39.1229 47.2232 38.8047C47.2131 38.4815 47.198 38.2038 47.1778 37.9715C47.1576 37.7341 47.1323 37.5372 47.102 37.3806C47.0768 37.2241 47.049 37.0928 47.0187 36.9867V36.9564H47.5035ZM58.9722 36.9564L66.7746 45.2587V39.9259C66.7746 39.4966 66.7695 39.1229 66.7594 38.8047C66.7493 38.4815 66.7342 38.2038 66.714 37.9715C66.6938 37.7341 66.6685 37.5372 66.6382 37.3806C66.613 37.2241 66.5852 37.0928 66.5549 36.9867V36.9564H67.9033V36.9867C67.873 37.0928 67.8452 37.2241 67.8199 37.3806C67.7947 37.5372 67.772 37.7341 67.7518 37.9715C67.7316 38.2038 67.7164 38.4815 67.7063 38.8047C67.6962 39.1229 67.6912 39.4966 67.6912 39.9259V47.9706H67.426L59.6237 39.6759V44.8573C59.6237 45.2865 59.6287 45.6627 59.6388 45.9859C59.6489 46.3041 59.6641 46.5793 59.6843 46.8116C59.7045 47.0439 59.7272 47.2384 59.7525 47.3949C59.7777 47.5515 59.8055 47.6828 59.8358 47.7888V47.8191H58.4874V47.7888C58.5177 47.6828 58.5455 47.5515 58.5707 47.3949C58.601 47.2384 58.6263 47.0439 58.6465 46.8116C58.6667 46.5793 58.6818 46.3041 58.6919 45.9859C58.702 45.6627 58.7071 45.2865 58.7071 44.8573V39.9259C58.7071 39.4966 58.702 39.1229 58.6919 38.8047C58.6818 38.4815 58.6667 38.2038 58.6465 37.9715C58.6263 37.7341 58.601 37.5372 58.5707 37.3806C58.5455 37.2241 58.5177 37.0928 58.4874 36.9867V36.9564H58.9722Z" fill="black"/>
</svg>
