<svg width="18" height="18" viewBox="0 0 18 18" fill="none" xmlns="http://www.w3.org/2000/svg">
<path d="M9 3.65625C9.46599 3.65625 9.84375 3.27849 9.84375 2.8125C9.84375 2.34651 9.46599 1.96875 9 1.96875C8.53401 1.96875 8.15625 2.34651 8.15625 2.8125C8.15625 3.27849 8.53401 3.65625 9 3.65625Z" stroke="#4E4E4E" stroke-width="1.6875" stroke-linecap="round" stroke-linejoin="round"/>
<path d="M9 9.84375C9.46599 9.84375 9.84375 9.46599 9.84375 9C9.84375 8.53401 9.46599 8.15625 9 8.15625C8.53401 8.15625 8.15625 8.53401 8.15625 9C8.15625 9.46599 8.53401 9.84375 9 9.84375Z" stroke="#4E4E4E" stroke-width="1.6875" stroke-linecap="round" stroke-linejoin="round"/>
<path d="M9 16.0312C9.46599 16.0312 9.84375 15.6535 9.84375 15.1875C9.84375 14.7215 9.46599 14.3438 9 14.3438C8.53401 14.3438 8.15625 14.7215 8.15625 15.1875C8.15625 15.6535 8.53401 16.0312 9 16.0312Z" stroke="#4E4E4E" stroke-width="1.6875" stroke-linecap="round" stroke-linejoin="round"/>
</svg>
