<svg width="40" height="40" viewBox="0 0 40 40" fill="none" xmlns="http://www.w3.org/2000/svg">
<rect width="40" height="40" rx="20" fill="#002A50"/>
<g clip-path="url(#clip0_996_945)">
<path d="M19.415 11.8293C19.7439 11.7063 20.1032 11.6902 20.4417 11.7835L20.585 11.8293L26.4183 14.0168C26.7141 14.1277 26.9723 14.3204 27.1627 14.5724C27.3532 14.8244 27.4682 15.1253 27.4942 15.4401L27.5 15.5776V20.0468C27.5 21.3972 27.1354 22.7225 26.4447 23.8828C25.754 25.0432 24.7628 25.9955 23.5758 26.6393L23.3542 26.7551L20.5592 28.1526C20.4053 28.2295 20.2372 28.2737 20.0654 28.2826C19.8936 28.2915 19.7218 28.2649 19.5608 28.2043L19.4408 28.1526L16.6458 26.7551C15.438 26.1512 14.4156 25.2324 13.6867 24.0957C12.9577 22.9589 12.5492 21.6465 12.5042 20.2968L12.5 20.0468V15.5776C12.5 15.2619 12.5897 14.9527 12.7586 14.686C12.9275 14.4192 13.1687 14.206 13.4542 14.071L13.5817 14.0168L19.415 11.8293ZM20 13.3901L14.1667 15.5776V20.0468C14.1667 21.0927 14.4479 22.1193 14.9808 23.0191C15.5137 23.919 16.2788 24.6591 17.1958 25.1618L17.3917 25.2643L20 26.5685L22.6083 25.2643C23.5439 24.7966 24.3366 24.0859 24.9032 23.2067C25.4699 22.3275 25.7897 21.3121 25.8292 20.2668L25.8333 20.0468V15.5776L20 13.3901ZM22.8608 17.191C23.0108 17.0415 23.212 16.9548 23.4237 16.9483C23.6353 16.9418 23.8414 17.0162 24.0002 17.1562C24.159 17.2962 24.2586 17.4914 24.2787 17.7022C24.2987 17.913 24.2378 18.1235 24.1083 18.291L24.0392 18.3693L19.6775 22.7318C19.5186 22.8907 19.3069 22.9856 19.0826 22.9987C18.8584 23.0118 18.6371 22.942 18.4608 22.8026L18.3808 22.7318L16.3775 20.7285C16.2265 20.5789 16.1383 20.3772 16.1311 20.1647C16.1239 19.9522 16.1982 19.745 16.3387 19.5855C16.4793 19.426 16.6755 19.3262 16.8872 19.3066C17.0989 19.2871 17.3101 19.3491 17.4775 19.4801L17.5558 19.5493L19.0292 21.0226L22.8608 17.191Z" fill="white"/>
</g>
<defs>
<clipPath id="clip0_996_945">
<rect width="20" height="20" fill="white" transform="translate(10 10)"/>
</clipPath>
</defs>
</svg>
