<svg width="48" height="48" viewBox="0 0 48 48" fill="none" xmlns="http://www.w3.org/2000/svg">
<rect width="48" height="48" rx="24" fill="#002A50"/>
<g clip-path="url(#clip0_996_961)">
<path d="M33.375 15.1503C33.1171 14.9835 32.8222 14.8826 32.5162 14.8564C32.2102 14.8303 31.9024 14.8797 31.62 15.0003L22.365 18.6453C22.1459 18.7345 21.9116 18.7804 21.675 18.7803H15.75C15.2527 18.7803 14.7758 18.9779 14.4242 19.3295C14.0725 19.6811 13.875 20.158 13.875 20.6553V20.8053H12V25.3053H13.875V25.5003C13.8867 25.9898 14.0895 26.4552 14.4398 26.7972C14.7902 27.1391 15.2604 27.3305 15.75 27.3303L18 32.1003C18.1524 32.4215 18.3922 32.6933 18.692 32.8843C18.9919 33.0753 19.3395 33.178 19.695 33.1803H20.64C21.1347 33.1764 21.6077 32.9771 21.9561 32.6259C22.3045 32.2747 22.5 31.8 22.5 31.3053V27.5103L31.62 31.1553C31.8443 31.2446 32.0836 31.2904 32.325 31.2903C32.6996 31.2843 33.0643 31.1697 33.375 30.9603C33.6217 30.7937 33.8252 30.5708 33.9687 30.31C34.1121 30.0491 34.1914 29.7579 34.2 29.4603V16.6953C34.1986 16.3901 34.1228 16.0898 33.979 15.8206C33.8352 15.5513 33.6279 15.3213 33.375 15.1503ZM20.625 20.6553V25.5003H15.75V20.6553H20.625ZM20.625 31.3053H19.68L17.835 27.3303H20.625V31.3053ZM23.055 25.7253C22.8769 25.6343 22.6912 25.559 22.5 25.5003V20.5503C22.6894 20.5113 22.875 20.4561 23.055 20.3853L32.325 16.6953V29.4153L23.055 25.7253ZM34.245 21.1803V24.9303C34.7423 24.9303 35.2192 24.7328 35.5708 24.3812C35.9225 24.0295 36.12 23.5526 36.12 23.0553C36.12 22.558 35.9225 22.0811 35.5708 21.7295C35.2192 21.3779 34.7423 21.1803 34.245 21.1803Z" fill="white"/>
</g>
<defs>
<clipPath id="clip0_996_961">
<rect width="24" height="24" fill="white" transform="translate(12 12)"/>
</clipPath>
</defs>
</svg>
