<svg width="20" height="21" viewBox="0 0 20 21" fill="none" xmlns="http://www.w3.org/2000/svg">
<path d="M12.5004 15.5V16.125C12.5004 16.788 12.237 17.4239 11.7682 17.8928C11.2994 18.3616 10.6635 18.625 10.0004 18.625C9.3374 18.625 8.70151 18.3616 8.23267 17.8928C7.76383 17.4239 7.50044 16.788 7.50044 16.125V15.5M16.7067 14.2277C15.7036 13 14.9954 12.375 14.9954 8.99023C14.9954 5.89063 13.4125 4.78633 12.1098 4.25C11.9368 4.17891 11.7739 4.01562 11.7211 3.83789C11.4926 3.06016 10.852 2.375 10.0004 2.375C9.14887 2.375 8.50786 3.06055 8.28169 3.83867C8.22895 4.01836 8.06606 4.17891 7.89302 4.25C6.58872 4.78711 5.00747 5.8875 5.00747 8.99023C5.00552 12.375 4.29731 13 3.29419 14.2277C2.87856 14.7363 3.24262 15.5 3.96958 15.5H16.0352C16.7582 15.5 17.12 14.734 16.7067 14.2277Z" stroke="#4E4E4E" stroke-width="1.25" stroke-linecap="round" stroke-linejoin="round"/>
</svg>
