<svg width="16" height="19" viewBox="0 0 16 19" fill="none" xmlns="http://www.w3.org/2000/svg">
<path d="M10.5004 14.5V15.125C10.5004 15.788 10.237 16.4239 9.7682 16.8928C9.29936 17.3616 8.66348 17.625 8.00044 17.625C7.3374 17.625 6.70151 17.3616 6.23267 16.8928C5.76383 16.4239 5.50044 15.788 5.50044 15.125V14.5M14.7067 13.2277C13.7036 12 12.9954 11.375 12.9954 7.99023C12.9954 4.89063 11.4125 3.78633 10.1098 3.25C9.93677 3.17891 9.77387 3.01562 9.72114 2.83789C9.49262 2.06016 8.852 1.375 8.00044 1.375C7.14887 1.375 6.50786 2.06055 6.28169 2.83867C6.22895 3.01836 6.06606 3.17891 5.89302 3.25C4.58872 3.78711 3.00747 4.8875 3.00747 7.99023C3.00552 11.375 2.29731 12 1.29419 13.2277C0.878562 13.7363 1.24262 14.5 1.96958 14.5H14.0352C14.7582 14.5 15.12 13.734 14.7067 13.2277Z" stroke="#4E4E4E" stroke-width="1.25" stroke-linecap="round" stroke-linejoin="round"/>
</svg>
