<svg width="18" height="18" viewBox="0 0 18 18" fill="none" xmlns="http://www.w3.org/2000/svg">
<path d="M2.25 9H3M3 9H15M3 9V10.5C3 11.3535 3.43725 12.936 5.05875 13.3807M15 9C15.1989 9 15.3897 8.92098 15.5303 8.78033C15.671 8.63968 15.75 8.44891 15.75 8.25V5.25C15.75 4.5 15.3 3 13.5 3C11.7 3 11.25 4.5 11.25 5.25M15 9V10.5C15 11.3535 14.5627 12.936 12.9412 13.3807M11.25 5.25H9.75M11.25 5.25H12.75M12.9412 13.3807C12.6343 13.4626 12.3177 13.5028 12 13.5H6C5.649 13.5 5.33625 13.4572 5.05875 13.3807M12.9412 13.3807L13.5 15M5.05875 13.3807L4.5 15" stroke="#909090" stroke-width="1.5" stroke-linecap="round" stroke-linejoin="round"/>
</svg>
