<svg width="18" height="18" viewBox="0 0 18 18" fill="none" xmlns="http://www.w3.org/2000/svg">
<path d="M5.25 9.375C5.69501 9.375 6.13002 9.24304 6.50003 8.99581C6.87004 8.74857 7.15843 8.39717 7.32873 7.98604C7.49903 7.5749 7.54358 7.1225 7.45677 6.68605C7.36995 6.24959 7.15566 5.84868 6.84099 5.53401C6.52632 5.21934 6.12541 5.00505 5.68895 4.91823C5.2525 4.83142 4.8001 4.87597 4.38896 5.04627C3.97783 5.21657 3.62643 5.50496 3.37919 5.87497C3.13196 6.24498 3 6.67999 3 7.125C3 7.72174 3.23705 8.29403 3.65901 8.71599C4.08097 9.13795 4.65326 9.375 5.25 9.375ZM5.25 6.375C5.39834 6.375 5.54334 6.41899 5.66668 6.5014C5.79001 6.58381 5.88614 6.70094 5.94291 6.83799C5.99968 6.97503 6.01453 7.12583 5.98559 7.27132C5.95665 7.4168 5.88522 7.55044 5.78033 7.65533C5.67544 7.76022 5.5418 7.83165 5.39632 7.86059C5.25083 7.88953 5.10003 7.87468 4.96299 7.81791C4.82594 7.76114 4.70881 7.66501 4.6264 7.54168C4.54399 7.41834 4.5 7.27334 4.5 7.125C4.5 6.92609 4.57902 6.73532 4.71967 6.59467C4.86032 6.45402 5.05109 6.375 5.25 6.375ZM15 4.875H9C8.80109 4.875 8.61032 4.95402 8.46967 5.09467C8.32902 5.23532 8.25 5.42609 8.25 5.625V10.125H2.25V4.125C2.25 3.92609 2.17098 3.73532 2.03033 3.59467C1.88968 3.45402 1.69891 3.375 1.5 3.375C1.30109 3.375 1.11032 3.45402 0.96967 3.59467C0.829018 3.73532 0.75 3.92609 0.75 4.125V13.875C0.75 14.0739 0.829018 14.2647 0.96967 14.4053C1.11032 14.546 1.30109 14.625 1.5 14.625C1.69891 14.625 1.88968 14.546 2.03033 14.4053C2.17098 14.2647 2.25 14.0739 2.25 13.875V11.625H15.75V13.875C15.75 14.0739 15.829 14.2647 15.9697 14.4053C16.1103 14.546 16.3011 14.625 16.5 14.625C16.6989 14.625 16.8897 14.546 17.0303 14.4053C17.171 14.2647 17.25 14.0739 17.25 13.875V7.125C17.25 6.52826 17.0129 5.95597 16.591 5.53401C16.169 5.11205 15.5967 4.875 15 4.875ZM15.75 10.125H9.75V6.375H15C15.1989 6.375 15.3897 6.45402 15.5303 6.59467C15.671 6.73532 15.75 6.92609 15.75 7.125V10.125Z" fill="#909090"/>
</svg>
