<svg width="18" height="18" viewBox="0 0 18 18" fill="none" xmlns="http://www.w3.org/2000/svg">
<g clip-path="url(#clip0_4068_618)">
<path d="M14.6672 0.857422H15.8541C16.1688 0.857422 16.4707 0.982461 16.6933 1.20503C16.9158 1.4276 17.0409 1.72947 17.0409 2.04424V3.23105M1.6123 3.23105V2.04424C1.6123 1.72947 1.73734 1.4276 1.95991 1.20503C2.18248 0.982461 2.48436 0.857422 2.79912 0.857422H3.98593M7.54637 0.857422H11.1068M17.0409 6.79149V10.3519M1.6123 6.79149V10.3519M14.6672 16.286H15.8541C16.1688 16.286 16.4707 16.161 16.6933 15.9384C16.9158 15.7158 17.0409 15.4139 17.0409 15.0992V13.9124M1.6123 13.9124V15.0992C1.6123 15.4139 1.73734 15.7158 1.95991 15.9384C2.18248 16.161 2.48436 16.286 2.79912 16.286H3.98593M7.54637 16.286H11.1068" stroke="#909090" stroke-width="1.48352" stroke-linecap="round" stroke-linejoin="round"/>
<path d="M11.7002 5.01123H6.95293C6.29747 5.01123 5.76611 5.54258 5.76611 6.19804V10.9453C5.76611 11.6008 6.29747 12.1321 6.95293 12.1321H11.7002C12.3556 12.1321 12.887 11.6008 12.887 10.9453V6.19804C12.887 5.54258 12.3556 5.01123 11.7002 5.01123Z" stroke="#909090" stroke-width="1.48352" stroke-linecap="round" stroke-linejoin="round"/>
</g>
<defs>
<clipPath id="clip0_4068_618">
<rect width="18" height="18" fill="white"/>
</clipPath>
</defs>
</svg>
