<svg width="24" height="24" viewBox="0 0 24 24" fill="none" xmlns="http://www.w3.org/2000/svg">
<rect width="24" height="24" rx="12" fill="white"/>
<path d="M17.0747 7.92531C16.7815 7.63196 16.4333 7.39925 16.0502 7.24049C15.667 7.08172 15.2563 7 14.8415 7C14.4268 7 14.0161 7.08172 13.6329 7.24049C13.2497 7.39925 12.9016 7.63196 12.6084 7.92531L11.9998 8.53383L11.3913 7.92531C10.7991 7.33304 9.99576 7.00031 9.15816 7.00031C8.32057 7.00031 7.51728 7.33304 6.92501 7.92531C6.33273 8.51758 6 9.32087 6 10.1585C6 10.9961 6.33273 11.7994 6.92501 12.3916L7.53353 13.0002L11.9998 17.4665L16.4662 13.0002L17.0747 12.3916C17.368 12.0984 17.6007 11.7503 17.7595 11.3671C17.9183 10.9839 18 10.5732 18 10.1585C18 9.74371 17.9183 9.33301 17.7595 8.94984C17.6007 8.56666 17.368 8.21853 17.0747 7.92531Z" stroke="#002A50" stroke-width="1.14815" stroke-linecap="round" stroke-linejoin="round"/>
</svg>
