<svg width="24" height="24" viewBox="0 0 24 24" fill="none" xmlns="http://www.w3.org/2000/svg">
<circle cx="12" cy="12" r="12" fill="#DDDDDD"/>
<g clip-path="url(#clip0_4068_460)">
<path d="M7.6665 10.4999V17.4999C7.6665 17.5919 7.74117 17.6666 7.83317 17.6666H16.1665C16.2107 17.6666 16.2531 17.649 16.2844 17.6177C16.3156 17.5865 16.3332 17.5441 16.3332 17.4999V10.4999C16.3332 10.4557 16.3156 10.4133 16.2844 10.382C16.2531 10.3508 16.2107 10.3332 16.1665 10.3332H14.4998C14.3672 10.3332 14.2401 10.2805 14.1463 10.1868C14.0525 10.093 13.9998 9.96583 13.9998 9.83322C13.9998 9.70061 14.0525 9.57343 14.1463 9.47967C14.2401 9.3859 14.3672 9.33322 14.4998 9.33322H16.1665C16.8105 9.33322 17.3332 9.85589 17.3332 10.4999V17.4999C17.3332 17.8093 17.2103 18.1061 16.9915 18.3248C16.7727 18.5436 16.4759 18.6666 16.1665 18.6666H7.83317C7.52375 18.6666 7.22701 18.5436 7.00821 18.3248C6.78942 18.1061 6.6665 17.8093 6.6665 17.4999V10.4999C6.6665 9.85589 7.18917 9.33322 7.83317 9.33322H9.49984C9.63245 9.33322 9.75962 9.3859 9.85339 9.47967C9.94716 9.57343 9.99984 9.70061 9.99984 9.83322C9.99984 9.96583 9.94716 10.093 9.85339 10.1868C9.75962 10.2805 9.63245 10.3332 9.49984 10.3332H7.83317C7.78897 10.3332 7.74658 10.3508 7.71532 10.382C7.68406 10.4133 7.6665 10.4557 7.6665 10.4999ZM12.3532 4.81322L14.5198 6.97989C14.5857 7.041 14.6338 7.11874 14.6591 7.2049C14.6845 7.29107 14.6861 7.38247 14.6638 7.46949C14.6416 7.55651 14.5963 7.63591 14.5327 7.69934C14.4691 7.76276 14.3896 7.80786 14.3025 7.82989C14.2156 7.85216 14.1243 7.85061 14.0382 7.82539C13.9521 7.80016 13.8743 7.75221 13.8132 7.68655L12.4998 6.37322V13.4999C12.4998 13.6325 12.4472 13.7597 12.3534 13.8534C12.2596 13.9472 12.1324 13.9999 11.9998 13.9999C11.8672 13.9999 11.7401 13.9472 11.6463 13.8534C11.5525 13.7597 11.4998 13.6325 11.4998 13.4999V6.37322L10.1865 7.68655C10.0917 7.77483 9.9663 7.82289 9.83675 7.82066C9.70721 7.81842 9.58357 7.76605 9.49184 7.67455C9.40034 7.58282 9.34797 7.45918 9.34573 7.32964C9.3435 7.20009 9.39157 7.07473 9.47984 6.97989L11.6465 4.81322C11.7403 4.71959 11.8673 4.66699 11.9998 4.66699C12.1323 4.66699 12.2594 4.71959 12.3532 4.81322Z" fill="white"/>
</g>
<defs>
<clipPath id="clip0_4068_460">
<rect width="16" height="16" fill="white" transform="translate(4 4)"/>
</clipPath>
</defs>
</svg>
