<svg width="48" height="48" viewBox="0 0 48 48" fill="none" xmlns="http://www.w3.org/2000/svg">
<g filter="url(#filter0_i_1097_901)">
<g clip-path="url(#clip0_1097_901)">
<rect width="48" height="48" rx="24" fill="white"/>
<g filter="url(#filter1_bf_1097_901)">
<circle cx="24" cy="24" r="12" fill="#0D66B7" fill-opacity="0.3"/>
</g>
<path d="M10.9999 19H36.9999M10.2137 19.7631L23.198 36.6044C23.2924 36.7274 23.4138 36.827 23.5529 36.8956C23.6919 36.9642 23.8449 36.9999 23.9999 36.9999C24.155 36.9999 24.3079 36.9642 24.447 36.8956C24.586 36.827 24.7074 36.7274 24.8018 36.6044L37.7862 19.7631C37.9138 19.5969 37.9879 19.3958 37.9985 19.1864C38.0091 18.9771 37.9557 18.7695 37.8455 18.5913L33.4412 11.4819C33.3505 11.3347 33.2237 11.2132 33.0729 11.1289C32.922 11.0446 32.7521 11.0002 32.5793 11H15.4205C15.2477 11.0002 15.0778 11.0446 14.927 11.1289C14.7761 11.2132 14.6493 11.3347 14.5587 11.4819L10.1543 18.5913C10.0441 18.7695 9.99072 18.9771 10.0013 19.1864C10.0119 19.3958 10.086 19.5969 10.2137 19.7631Z" stroke="#002A50" stroke-width="2" stroke-linecap="round" stroke-linejoin="round"/>
<path d="M33 12L30 19M30 19L24 11L18 19M30 19L24 36L18 19M15 12L18 19" stroke="#002A50" stroke-width="2" stroke-linecap="round" stroke-linejoin="round"/>
</g>
<rect x="0.75" y="0.75" width="46.5" height="46.5" rx="23.25" stroke="url(#paint0_linear_1097_901)" stroke-width="1.5"/>
</g>
<defs>
<filter id="filter0_i_1097_901" x="0" y="0" width="48" height="54" filterUnits="userSpaceOnUse" color-interpolation-filters="sRGB">
<feFlood flood-opacity="0" result="BackgroundImageFix"/>
<feBlend mode="normal" in="SourceGraphic" in2="BackgroundImageFix" result="shape"/>
<feColorMatrix in="SourceAlpha" type="matrix" values="0 0 0 0 0 0 0 0 0 0 0 0 0 0 0 0 0 0 127 0" result="hardAlpha"/>
<feOffset dy="6"/>
<feGaussianBlur stdDeviation="3"/>
<feComposite in2="hardAlpha" operator="arithmetic" k2="-1" k3="1"/>
<feColorMatrix type="matrix" values="0 0 0 0 0.796078 0 0 0 0 0.901961 0 0 0 0 1 0 0 0 0.68 0"/>
<feBlend mode="normal" in2="shape" result="effect1_innerShadow_1097_901"/>
</filter>
<filter id="filter1_bf_1097_901" x="-18" y="-18" width="84" height="84" filterUnits="userSpaceOnUse" color-interpolation-filters="sRGB">
<feFlood flood-opacity="0" result="BackgroundImageFix"/>
<feGaussianBlur in="BackgroundImageFix" stdDeviation="15"/>
<feComposite in2="SourceAlpha" operator="in" result="effect1_backgroundBlur_1097_901"/>
<feBlend mode="normal" in="SourceGraphic" in2="effect1_backgroundBlur_1097_901" result="shape"/>
<feGaussianBlur stdDeviation="11.55" result="effect2_foregroundBlur_1097_901"/>
</filter>
<linearGradient id="paint0_linear_1097_901" x1="24" y1="-33" x2="24" y2="48" gradientUnits="userSpaceOnUse">
<stop stop-color="#CAE3F9"/>
<stop offset="1" stop-color="#D3EAFF" stop-opacity="0"/>
</linearGradient>
<clipPath id="clip0_1097_901">
<rect width="48" height="48" rx="24" fill="white"/>
</clipPath>
</defs>
</svg>
