<svg width="137" height="137" viewBox="0 0 137 137" fill="none" xmlns="http://www.w3.org/2000/svg">
<g clip-path="url(#clip0_861_9551)">
<rect width="137" height="137" rx="68.5" fill="white"/>
<path d="M94.1875 51.375C94.1875 58.1877 91.4811 64.7215 86.6638 69.5388C81.8465 74.3561 75.3127 77.0625 68.5 77.0625C61.6873 77.0625 55.1535 74.3561 50.3362 69.5388C45.5189 64.7215 42.8125 58.1877 42.8125 51.375C42.8125 44.5623 45.5189 38.0285 50.3362 33.2112C55.1535 28.3939 61.6873 25.6875 68.5 25.6875C75.3127 25.6875 81.8465 28.3939 86.6638 33.2112C91.4811 38.0285 94.1875 44.5623 94.1875 51.375Z" fill="#909090"/>
<path fill-rule="evenodd" clip-rule="evenodd" d="M0 68.5C0 50.3327 7.21694 32.9094 20.0632 20.0632C32.9094 7.21694 50.3327 0 68.5 0C86.6673 0 104.091 7.21694 116.937 20.0632C129.783 32.9094 137 50.3327 137 68.5C137 86.6673 129.783 104.091 116.937 116.937C104.091 129.783 86.6673 137 68.5 137C50.3327 137 32.9094 129.783 20.0632 116.937C7.21694 104.091 0 86.6673 0 68.5ZM68.5 8.5625C57.2127 8.5631 46.155 11.7509 36.5996 17.7589C27.0441 23.7669 19.3794 32.3509 14.4874 42.523C9.59553 52.6951 7.67531 64.0418 8.9478 75.2572C10.2203 86.4725 14.6338 97.1005 21.6803 105.918C27.7596 96.1226 41.1428 85.625 68.5 85.625C95.8572 85.625 109.232 96.1141 115.32 105.918C122.366 97.1005 126.78 86.4725 128.052 75.2572C129.325 64.0418 127.404 52.6951 122.513 42.523C117.621 32.3509 109.956 23.7669 100.4 17.7589C90.845 11.7509 79.7873 8.5631 68.5 8.5625Z" fill="#909090"/>
</g>
<rect x="0.5" y="0.5" width="136" height="136" rx="68" stroke="#DDDDDD"/>
<defs>
<clipPath id="clip0_861_9551">
<rect width="137" height="137" rx="68.5" fill="white"/>
</clipPath>
</defs>
</svg>
