<svg width="400" height="400" viewBox="0 0 400 400" fill="none" xmlns="http://www.w3.org/2000/svg">
<rect width="400" height="400" rx="200" fill="white"/>
<path d="M327.815 137.72H220.43C220.375 137.719 220.322 137.704 220.275 137.677C220.229 137.649 220.19 137.61 220.164 137.562C220.137 137.516 220.123 137.464 220.123 137.411C220.123 137.358 220.137 137.306 220.164 137.26C220.297 137.042 223.441 131.853 227.215 130.777C229.139 130.226 231.219 131.478 233.227 132.682C235.235 133.885 237.019 134.992 238.228 134.006C238.833 133.516 239.499 132.863 240.194 132.192C242.547 129.863 245.474 126.966 250.028 126.555C252.997 126.277 255.005 127.589 256.771 128.745C258.537 129.9 259.795 130.74 261.543 129.767C262.426 129.259 263.285 127.843 264.373 126.053C267.47 120.943 272.653 112.397 286.593 114.387C303.727 116.806 307.918 128.436 308.468 130.25C309.447 130.143 310.401 129.876 311.293 129.458C313.222 128.684 315.405 127.807 318.937 129.216C324.253 131.345 327.918 137.03 328.069 137.272C328.098 137.318 328.113 137.372 328.113 137.426C328.113 137.481 328.098 137.534 328.069 137.58C328.042 137.623 328.004 137.657 327.96 137.682C327.915 137.706 327.866 137.719 327.815 137.72ZM220.98 137.115H327.241C326.243 135.706 323.007 131.472 318.707 129.761C315.405 128.442 313.428 129.234 311.516 130.002C310.491 130.494 309.38 130.779 308.244 130.843C308.176 130.843 308.109 130.82 308.055 130.777C308.001 130.734 307.963 130.674 307.948 130.607C307.948 130.48 304.592 117.55 286.509 114.968C272.955 113.032 268.105 121.015 264.887 126.344C263.756 128.212 262.861 129.688 261.864 130.275C259.831 131.436 258.192 130.365 256.463 129.234C254.733 128.103 252.882 126.882 250.106 127.136C245.77 127.529 242.928 130.341 240.648 132.579C239.934 133.28 239.263 133.946 238.628 134.454C237.098 135.663 235.084 134.454 232.943 133.178C231.044 132.035 229.078 130.855 227.415 131.363C224.476 132.192 221.845 135.821 220.98 137.115Z" fill="#263238"/>
<path d="M143.99 175.512H67.0194C66.9658 175.512 66.9133 175.498 66.8667 175.471C66.8201 175.445 66.7811 175.407 66.7533 175.361C66.7268 175.314 66.7129 175.261 66.7129 175.207C66.7129 175.153 66.7268 175.1 66.7533 175.053C66.8501 174.895 69.118 171.152 71.8577 170.372C73.2729 169.966 74.7788 170.868 76.2363 171.745C77.6939 172.621 78.9034 173.353 79.7139 172.7C80.1493 172.349 80.621 171.884 81.123 171.394C82.8164 169.712 84.9271 167.626 88.2171 167.324C90.3823 167.13 91.8942 168.116 93.1099 168.908C94.3255 169.7 95.2568 170.317 96.4362 169.64C97.041 169.289 97.6941 168.231 98.438 167.009C100.67 163.326 104.401 157.169 114.453 158.609C126.591 160.338 129.705 168.467 130.177 169.972C130.845 169.887 131.496 169.699 132.106 169.416C133.503 168.854 135.088 168.207 137.646 169.241C141.487 170.777 144.123 174.877 144.238 175.047C144.265 175.094 144.279 175.147 144.279 175.201C144.279 175.255 144.265 175.308 144.238 175.355C144.214 175.401 144.179 175.439 144.135 175.467C144.092 175.494 144.042 175.51 143.99 175.512ZM67.5758 174.908H143.416C142.605 173.795 140.35 170.97 137.435 169.803C135.1 168.866 133.697 169.434 132.342 169.972C131.598 170.33 130.79 170.535 129.965 170.577C129.897 170.578 129.831 170.556 129.777 170.514C129.724 170.472 129.685 170.414 129.669 170.347C129.669 170.251 127.25 161.04 114.374 159.201C104.698 157.816 101.25 163.532 98.9581 167.317C98.1417 168.666 97.4945 169.737 96.7446 170.16C95.2447 171.019 94.0473 170.239 92.7833 169.41C91.5193 168.581 90.2371 167.741 88.2776 167.922C85.2053 168.2 83.1793 170.208 81.5524 171.817C81.0444 172.319 80.5606 172.797 80.1009 173.166C78.9579 174.079 77.4882 173.166 75.9279 172.259C74.5853 171.448 73.1943 170.614 72.0331 170.946C70.0615 171.484 68.2834 173.867 67.5758 174.908Z" fill="#263238"/>
<path d="M173.461 93.5699H124.691C124.638 93.5713 124.584 93.5579 124.537 93.5313C124.491 93.5046 124.452 93.4657 124.425 93.4187C124.397 93.3734 124.382 93.321 124.382 93.2675C124.382 93.214 124.397 93.1616 124.425 93.1163C124.486 93.0135 125.949 90.6004 127.721 90.0923C128.665 89.8262 129.681 90.4371 130.582 90.9814C131.483 91.5257 132.209 91.9551 132.663 91.5862C132.971 91.3276 133.266 91.053 133.546 90.7637C134.634 89.6871 135.965 88.3445 138.112 88.157C139.257 88.1023 140.383 88.4655 141.281 89.1791C142.133 89.7416 142.611 90.0137 143.271 89.6388C143.776 89.1782 144.187 88.6236 144.48 88.0058C145.907 85.6532 148.296 81.7161 154.761 82.6353C162.297 83.7119 164.396 88.6832 164.789 89.8262C165.169 89.763 165.539 89.6491 165.889 89.4876C166.444 89.207 167.053 89.0518 167.674 89.033C168.294 89.0142 168.912 89.1322 169.482 89.3787C171.949 90.3645 173.643 93.0074 173.715 93.0981C173.745 93.1438 173.761 93.1965 173.763 93.2507C173.765 93.3049 173.752 93.3586 173.726 93.4062C173.7 93.4538 173.662 93.4936 173.615 93.5213C173.569 93.549 173.516 93.5637 173.461 93.5638V93.5699ZM125.254 92.9651H172.911C171.977 91.6657 170.729 90.6251 169.282 89.9411C168.784 89.7221 168.242 89.6181 167.697 89.6369C167.153 89.6558 166.62 89.797 166.137 90.05C165.652 90.2816 165.126 90.4152 164.589 90.4431C164.522 90.4435 164.456 90.4209 164.404 90.3791C164.351 90.3374 164.314 90.2789 164.299 90.2133C164.238 89.9714 162.787 84.3892 154.695 83.2341C148.647 82.3632 146.476 85.9496 145.018 88.3203C144.675 89.0237 144.182 89.6431 143.573 90.1347C142.563 90.7395 141.759 90.171 140.948 89.6569C140.165 89.0182 139.175 88.6889 138.166 88.7316C136.255 88.9009 134.991 90.1589 133.969 91.1507C133.642 91.4713 133.364 91.7555 133.044 92.0156C132.257 92.6203 131.229 92.0156 130.274 91.4471C129.439 90.9511 128.58 90.431 127.891 90.6306C126.778 90.9935 125.738 92.2696 125.254 92.9651Z" fill="#263238"/>
<path d="M233.662 102.829C230.852 102.831 228.104 101.998 225.767 100.438C223.43 98.8771 221.608 96.6584 220.532 94.0623C219.456 91.4661 219.174 88.6092 219.722 85.8529C220.27 83.0965 221.624 80.5646 223.611 78.5775C225.598 76.5903 228.13 75.2372 230.886 74.6892C233.642 74.1412 236.499 74.4231 239.095 75.4991C241.692 76.5751 243.91 78.3969 245.471 80.734C247.031 83.0712 247.864 85.8187 247.863 88.629C247.858 92.3937 246.36 96.0028 243.698 98.6648C241.036 101.327 237.427 102.825 233.662 102.829ZM233.662 75.0092C230.972 75.008 228.341 75.8047 226.104 77.2985C223.866 78.7924 222.122 80.9162 221.092 83.4015C220.061 85.8868 219.791 88.6218 220.315 91.2607C220.839 93.8995 222.134 96.3237 224.036 98.2265C225.938 100.129 228.362 101.425 231 101.951C233.639 102.476 236.374 102.207 238.86 101.178C241.346 100.148 243.47 98.405 244.965 96.1681C246.46 93.9312 247.258 91.3012 247.258 88.6108C247.248 85.0091 245.812 81.5578 243.264 79.0122C240.716 76.4665 237.264 75.0337 233.662 75.0273V75.0092Z" fill="#263238"/>
<path d="M233.662 71.2595C233.582 71.2595 233.505 71.2277 233.448 71.171C233.392 71.1143 233.36 71.0373 233.36 70.9571V65.3024C233.36 65.2222 233.392 65.1453 233.448 65.0886C233.505 65.0319 233.582 65 233.662 65C233.742 65 233.819 65.0319 233.876 65.0886C233.933 65.1453 233.965 65.2222 233.965 65.3024V70.9571C233.965 71.0373 233.933 71.1143 233.876 71.171C233.819 71.2277 233.742 71.2595 233.662 71.2595Z" fill="#263238"/>
<path d="M233.662 113.22C233.582 113.22 233.505 113.188 233.448 113.131C233.392 113.074 233.36 112.997 233.36 112.917V107.244C233.36 107.164 233.392 107.087 233.448 107.03C233.505 106.974 233.582 106.942 233.662 106.942C233.742 106.942 233.819 106.974 233.876 107.03C233.933 107.087 233.965 107.164 233.965 107.244V112.893C233.968 112.935 233.963 112.977 233.949 113.016C233.935 113.056 233.914 113.092 233.885 113.123C233.857 113.153 233.822 113.178 233.784 113.194C233.745 113.211 233.704 113.22 233.662 113.22Z" fill="#263238"/>
<path d="M246.49 76.5756C246.408 76.5754 246.33 76.5428 246.272 76.4849C246.216 76.4274 246.185 76.3504 246.185 76.2702C246.185 76.1901 246.216 76.1131 246.272 76.0555L250.276 72.0579C250.332 72.0025 250.408 71.9714 250.487 71.9714C250.567 71.9714 250.643 72.0025 250.699 72.0579C250.727 72.086 250.75 72.1194 250.765 72.1563C250.781 72.1931 250.789 72.2327 250.789 72.2726C250.789 72.3125 250.781 72.352 250.765 72.3889C250.75 72.4257 250.727 72.4592 250.699 72.4873L246.695 76.4849C246.641 76.541 246.568 76.5736 246.49 76.5756Z" fill="#263238"/>
<path d="M216.831 106.228C216.751 106.227 216.675 106.194 216.619 106.137C216.591 106.11 216.567 106.078 216.552 106.041C216.536 106.005 216.528 105.965 216.528 105.926C216.528 105.886 216.536 105.847 216.552 105.81C216.567 105.774 216.591 105.741 216.619 105.714L220.617 101.729C220.645 101.7 220.679 101.678 220.716 101.662C220.752 101.647 220.792 101.639 220.832 101.639C220.872 101.639 220.911 101.647 220.948 101.662C220.985 101.678 221.018 101.7 221.047 101.729C221.102 101.785 221.133 101.861 221.133 101.94C221.133 102.019 221.102 102.095 221.047 102.152L217.061 106.137C217.031 106.168 216.995 106.191 216.956 106.207C216.916 106.222 216.874 106.23 216.831 106.228Z" fill="#263238"/>
<path d="M257.455 89.4031H251.8C251.72 89.4016 251.644 89.3692 251.588 89.3128C251.531 89.2565 251.499 89.1804 251.498 89.1007C251.498 89.0205 251.529 88.9436 251.586 88.8869C251.643 88.8302 251.72 88.7983 251.8 88.7983H257.455C257.535 88.7983 257.612 88.8302 257.669 88.8869C257.725 88.9436 257.757 89.0205 257.757 89.1007C257.757 89.1809 257.725 89.2578 257.669 89.3146C257.612 89.3713 257.535 89.4031 257.455 89.4031Z" fill="#263238"/>
<path d="M215.519 89.4031H209.864C209.784 89.4031 209.707 89.3713 209.65 89.3146C209.593 89.2578 209.562 89.1809 209.562 89.1007C209.562 89.0205 209.593 88.9436 209.65 88.8869C209.707 88.8302 209.784 88.7983 209.864 88.7983H215.519C215.599 88.7983 215.676 88.8302 215.732 88.8869C215.789 88.9436 215.821 89.0205 215.821 89.1007C215.821 89.1404 215.813 89.1798 215.798 89.2165C215.783 89.2531 215.761 89.2865 215.732 89.3146C215.704 89.3426 215.671 89.3649 215.634 89.3801C215.598 89.3953 215.558 89.4031 215.519 89.4031Z" fill="#263238"/>
<path d="M250.487 106.228C250.448 106.229 250.408 106.221 250.372 106.205C250.335 106.19 250.303 106.167 250.276 106.138L246.272 102.14C246.217 102.083 246.186 102.007 246.186 101.928C246.186 101.849 246.217 101.773 246.272 101.717C246.3 101.688 246.334 101.666 246.37 101.65C246.407 101.635 246.447 101.627 246.487 101.627C246.527 101.627 246.566 101.635 246.603 101.65C246.64 101.666 246.673 101.688 246.701 101.717L250.699 105.714C250.74 105.757 250.769 105.81 250.78 105.868C250.791 105.926 250.785 105.986 250.763 106.041C250.74 106.096 250.702 106.143 250.653 106.176C250.604 106.209 250.547 106.228 250.487 106.228Z" fill="#263238"/>
<path d="M220.829 76.5757C220.749 76.5745 220.673 76.5419 220.617 76.485L216.62 72.4873C216.591 72.4592 216.569 72.4258 216.554 72.3889C216.538 72.3521 216.53 72.3126 216.53 72.2726C216.53 72.2327 216.538 72.1932 216.554 72.1563C216.569 72.1195 216.591 72.086 216.62 72.0579C216.677 72.0021 216.754 71.9709 216.834 71.9709C216.915 71.9709 216.992 72.0021 217.049 72.0579L221.047 76.0556C221.103 76.1131 221.134 76.1901 221.134 76.2703C221.134 76.3504 221.103 76.4274 221.047 76.485C220.989 76.5429 220.911 76.5755 220.829 76.5757Z" fill="#263238"/>
<path d="M267.179 165.969C267.179 165.969 269.967 165.273 270.808 165.552C271.649 165.83 270.252 166.822 270.252 166.822C270.752 167.16 271.139 167.64 271.364 168.201C271.782 169.18 269.973 168.757 269.973 168.757C270.123 168.932 270.206 169.155 270.206 169.386C270.206 169.617 270.123 169.84 269.973 170.015C269.417 170.577 266.907 167.783 266.907 167.783C266.907 167.783 265.093 168.902 263.411 168.763C261.73 168.624 260.762 168.201 259.644 166.525C259.07 165.631 258.417 164.791 257.69 164.015L256.571 163.598L258.247 162.618C258.247 162.618 259.644 161.36 261.041 161.5C261.729 161.521 262.4 161.714 262.994 162.062C262.994 162.062 263.835 159.824 265.087 158.99C266.339 158.155 270.252 157.036 271.509 156.335C272.767 155.633 272.489 156.758 272.072 157.454C271.655 158.149 270.397 158.711 269.834 158.99C269.272 159.268 272.767 159.407 272.211 160.109C271.655 160.81 269.556 161.082 269.556 161.082C269.556 161.082 271.509 161.784 271.092 162.34C270.675 162.897 269 162.897 269 162.897C269 162.897 269.556 164.294 268.721 164.294H267.863C267.863 164.294 268.292 166.247 267.179 165.969Z" fill="#002A50"/>
<path d="M269.774 170.396C268.975 170.396 267.433 168.793 266.859 168.164C265.807 168.769 264.612 169.079 263.399 169.059C261.706 168.92 260.617 168.515 259.408 166.695C258.85 165.839 258.223 165.03 257.533 164.276L256.48 163.876C256.426 163.858 256.379 163.824 256.345 163.779C256.31 163.734 256.29 163.679 256.287 163.622C256.282 163.565 256.293 163.508 256.318 163.457C256.344 163.405 256.383 163.362 256.432 163.332L258.083 162.371C258.289 162.195 259.662 161.064 261.107 161.203C261.717 161.249 262.316 161.394 262.879 161.633C263.169 160.961 263.919 159.431 264.96 158.736C266.146 158.1 267.389 157.576 268.673 157.169C269.603 156.858 270.513 156.492 271.401 156.075C271.606 155.96 272.235 155.609 272.61 155.978C272.985 156.347 272.501 157.417 272.38 157.611C271.901 158.215 271.277 158.687 270.566 158.984L270.723 159.014C271.745 159.22 272.423 159.383 272.574 159.8C272.603 159.884 272.609 159.974 272.592 160.061C272.575 160.148 272.536 160.229 272.477 160.296C271.948 160.771 271.293 161.084 270.59 161.197C270.965 161.359 271.273 161.645 271.461 162.008C271.484 162.095 271.488 162.187 271.471 162.276C271.454 162.365 271.418 162.449 271.364 162.522C270.995 163.012 270.022 163.126 269.435 163.187C269.559 163.55 269.536 163.948 269.368 164.294C269.302 164.391 269.211 164.47 269.105 164.523C268.999 164.576 268.882 164.601 268.764 164.596H268.28C268.316 164.873 268.316 165.154 268.28 165.431C269.154 165.203 270.063 165.146 270.959 165.261C271.077 165.287 271.184 165.348 271.267 165.435C271.35 165.522 271.405 165.633 271.425 165.751C271.485 166.132 271.122 166.537 270.82 166.816C271.211 167.167 271.518 167.601 271.721 168.086C271.792 168.205 271.824 168.343 271.814 168.481C271.805 168.62 271.753 168.752 271.667 168.86C271.516 168.987 271.339 169.079 271.149 169.128C270.958 169.177 270.759 169.183 270.566 169.144C270.617 169.336 270.615 169.538 270.562 169.729C270.509 169.921 270.406 170.094 270.264 170.233C270.199 170.294 270.122 170.341 270.037 170.369C269.952 170.398 269.862 170.407 269.774 170.396ZM266.901 167.481C266.943 167.482 266.985 167.491 267.023 167.509C267.062 167.527 267.096 167.552 267.125 167.584C268.231 168.793 269.471 169.858 269.78 169.791C270.118 169.44 269.749 168.969 269.737 168.945C269.702 168.894 269.683 168.834 269.683 168.772C269.683 168.711 269.702 168.65 269.737 168.6C269.77 168.547 269.819 168.505 269.876 168.481C269.934 168.458 269.997 168.452 270.058 168.467C270.413 168.574 270.792 168.574 271.146 168.467C271.145 168.414 271.13 168.362 271.104 168.316C270.904 167.815 270.561 167.384 270.118 167.076C270.075 167.05 270.038 167.014 270.012 166.971C269.985 166.927 269.97 166.878 269.967 166.828C269.966 166.777 269.977 166.728 269.999 166.682C270.021 166.637 270.054 166.598 270.094 166.568C270.376 166.384 270.613 166.14 270.79 165.854H270.729C270.282 165.709 268.957 165.909 267.917 166.132C267.808 166.222 267.679 166.283 267.54 166.309C267.402 166.336 267.259 166.327 267.125 166.283C267.059 166.267 267 166.229 266.958 166.175C266.917 166.121 266.894 166.055 266.895 165.987C266.893 165.92 266.916 165.854 266.957 165.801C266.999 165.748 267.059 165.711 267.125 165.697C267.185 165.697 267.354 165.636 267.584 165.588C267.687 165.191 267.687 164.775 267.584 164.378C267.575 164.334 267.576 164.289 267.587 164.246C267.598 164.202 267.618 164.161 267.646 164.127C267.675 164.092 267.71 164.064 267.751 164.045C267.792 164.025 267.836 164.016 267.881 164.016H268.721C268.812 164.016 268.83 164.016 268.836 163.979C268.898 163.66 268.855 163.329 268.715 163.036C268.697 162.989 268.691 162.939 268.696 162.89C268.701 162.841 268.718 162.793 268.745 162.752C268.774 162.71 268.812 162.677 268.856 162.654C268.9 162.631 268.95 162.618 269 162.618C269.604 162.618 270.626 162.485 270.85 162.183C270.454 161.812 269.975 161.541 269.453 161.391C269.373 161.383 269.299 161.343 269.248 161.281C269.197 161.218 269.173 161.138 269.181 161.058C269.189 160.978 269.229 160.904 269.291 160.853C269.353 160.802 269.433 160.778 269.514 160.786C270.245 160.683 271.503 160.381 271.933 159.976C271.499 159.802 271.046 159.678 270.584 159.607C269.816 159.449 269.526 159.395 269.489 159.093C269.479 159.014 269.495 158.934 269.536 158.866C269.576 158.798 269.639 158.746 269.713 158.718L269.907 158.621C270.463 158.355 271.491 157.847 271.824 157.296C272.004 157.031 272.111 156.722 272.132 156.401C271.972 156.451 271.818 156.518 271.673 156.601C270.757 157.035 269.816 157.413 268.854 157.732C267.619 158.133 266.419 158.637 265.268 159.238C264.107 160.018 263.296 162.147 263.29 162.165C263.274 162.209 263.247 162.249 263.212 162.282C263.178 162.315 263.136 162.339 263.091 162.352C263.046 162.364 262.998 162.366 262.952 162.358C262.906 162.349 262.863 162.331 262.825 162.304C262.27 161.992 261.647 161.819 261.01 161.802C259.764 161.675 258.464 162.83 258.452 162.842C258.44 162.854 258.422 162.842 258.404 162.879L257.279 163.538L257.799 163.731C257.837 163.748 257.871 163.77 257.902 163.798C258.643 164.591 259.311 165.449 259.897 166.362C260.98 167.983 261.899 168.334 263.442 168.461C264.606 168.449 265.746 168.125 266.744 167.523C266.792 167.498 266.846 167.484 266.901 167.481Z" fill="#263238"/>
<path d="M262.988 162.062C262.988 162.062 261.875 159.824 262.432 158.433C262.988 157.042 268.153 153.408 268.014 154.805C267.927 155.264 267.746 155.7 267.481 156.085C267.217 156.47 266.875 156.796 266.478 157.042C266.478 157.042 268.576 156.341 268.576 156.903V157.46C268.576 157.46 266.199 158.016 265.081 158.996C264.221 159.897 263.514 160.933 262.988 162.062Z" fill="#263238"/>
<path d="M262.988 162.364C262.933 162.364 262.878 162.348 262.831 162.318C262.784 162.288 262.746 162.245 262.722 162.195C262.674 162.098 261.549 159.824 262.148 158.318C262.662 157.03 266.78 153.934 267.911 154.206C268.042 154.239 268.155 154.319 268.23 154.43C268.305 154.542 268.336 154.678 268.317 154.811C268.245 155.4 268.001 155.955 267.615 156.407C267.968 156.311 268.344 156.339 268.679 156.486C268.741 156.531 268.791 156.59 268.825 156.659C268.858 156.727 268.875 156.803 268.873 156.879V157.435C268.874 157.503 268.851 157.57 268.81 157.623C268.768 157.677 268.709 157.715 268.643 157.732C268.643 157.732 266.327 158.282 265.281 159.201C264.448 160.085 263.767 161.101 263.267 162.207C263.24 162.257 263.202 162.3 263.154 162.331C263.106 162.362 263.051 162.379 262.994 162.383L262.988 162.364ZM267.694 154.78C266.883 154.78 263.17 157.399 262.71 158.542C262.372 159.389 262.71 160.629 263.013 161.348C263.495 160.39 264.128 159.516 264.887 158.76C265.903 158.03 267.052 157.507 268.268 157.218V156.982C267.689 157.001 267.117 157.116 266.575 157.32C266.505 157.34 266.431 157.335 266.365 157.304C266.299 157.274 266.246 157.221 266.216 157.155C266.186 157.089 266.181 157.015 266.201 156.945C266.222 156.876 266.266 156.816 266.327 156.776C266.681 156.556 266.986 156.266 267.224 155.924C267.462 155.582 267.628 155.195 267.712 154.786L267.694 154.78Z" fill="#263238"/>
<path d="M259.722 163.568C259.953 163.568 260.14 163.381 260.14 163.15C260.14 162.92 259.953 162.733 259.722 162.733C259.492 162.733 259.305 162.92 259.305 163.15C259.305 163.381 259.492 163.568 259.722 163.568Z" fill="#263238"/>
<path d="M265.328 167.414C265.08 168.261 263.744 168.624 262.359 168.201C260.974 167.777 260.043 166.767 260.29 165.921C260.538 165.074 261.875 164.711 263.266 165.134C264.657 165.558 265.582 166.568 265.328 167.414Z" fill="white"/>
<path d="M263.502 168.521C263.093 168.522 262.685 168.463 262.293 168.346C261.64 168.167 261.048 167.814 260.581 167.324C260.369 167.155 260.212 166.927 260.131 166.669C260.049 166.411 260.046 166.134 260.123 165.874C260.2 165.614 260.352 165.383 260.561 165.21C260.77 165.038 261.025 164.931 261.295 164.905C261.956 164.764 262.643 164.791 263.291 164.983C263.94 165.176 264.53 165.527 265.008 166.005C265.22 166.174 265.377 166.403 265.458 166.662C265.54 166.921 265.542 167.198 265.465 167.458C265.387 167.718 265.234 167.949 265.024 168.121C264.815 168.293 264.558 168.399 264.288 168.425C264.031 168.49 263.767 168.523 263.502 168.521ZM262.117 165.11C261.872 165.109 261.628 165.139 261.391 165.201C261.18 165.235 260.981 165.323 260.813 165.456C260.646 165.59 260.516 165.764 260.436 165.963C260.392 166.173 260.405 166.39 260.473 166.593C260.541 166.796 260.662 166.977 260.823 167.118C261.263 167.556 261.805 167.878 262.401 168.055C262.996 168.232 263.626 168.26 264.234 168.134C264.445 168.103 264.645 168.015 264.812 167.881C264.978 167.748 265.107 167.572 265.183 167.372C265.229 167.162 265.217 166.944 265.15 166.74C265.083 166.536 264.963 166.353 264.802 166.211C264.367 165.768 263.823 165.446 263.224 165.28C262.865 165.172 262.492 165.115 262.117 165.11Z" fill="#263238"/>
<path d="M128.32 130.19C128.32 130.19 125.532 129.488 124.692 129.773C123.851 130.057 125.248 131.037 125.248 131.037C124.75 131.379 124.363 131.861 124.135 132.421C123.712 133.401 125.526 132.978 125.526 132.978C125.376 133.153 125.294 133.376 125.294 133.607C125.294 133.837 125.376 134.061 125.526 134.236C126.083 134.798 128.593 132.004 128.593 132.004C128.593 132.004 130.407 133.123 132.082 132.978C133.757 132.833 134.737 132.421 135.856 130.746C136.429 129.852 137.083 129.012 137.81 128.236L138.928 127.813L137.253 126.839C137.253 126.839 135.856 125.581 134.459 125.72C133.772 125.742 133.101 125.933 132.506 126.277C132.506 126.277 131.665 124.045 130.407 123.211C129.149 122.376 125.242 121.257 123.99 120.556C122.738 119.854 123.01 120.973 123.428 121.674C123.845 122.376 125.103 122.932 125.665 123.211C126.228 123.489 122.732 123.628 123.289 124.323C123.845 125.019 125.944 125.303 125.944 125.303C125.944 125.303 123.99 125.999 124.407 126.561C124.825 127.124 126.5 127.118 126.5 127.118C126.5 127.118 125.944 128.515 126.778 128.515H127.619C127.619 128.515 127.208 130.468 128.32 130.19Z" fill="#002A50"/>
<path d="M125.738 134.611C125.586 134.612 125.439 134.556 125.327 134.453C125.184 134.315 125.081 134.141 125.028 133.95C124.975 133.759 124.974 133.557 125.024 133.365C124.831 133.402 124.633 133.395 124.442 133.346C124.252 133.297 124.075 133.206 123.924 133.081C123.837 132.971 123.786 132.838 123.776 132.699C123.767 132.56 123.799 132.421 123.869 132.3C124.072 131.819 124.378 131.388 124.764 131.036C124.444 130.758 124.081 130.353 124.16 129.972C124.18 129.853 124.235 129.743 124.318 129.656C124.401 129.569 124.508 129.508 124.625 129.482C125.521 129.367 126.43 129.423 127.304 129.645C127.268 129.37 127.268 129.092 127.304 128.817H126.821C126.702 128.822 126.585 128.797 126.479 128.744C126.373 128.691 126.283 128.612 126.216 128.514C126.132 128.344 126.083 128.158 126.071 127.968C126.06 127.778 126.086 127.587 126.149 127.408C125.545 127.365 124.589 127.232 124.22 126.742C124.166 126.669 124.129 126.584 124.112 126.493C124.095 126.403 124.099 126.311 124.123 126.222C124.312 125.862 124.62 125.577 124.994 125.418C124.293 125.302 123.638 124.99 123.107 124.517C123.049 124.449 123.009 124.367 122.992 124.279C122.975 124.191 122.981 124.1 123.011 124.015C123.162 123.604 123.839 123.44 124.861 123.235L125.018 123.198C124.306 122.903 123.681 122.431 123.204 121.826C123.089 121.638 122.539 120.652 122.974 120.199C123.41 119.745 123.966 120.199 124.184 120.289C125.069 120.712 125.98 121.078 126.911 121.384C128.194 121.795 129.437 122.321 130.625 122.956C131.665 123.652 132.439 125.182 132.705 125.853C133.268 125.612 133.867 125.465 134.477 125.418C135.898 125.279 137.271 126.41 137.501 126.591L139.152 127.553C139.201 127.583 139.24 127.626 139.266 127.677C139.292 127.729 139.303 127.786 139.297 127.843C139.293 127.9 139.272 127.953 139.238 127.998C139.203 128.043 139.157 128.078 139.104 128.097L138.052 128.496C137.36 129.249 136.733 130.058 136.177 130.915C134.967 132.73 133.879 133.141 132.185 133.28C130.972 133.303 129.776 132.993 128.726 132.385C128.121 132.99 126.609 134.593 125.811 134.611H125.738ZM125.539 132.675C125.589 132.675 125.639 132.688 125.683 132.713C125.728 132.737 125.765 132.772 125.793 132.814C125.828 132.866 125.847 132.927 125.847 132.99C125.847 133.053 125.828 133.114 125.793 133.165C125.756 133.214 125.424 133.673 125.793 134.024C126.077 134.072 127.311 133.038 128.423 131.798C128.473 131.748 128.538 131.715 128.608 131.705C128.678 131.696 128.749 131.709 128.81 131.744C129.808 132.344 130.948 132.667 132.113 132.681C133.649 132.548 134.574 132.204 135.657 130.577C136.244 129.667 136.909 128.811 137.646 128.019C137.678 127.99 137.715 127.967 137.755 127.952L138.275 127.758L137.102 127.129L137.054 127.093C137.054 127.093 135.735 125.926 134.495 126.053C133.859 126.074 133.237 126.246 132.681 126.555C132.643 126.583 132.599 126.601 132.553 126.608C132.507 126.615 132.459 126.612 132.415 126.597C132.37 126.586 132.329 126.563 132.295 126.531C132.261 126.499 132.236 126.46 132.221 126.416C132.221 126.416 131.399 124.263 130.244 123.489C129.094 122.885 127.894 122.381 126.657 121.983C125.696 121.664 124.754 121.286 123.839 120.852C123.47 120.646 123.349 120.67 123.343 120.67C123.404 120.981 123.521 121.278 123.688 121.547C124.021 122.098 125.055 122.606 125.605 122.872L125.799 122.969C125.873 122.997 125.935 123.049 125.976 123.117C126.017 123.185 126.033 123.265 126.022 123.344C125.986 123.646 125.696 123.7 124.928 123.858C124.466 123.928 124.014 124.05 123.579 124.22C124.002 124.638 125.254 124.934 125.998 125.031C126.066 125.041 126.129 125.073 126.177 125.122C126.225 125.171 126.256 125.235 126.264 125.303C126.27 125.37 126.253 125.437 126.217 125.494C126.181 125.551 126.128 125.594 126.065 125.618C125.536 125.761 125.055 126.041 124.668 126.428C124.891 126.706 125.877 126.845 126.518 126.845C126.568 126.845 126.617 126.857 126.662 126.88C126.706 126.904 126.744 126.937 126.772 126.978C126.799 127.02 126.816 127.067 126.822 127.117C126.827 127.166 126.82 127.216 126.803 127.263C126.659 127.555 126.617 127.887 126.682 128.206C126.682 128.206 126.682 128.242 126.796 128.242H127.637C127.682 128.243 127.726 128.253 127.767 128.272C127.807 128.29 127.843 128.318 127.873 128.351C127.9 128.387 127.92 128.428 127.93 128.472C127.941 128.515 127.942 128.561 127.933 128.605C127.831 129.002 127.831 129.418 127.933 129.815L128.393 129.924C128.459 129.94 128.518 129.978 128.56 130.032C128.601 130.086 128.624 130.152 128.623 130.22C128.624 130.288 128.602 130.353 128.56 130.406C128.518 130.459 128.459 130.496 128.393 130.51C128.26 130.555 128.117 130.566 127.978 130.54C127.84 130.515 127.71 130.455 127.601 130.365C126.561 130.141 125.236 129.936 124.789 130.087C124.76 130.093 124.733 130.105 124.71 130.123C124.904 130.398 125.145 130.636 125.424 130.825C125.466 130.853 125.5 130.892 125.522 130.938C125.544 130.983 125.554 131.034 125.551 131.085C125.548 131.135 125.532 131.184 125.506 131.228C125.48 131.271 125.443 131.307 125.399 131.333C124.961 131.633 124.619 132.053 124.414 132.542C124.386 132.588 124.374 132.641 124.377 132.693C124.727 132.807 125.104 132.807 125.454 132.693L125.539 132.675Z" fill="#263238"/>
<path d="M132.512 126.277C132.512 126.277 133.624 124.045 133.068 122.648C132.512 121.251 127.347 117.622 127.486 119.02C127.573 119.479 127.754 119.915 128.019 120.3C128.283 120.685 128.625 121.011 129.022 121.257C129.022 121.257 126.923 120.556 126.923 121.112V121.687C126.923 121.687 129.3 122.243 130.413 123.223C131.275 124.119 131.984 125.151 132.512 126.277Z" fill="#263238"/>
<path d="M132.512 126.579C132.455 126.579 132.399 126.563 132.351 126.533C132.303 126.504 132.264 126.461 132.239 126.41C131.735 125.315 131.054 124.31 130.225 123.434C129.173 122.521 126.887 121.971 126.863 121.965C126.796 121.951 126.736 121.914 126.693 121.861C126.65 121.809 126.627 121.742 126.627 121.674V121.112C126.626 121.036 126.644 120.961 126.679 120.894C126.714 120.826 126.764 120.768 126.827 120.725C127.161 120.575 127.538 120.547 127.891 120.646C127.505 120.194 127.261 119.639 127.189 119.05C127.17 118.917 127.201 118.781 127.276 118.669C127.351 118.558 127.464 118.478 127.595 118.445C128.732 118.161 132.838 121.269 133.352 122.557C133.957 124.063 132.832 126.337 132.784 126.434C132.757 126.481 132.717 126.52 132.668 126.546C132.62 126.571 132.566 126.583 132.512 126.579ZM127.226 121.438C128.444 121.727 129.595 122.251 130.613 122.981C131.371 123.736 132.004 124.608 132.487 125.563C132.76 124.843 133.128 123.61 132.79 122.763C132.324 121.608 128.556 118.971 127.788 119.001C127.875 119.409 128.042 119.796 128.28 120.138C128.518 120.481 128.821 120.773 129.173 120.997C129.237 121.034 129.285 121.094 129.308 121.164C129.33 121.235 129.325 121.311 129.294 121.378C129.265 121.447 129.21 121.502 129.142 121.532C129.073 121.562 128.996 121.566 128.925 121.541C128.381 121.337 127.807 121.223 127.226 121.203V121.438Z" fill="#263238"/>
<path d="M135.36 127.366C135.36 127.476 135.404 127.582 135.483 127.661C135.561 127.739 135.667 127.783 135.778 127.783C135.888 127.783 135.994 127.739 136.073 127.661C136.151 127.582 136.195 127.476 136.195 127.366C136.195 127.255 136.151 127.149 136.073 127.07C135.994 126.992 135.888 126.948 135.778 126.948C135.667 126.948 135.561 126.992 135.483 127.07C135.404 127.149 135.36 127.255 135.36 127.366Z" fill="#263238"/>
<path d="M130.171 131.635C130.419 132.482 131.749 132.845 133.14 132.422C134.531 131.998 135.457 130.988 135.209 130.142C134.961 129.295 133.624 128.932 132.233 129.355C130.842 129.779 129.917 130.789 130.171 131.635Z" fill="white"/>
<path d="M132.01 132.742C131.024 132.742 130.195 132.349 130.026 131.678C129.748 130.752 130.721 129.646 132.191 129.21C133.661 128.775 135.076 129.174 135.354 130.093C135.412 130.354 135.4 130.625 135.32 130.879C135.241 131.134 135.096 131.363 134.901 131.545C134.429 132.032 133.836 132.385 133.183 132.567C132.802 132.679 132.407 132.738 132.01 132.742ZM130.316 131.593C130.54 132.355 131.792 132.663 133.098 132.276C133.699 132.111 134.244 131.788 134.677 131.339C134.838 131.198 134.958 131.017 135.026 130.814C135.094 130.611 135.107 130.393 135.064 130.184C134.834 129.416 133.582 129.107 132.276 129.5C130.969 129.894 130.086 130.825 130.316 131.593Z" fill="#263238"/>
<path d="M120.827 234.176C116.845 228.346 111.52 223.557 105.302 220.212C95.2992 215.023 91.0294 209.9 96.2306 210.203C102.526 210.578 116.793 215.579 123.277 233.185C126.077 240.775 120.857 234.182 120.857 234.182" fill="#002A50"/>
<path d="M123.791 237.11C122.926 237.11 121.444 235.423 120.585 234.346C120.531 234.261 114.991 225.577 105.181 220.49C97.924 216.735 93.237 212.785 93.7571 210.886C93.9567 210.155 94.8033 209.834 96.2609 209.919C102.914 210.306 117.15 215.652 123.573 233.088C124.716 236.197 124.492 236.838 124.075 237.074C123.985 237.11 123.887 237.123 123.791 237.11ZM121.069 233.983C122.188 235.386 123.452 236.59 123.773 236.511C123.773 236.511 124.021 236.07 122.986 233.263C116.672 216.124 102.708 210.886 96.2064 210.487C95.0997 210.427 94.4344 210.614 94.3256 211.013C93.9627 212.338 98.1055 216.118 105.442 219.922C115.209 224.99 120.803 233.572 121.069 233.983Z" fill="#263238"/>
<path d="M120.495 232.163C120.438 232.163 120.383 232.148 120.335 232.12C120.287 232.091 120.248 232.049 120.222 231.999C120.174 231.897 115.154 222.027 105.907 217.309C105.871 217.292 105.839 217.268 105.813 217.238C105.787 217.208 105.767 217.173 105.755 217.135C105.742 217.097 105.737 217.057 105.741 217.017C105.744 216.978 105.755 216.939 105.774 216.904C105.81 216.833 105.873 216.779 105.949 216.754C106.025 216.729 106.108 216.735 106.179 216.771C115.608 221.579 120.694 231.624 120.761 231.727C120.779 231.762 120.791 231.801 120.794 231.841C120.797 231.88 120.793 231.92 120.78 231.958C120.768 231.996 120.748 232.031 120.722 232.061C120.695 232.091 120.663 232.115 120.628 232.132C120.587 232.154 120.541 232.164 120.495 232.163Z" fill="#263238"/>
<path d="M126.839 240.225C124.923 234.139 124.494 227.683 125.587 221.398C127.486 211.388 126.228 205.498 123.549 209.356C120.295 214.037 115.88 226.974 124.758 241.41C128.593 247.639 126.833 240.2 126.833 240.2" fill="#002A50"/>
<path d="M126.881 244.204C126.47 244.204 125.835 243.72 124.51 241.567C115.698 227.252 119.865 214.128 123.301 209.181C124.063 208.086 124.776 207.669 125.417 207.935C127.074 208.63 127.262 214.188 125.883 221.452C124.801 227.683 125.216 234.082 127.093 240.122C127.095 240.134 127.095 240.146 127.093 240.158C127.486 241.815 127.8 243.853 127.056 244.162C127 244.184 126.941 244.199 126.881 244.204ZM125.067 208.467C124.74 208.467 124.298 208.842 123.821 209.532C120.464 214.37 116.4 227.203 125.03 241.247C126.415 243.502 126.845 243.593 126.899 243.599C127.062 243.4 126.899 241.857 126.554 240.309C124.639 234.174 124.208 227.671 125.296 221.337C126.832 213.251 126.143 208.897 125.187 208.497C125.143 208.474 125.093 208.464 125.042 208.467H125.067Z" fill="#263238"/>
<path d="M125.4 239.015C125.342 239.016 125.285 239 125.236 238.97C125.187 238.94 125.147 238.897 125.121 238.846C125.079 238.749 120.785 229.502 122.636 220.098C122.651 220.017 122.697 219.946 122.765 219.901C122.832 219.855 122.915 219.837 122.996 219.853C123.076 219.868 123.147 219.914 123.193 219.982C123.238 220.049 123.256 220.132 123.24 220.212C121.426 229.411 125.66 238.483 125.66 238.574C125.677 238.61 125.687 238.649 125.689 238.689C125.691 238.729 125.685 238.769 125.672 238.807C125.658 238.844 125.637 238.879 125.61 238.909C125.583 238.938 125.551 238.962 125.514 238.979C125.479 238.998 125.44 239.011 125.4 239.015Z" fill="#263238"/>
<path d="M121.232 229.744C119.315 223.656 118.886 217.198 119.98 210.911C121.879 200.907 120.621 195.017 117.942 198.875C114.688 203.556 110.274 216.487 119.152 230.929C122.986 237.158 121.226 229.75 121.226 229.75" fill="#002A50"/>
<path d="M121.275 233.723C120.864 233.723 120.229 233.239 118.904 231.086C110.092 216.771 114.259 203.641 117.695 198.7C118.457 197.605 119.17 197.188 119.811 197.454C121.462 198.149 121.626 203.707 120.277 210.971C119.195 217.202 119.61 223.601 121.487 229.641V229.671C121.88 231.328 122.194 233.372 121.45 233.681C121.394 233.703 121.335 233.718 121.275 233.723ZM119.461 197.986C119.134 197.986 118.692 198.361 118.215 199.045C114.858 203.883 110.794 216.716 119.424 230.766C120.809 233.015 121.239 233.112 121.293 233.112C121.456 232.913 121.293 231.37 120.948 229.828C119.033 223.693 118.602 217.19 119.69 210.856C121.227 202.77 120.531 198.41 119.582 198.01C119.535 197.992 119.486 197.984 119.436 197.986H119.461Z" fill="#263238"/>
<path d="M120.494 232.163C120.434 232.163 120.375 232.145 120.324 232.112C120.273 232.078 120.234 232.031 120.21 231.975C120.162 231.842 115.184 219.003 117.029 209.598C117.045 209.519 117.091 209.45 117.158 209.404C117.225 209.359 117.307 209.342 117.386 209.356C117.425 209.364 117.462 209.38 117.495 209.402C117.528 209.424 117.556 209.453 117.578 209.486C117.6 209.519 117.615 209.556 117.622 209.595C117.63 209.634 117.63 209.674 117.622 209.713C115.807 218.924 120.724 231.6 120.773 231.727C120.787 231.764 120.795 231.804 120.794 231.843C120.794 231.883 120.785 231.922 120.769 231.959C120.754 231.995 120.731 232.028 120.702 232.056C120.674 232.084 120.64 232.106 120.603 232.12C120.57 232.141 120.533 232.155 120.494 232.163Z" fill="#263238"/>
<path d="M246.816 223.224C250.799 217.396 256.12 212.607 262.335 209.26C272.344 204.071 276.608 198.948 271.407 199.256C265.111 199.625 250.844 204.627 244.361 222.238C241.567 229.834 246.81 223.236 246.81 223.236" fill="#002A50"/>
<path d="M243.847 226.176C243.754 226.179 243.661 226.156 243.581 226.109C243.163 225.879 242.94 225.232 244.083 222.124C250.505 204.688 264.76 199.341 271.395 198.954C272.852 198.87 273.699 199.19 273.899 199.922C274.419 201.821 269.725 205.77 262.474 209.526C252.664 214.618 247.125 223.297 247.07 223.388C246.193 224.5 244.712 226.176 243.847 226.176ZM271.842 199.565C271.715 199.565 271.576 199.565 271.431 199.565C264.93 199.946 250.965 205.196 244.651 222.341C243.617 225.141 243.859 225.559 243.889 225.601C244.185 225.668 245.449 224.458 246.568 223.055C246.834 222.638 252.429 214.062 262.196 209C269.532 205.196 273.687 201.41 273.312 200.085C273.221 199.704 272.701 199.547 271.842 199.547V199.565Z" fill="#263238"/>
<path d="M247.149 221.234C247.1 221.235 247.052 221.222 247.009 221.198C246.938 221.162 246.884 221.099 246.859 221.023C246.834 220.947 246.841 220.864 246.876 220.793C246.925 220.696 252.029 210.644 261.458 205.842C261.493 205.824 261.531 205.812 261.57 205.808C261.61 205.804 261.649 205.809 261.687 205.82C261.725 205.832 261.76 205.852 261.79 205.877C261.82 205.903 261.845 205.934 261.863 205.969C261.9 206.041 261.907 206.124 261.883 206.201C261.859 206.278 261.807 206.342 261.736 206.381C252.489 211.092 247.469 220.968 247.415 221.065C247.391 221.116 247.354 221.159 247.307 221.189C247.259 221.219 247.205 221.235 247.149 221.234Z" fill="#263238"/>
<path d="M240.798 229.296C242.717 223.209 243.147 216.75 242.05 210.463C240.151 200.454 241.409 194.563 244.089 198.422C247.348 203.109 251.757 216.039 242.879 230.475C239.045 236.705 240.805 229.296 240.805 229.296" fill="#002A50"/>
<path d="M240.756 233.276C240.681 233.275 240.607 233.259 240.539 233.227C239.795 232.919 240.109 230.881 240.502 229.224C240.502 229.224 240.502 229.224 240.502 229.193C242.388 223.154 242.813 216.753 241.742 210.518C240.363 203.26 240.533 197.696 242.208 197.007C242.857 196.736 243.565 197.152 244.331 198.252C247.76 203.194 251.927 216.317 243.121 230.633C241.803 232.792 241.168 233.276 240.756 233.276ZM241.089 229.381C240.726 230.923 240.587 232.465 240.793 232.683C240.793 232.683 241.228 232.568 242.607 230.318C251.255 216.269 247.191 203.423 243.817 198.597C243.26 197.799 242.758 197.424 242.426 197.563C241.476 197.962 240.78 202.317 242.317 210.403C243.414 216.737 242.993 223.241 241.089 229.381Z" fill="#263238"/>
<path d="M242.244 228.08C242.198 228.08 242.153 228.069 242.111 228.05C242.039 228.015 241.983 227.953 241.956 227.877C241.929 227.801 241.932 227.718 241.966 227.645C242.008 227.554 246.199 218.482 244.385 209.29C244.376 209.251 244.375 209.21 244.383 209.171C244.39 209.132 244.405 209.094 244.427 209.061C244.449 209.028 244.477 208.999 244.511 208.977C244.544 208.955 244.582 208.94 244.621 208.933C244.66 208.925 244.7 208.925 244.739 208.932C244.778 208.94 244.815 208.955 244.848 208.977C244.881 208.999 244.91 209.027 244.932 209.06C244.954 209.093 244.97 209.13 244.978 209.169C246.828 218.567 242.559 227.814 242.492 227.917C242.468 227.963 242.432 228.002 242.389 228.031C242.346 228.059 242.296 228.076 242.244 228.08Z" fill="#263238"/>
<path d="M246.405 218.809C248.324 212.724 248.753 206.267 247.657 199.982C245.758 189.973 247.016 184.082 249.701 187.941C252.955 192.622 257.363 205.558 248.491 219.994C244.657 226.224 246.417 218.785 246.417 218.785" fill="#002A50"/>
<path d="M246.363 222.788C246.288 222.79 246.214 222.776 246.145 222.746C245.407 222.438 245.716 220.399 246.109 218.742C246.109 218.742 246.109 218.742 246.109 218.706C247.995 212.669 248.42 206.27 247.348 200.036C245.97 192.779 246.139 187.215 247.814 186.519C248.455 186.253 249.169 186.671 249.937 187.771C253.366 192.712 257.533 205.836 248.727 220.151C247.409 222.305 246.774 222.788 246.363 222.788ZM246.695 218.894C246.332 220.442 246.193 221.978 246.399 222.202C246.399 222.202 246.834 222.087 248.213 219.837C256.862 205.788 252.798 192.942 249.423 188.116C248.867 187.318 248.365 186.943 248.032 187.082C247.082 187.481 246.387 191.835 247.923 199.921C249.021 206.253 248.6 212.756 246.695 218.894Z" fill="#263238"/>
<path d="M247.148 221.234C247.111 221.243 247.071 221.243 247.034 221.234C246.96 221.205 246.902 221.148 246.87 221.075C246.838 221.003 246.836 220.921 246.864 220.847C246.913 220.72 251.829 208.038 250.015 198.827C250.006 198.789 250.006 198.749 250.013 198.71C250.02 198.671 250.035 198.634 250.057 198.601C250.079 198.568 250.108 198.54 250.141 198.519C250.175 198.497 250.212 198.483 250.251 198.476C250.29 198.468 250.33 198.468 250.369 198.476C250.408 198.483 250.445 198.498 250.478 198.52C250.511 198.542 250.54 198.57 250.562 198.603C250.584 198.636 250.6 198.673 250.608 198.712C252.458 208.092 247.475 220.938 247.427 221.089C247.399 221.137 247.358 221.176 247.308 221.202C247.259 221.227 247.204 221.239 247.148 221.234Z" fill="#263238"/>
<path d="M249.332 191.926H191.841L159.679 140.786H217.17L249.332 191.926Z" fill="#263238"/>
<path d="M249.332 192.229H191.841C191.79 192.23 191.74 192.217 191.696 192.193C191.651 192.169 191.614 192.133 191.587 192.09L159.425 140.943C159.396 140.896 159.381 140.843 159.381 140.789C159.381 140.734 159.396 140.681 159.425 140.634C159.452 140.589 159.491 140.551 159.538 140.524C159.585 140.498 159.637 140.484 159.691 140.483H217.182C217.232 140.482 217.283 140.494 217.327 140.519C217.372 140.543 217.409 140.579 217.436 140.622L249.598 191.769C249.626 191.815 249.641 191.869 249.641 191.923C249.641 191.978 249.626 192.031 249.598 192.077C249.57 192.123 249.531 192.161 249.485 192.188C249.438 192.214 249.386 192.228 249.332 192.229ZM192.01 191.624H248.788L217 141.088H160.211L192.01 191.624Z" fill="#263238"/>
<path d="M183.84 190.172H124.916V242.22H183.84V190.172Z" fill="#CDCDCD"/>
<path d="M183.84 242.523H124.916C124.835 242.523 124.759 242.491 124.702 242.434C124.645 242.377 124.613 242.301 124.613 242.22V190.173C124.613 190.092 124.645 190.015 124.702 189.959C124.759 189.902 124.835 189.87 124.916 189.87H183.84C183.92 189.87 183.997 189.902 184.054 189.959C184.11 190.015 184.142 190.092 184.142 190.173V242.22C184.142 242.301 184.11 242.377 184.054 242.434C183.997 242.491 183.92 242.523 183.84 242.523ZM125.218 241.918H183.538V190.475H125.218V241.918Z" fill="#263238"/>
<path d="M242.764 242.22H183.84V190.172L213.795 142.54L242.764 190.172V242.22Z" fill="white"/>
<path d="M242.764 242.523H183.84C183.759 242.523 183.682 242.491 183.626 242.434C183.569 242.377 183.537 242.3 183.537 242.22V190.172C183.537 190.114 183.554 190.058 183.585 190.009L213.541 142.382C213.567 142.338 213.604 142.302 213.648 142.276C213.693 142.251 213.743 142.237 213.795 142.237C213.846 142.237 213.896 142.251 213.941 142.276C213.985 142.302 214.022 142.338 214.049 142.382L243.024 190.027C243.053 190.075 243.067 190.129 243.066 190.184V242.22C243.066 242.3 243.034 242.377 242.978 242.434C242.921 242.491 242.844 242.523 242.764 242.523ZM184.142 241.918H242.461V190.257L213.788 143.114L184.154 190.257L184.142 241.918Z" fill="#263238"/>
<path d="M196.607 199.498H190.716V217.176H196.607V199.498Z" fill="#CDCDCD"/>
<path d="M196.607 217.478H190.716C190.636 217.478 190.559 217.447 190.503 217.39C190.446 217.333 190.414 217.256 190.414 217.176V199.498C190.414 199.418 190.446 199.341 190.503 199.284C190.559 199.228 190.636 199.196 190.716 199.196H196.607C196.687 199.196 196.764 199.228 196.821 199.284C196.878 199.341 196.909 199.418 196.909 199.498V217.176C196.909 217.256 196.878 217.333 196.821 217.39C196.764 217.447 196.687 217.478 196.607 217.478ZM191.019 216.874H196.305V199.801H191.019V216.874Z" fill="#263238"/>
<path d="M202.497 199.498H196.606V217.176H202.497V199.498Z" fill="#263238"/>
<path d="M202.503 217.478H196.607C196.526 217.478 196.449 217.447 196.393 217.39C196.336 217.333 196.304 217.256 196.304 217.176V199.498C196.306 199.418 196.338 199.342 196.394 199.286C196.451 199.23 196.527 199.197 196.607 199.196H202.503C202.583 199.197 202.659 199.23 202.715 199.286C202.772 199.342 202.804 199.418 202.806 199.498V217.176C202.806 217.256 202.774 217.333 202.717 217.39C202.66 217.447 202.583 217.478 202.503 217.478ZM196.909 216.874H202.201V199.801H196.909V216.874Z" fill="#263238"/>
<path d="M208.394 199.498H202.503V217.176H208.394V199.498Z" fill="#CDCDCD"/>
<path d="M208.394 217.478H202.504C202.423 217.478 202.346 217.447 202.29 217.39C202.233 217.333 202.201 217.256 202.201 217.176V199.498C202.201 199.418 202.233 199.341 202.29 199.284C202.346 199.228 202.423 199.196 202.504 199.196H208.394C208.474 199.196 208.551 199.228 208.608 199.284C208.665 199.341 208.697 199.418 208.697 199.498V217.176C208.697 217.256 208.665 217.333 208.608 217.39C208.551 217.447 208.474 217.478 208.394 217.478ZM202.806 216.874H208.092V199.801H202.806V216.874Z" fill="#263238"/>
<path d="M169.603 199.498H164.692V217.176H169.603V199.498Z" fill="#909090"/>
<path d="M169.603 217.478H164.692C164.612 217.478 164.535 217.447 164.478 217.39C164.422 217.333 164.39 217.256 164.39 217.176V199.498C164.39 199.418 164.422 199.341 164.478 199.284C164.535 199.228 164.612 199.196 164.692 199.196H169.603C169.683 199.196 169.76 199.228 169.817 199.284C169.873 199.341 169.905 199.418 169.905 199.498V217.176C169.905 217.256 169.873 217.333 169.817 217.39C169.76 217.447 169.683 217.478 169.603 217.478ZM164.994 216.874H169.282V199.801H164.976L164.994 216.874Z" fill="#263238"/>
<path d="M174.514 199.498H169.603V217.176H174.514V199.498Z" fill="#263238"/>
<path d="M174.514 217.478H169.603C169.523 217.478 169.446 217.447 169.389 217.39C169.333 217.333 169.301 217.256 169.301 217.176V199.498C169.301 199.418 169.333 199.341 169.389 199.284C169.446 199.228 169.523 199.196 169.603 199.196H174.514C174.594 199.197 174.67 199.23 174.726 199.286C174.783 199.342 174.815 199.418 174.816 199.498V217.176C174.816 217.256 174.785 217.333 174.728 217.39C174.671 217.447 174.594 217.478 174.514 217.478ZM169.906 216.874H174.212V199.801H169.887L169.906 216.874Z" fill="#263238"/>
<path d="M179.425 199.498H174.514V217.176H179.425V199.498Z" fill="#909090"/>
<path d="M179.425 217.478H174.514C174.434 217.478 174.357 217.447 174.3 217.39C174.243 217.333 174.211 217.256 174.211 217.176V199.498C174.211 199.418 174.243 199.341 174.3 199.284C174.357 199.228 174.434 199.196 174.514 199.196H179.425C179.504 199.197 179.58 199.23 179.637 199.286C179.693 199.342 179.726 199.418 179.727 199.498V217.176C179.727 217.256 179.695 217.333 179.639 217.39C179.582 217.447 179.505 217.478 179.425 217.478ZM174.816 216.874H179.122V199.801H174.816V216.874Z" fill="#263238"/>
<path d="M133.268 199.498H128.357V217.176H133.268V199.498Z" fill="#909090"/>
<path d="M133.267 217.478H128.357C128.276 217.478 128.199 217.447 128.143 217.39C128.086 217.333 128.054 217.256 128.054 217.176V199.498C128.054 199.418 128.086 199.341 128.143 199.284C128.199 199.228 128.276 199.196 128.357 199.196H133.267C133.347 199.197 133.423 199.23 133.48 199.286C133.536 199.342 133.568 199.418 133.57 199.498V217.176C133.57 217.256 133.538 217.333 133.481 217.39C133.425 217.447 133.348 217.478 133.267 217.478ZM128.659 216.874H132.995V199.801H128.689L128.659 216.874Z" fill="#263238"/>
<path d="M138.178 199.498H133.268V217.176H138.178V199.498Z" fill="#263238"/>
<path d="M138.179 217.478H133.268C133.188 217.478 133.111 217.447 133.054 217.39C132.997 217.333 132.965 217.256 132.965 217.176V199.498C132.965 199.418 132.997 199.341 133.054 199.284C133.111 199.228 133.188 199.196 133.268 199.196H138.179C138.258 199.197 138.334 199.23 138.391 199.286C138.447 199.342 138.479 199.418 138.481 199.498V217.176C138.481 217.256 138.449 217.333 138.392 217.39C138.336 217.447 138.259 217.478 138.179 217.478ZM133.57 216.874H137.876V199.801H133.6L133.57 216.874Z" fill="#263238"/>
<path d="M143.089 199.498H138.178V217.176H143.089V199.498Z" fill="#909090"/>
<path d="M143.089 217.478H138.178C138.098 217.478 138.021 217.447 137.965 217.39C137.908 217.333 137.876 217.256 137.876 217.176V199.498C137.876 199.418 137.908 199.341 137.965 199.284C138.021 199.228 138.098 199.196 138.178 199.196H143.089C143.169 199.197 143.245 199.23 143.301 199.286C143.358 199.342 143.39 199.418 143.392 199.498V217.176C143.392 217.256 143.36 217.333 143.303 217.39C143.246 217.447 143.169 217.478 143.089 217.478ZM138.481 216.874H142.787V199.801H138.481V216.874Z" fill="#263238"/>
<path d="M226.562 199.498H220.671V217.176H226.562V199.498Z" fill="#CDCDCD"/>
<path d="M226.562 217.478H220.689C220.609 217.478 220.532 217.447 220.475 217.39C220.419 217.333 220.387 217.256 220.387 217.176V199.498C220.387 199.418 220.419 199.341 220.475 199.284C220.532 199.228 220.609 199.196 220.689 199.196H226.58C226.66 199.196 226.737 199.228 226.794 199.284C226.85 199.341 226.882 199.418 226.882 199.498V217.176C226.882 217.217 226.874 217.258 226.857 217.296C226.841 217.334 226.817 217.368 226.787 217.397C226.757 217.425 226.722 217.447 226.683 217.461C226.644 217.475 226.603 217.481 226.562 217.478ZM220.973 216.874H226.259V199.801H220.973V216.874Z" fill="#263238"/>
<path d="M232.452 199.498H226.562V217.176H232.452V199.498Z" fill="#263238"/>
<path d="M232.452 217.478H226.562C226.481 217.478 226.405 217.447 226.348 217.39C226.291 217.333 226.259 217.256 226.259 217.176V199.498C226.259 199.418 226.291 199.341 226.348 199.284C226.405 199.228 226.481 199.196 226.562 199.196H232.452C232.532 199.196 232.609 199.228 232.666 199.284C232.723 199.341 232.755 199.418 232.755 199.498V217.176C232.755 217.256 232.723 217.333 232.666 217.39C232.609 217.447 232.532 217.478 232.452 217.478ZM226.864 216.874H232.18V199.801H226.894L226.864 216.874Z" fill="#263238"/>
<path d="M238.343 199.498H232.453V217.176H238.343V199.498Z" fill="#CDCDCD"/>
<path d="M238.349 217.478H232.452C232.372 217.478 232.295 217.447 232.238 217.39C232.182 217.333 232.15 217.256 232.15 217.176V199.498C232.151 199.418 232.184 199.342 232.24 199.286C232.297 199.23 232.373 199.197 232.452 199.196H238.349C238.429 199.197 238.505 199.23 238.561 199.286C238.617 199.342 238.65 199.418 238.651 199.498V217.176C238.651 217.256 238.619 217.333 238.563 217.39C238.506 217.447 238.429 217.478 238.349 217.478ZM232.755 216.874H238.047V199.801H232.785L232.755 216.874Z" fill="#263238"/>
<path d="M212.815 170.529H208.884V181.331H212.815V170.529Z" fill="#CDCDCD"/>
<path d="M212.827 181.633H208.896C208.815 181.633 208.739 181.601 208.682 181.544C208.625 181.488 208.593 181.411 208.593 181.33V170.529C208.593 170.449 208.625 170.372 208.682 170.315C208.739 170.258 208.815 170.227 208.896 170.227H212.827C212.907 170.227 212.984 170.258 213.041 170.315C213.097 170.372 213.129 170.449 213.129 170.529V181.33C213.129 181.411 213.097 181.488 213.041 181.544C212.984 181.601 212.907 181.633 212.827 181.633ZM209.198 181.028H212.524V170.831H209.198V181.028Z" fill="#263238"/>
<path d="M216.746 170.529H212.815V181.331H216.746V170.529Z" fill="#263238"/>
<path d="M216.74 181.633H212.827C212.747 181.633 212.67 181.601 212.613 181.544C212.557 181.488 212.525 181.411 212.525 181.33V170.529C212.525 170.449 212.557 170.372 212.613 170.315C212.67 170.258 212.747 170.227 212.827 170.227H216.752C216.833 170.227 216.909 170.258 216.966 170.315C217.023 170.372 217.055 170.449 217.055 170.529V181.33C217.055 181.371 217.047 181.412 217.031 181.449C217.015 181.487 216.991 181.52 216.962 181.549C216.933 181.577 216.898 181.599 216.86 181.613C216.822 181.628 216.781 181.634 216.74 181.633ZM213.112 181.028H216.456V170.831H213.136L213.112 181.028Z" fill="#263238"/>
<path d="M220.671 170.529H216.74V181.331H220.671V170.529Z" fill="#CDCDCD"/>
<path d="M220.69 181.633H216.758C216.678 181.633 216.601 181.601 216.545 181.544C216.488 181.488 216.456 181.411 216.456 181.33V170.529C216.456 170.449 216.488 170.372 216.545 170.315C216.601 170.258 216.678 170.227 216.758 170.227H220.69C220.77 170.227 220.847 170.258 220.903 170.315C220.96 170.372 220.992 170.449 220.992 170.529V181.33C220.992 181.411 220.96 181.488 220.903 181.544C220.847 181.601 220.77 181.633 220.69 181.633ZM217.061 181.028H220.387V170.831H217.061V181.028Z" fill="#263238"/>
<path d="M121.638 191.926H184.91L217.073 140.786H153.8L121.638 191.926Z" fill="#002A50"/>
<path d="M184.91 192.229H121.638C121.584 192.228 121.531 192.214 121.485 192.188C121.438 192.161 121.399 192.123 121.371 192.077C121.345 192.03 121.331 191.977 121.331 191.923C121.331 191.869 121.345 191.816 121.371 191.769L153.558 140.622C153.585 140.579 153.622 140.543 153.667 140.519C153.711 140.494 153.761 140.482 153.812 140.483H217.061C217.114 140.483 217.167 140.497 217.214 140.523C217.26 140.55 217.299 140.588 217.327 140.634C217.353 140.681 217.367 140.735 217.367 140.789C217.367 140.843 217.353 140.896 217.327 140.943L185.164 192.09C185.137 192.132 185.099 192.167 185.055 192.191C185.01 192.215 184.961 192.228 184.91 192.229ZM122.188 191.624H184.747L216.528 141.088H153.969L122.188 191.624Z" fill="#263238"/>
<path d="M171.036 163.882H146.053V180.417H171.036V163.882Z" fill="#CDCDCD"/>
<path d="M171.043 180.725H146.053C145.973 180.724 145.897 180.692 145.841 180.635C145.784 180.579 145.752 180.503 145.75 180.423V163.882C145.752 163.803 145.784 163.726 145.841 163.67C145.897 163.614 145.973 163.581 146.053 163.58H171.043C171.122 163.581 171.198 163.614 171.255 163.67C171.311 163.726 171.343 163.803 171.345 163.882V180.423C171.343 180.503 171.311 180.579 171.255 180.635C171.198 180.692 171.122 180.724 171.043 180.725ZM146.355 180.121H170.74V164.185H146.355V180.121Z" fill="#263238"/>
<path d="M171.042 163.889L188.309 152.029L171.042 180.423V163.889Z" fill="white"/>
<path d="M171.043 180.725H170.958C170.895 180.707 170.84 180.669 170.801 180.617C170.761 180.564 170.74 180.501 170.74 180.435V163.882C170.741 163.834 170.753 163.786 170.775 163.743C170.797 163.7 170.828 163.663 170.867 163.634L188.134 151.78C188.188 151.737 188.255 151.713 188.324 151.713C188.394 151.713 188.461 151.737 188.515 151.78C188.564 151.83 188.595 151.894 188.604 151.963C188.613 152.032 188.598 152.102 188.563 152.161L171.297 180.556C171.274 180.605 171.238 180.646 171.193 180.676C171.148 180.706 171.096 180.723 171.043 180.725ZM171.345 164.045V179.341L187.317 153.075L171.345 164.045Z" fill="#263238"/>
<path d="M144.051 164.445H170.22L188.309 152.029H162.14L144.051 164.445Z" fill="#002A50"/>
<path d="M170.22 164.747H144.051C143.986 164.748 143.923 164.727 143.871 164.689C143.819 164.651 143.78 164.597 143.76 164.535C143.743 164.473 143.745 164.407 143.767 164.347C143.788 164.286 143.828 164.233 143.881 164.197L161.971 151.781C162.02 151.745 162.079 151.726 162.14 151.726H188.309C188.373 151.727 188.435 151.748 188.486 151.786C188.538 151.825 188.575 151.878 188.594 151.94C188.613 152.001 188.612 152.066 188.591 152.127C188.57 152.187 188.531 152.24 188.478 152.276L170.395 164.699C170.342 164.729 170.281 164.746 170.22 164.747ZM145.024 164.142H170.129L187.329 152.331H162.237L145.024 164.142Z" fill="#263238"/>
<path d="M156.104 167.396H152.173V178.198H156.104V167.396Z" fill="#909090"/>
<path d="M156.098 178.5H152.173C152.093 178.5 152.016 178.468 151.959 178.411C151.902 178.355 151.871 178.278 151.871 178.198V167.396C151.871 167.316 151.902 167.239 151.959 167.182C152.016 167.126 152.093 167.094 152.173 167.094H156.098C156.178 167.094 156.255 167.126 156.312 167.182C156.369 167.239 156.4 167.316 156.4 167.396V178.198C156.4 178.278 156.369 178.355 156.312 178.411C156.255 178.468 156.178 178.5 156.098 178.5ZM152.469 177.895H155.79V167.699H152.469V177.895Z" fill="#263238"/>
<path d="M160.029 167.396H156.098V178.198H160.029V167.396Z" fill="#263238"/>
<path d="M160.029 178.5H156.098C156.018 178.5 155.941 178.468 155.884 178.411C155.828 178.355 155.796 178.278 155.796 178.198V167.396C155.796 167.316 155.828 167.239 155.884 167.182C155.941 167.126 156.018 167.094 156.098 167.094H160.029C160.11 167.094 160.187 167.126 160.243 167.182C160.3 167.239 160.332 167.316 160.332 167.396V178.198C160.332 178.278 160.3 178.355 160.243 178.411C160.187 178.468 160.11 178.5 160.029 178.5ZM156.401 177.895H159.727V167.699H156.401V177.895Z" fill="#263238"/>
<path d="M163.96 167.396H160.029V178.198H163.96V167.396Z" fill="#909090"/>
<path d="M163.955 178.5H160.029C159.949 178.5 159.872 178.468 159.816 178.411C159.759 178.355 159.727 178.278 159.727 178.198V167.396C159.727 167.316 159.759 167.239 159.816 167.182C159.872 167.126 159.949 167.094 160.029 167.094H163.955C164.035 167.094 164.112 167.126 164.168 167.182C164.225 167.239 164.257 167.316 164.257 167.396V178.198C164.257 178.278 164.225 178.355 164.168 178.411C164.112 178.468 164.035 178.5 163.955 178.5ZM160.326 177.895H163.646V167.699H160.332L160.326 177.895Z" fill="#263238"/>
<path d="M201.844 133.026H199.643V149.071L201.844 145.527V133.026Z" fill="white"/>
<path d="M199.643 149.374H199.564C199.5 149.355 199.443 149.317 199.403 149.263C199.362 149.21 199.34 149.145 199.34 149.078V133.027C199.34 132.946 199.372 132.869 199.429 132.813C199.486 132.756 199.563 132.724 199.643 132.724H201.844C201.924 132.724 202.001 132.756 202.058 132.813C202.115 132.869 202.147 132.946 202.147 133.027V145.527C202.145 145.583 202.129 145.638 202.098 145.685L199.903 149.235C199.875 149.278 199.836 149.314 199.791 149.338C199.745 149.363 199.694 149.375 199.643 149.374ZM199.945 133.329V148.013L201.542 145.443V133.347L199.945 133.329Z" fill="#263238"/>
<path d="M199.745 133.026H193.25V149.071H199.745V133.026Z" fill="#CDCDCD"/>
<path d="M199.746 149.374H193.25C193.17 149.374 193.093 149.342 193.036 149.285C192.98 149.229 192.948 149.152 192.948 149.071V133.027C192.948 132.946 192.98 132.869 193.036 132.813C193.093 132.756 193.17 132.724 193.25 132.724H199.746C199.826 132.724 199.903 132.756 199.959 132.813C200.016 132.869 200.048 132.946 200.048 133.027V149.071C200.048 149.152 200.016 149.229 199.959 149.285C199.903 149.342 199.826 149.374 199.746 149.374ZM193.553 148.769H199.443V133.329H193.553V148.769Z" fill="#263238"/>
<path d="M161.946 202.474H146.821V242.22H161.946V202.474Z" fill="#263238"/>
<path d="M161.941 242.523H146.821C146.741 242.523 146.664 242.491 146.607 242.434C146.55 242.377 146.519 242.3 146.519 242.22V202.474C146.519 202.394 146.55 202.317 146.607 202.26C146.664 202.203 146.741 202.171 146.821 202.171H161.941C162.021 202.171 162.098 202.203 162.154 202.26C162.211 202.317 162.243 202.394 162.243 202.474V242.22C162.243 242.3 162.211 242.377 162.154 242.434C162.098 242.491 162.021 242.523 161.941 242.523ZM147.123 241.918H161.638V202.776H147.123V241.918Z" fill="#263238"/>
<path d="M161.142 222.299C161.142 222.034 161.064 221.776 160.917 221.556C160.77 221.336 160.561 221.165 160.317 221.064C160.073 220.963 159.804 220.936 159.545 220.988C159.285 221.039 159.047 221.167 158.86 221.354C158.673 221.541 158.546 221.779 158.494 222.038C158.443 222.297 158.469 222.566 158.57 222.81C158.672 223.054 158.843 223.263 159.063 223.41C159.283 223.557 159.541 223.635 159.805 223.635C160.16 223.635 160.5 223.494 160.75 223.244C161.001 222.993 161.142 222.653 161.142 222.299Z" fill="white"/>
<path d="M159.805 223.938C159.479 223.939 159.161 223.843 158.889 223.663C158.618 223.483 158.406 223.226 158.281 222.925C158.155 222.624 158.122 222.293 158.186 221.973C158.249 221.654 158.406 221.36 158.636 221.13C158.867 220.899 159.16 220.742 159.48 220.679C159.8 220.616 160.131 220.649 160.432 220.774C160.732 220.899 160.989 221.111 161.17 221.383C161.35 221.654 161.446 221.973 161.444 222.299C161.444 222.514 161.402 222.727 161.32 222.926C161.237 223.125 161.116 223.305 160.964 223.458C160.812 223.61 160.631 223.731 160.433 223.813C160.234 223.895 160.021 223.938 159.805 223.938ZM159.805 221.259C159.599 221.257 159.398 221.317 159.226 221.431C159.054 221.544 158.92 221.707 158.84 221.896C158.76 222.086 158.739 222.296 158.778 222.498C158.818 222.7 158.916 222.886 159.062 223.032C159.207 223.178 159.392 223.278 159.594 223.319C159.796 223.359 160.006 223.339 160.196 223.26C160.386 223.182 160.549 223.049 160.664 222.877C160.778 222.706 160.84 222.505 160.84 222.299C160.84 222.162 160.814 222.027 160.763 221.901C160.711 221.775 160.635 221.66 160.539 221.564C160.443 221.467 160.328 221.39 160.203 221.338C160.077 221.285 159.942 221.259 159.805 221.259Z" fill="#263238"/>
<path d="M121.801 233.905C121.801 233.905 109.131 226.974 97.3134 225.71C85.4959 224.446 78.6377 229.943 78.6982 232.326C78.7586 234.709 86.9656 234.902 88.5259 235.302C90.0863 235.701 99.5935 233.07 113.631 236.408C127.668 239.747 129.47 240.43 129.47 240.43L121.801 233.905Z" fill="white"/>
<path d="M129.464 240.708C129.428 240.714 129.391 240.714 129.355 240.708C129.276 240.708 127.335 239.97 113.558 236.692C106.247 234.975 98.6892 234.565 91.2353 235.483C90.3131 235.644 89.3742 235.686 88.4412 235.61C87.7891 235.485 87.131 235.394 86.4696 235.338C83.2763 234.987 78.4441 234.449 78.3896 232.356C78.3896 231.558 78.9521 230.584 80.0226 229.598C82.8651 226.919 88.9129 224.5 97.3134 225.389C109.064 226.665 121.795 233.572 121.922 233.638L121.97 233.675L129.633 240.176C129.68 240.216 129.713 240.269 129.729 240.329C129.745 240.388 129.742 240.451 129.721 240.509C129.7 240.567 129.662 240.617 129.611 240.653C129.561 240.688 129.501 240.708 129.44 240.708H129.464ZM99.1277 234.37C104.036 234.373 108.928 234.95 113.703 236.088C122.364 238.15 126.367 239.196 128.17 239.716L121.626 234.177C120.973 233.82 108.647 227.246 97.2711 226.006C89.046 225.111 83.1796 227.494 80.4278 230.016C79.5146 230.856 78.9823 231.715 78.9944 232.314C79.0307 233.88 83.9174 234.425 86.5361 234.733C87.226 234.792 87.9123 234.887 88.5924 235.017C89.4559 235.064 90.322 235.016 91.1748 234.872C93.815 234.563 96.4697 234.396 99.1277 234.37Z" fill="#263238"/>
<path d="M116.503 233.747C116.503 233.747 103.282 227.935 91.3924 227.669C79.5023 227.403 73.1521 233.481 73.4182 235.864C73.6843 238.247 81.8852 237.715 83.4637 237.975C85.0422 238.235 94.2893 234.781 108.574 236.922C122.859 239.063 124.698 239.565 124.698 239.565L116.503 233.747Z" fill="white"/>
<path d="M124.692 239.868H124.613C124.535 239.868 122.539 239.305 108.526 237.231C101.095 236.141 93.5292 236.374 86.1792 237.92C85.2752 238.16 84.3445 238.284 83.4093 238.289C83.0585 238.229 82.3025 238.211 81.4195 238.187C78.2081 238.108 73.3457 237.987 73.1158 235.907C73.0312 235.12 73.521 234.092 74.5008 233.022C77.1135 230.173 82.9194 227.18 91.3985 227.379C103.216 227.639 116.491 233.427 116.624 233.481L116.679 233.512L124.867 239.33C124.926 239.37 124.968 239.43 124.987 239.498C125.006 239.567 125 239.64 124.97 239.705C124.943 239.754 124.903 239.796 124.854 239.825C124.805 239.853 124.749 239.868 124.692 239.868ZM99.2909 235.931C102.412 235.922 105.529 236.145 108.617 236.596C117.422 237.902 121.499 238.604 123.343 238.949L116.352 233.989C115.669 233.693 102.823 228.202 91.3864 227.942C83.1129 227.742 77.4763 230.633 74.9483 233.385C74.1137 234.298 73.6541 235.199 73.7388 235.804C73.9081 237.358 78.819 237.485 81.4558 237.546C82.1487 237.545 82.8412 237.581 83.5302 237.654C84.3934 237.624 85.2509 237.502 86.0885 237.292C90.4408 236.397 94.8719 235.941 99.3151 235.931H99.2909Z" fill="#263238"/>
<path d="M285.444 228.854L267.089 223.895C267.089 223.895 254.092 213.577 238.416 214.72C222.74 215.864 208.594 221.978 204.004 225.425C199.413 228.872 193.68 232.308 192.513 233.076C191.345 233.844 175.688 229.635 167.275 233.076C158.862 236.517 152.367 243.399 152.367 243.399C152.367 243.399 116.806 232.689 108.012 231.165C99.2185 229.641 88.8948 230.397 81.6313 235.749C74.3678 241.101 75.9221 244.53 79.7746 245.298C83.6271 246.067 84.3649 242.238 105.393 247.972C126.422 253.705 152.004 268.649 162.328 274.352C172.652 280.055 189.846 288.117 201.336 284.676C212.827 281.235 244.155 269.381 251.419 269.381C258.682 269.381 282.009 270.911 282.009 270.911L285.444 228.854Z" fill="white"/>
<path d="M195.167 285.807C184.759 285.807 171.907 280.019 162.182 274.619L159.273 272.992C147.988 266.666 124.529 253.53 105.284 248.262C90.2251 244.156 85.5864 244.978 82.8104 245.468C81.7871 245.719 80.724 245.762 79.6837 245.595C77.827 245.22 76.5993 244.258 76.309 242.952C75.9885 241.525 76.6295 239.069 81.4799 235.495C87.9451 230.729 97.6458 229.036 108.09 230.85C116.485 232.314 149.573 242.226 152.3 243.043C153.268 242.057 159.461 235.943 167.184 232.761C173.069 230.342 182.407 231.637 187.983 232.399C189.984 232.677 192.053 232.955 192.367 232.792C192.682 232.628 193.099 232.32 193.74 231.921C196.02 230.487 200.254 227.832 203.822 225.153C208.727 221.476 223.109 215.507 238.391 214.388C253.511 213.287 266.32 222.891 267.228 223.593L285.522 228.546C285.59 228.564 285.649 228.606 285.689 228.663C285.729 228.721 285.747 228.791 285.74 228.861L282.299 270.917C282.297 270.957 282.286 270.995 282.269 271.031C282.252 271.066 282.227 271.098 282.197 271.124C282.167 271.15 282.133 271.17 282.095 271.182C282.057 271.194 282.018 271.199 281.978 271.196C281.749 271.196 258.585 269.665 251.413 269.665C246.435 269.665 229.761 275.381 216.365 279.947C210.239 282.051 204.947 283.866 201.415 284.924C199.386 285.52 197.282 285.818 195.167 285.807ZM87.1468 244.458C90.5577 244.458 95.9585 245.105 105.442 247.694C124.74 252.955 148.26 266.14 159.57 272.49C160.634 273.095 161.608 273.633 162.479 274.111C174.169 280.612 190.384 287.67 201.24 284.392C204.759 283.34 210.051 281.525 216.172 279.427C229.61 274.818 246.332 269.085 251.413 269.085C258.162 269.085 278.985 270.421 281.724 270.597L285.117 229.09L267.01 224.186C266.97 224.175 266.933 224.156 266.901 224.131C266.774 224.028 253.82 213.886 238.434 215.017C223.278 216.124 209.035 222.026 204.185 225.661C200.598 228.353 196.323 231.02 194.061 232.453C193.426 232.852 192.954 233.148 192.7 233.318C192.271 233.608 190.994 233.451 187.904 233.021C182.382 232.266 173.147 231.002 167.414 233.348C159.159 236.723 152.675 243.533 152.609 243.599C152.57 243.64 152.521 243.67 152.466 243.683C152.411 243.697 152.354 243.695 152.3 243.678C151.943 243.575 116.66 232.961 107.988 231.455C97.7063 229.641 88.1749 231.316 81.8367 235.985C76.9985 239.547 76.6719 241.803 76.8956 242.825C77.1194 243.847 78.1959 244.682 79.8047 245.008C80.7715 245.159 81.7586 245.114 82.7076 244.875C84.1704 244.593 85.657 244.453 87.1468 244.458Z" fill="#263238"/>
<path d="M275.459 254.146L259.686 269.29L282.003 270.911L275.459 254.146Z" fill="#263238"/>
<path d="M282.002 271.213L259.692 269.593C259.633 269.588 259.577 269.567 259.53 269.532C259.483 269.496 259.446 269.448 259.426 269.393C259.408 269.338 259.406 269.278 259.42 269.222C259.434 269.165 259.463 269.113 259.504 269.073L275.277 253.953C275.314 253.92 275.358 253.897 275.405 253.884C275.453 253.872 275.502 253.871 275.55 253.881C275.598 253.892 275.643 253.914 275.68 253.945C275.718 253.977 275.748 254.017 275.767 254.062L282.305 270.826C282.323 270.874 282.33 270.925 282.323 270.976C282.317 271.027 282.298 271.075 282.269 271.117C282.235 271.153 282.194 271.181 282.147 271.197C282.101 271.214 282.051 271.22 282.002 271.213ZM260.387 269.036L281.555 270.578L275.344 254.679L260.387 269.036Z" fill="#263238"/>
<path d="M154.647 257.062C152.137 257.062 150.571 256.312 150.039 254.171C149.602 252.296 149.565 250.351 149.929 248.461C150.292 246.571 151.049 244.779 152.149 243.2C152.2 243.142 152.271 243.106 152.347 243.098C152.424 243.091 152.501 243.113 152.562 243.16C152.623 243.207 152.663 243.275 152.675 243.351C152.688 243.427 152.67 243.505 152.627 243.569C152.597 243.611 149.186 248.195 150.625 254.026C151.46 257.382 155.173 256.789 163.489 255.126C166.168 254.588 167.051 254.128 167.825 253.717C169.349 252.919 170.353 252.387 182.576 252.211C195.96 252.024 209.791 251.697 217.194 251.522C219.982 251.461 221.669 251.419 221.966 251.419C222.046 251.419 222.123 251.451 222.18 251.507C222.236 251.564 222.268 251.641 222.268 251.721C222.268 251.801 222.236 251.878 222.18 251.935C222.123 251.992 222.046 252.024 221.966 252.024C221.675 252.024 219.897 252.066 217.206 252.126C209.785 252.302 195.972 252.628 182.588 252.816C170.492 252.991 169.549 253.493 168.104 254.255C166.698 254.992 165.179 255.487 163.61 255.719C159.903 256.457 156.897 257.062 154.647 257.062Z" fill="#263238"/>
<path d="M152.258 256.656H152.21C152.17 256.65 152.133 256.637 152.098 256.616C152.064 256.596 152.035 256.569 152.011 256.537C151.987 256.505 151.97 256.468 151.961 256.43C151.951 256.391 151.95 256.351 151.956 256.312C152.143 255.444 152.514 254.627 153.046 253.917C153.577 253.206 154.255 252.618 155.034 252.193C155.228 252.09 159.54 249.871 162.346 249.871C163.273 249.907 164.174 250.186 164.959 250.68C165.744 251.173 166.386 251.864 166.821 252.683C166.977 252.919 167.06 253.195 167.06 253.478C167.06 253.761 166.977 254.037 166.821 254.273C166.796 254.304 166.765 254.329 166.729 254.348C166.694 254.366 166.656 254.378 166.616 254.381C166.536 254.389 166.457 254.364 166.395 254.313C166.333 254.261 166.294 254.188 166.287 254.108C166.28 254.028 166.304 253.948 166.356 253.886C166.507 253.705 166.483 253.36 166.289 252.943C165.901 252.228 165.336 251.626 164.647 251.194C163.958 250.762 163.17 250.514 162.358 250.475C159.697 250.475 155.379 252.701 155.336 252.719C154.642 253.105 154.037 253.632 153.56 254.266C153.083 254.901 152.744 255.629 152.566 256.402C152.555 256.475 152.517 256.541 152.46 256.587C152.403 256.634 152.332 256.659 152.258 256.656Z" fill="#263238"/>
<path d="M176.02 252.096C175.94 252.096 175.863 252.064 175.806 252.008C175.75 251.951 175.718 251.874 175.718 251.794V248.54C175.718 248.46 175.75 248.383 175.806 248.326C175.863 248.27 175.94 248.238 176.02 248.238C176.1 248.238 176.177 248.27 176.234 248.326C176.291 248.383 176.323 248.46 176.323 248.54V251.794C176.323 251.874 176.291 251.951 176.234 252.008C176.177 252.064 176.1 252.096 176.02 252.096Z" fill="#263238"/>
<path d="M177.811 250.306H177.75C177.71 250.302 177.672 250.289 177.637 250.27C177.602 250.25 177.571 250.224 177.546 250.193C177.521 250.161 177.503 250.125 177.492 250.086C177.482 250.048 177.479 250.007 177.484 249.967C177.69 248.49 177.636 246.988 177.327 245.528C177.306 245.45 177.318 245.366 177.359 245.296C177.399 245.226 177.466 245.175 177.544 245.153C177.621 245.133 177.703 245.144 177.772 245.183C177.842 245.223 177.892 245.288 177.913 245.365C178.245 246.901 178.303 248.484 178.083 250.04C178.075 250.109 178.043 250.173 177.994 250.221C177.944 250.27 177.88 250.3 177.811 250.306Z" fill="#263238"/>
<path d="M276.868 221.252H301.525V288.547H276.868C276.148 288.547 275.457 288.261 274.948 287.752C274.439 287.242 274.153 286.552 274.153 285.831V223.968C274.153 223.248 274.439 222.557 274.948 222.048C275.457 221.539 276.148 221.252 276.868 221.252Z" fill="#002A50"/>
<path d="M301.525 288.849H276.868C276.066 288.849 275.297 288.531 274.73 287.963C274.163 287.396 273.844 286.627 273.844 285.825V223.968C273.844 223.166 274.163 222.397 274.73 221.83C275.297 221.262 276.066 220.944 276.868 220.944H301.525C301.605 220.944 301.682 220.976 301.739 221.032C301.796 221.089 301.828 221.166 301.828 221.246V288.547C301.828 288.627 301.796 288.704 301.739 288.761C301.682 288.817 301.605 288.849 301.525 288.849ZM276.868 221.555C276.227 221.555 275.611 221.81 275.158 222.263C274.704 222.717 274.449 223.332 274.449 223.974V285.831C274.449 286.473 274.704 287.088 275.158 287.542C275.611 287.996 276.227 288.25 276.868 288.25H301.223V221.555H276.868Z" fill="#263238"/>
<path d="M301.731 217.793H345.39V293.802H301.731C301.184 293.802 300.659 293.585 300.273 293.198C299.886 292.812 299.668 292.287 299.668 291.74V219.861C299.668 219.59 299.72 219.321 299.824 219.07C299.927 218.819 300.079 218.591 300.27 218.399C300.462 218.207 300.69 218.055 300.94 217.951C301.191 217.847 301.459 217.793 301.731 217.793Z" fill="#002A50"/>
<path d="M345.39 294.105H301.731C301.103 294.105 300.501 293.856 300.056 293.413C299.612 292.969 299.361 292.368 299.36 291.74V219.862C299.361 219.234 299.612 218.632 300.056 218.189C300.501 217.746 301.103 217.497 301.731 217.497H345.39C345.47 217.497 345.547 217.529 345.604 217.585C345.661 217.642 345.692 217.719 345.692 217.799V293.803C345.692 293.883 345.661 293.96 345.604 294.016C345.547 294.073 345.47 294.105 345.39 294.105ZM301.731 218.102C301.499 218.101 301.27 218.146 301.055 218.234C300.841 218.322 300.646 218.451 300.482 218.615C300.318 218.778 300.188 218.973 300.099 219.187C300.01 219.401 299.965 219.63 299.965 219.862V291.74C299.965 291.972 300.01 292.201 300.099 292.415C300.188 292.629 300.318 292.823 300.482 292.987C300.646 293.15 300.841 293.28 301.055 293.368C301.27 293.456 301.499 293.501 301.731 293.5H345.088V218.102H301.731Z" fill="#263238"/>
<path d="M298.296 227.718H277.944C277.864 227.718 277.787 227.686 277.731 227.629C277.674 227.572 277.642 227.495 277.642 227.415C277.644 227.335 277.676 227.259 277.732 227.203C277.789 227.147 277.865 227.114 277.944 227.113H298.296C298.376 227.113 298.453 227.145 298.509 227.201C298.566 227.258 298.598 227.335 298.598 227.415C298.598 227.495 298.566 227.572 298.509 227.629C298.453 227.686 298.376 227.718 298.296 227.718Z" fill="#263238"/>
<path d="M298.023 235.707H277.334C277.253 235.707 277.177 235.675 277.12 235.618C277.063 235.562 277.031 235.485 277.031 235.404C277.031 235.324 277.063 235.247 277.12 235.191C277.177 235.134 277.253 235.102 277.334 235.102H298.023C298.104 235.102 298.18 235.134 298.237 235.191C298.294 235.247 298.326 235.324 298.326 235.404C298.324 235.484 298.292 235.56 298.235 235.617C298.179 235.673 298.103 235.705 298.023 235.707Z" fill="#263238"/>
<path d="M290.76 250.221H276.608C276.528 250.221 276.451 250.19 276.394 250.133C276.338 250.076 276.306 249.999 276.306 249.919C276.306 249.839 276.338 249.762 276.394 249.705C276.451 249.649 276.528 249.617 276.608 249.617H290.76C290.84 249.617 290.917 249.649 290.974 249.705C291.031 249.762 291.062 249.839 291.062 249.919C291.062 249.999 291.031 250.076 290.974 250.133C290.917 250.19 290.84 250.221 290.76 250.221Z" fill="#263238"/>
<path d="M298.023 250.221H293.3C293.22 250.221 293.143 250.19 293.086 250.133C293.029 250.076 292.998 249.999 292.998 249.919C292.999 249.839 293.031 249.763 293.088 249.707C293.144 249.651 293.22 249.618 293.3 249.617H298.023C298.103 249.618 298.179 249.651 298.235 249.707C298.292 249.763 298.324 249.839 298.326 249.919C298.326 249.999 298.294 250.076 298.237 250.133C298.18 250.19 298.104 250.221 298.023 250.221Z" fill="#263238"/>
</svg>
