<svg width="323" height="323" viewBox="0 0 323 323" fill="none" xmlns="http://www.w3.org/2000/svg">
<path d="M14.3874 17.8259L24.5851 17.6083L29.7617 17.5228C31.495 17.5228 33.2283 17.5228 34.9694 17.4839H35.3114V17.8337L35.358 26.5329V26.9216H34.9694L24.7017 26.8672C21.2662 26.8672 17.8385 26.7817 14.4107 26.7428H14.1931V26.5329C14.1931 25.0558 14.2631 23.5943 14.2942 22.1406L14.3874 17.8259ZM14.3874 17.8259L14.4962 22.2261C14.4962 23.672 14.5817 25.1025 14.5973 26.5251L14.3874 26.3152C17.8152 26.3152 21.2429 26.1908 24.6784 26.1908L34.9694 26.1364L34.5808 26.5251L34.6196 17.8259L34.9694 18.1758C33.2672 18.1758 31.5805 18.1758 29.8783 18.1291L24.7639 18.0436L14.3874 17.8259Z" fill="#EBEBEB"/>
<path d="M25.8673 6.85712L36.065 6.63945L41.2416 6.53838C42.9749 6.53838 44.716 6.53838 46.4493 6.49951H46.7913V6.84935L46.8379 15.5485V15.9372H46.4648L36.1583 15.8673C32.7228 15.8673 29.295 15.7818 25.8673 15.7429H25.6497V15.5563C25.6497 14.0792 25.7196 12.6177 25.7507 11.164L25.8673 6.85712ZM25.8673 6.85712L25.9761 11.2572C25.9761 12.7032 26.0616 14.1337 26.0772 15.5563L25.8673 15.3464C29.295 15.3464 32.7228 15.222 36.1583 15.222L46.4648 15.1676L46.0762 15.5563V6.85712L46.4259 7.20695C44.7315 7.20695 43.0371 7.20695 41.3349 7.16031L36.2205 7.07479L25.8673 6.85712Z" fill="#EBEBEB"/>
<path d="M45.8275 118.624L56.0252 118.407L61.2018 118.321C62.9351 118.321 64.6762 118.321 66.4095 118.274H66.7515V118.624L66.7981 127.323V127.712H66.4095L56.1185 127.658C52.683 127.658 49.2552 127.572 45.8275 127.533H45.6099V127.323C45.6099 125.846 45.6798 124.377 45.7109 122.923L45.8275 118.624ZM45.8275 118.624L45.9363 123.017C45.9363 124.463 46.0218 125.901 46.0374 127.323L45.8275 127.106C49.2552 127.067 52.683 126.989 56.1185 126.981L66.4095 126.935L66.0208 127.323V118.624L66.3706 118.966C64.6684 118.966 62.9817 118.966 61.2795 118.927L56.1651 118.842L45.8275 118.624Z" fill="#EBEBEB"/>
<path d="M57.3468 107.655L67.5445 107.438L72.7211 107.352C74.4544 107.313 76.1954 107.352 77.9287 107.305H78.2707V107.655L78.3174 116.354V116.743H77.9287L67.6378 116.689C64.2023 116.689 60.7745 116.603 57.3468 116.564H57.1292V116.354C57.1292 114.877 57.1991 113.408 57.238 111.954L57.3468 107.655ZM57.3468 107.655L57.4556 112.048C57.4556 113.494 57.5411 114.932 57.5566 116.354L57.3468 116.152C60.7745 116.152 64.2023 116.036 67.6378 116.028L77.9287 115.981L77.5401 116.37V107.671L77.8899 108.013C76.1954 108.013 74.501 108.013 72.7988 108.013L67.6844 107.927L57.3468 107.655Z" fill="#EBEBEB"/>
<path d="M2.93818 6.85682L13.1437 6.63915L18.2814 6.53809C20.038 6.53809 21.748 6.53809 23.4813 6.53809H23.831V6.88792L23.8699 15.5871V15.9758H23.4735L13.1903 15.867C9.76256 15.867 6.33482 15.7815 2.89931 15.7426H2.68945V15.556C2.68945 14.0789 2.75941 12.6174 2.7905 11.1637L2.93818 6.85682ZM2.93818 6.85682L3.05477 11.2569C3.05477 12.7029 3.14027 14.1334 3.15581 15.556L2.93818 15.3461C6.37369 15.3461 9.80142 15.2217 13.2292 15.2217L23.5201 15.1673L23.1315 15.556L23.1471 6.85682L23.4891 7.20666C21.7946 7.20666 20.108 7.20666 18.4057 7.16001L13.2913 7.0745L2.93818 6.85682Z" fill="#EBEBEB"/>
<path d="M308.613 195.79L298.415 196L293.239 196.093C291.505 196.093 289.772 196.093 288.031 196.132H287.689V195.782L287.642 187.083V186.687H288.031L298.322 186.733C301.757 186.733 305.185 186.819 308.613 186.858H308.831V187.068C308.831 188.537 308.761 190.006 308.73 191.46L308.613 195.79ZM308.613 195.79L308.504 191.39C308.504 189.944 308.419 188.514 308.403 187.091L308.613 187.301C305.185 187.34 301.757 187.425 298.322 187.425L288.031 187.48L288.42 187.091L288.381 195.79L288.031 195.44C289.733 195.44 291.42 195.44 293.122 195.487L298.236 195.573L308.613 195.79Z" fill="#EBEBEB"/>
<path d="M320.101 206.759L309.895 206.969L304.719 207.063C302.986 207.063 301.252 207.063 299.519 207.102H299.169V206.759L299.13 198.06V197.664H299.527L309.818 197.71C313.245 197.71 316.673 197.796 320.109 197.835H320.319V198.045C320.319 199.514 320.249 200.983 320.218 202.437L320.101 206.759ZM320.101 206.759L319.984 202.359C319.984 200.913 319.899 199.483 319.883 198.06L320.101 198.27C316.665 198.309 313.238 198.395 309.81 198.395L299.519 198.449L299.908 198.06L299.853 206.759L299.511 206.41C301.206 206.41 302.892 206.41 304.595 206.456L309.709 206.542L320.101 206.759Z" fill="#EBEBEB"/>
<path d="M35.1403 206.759L24.9426 206.969L19.766 207.063C18.0327 207.063 16.2916 207.063 14.5583 207.102H14.2163V206.759L14.1697 198.06V197.664H14.5972L24.8882 197.71C28.3237 197.71 31.7514 197.796 35.1791 197.835H35.3968V198.045C35.3968 199.514 35.3268 200.983 35.288 202.437L35.1403 206.759ZM35.1403 206.759L35.0315 202.359C35.0315 200.913 34.946 199.483 34.9304 198.06L35.1403 198.27C31.7125 198.309 28.2848 198.395 24.8493 198.395L14.5972 198.449L14.9858 198.06L14.9469 206.759L14.5972 206.41C16.2916 206.41 17.986 206.41 19.6883 206.456L24.8027 206.542L35.1403 206.759Z" fill="#EBEBEB"/>
<path d="M287.945 6.85695L298.151 6.63928L303.328 6.55376C305.053 6.55376 306.794 6.55376 308.527 6.51489H308.877V6.86472L308.916 15.5639V15.9526H308.527L298.236 15.8671C294.809 15.8671 291.373 15.7816 287.945 15.7427H287.736V15.5561C287.736 14.0791 287.798 12.6175 287.837 11.1638L287.945 6.85695ZM287.945 6.85695L288.054 11.2571C288.093 12.7031 288.148 14.1335 288.155 15.5561L287.945 15.3462C291.373 15.3462 294.809 15.2219 298.236 15.2219L308.527 15.1674L308.139 15.5561L308.185 6.85695L308.527 7.20678C306.833 7.20678 305.139 7.20678 303.444 7.16014L298.299 7.07462L287.945 6.85695Z" fill="#EBEBEB"/>
<path d="M49.8149 80.7725H10.1899V120.405H49.8149V80.7725Z" fill="white"/>
<path d="M8.13037 78.7124V122.473H51.9059V78.7124H8.13037ZM49.8151 120.413H10.1746V80.7648H49.8151V120.413Z" fill="#DBDBDB"/>
<path d="M46.9702 112.732V99.0342H16.0817V112.732H46.9702Z" fill="#EBEBEB"/>
<path d="M37.915 108.503V92.6748H22.0899V108.503H37.915Z" fill="#C7C7C7"/>
<path d="M53.5692 78.7124H51.8826V122.473H53.5692V78.7124Z" fill="#C7C7C7"/>
<path d="M81.6674 137.057H42.0425V176.689H81.6674V137.057Z" fill="white"/>
<path d="M59.2043 143.393H48.8589V173.284H59.2043V143.393Z" fill="#C7C7C7"/>
<path d="M39.9824 134.989V178.749H83.7735V134.989H39.9824ZM81.6749 176.689H42.0344V137.041H81.6749V176.689Z" fill="#DBDBDB"/>
<path d="M69.7751 148.959H53.95V164.787H69.7751V148.959Z" fill="#EBEBEB"/>
<path d="M85.4215 134.989H83.7349V178.749H85.4215V134.989Z" fill="#C7C7C7"/>
<path opacity="0.19" d="M29.1243 46.0615C37.4565 46.0615 44.211 39.3057 44.211 30.9721C44.211 22.6384 37.4565 15.8826 29.1243 15.8826C20.7921 15.8826 14.0376 22.6384 14.0376 30.9721C14.0376 39.3057 20.7921 46.0615 29.1243 46.0615Z" fill="#EBEBEB"/>
<path opacity="0.19" d="M40.3089 33.4515C40.3089 35.6641 39.6529 37.827 38.4239 39.6666C37.1949 41.5063 35.4481 42.9402 33.4043 43.7869C31.3605 44.6336 29.1116 44.8551 26.942 44.4235C24.7724 43.9918 22.7794 42.9264 21.2152 41.3619C19.6509 39.7974 18.5857 37.804 18.1541 35.634C17.7226 33.464 17.9441 31.2146 18.7906 29.1705C19.6372 27.1264 21.0708 25.3792 22.9101 24.15C24.7494 22.9207 26.9119 22.2646 29.1241 22.2646C32.0905 22.2646 34.9354 23.4433 37.0329 25.5412C39.1305 27.6392 40.3089 30.4846 40.3089 33.4515Z" fill="#EBEBEB"/>
<path d="M45.5945 33.4521L35.1714 51.2159H23.0772L12.6541 33.4521H45.5945Z" fill="#EBEBEB"/>
<path d="M38.0005 57.1938H20.2478L23.0771 51.2156H35.1713L38.0005 57.1938Z" fill="#EBEBEB"/>
<path d="M37.0524 48.0051L35.1714 51.2152H23.0694L21.647 48.7902L37.0524 48.0051Z" fill="#C7C7C7"/>
<path opacity="0.19" d="M293.876 46.0615C302.208 46.0615 308.963 39.3057 308.963 30.9721C308.963 22.6384 302.208 15.8826 293.876 15.8826C285.544 15.8826 278.789 22.6384 278.789 30.9721C278.789 39.3057 285.544 46.0615 293.876 46.0615Z" fill="#EBEBEB"/>
<path opacity="0.19" d="M305.061 33.4515C305.061 35.6641 304.405 37.827 303.176 39.6666C301.947 41.5063 300.2 42.9402 298.156 43.7869C296.112 44.6336 293.864 44.8551 291.694 44.4235C289.524 43.9918 287.531 42.9264 285.967 41.3619C284.403 39.7974 283.338 37.804 282.906 35.634C282.475 33.464 282.696 31.2146 283.543 29.1705C284.389 27.1264 285.823 25.3792 287.662 24.15C289.501 22.9207 291.664 22.2646 293.876 22.2646C296.842 22.2646 299.687 23.4433 301.785 25.5412C303.882 27.6392 305.061 30.4846 305.061 33.4515Z" fill="#EBEBEB"/>
<path d="M310.346 33.4521L299.923 51.2159H287.829L277.414 33.4521H310.346Z" fill="#EBEBEB"/>
<path d="M302.76 57.1938H285.008L287.829 51.2156H299.923L302.76 57.1938Z" fill="#EBEBEB"/>
<path d="M301.812 48.0051L299.931 51.2152H287.829L286.406 48.7902L301.812 48.0051Z" fill="#C7C7C7"/>
<path d="M65.531 241.315C62.7717 238.602 59.1963 235.329 54.968 236.503C50.9962 237.599 49.4727 241.945 48.7499 245.56C47.8249 250.224 47.1176 254.928 46.3714 259.616C45.6253 264.303 44.9257 269.1 44.2417 273.85C43.8635 276.524 43.4852 279.204 43.1069 281.888L42.5784 285.939C42.3918 287.252 42.1742 288.566 42.1042 289.896C42.1042 290.315 42.7416 290.378 42.8349 289.973C43.3479 287.742 43.5577 285.418 43.8842 283.148C44.2106 280.878 44.5449 278.584 44.8791 276.299C45.5398 271.766 46.2315 267.234 46.9077 262.71C47.584 258.185 48.299 253.645 49.0219 249.121C49.6359 245.28 49.9235 240.515 53.3279 237.98C54.2534 237.359 55.3213 236.982 56.4319 236.886C57.5425 236.789 58.6594 236.976 59.6782 237.428C61.9167 238.284 63.7044 239.885 65.4533 241.471C65.4739 241.481 65.4978 241.483 65.5196 241.476C65.5415 241.468 65.5596 241.453 65.5699 241.432C65.5802 241.411 65.5819 241.388 65.5746 241.366C65.5673 241.344 65.5516 241.326 65.531 241.315Z" fill="#263238"/>
<path d="M61.7536 238.579C61.7536 238.579 56.1029 236.542 53.3125 240.67C50.5221 244.798 53.8566 255.285 79.584 261.201C78.8177 253.156 76.7162 245.295 73.3659 237.941C67.8784 225.915 58.0538 230.47 61.7536 238.579Z" fill="#1281E5"/>
<path d="M78.1072 259.483C77.718 258.762 77.2845 258.066 76.8092 257.399C76.3843 256.731 75.949 256.07 75.5034 255.417C75.1769 254.919 74.835 254.429 74.5007 253.94C74.5007 253.823 74.5007 253.699 74.5474 253.574C74.594 253.45 74.6018 253.131 74.6329 252.906C74.695 252.424 74.765 251.942 74.8427 251.46C74.9127 250.978 74.9904 250.504 75.0837 250.029C75.1425 249.514 75.2545 249.006 75.4179 248.513C75.4179 248.436 75.3168 248.397 75.3091 248.513C75.2542 248.804 75.1762 249.09 75.0759 249.369C75.0137 249.586 74.9593 249.804 74.9049 250.022C74.7805 250.504 74.6562 250.993 74.5474 251.491C74.4385 251.988 74.3608 252.4 74.2831 252.851C74.2831 253.077 74.2131 253.294 74.182 253.512C73.7235 252.859 73.2571 252.214 72.7752 251.576C71.415 249.773 69.9693 248.047 68.4691 246.352C68.4691 246.352 68.4691 246.352 68.4691 246.306C68.6013 243.608 68.5391 240.926 69.1376 238.267C69.1376 238.197 69.0443 238.158 69.0288 238.228C68.3519 240.737 68.0275 243.327 68.065 245.925C67.5364 245.326 66.9923 244.727 66.4405 244.137C65.1891 242.792 63.9144 241.462 62.6086 240.164C62.5983 240.153 62.5839 240.146 62.5686 240.145C62.5533 240.144 62.5383 240.15 62.527 240.16C62.5156 240.17 62.5088 240.185 62.5081 240.2C62.5074 240.215 62.5128 240.23 62.5231 240.242C64.6916 242.574 66.7514 245.007 68.7412 247.487C67.1718 247.459 65.6019 247.516 64.0387 247.658C62.2899 247.79 60.5566 248.008 58.8311 248.249C58.8192 248.254 58.8089 248.261 58.8017 248.272C58.7944 248.282 58.7905 248.295 58.7905 248.307C58.7905 248.32 58.7944 248.332 58.8017 248.343C58.8089 248.353 58.8192 248.361 58.8311 248.366C60.5547 248.117 62.2905 247.961 64.031 247.899C65.7099 247.829 67.3732 247.899 69.0521 247.899C70.1351 249.247 71.2051 250.602 72.2622 251.965H72.1145C71.7181 251.965 71.3373 251.965 70.9253 251.965C70.148 251.965 69.3708 252.035 68.5935 252.097C66.9964 252.23 65.4098 252.469 63.8444 252.812C63.8325 252.817 63.8223 252.825 63.815 252.835C63.8078 252.846 63.8039 252.858 63.8039 252.871C63.8039 252.883 63.8078 252.896 63.815 252.906C63.8223 252.917 63.8325 252.925 63.8444 252.929C65.399 252.75 67.0079 252.595 68.5935 252.54C69.3708 252.54 70.1092 252.54 70.8709 252.54C71.2673 252.54 71.6482 252.54 72.0523 252.54C72.2713 252.571 72.4943 252.552 72.7052 252.486C73.3944 253.383 74.0836 254.282 74.7728 255.184C75.3168 255.899 75.8609 256.622 76.3895 257.36C76.918 258.099 77.4155 258.915 78.0217 259.623C78.0528 259.599 78.1306 259.537 78.1072 259.483Z" fill="#263238"/>
<path d="M64.2099 244.425C63.2976 244.308 62.3778 244.262 61.4584 244.285C60.5412 244.285 59.624 244.285 58.7069 244.347C58.6975 244.344 58.6874 244.343 58.6774 244.344C58.6675 244.345 58.658 244.349 58.6497 244.355C58.6415 244.36 58.6348 244.368 58.6301 244.377C58.6255 244.386 58.623 244.396 58.623 244.406C58.623 244.416 58.6255 244.426 58.6301 244.435C58.6348 244.443 58.6415 244.451 58.6497 244.457C58.658 244.462 58.6675 244.466 58.6774 244.467C58.6874 244.469 58.6975 244.467 58.7069 244.464C59.6396 244.394 60.5645 244.378 61.4972 244.394C62.43 244.41 63.3005 244.495 64.2021 244.472L64.2099 244.425Z" fill="#263238"/>
<path d="M72.2857 246.492C72.3945 245.613 72.5033 244.735 72.6899 243.872C72.6934 243.863 72.6945 243.852 72.6933 243.842C72.692 243.833 72.6884 243.823 72.6826 243.815C72.6769 243.807 72.6693 243.8 72.6604 243.795C72.6515 243.791 72.6416 243.788 72.6316 243.788C72.6216 243.788 72.6117 243.791 72.6028 243.795C72.5939 243.8 72.5863 243.807 72.5805 243.815C72.5748 243.823 72.5712 243.833 72.5699 243.842C72.5686 243.852 72.5698 243.863 72.5733 243.872C72.4412 244.743 72.2779 245.598 72.1458 246.468C72.0836 246.896 72.0214 247.331 71.9748 247.767C71.8921 248.171 71.8556 248.583 71.866 248.995C71.8711 249.011 71.881 249.024 71.8942 249.034C71.9075 249.043 71.9235 249.048 71.9398 249.048C71.9562 249.048 71.9721 249.043 71.9854 249.034C71.9987 249.024 72.0086 249.011 72.0137 248.995C72.0952 248.593 72.142 248.185 72.1536 247.775C72.1924 247.331 72.2391 246.912 72.2857 246.492Z" fill="#263238"/>
<path d="M70.56 236.759C70.3345 237.614 70.1169 238.477 69.9537 239.348C69.876 239.791 69.806 240.234 69.7516 240.677C69.6652 241.107 69.6364 241.546 69.6661 241.983C69.6661 241.983 69.7205 241.983 69.7283 241.983C69.8308 241.577 69.8984 241.164 69.9304 240.747C69.9926 240.319 70.0547 239.892 70.1325 239.464C70.2879 238.57 70.4434 237.684 70.6688 236.798C70.6739 236.783 70.6731 236.767 70.6666 236.754C70.66 236.74 70.6482 236.729 70.6338 236.724C70.6194 236.719 70.6035 236.719 70.5896 236.726C70.5758 236.733 70.5651 236.744 70.56 236.759Z" fill="#263238"/>
<path d="M37.0909 288.947C36.951 287.324 36.7956 285.705 36.6246 284.088C36.2826 280.885 35.8965 277.685 35.4664 274.487C35.0389 271.307 34.627 268.112 34.114 264.94C33.9244 263.467 33.5965 262.014 33.1346 260.602C32.9654 259.999 32.6613 259.442 32.2452 258.973C31.8292 258.504 31.312 258.136 30.7329 257.897C27.7093 256.848 25.6651 259.988 24.4448 262.212C24.4448 262.282 24.4992 262.328 24.5459 262.266C25.2765 261.217 27.2974 258.262 29.5903 258.379C31.1448 258.472 32.3729 259.561 33.1191 263.417C34.9612 273.018 36.6323 292.499 36.8266 293.774C36.9277 294.451 37.4018 294.42 37.4096 293.697C37.4174 292.126 37.2308 290.533 37.0909 288.947Z" fill="#263238"/>
<path d="M25.2611 261.013C25.2611 261.013 27.9038 251.685 22.0588 256.349C12.3197 264.123 11.9543 281.047 11.9543 281.047C11.9543 281.047 29.2563 270.988 31.386 264.364C34.6349 254.475 25.2611 261.013 25.2611 261.013Z" fill="#1281E5"/>
<path d="M28.5332 265.602C27.1729 265.881 25.7972 266.06 24.4292 266.255L22.4783 266.527C22.043 266.589 21.6 266.635 21.1569 266.69C22.4472 264.91 23.7452 263.145 24.9811 261.326C25.0277 261.256 24.9189 261.186 24.8645 261.248C23.8374 262.303 22.872 263.417 21.973 264.583L21.1958 262.414C20.9004 261.575 20.5895 260.743 20.3719 259.88C20.3719 259.81 20.2475 259.841 20.2631 259.919C20.4962 260.774 20.6672 261.645 20.8926 262.507C21.118 263.37 21.3668 264.156 21.6699 264.956C21.0403 265.78 20.4263 266.628 19.8356 267.475C19.5402 266.635 19.1671 265.819 18.9106 264.956C18.9106 264.942 18.9049 264.928 18.8947 264.918C18.8845 264.908 18.8706 264.902 18.8562 264.902C18.8418 264.902 18.8279 264.908 18.8177 264.918C18.8075 264.928 18.8018 264.942 18.8018 264.956C19.1127 265.905 19.2759 266.892 19.5791 267.84C19.1827 268.424 18.8018 268.999 18.4054 269.59C17.7136 270.67 17.053 271.766 16.4078 272.878C16.359 272.9 16.3179 272.936 16.2902 272.982C16.2624 273.028 16.2492 273.081 16.2524 273.135C15.1642 275.031 14.1227 276.952 13.0967 278.887C13.0967 278.95 13.1589 279.004 13.1977 278.942C14.2237 277.029 15.3663 275.164 16.5555 273.337C16.7399 273.279 16.9302 273.242 17.1229 273.228L17.7136 273.096C18.1644 273.002 18.6075 272.886 19.0505 272.769C19.9288 272.552 20.7994 272.349 21.6932 272.194C21.7632 272.194 21.7321 272.07 21.6932 272.085C20.6439 272.279 19.5946 272.404 18.5375 272.52C18.0401 272.583 17.5426 272.645 17.0452 272.723H16.9675C17.5996 271.774 18.2318 270.836 18.864 269.908C19.4936 268.999 20.1387 268.097 20.7838 267.195C21.3901 267.11 21.9808 266.954 22.5793 266.838L24.5846 266.449C25.9293 266.185 27.2584 265.881 28.6031 265.671C28.642 265.703 28.5876 265.586 28.5332 265.602Z" fill="#263238"/>
<path d="M18.1333 266.526L17.9001 265.748C17.7409 265.238 17.6086 264.719 17.5037 264.194C17.5037 264.116 17.3794 264.194 17.3949 264.194C17.5037 264.723 17.6281 265.243 17.7524 265.748C17.8599 266.278 18.0107 266.798 18.2033 267.303C18.2115 267.329 18.2296 267.35 18.2537 267.363C18.2656 267.369 18.2786 267.372 18.292 267.374C18.3053 267.375 18.3187 267.373 18.3315 267.369C18.3443 267.365 18.3561 267.358 18.3663 267.35C18.3765 267.341 18.385 267.331 18.3911 267.319C18.3972 267.307 18.401 267.294 18.4021 267.28C18.4032 267.267 18.4017 267.254 18.3976 267.241C18.3276 267.054 18.2188 266.79 18.1333 266.526Z" fill="#263238"/>
<path d="M30.3055 263.439C29.5282 263.556 28.751 263.61 27.9271 263.68C27.1032 263.75 26.3725 263.867 25.5486 263.983C25.502 263.983 25.502 264.053 25.5486 264.053C26.3259 263.999 27.1032 263.937 27.9271 263.836C28.751 263.734 29.4816 263.61 30.3055 263.556C30.3832 263.548 30.3755 263.431 30.3055 263.439Z" fill="#263238"/>
<path d="M49.8303 277.114C49.5194 270.234 49.053 263.369 48.3923 256.521C48.0503 253.108 47.6617 249.695 47.1876 246.298C46.756 242.96 46.0964 239.656 45.2133 236.409C44.6048 233.877 43.486 231.496 41.9255 229.412C41.1509 228.409 40.1338 227.619 38.9698 227.117C37.8059 226.615 36.5334 226.418 35.2721 226.544C32.2641 226.909 29.8313 228.806 27.7404 230.874C25.4086 233.206 23.2401 235.709 21.0559 238.181C20.5041 238.803 19.96 239.433 19.4159 240.071C19.3693 240.125 19.4159 240.203 19.5014 240.148C21.6311 237.699 23.8463 235.321 26.1626 233.051C28.3 230.952 30.5075 228.65 33.4689 227.788C34.8444 227.347 36.3178 227.312 37.7127 227.686C38.8209 228.038 39.8195 228.67 40.6119 229.521C42.1943 231.346 43.3164 233.524 43.8842 235.873C45.7341 242.201 46.3948 248.832 47.0865 255.362C47.7783 261.892 48.2524 268.648 48.5867 275.31C48.9209 281.973 49.1851 288.713 49.8303 295.391C49.908 296.215 50.0168 297.031 50.1179 297.855C50.1878 298.407 51.0506 298.407 51.0039 297.855C50.4599 290.936 50.1412 284.025 49.8303 277.114Z" fill="#263238"/>
<path d="M27.3674 231.605C27.3674 231.605 31.2538 224.337 26.6524 222.005C22.0509 219.672 6.44348 237.016 1.94312 262.375C1.94312 262.375 27.0254 251.274 35.5443 240.211C44.0631 229.149 34.4095 226.716 27.3674 231.605Z" fill="#1281E5"/>
<path d="M31.0519 237.522C28.2304 237.522 25.4245 237.312 22.603 237.327C23.1316 236.721 23.6523 236.114 24.1575 235.516C24.9469 234.708 25.6842 233.851 26.365 232.95C26.365 232.896 26.3183 232.81 26.2639 232.857C25.4999 233.516 24.7855 234.231 24.1265 234.995C23.4191 235.772 22.7196 236.495 22.0201 237.257C20.9397 238.423 19.8826 239.589 18.8333 240.794C18.8333 240.678 18.8333 240.561 18.8333 240.452C18.8333 239.963 18.8333 239.465 18.8333 238.968C18.8333 238.011 18.8333 237.055 18.8333 236.099C18.8333 234.163 18.8333 232.212 18.9887 230.276C18.9887 230.206 18.8721 230.206 18.8721 230.276C18.7322 232.22 18.5301 234.163 18.4369 236.107C18.3902 237.063 18.3669 238.019 18.3591 238.975C18.3591 239.465 18.3591 239.963 18.3591 240.452C18.3591 240.724 18.3591 241.012 18.3591 241.284L17.8617 241.836C15.6076 244.409 13.4702 247.068 11.3871 249.781C11.3951 249.631 11.3951 249.481 11.3871 249.33C11.3871 249.027 11.3249 248.732 11.2938 248.436C11.2161 247.783 11.1306 247.146 11.0295 246.501C10.9285 245.855 10.843 245.288 10.742 244.689C10.6409 244.091 10.4621 243.321 10.4155 242.637C10.419 242.628 10.4202 242.617 10.4189 242.607C10.4176 242.597 10.414 242.588 10.4083 242.58C10.4025 242.572 10.3949 242.565 10.386 242.56C10.3771 242.555 10.3672 242.553 10.3572 242.553C10.3472 242.553 10.3373 242.555 10.3284 242.56C10.3195 242.565 10.3119 242.572 10.3062 242.58C10.3004 242.588 10.2968 242.597 10.2955 242.607C10.2943 242.617 10.2954 242.628 10.2989 242.637C10.4192 243.321 10.4971 244.011 10.5321 244.705C10.5943 245.327 10.6487 245.949 10.7109 246.563C10.773 247.177 10.8197 247.807 10.8819 248.429L10.9751 249.323C10.9751 249.47 10.9751 249.626 11.0295 249.774C11.0398 249.898 11.0798 250.018 11.1461 250.123L10.0735 251.53C8.65111 253.412 7.25981 255.316 5.86073 257.213C5.8141 257.275 5.86073 257.353 5.94623 257.299C7.26758 255.573 8.6278 253.878 10.0036 252.199C11.0373 252.246 12.0944 252.199 13.1126 252.152C14.1308 252.106 15.289 252.152 16.3771 252.152C16.3926 252.152 16.4074 252.146 16.4183 252.135C16.4293 252.124 16.4354 252.11 16.4354 252.094C16.4354 252.079 16.4293 252.064 16.4183 252.053C16.4074 252.042 16.3926 252.036 16.3771 252.036C15.289 252.036 14.2008 252.075 13.1126 252.075C12.0244 252.075 11.1073 252.028 10.1201 252.075C11.3482 250.603 12.5815 249.136 13.8199 247.674L15.1646 246.081C15.5819 246.136 16.0038 246.149 16.4238 246.12H17.9083C18.8333 246.12 19.7582 246.12 20.6909 246.081C22.603 246.081 24.5151 245.988 26.4349 245.98C26.5049 245.98 26.5049 245.871 26.4349 245.863C24.5229 245.863 22.603 245.762 20.6832 245.715C19.7582 245.715 18.8333 245.661 17.9006 245.645H16.416C16.1362 245.645 15.8486 245.645 15.561 245.645C16.6181 244.402 17.6674 243.15 18.7245 241.898C18.7501 241.886 18.7696 241.863 18.7789 241.836C19.8126 240.623 20.8386 239.411 21.8879 238.206L22.3154 237.716C25.2379 237.801 28.1527 237.615 31.0752 237.669C31.0849 237.668 31.0942 237.664 31.1026 237.659C31.1109 237.654 31.1182 237.647 31.124 237.639C31.1298 237.631 31.1339 237.622 31.1362 237.613C31.1385 237.603 31.1389 237.593 31.1374 237.584C31.1358 237.574 31.1324 237.565 31.1273 237.556C31.1222 237.548 31.1154 237.541 31.1075 237.535C31.0996 237.529 31.0906 237.525 31.081 237.523C31.0715 237.52 31.0616 237.52 31.0519 237.522Z" fill="#263238"/>
<path d="M29.6136 242.504H28.9297C28.9152 242.504 28.9014 242.51 28.8912 242.52C28.881 242.53 28.8752 242.544 28.8752 242.558C28.8752 242.573 28.881 242.587 28.8912 242.597C28.9014 242.607 28.9152 242.613 28.9297 242.613H29.6136C29.6914 242.621 29.6836 242.504 29.6136 242.504Z" fill="#263238"/>
<path d="M28.0903 242.512C27.1887 242.512 26.287 242.512 25.3854 242.457L24.0252 242.411C23.6068 242.364 23.1845 242.364 22.766 242.411C22.7577 242.414 22.7506 242.42 22.7457 242.428C22.7407 242.436 22.738 242.444 22.738 242.453C22.738 242.463 22.7407 242.471 22.7457 242.479C22.7506 242.487 22.7577 242.493 22.766 242.496C23.1826 242.582 23.6084 242.613 24.033 242.59H25.3854C26.287 242.59 27.1887 242.59 28.0981 242.59C28.168 242.628 28.168 242.52 28.0903 242.512Z" fill="#263238"/>
<path d="M20.2091 250.986C18.3745 250.678 16.5194 250.509 14.6594 250.48C16.5015 250.659 18.3514 250.76 20.178 251.056C20.248 251.11 20.279 250.993 20.2091 250.986Z" fill="#263238"/>
<path d="M12.6616 242.907C12.6616 242.744 12.6616 242.588 12.6072 242.425C12.5606 242.06 12.4984 241.702 12.444 241.337C12.3351 240.653 12.2186 239.961 12.0864 239.277C12.0864 239.215 11.9621 239.231 11.9698 239.277C12.0553 239.992 12.1331 240.7 12.203 241.407C12.203 241.757 12.2574 242.107 12.2885 242.456C12.2793 242.793 12.3266 243.13 12.4284 243.451C12.4828 243.56 12.6461 243.513 12.6771 243.451C12.71 243.271 12.7047 243.085 12.6616 242.907Z" fill="#263238"/>
<path d="M49.5739 222.268C48.68 220.596 47.5375 218.381 45.2912 218.528C43.4413 218.645 42.6096 220.534 42.1821 222.097C40.9618 226.924 40.8763 232.017 40.6276 236.969C40.1224 247.425 39.6716 257.896 39.6094 268.368C39.6094 271.268 39.6094 274.175 39.6094 277.075C39.6094 279.975 39.6094 283.014 39.8192 285.969C39.8192 286.026 39.8422 286.082 39.883 286.123C39.9238 286.163 39.9792 286.186 40.0369 286.186C40.0946 286.186 40.1499 286.163 40.1908 286.123C40.2316 286.082 40.2545 286.026 40.2545 285.969C40.2545 283.442 40.1768 280.908 40.169 278.373C40.1612 275.839 40.169 273.429 40.2156 270.957C40.3037 265.961 40.4385 260.959 40.6198 255.953C40.8064 250.977 41.024 246.01 41.2339 241.034C41.3349 238.555 41.4437 236.067 41.5525 233.587C41.6614 231.107 41.7702 228.767 42.0422 226.373C42.1977 225.035 42.392 223.69 42.6718 222.377C42.8136 221.396 43.2133 220.47 43.8299 219.695C44.2582 219.273 44.8224 219.017 45.4218 218.973C46.0212 218.929 46.6168 219.099 47.1022 219.454C48.1302 220.185 48.9369 221.186 49.434 222.346C49.5195 222.4 49.6205 222.338 49.5739 222.268Z" fill="#263238"/>
<path d="M48.9756 221.475C48.9756 221.475 47.1334 214.968 51.2063 218.218C57.9918 223.66 58.2017 235.422 58.2017 235.422C58.2017 235.422 46.1463 228.425 44.6462 223.799C42.4388 216.919 48.9756 221.475 48.9756 221.475Z" fill="#1281E5"/>
<path d="M55.6909 230.587C55.5821 230.409 55.4655 230.238 55.3489 230.059C55.3645 229.873 55.3645 229.685 55.3489 229.499V228.659C55.3489 228.107 55.3489 227.563 55.4111 227.011C55.4111 226.941 55.3023 226.941 55.2945 227.011C55.2945 227.548 55.2479 228.084 55.2323 228.628C55.2323 228.893 55.2323 229.165 55.2323 229.406C55.2323 229.507 55.2323 229.631 55.2323 229.748C54.7582 229.017 54.2763 228.286 53.7711 227.571L53.328 226.957C53.2529 226.252 53.2399 225.542 53.2892 224.835C53.2892 224.057 53.2892 223.28 53.3358 222.565C53.3358 222.487 53.2192 222.495 53.2192 222.565C53.2192 223.342 53.157 224.119 53.1182 224.897C53.0715 225.455 53.0559 226.016 53.0715 226.576C51.9056 225.021 50.6698 223.466 49.4262 221.95C49.3795 221.904 49.294 221.95 49.3329 222.02C50.1102 223 50.8486 224.011 51.5792 225.029C50.1568 224.695 48.7189 224.508 47.2731 224.298C47.2032 224.298 47.1721 224.399 47.2731 224.407C48.8277 224.64 50.2967 225.021 51.7968 225.355C52.372 226.172 52.9472 226.988 53.5146 227.812C53.7478 228.139 53.9732 228.481 54.1986 228.815H54.1364L53.6623 228.753C53.3254 228.716 52.9912 228.685 52.6596 228.659C51.9678 228.605 51.2683 228.566 50.5765 228.527C50.5646 228.532 50.5544 228.54 50.5471 228.55C50.5399 228.561 50.536 228.573 50.536 228.586C50.536 228.598 50.5399 228.611 50.5471 228.621C50.5544 228.632 50.5646 228.639 50.5765 228.644C51.2605 228.644 51.9445 228.714 52.6285 228.784L53.7011 228.916L54.1752 228.97H54.3152L55.4733 230.681C56.1495 231.684 56.7558 232.764 57.4864 233.736C57.4905 233.742 57.4957 233.747 57.5018 233.751C57.508 233.756 57.5148 233.758 57.522 233.76C57.5293 233.761 57.5367 233.761 57.5439 233.76C57.5511 233.758 57.558 233.756 57.5641 233.751C57.5702 233.747 57.5755 233.742 57.5796 233.736C57.5837 233.73 57.5865 233.723 57.588 233.716C57.5894 233.709 57.5894 233.701 57.588 233.694C57.5866 233.687 57.5838 233.68 57.5797 233.674C57.0112 232.609 56.3806 231.578 55.6909 230.587Z" fill="#263238"/>
<path d="M52.6829 223.24C52.6829 222.983 52.6829 222.735 52.6829 222.462C52.6665 221.943 52.6873 221.424 52.7451 220.908C52.7451 220.822 52.6285 220.807 52.6285 220.908C52.6285 221.437 52.5741 221.965 52.543 222.462C52.543 222.727 52.543 222.991 52.543 223.24V223.605C52.5234 223.731 52.5234 223.86 52.543 223.986C52.547 223.996 52.554 224.005 52.563 224.011C52.572 224.017 52.5826 224.02 52.5935 224.02C52.6044 224.02 52.615 224.017 52.624 224.011C52.633 224.005 52.64 223.996 52.644 223.986C52.6673 223.873 52.6673 223.757 52.644 223.644L52.6829 223.24Z" fill="#263238"/>
<path d="M51.1984 225.93C50.7553 225.86 50.2968 225.837 49.8382 225.798C49.3796 225.759 48.8433 225.713 48.3536 225.643C48.3442 225.639 48.3341 225.638 48.3241 225.639C48.3142 225.64 48.3047 225.644 48.2965 225.65C48.2882 225.656 48.2815 225.663 48.2768 225.672C48.2722 225.681 48.2698 225.691 48.2698 225.701C48.2698 225.711 48.2722 225.721 48.2768 225.73C48.2815 225.739 48.2882 225.746 48.2965 225.752C48.3047 225.758 48.3142 225.761 48.3241 225.763C48.3341 225.764 48.3442 225.763 48.3536 225.759C49.3096 225.821 50.2501 225.992 51.2062 226.023C51.2185 226.022 51.23 226.016 51.238 226.007C51.246 225.998 51.2499 225.985 51.2489 225.973C51.2479 225.961 51.242 225.949 51.2325 225.941C51.223 225.933 51.2108 225.929 51.1984 225.93Z" fill="#263238"/>
<path d="M49.8613 256.996C47.3274 255.099 45.05 252.331 41.6379 252.23C38.8242 252.114 36.8499 254.236 35.7229 256.591C35.1554 257.846 34.6951 259.146 34.3471 260.478C33.8341 262.259 33.36 264.047 32.9092 265.843C32.0231 269.377 31.2717 272.943 30.6551 276.54C30.3131 278.545 29.9867 280.551 29.7379 282.572C29.4134 284.613 29.2161 286.672 29.1472 288.737C29.1472 288.816 29.1761 288.891 29.2284 288.95C29.2807 289.008 29.3528 289.045 29.4307 289.054C29.5086 289.063 29.587 289.042 29.6509 288.997C29.7148 288.951 29.7596 288.884 29.7768 288.807C30.1188 287.12 30.2587 285.387 30.5074 283.676C30.7562 281.966 31.0204 280.256 31.2847 278.545C31.8702 275.135 32.5439 271.735 33.3056 268.346C34.0284 265.158 34.7435 261.924 35.7773 258.815C36.5545 256.584 37.6971 253.987 40.0989 253.186C43.7598 251.966 47.0942 255.068 49.7603 257.073C49.838 257.128 49.9235 257.042 49.8613 256.996Z" fill="#263238"/>
<path d="M47.2421 255.176C47.2421 255.176 44.9103 248.506 48.2836 247.192C53.3514 245.233 66.6037 260.167 64.0077 283.054C64.0077 283.054 53.7633 277.41 46.2005 271.058C38.6378 264.707 36.7024 256.42 40.0368 254.274C43.3713 252.128 47.2421 255.176 47.2421 255.176Z" fill="#1281E5"/>
<path d="M62.4766 278.148C62.1239 277.342 61.7135 276.563 61.2485 275.816C60.8133 275.039 60.378 274.261 59.9272 273.484C59.0411 271.976 58.1706 270.467 57.269 268.975L56.8259 268.252C56.8259 268.158 56.8259 268.073 56.8803 267.98C56.927 267.762 56.9814 267.537 57.028 267.319C57.1446 266.821 57.2301 266.324 57.3234 265.818C57.5099 264.839 57.6731 263.852 57.9374 262.888C57.9374 262.818 57.8441 262.794 57.8286 262.888C57.6187 263.867 57.3078 264.831 57.0513 265.787C56.9114 266.262 56.756 266.736 56.6316 267.21C56.585 267.373 56.5461 267.537 56.5072 267.7C55.4113 265.912 54.3076 264.139 53.1106 262.421C53.1889 262.183 53.2283 261.934 53.2272 261.683L53.3438 260.68C53.437 259.902 53.5225 259.179 53.6314 258.425C53.8161 256.952 54.0756 255.488 54.4086 254.041C54.4086 253.971 54.3154 253.947 54.2998 254.041C53.9345 255.479 53.5225 256.917 53.2583 258.379C53.1261 259.094 53.0018 259.817 52.9085 260.54C52.8541 260.898 52.8152 261.263 52.7841 261.628C52.7841 261.729 52.7841 261.846 52.7375 261.955C52.3722 261.434 52.0069 260.913 51.6182 260.4C50.4523 258.845 49.2398 257.36 48.0117 255.86C47.9651 255.805 47.8718 255.86 47.9185 255.93C50.0117 258.611 51.9353 261.42 53.678 264.341L54.6729 265.958L54.3464 265.92C53.9189 265.865 53.4837 265.842 53.0562 265.803C52.1934 265.717 51.3307 265.64 50.4679 265.578C48.7424 265.438 47.0091 265.329 45.2913 265.15C45.2136 265.15 45.198 265.251 45.2913 265.259C47.0402 265.461 48.7735 265.741 50.5145 265.99C51.3695 266.114 52.2245 266.223 53.0795 266.332C53.7288 266.467 54.3905 266.535 55.0538 266.534L57.0902 269.838C56.9347 269.838 56.7793 269.838 56.6316 269.838C56.344 269.838 56.0564 269.838 55.7688 269.838H54.1599C53.0484 269.838 51.9447 269.838 50.8332 269.838C50.7555 269.838 50.7633 269.954 50.8332 269.954C51.9602 269.954 53.0795 270.024 54.2065 270.086L55.8077 270.18L56.585 270.242C56.8154 270.293 57.0541 270.293 57.2845 270.242L59.0178 273.056C59.5463 273.919 60.0827 274.782 60.6267 275.637C61.1399 276.551 61.7219 277.424 62.3678 278.249C62.4144 278.257 62.5077 278.218 62.4766 278.148Z" fill="#263238"/>
<path d="M57.5953 259.654C57.4952 260.389 57.3446 261.116 57.1445 261.83C56.9502 262.569 56.7403 263.307 56.4994 264.03C56.4963 264.039 56.495 264.048 56.4955 264.057C56.496 264.066 56.4982 264.075 56.5022 264.084C56.5062 264.092 56.5118 264.099 56.5186 264.105C56.5254 264.112 56.5334 264.116 56.5421 264.119C56.5508 264.122 56.56 264.124 56.5692 264.123C56.5783 264.123 56.5873 264.121 56.5956 264.117C56.6039 264.113 56.6114 264.107 56.6175 264.1C56.6237 264.093 56.6284 264.085 56.6315 264.077C56.8647 263.354 57.0668 262.623 57.2455 261.893C57.4243 261.162 57.5331 260.408 57.7119 259.67C57.7274 259.6 57.6108 259.576 57.5953 259.654Z" fill="#263238"/>
<path d="M50.0714 264.124C49.9173 263.987 49.7179 263.912 49.5118 263.914L48.548 263.782L46.7447 263.564C45.5011 263.417 44.2497 263.3 42.9983 263.137C42.9283 263.137 42.905 263.246 42.9983 263.253C44.172 263.393 45.3301 263.572 46.5193 263.727L48.2526 263.953L49.0843 264.046C49.4074 264.045 49.7282 264.101 50.0325 264.209C50.0714 264.24 50.1103 264.163 50.0714 264.124Z" fill="#263238"/>
<path d="M57.5796 274.184C56.9889 274.137 56.3981 274.122 55.8074 274.099H54.9136H54.4861C54.2999 274.115 54.1127 274.115 53.9264 274.099C53.8409 274.099 53.8332 274.223 53.9264 274.215C54.1019 274.192 54.2796 274.192 54.455 274.215H54.9136L55.8074 274.27C56.3981 274.27 56.9966 274.34 57.5874 274.347C57.6495 274.316 57.6495 274.192 57.5796 274.184Z" fill="#263238"/>
<path d="M61.2328 271.633C61.3028 271.299 61.365 270.964 61.4271 270.63C61.5437 269.97 61.6681 269.309 61.7847 268.648C61.7847 268.634 61.779 268.62 61.7688 268.61C61.7585 268.599 61.7447 268.594 61.7303 268.594C61.7158 268.594 61.702 268.599 61.6918 268.61C61.6816 268.62 61.6759 268.634 61.6759 268.648C61.5282 269.293 61.3805 269.938 61.2406 270.576C61.1629 270.902 61.0929 271.221 61.0307 271.547L60.9375 271.99C60.8883 272.143 60.8698 272.304 60.8831 272.465C60.8831 272.519 60.9686 272.558 61.0074 272.503C61.1367 272.23 61.2132 271.935 61.2328 271.633Z" fill="#263238"/>
<path d="M26.5046 286.186L27.2197 294.302L29.6448 321.69H51.0895L54.1208 294.302L55.0147 286.186H26.5046Z" fill="#37474F"/>
<path d="M26.5046 286.186L27.2197 294.302H54.1208L55.0147 286.186H26.5046Z" fill="#263238"/>
<path d="M24.3828 290.556H57.1367V283.971H24.3828V290.556Z" fill="#37474F"/>
<path d="M0 321.69L40.3711 321.504L80.75 321.434L161.5 321.302L242.25 321.434L282.629 321.504L323 321.69L282.629 321.877L242.25 321.947L161.5 322.079L80.75 321.947L40.3711 321.877L0 321.69Z" fill="#263238"/>
<path d="M246.875 311.671L246.875 40.721C246.875 35.1867 242.389 30.7002 236.856 30.7002L62.2436 30.7002C56.7103 30.7002 52.2247 35.1867 52.2247 40.721L52.2247 311.671C52.2247 317.205 56.7103 321.692 62.2436 321.692H236.856C242.389 321.692 246.875 317.205 246.875 311.671Z" fill="#37474F"/>
<path d="M238.659 51.0679H60.658V301.502H238.659V51.0679Z" fill="white"/>
<path d="M170.727 43.0603V41.9799C170.727 41.4433 170.292 41.0083 169.755 41.0083H129.337C128.801 41.0083 128.366 41.4433 128.366 41.9799V43.0603C128.366 43.5969 128.801 44.0319 129.337 44.0319H169.755C170.292 44.0319 170.727 43.5969 170.727 43.0603Z" fill="#263238"/>
<path d="M149.546 316.825C152.572 316.825 155.026 314.372 155.026 311.345C155.026 308.318 152.572 305.864 149.546 305.864C146.52 305.864 144.066 308.318 144.066 311.345C144.066 314.372 146.52 316.825 149.546 316.825Z" fill="#263238"/>
<path d="M238.659 51.0679H60.658V301.502H238.659V51.0679Z" fill="white"/>
<path d="M238.659 51.0679H60.658V57.1861H238.659V51.0679Z" fill="#263238"/>
<path d="M66.1302 54.1231C66.1302 54.3767 66.0549 54.6247 65.914 54.8356C65.7731 55.0465 65.5728 55.2109 65.3385 55.3079C65.1041 55.405 64.8462 55.4304 64.5975 55.3809C64.3487 55.3314 64.1202 55.2093 63.9408 55.0299C63.7615 54.8506 63.6393 54.622 63.5898 54.3733C63.5403 54.1245 63.5657 53.8666 63.6628 53.6323C63.7599 53.3979 63.9243 53.1976 64.1352 53.0567C64.3461 52.9158 64.594 52.8406 64.8477 52.8406C65.0161 52.8406 65.1829 52.8738 65.3385 52.9382C65.4941 53.0027 65.6354 53.0971 65.7545 53.2162C65.8736 53.3353 65.9681 53.4767 66.0325 53.6323C66.097 53.7879 66.1302 53.9546 66.1302 54.1231Z" fill="#C7C7C7"/>
<path d="M71.3377 54.1231C71.3377 54.3767 71.2625 54.6247 71.1215 54.8356C70.9806 55.0465 70.7803 55.2109 70.546 55.3079C70.3116 55.405 70.0538 55.4304 69.805 55.3809C69.5562 55.3314 69.3277 55.2093 69.1483 55.0299C68.969 54.8506 68.8468 54.622 68.7973 54.3733C68.7479 54.1245 68.7733 53.8666 68.8703 53.6323C68.9674 53.3979 69.1318 53.1976 69.3427 53.0567C69.5536 52.9158 69.8015 52.8406 70.0552 52.8406C70.2236 52.8406 70.3904 52.8738 70.546 52.9382C70.7016 53.0027 70.843 53.0971 70.962 53.2162C71.0811 53.3353 71.1756 53.4767 71.2401 53.6323C71.3045 53.7879 71.3377 53.9546 71.3377 54.1231Z" fill="white"/>
<path d="M76.6077 54.1231C76.6077 54.3767 76.5325 54.6247 76.3916 54.8356C76.2506 55.0465 76.0503 55.2109 75.816 55.3079C75.5817 55.405 75.3238 55.4304 75.075 55.3809C74.8262 55.3314 74.5977 55.2093 74.4184 55.0299C74.239 54.8506 74.1169 54.622 74.0674 54.3733C74.0179 54.1245 74.0433 53.8666 74.1404 53.6323C74.2374 53.3979 74.4018 53.1976 74.6127 53.0567C74.8236 52.9158 75.0716 52.8406 75.3252 52.8406C75.6654 52.8406 75.9915 52.9757 76.2321 53.2162C76.4726 53.4567 76.6077 53.7829 76.6077 54.1231Z" fill="#1281E5"/>
<path opacity="0.1" d="M222.772 87.4739H76.553V233.72H222.772V87.4739Z" fill="#1281E5"/>
<path d="M90.5126 164.74L88.2041 162.579L90.5126 160.418L90.8779 160.807L88.9891 162.579L90.8779 164.351L90.5126 164.74Z" fill="#263238"/>
<path d="M90.0541 166.435C89.2854 166.435 88.534 166.207 87.8949 165.78C87.2558 165.353 86.7577 164.746 86.4636 164.036C86.1694 163.326 86.0924 162.544 86.2424 161.79C86.3924 161.036 86.7625 160.343 87.306 159.8C87.8495 159.256 88.542 158.886 89.2959 158.736C90.0497 158.586 90.8312 158.663 91.5413 158.957C92.2514 159.251 92.8584 159.75 93.2854 160.389C93.7124 161.028 93.9404 161.78 93.9404 162.548C93.9404 163.059 93.8399 163.564 93.6445 164.036C93.4492 164.508 93.163 164.936 92.8021 165.297C92.4412 165.658 92.0128 165.944 91.5413 166.14C91.0698 166.335 90.5644 166.435 90.0541 166.435ZM90.0541 159.439C89.4391 159.439 88.838 159.621 88.3267 159.963C87.8155 160.305 87.417 160.79 87.1817 161.358C86.9463 161.927 86.8848 162.552 87.0047 163.155C87.1247 163.758 87.4208 164.312 87.8556 164.747C88.2904 165.182 88.8444 165.478 89.4475 165.598C90.0506 165.718 90.6757 165.657 91.2438 165.421C91.8119 165.186 92.2975 164.787 92.6391 164.276C92.9808 163.765 93.1631 163.163 93.1631 162.548C93.1611 161.725 92.8326 160.936 92.2497 160.355C91.6669 159.773 90.8773 159.447 90.0541 159.447V159.439Z" fill="#263238"/>
<path d="M208.812 164.74L208.439 164.351L210.328 162.579L208.439 160.807L208.812 160.418L211.121 162.579L208.812 164.74Z" fill="#263238"/>
<path d="M209.271 166.435C208.502 166.435 207.751 166.207 207.112 165.78C206.473 165.353 205.975 164.746 205.681 164.036C205.386 163.326 205.309 162.544 205.459 161.79C205.609 161.036 205.98 160.343 206.523 159.8C207.067 159.256 207.759 158.886 208.513 158.736C209.267 158.586 210.048 158.663 210.758 158.957C211.468 159.251 212.075 159.75 212.502 160.389C212.929 161.028 213.157 161.78 213.157 162.548C213.157 163.579 212.748 164.568 212.019 165.297C211.29 166.026 210.302 166.435 209.271 166.435ZM209.271 159.439C208.656 159.439 208.055 159.621 207.544 159.963C207.033 160.305 206.634 160.79 206.399 161.358C206.163 161.927 206.102 162.552 206.222 163.155C206.342 163.758 206.638 164.312 207.073 164.747C207.507 165.182 208.061 165.478 208.665 165.598C209.268 165.718 209.893 165.657 210.461 165.421C211.029 165.186 211.515 164.787 211.856 164.276C212.198 163.765 212.38 163.163 212.38 162.548C212.378 161.725 212.05 160.936 211.467 160.355C210.884 159.773 210.094 159.447 209.271 159.447V159.439Z" fill="#263238"/>
<path d="M193.5 134.919H105.825V221.499H193.5V134.919Z" fill="#1281E5"/>
<path opacity="0.1" d="M179.409 158.467H185.394V155.941H179.409V158.467Z" fill="black"/>
<path opacity="0.1" d="M182.743 155.287H188.728V152.761H182.743V155.287Z" fill="black"/>
<path opacity="0.1" d="M176.066 155.287H182.051V152.761H176.066V155.287Z" fill="black"/>
<path opacity="0.1" d="M110.706 155.287H116.691V152.761H110.706V155.287Z" fill="black"/>
<path opacity="0.1" d="M110.706 209.792H116.691V207.266H110.706V209.792Z" fill="black"/>
<path opacity="0.1" d="M107.364 206.604H113.349V204.078H107.364V206.604Z" fill="black"/>
<path opacity="0.1" d="M182.743 209.784H188.728V207.258H182.743V209.784Z" fill="black"/>
<path opacity="0.1" d="M157.031 178.322H151.046V180.848H157.031V178.322Z" fill="black"/>
<path opacity="0.1" d="M153.689 181.517H147.704V184.043H153.689V181.517Z" fill="black"/>
<path d="M195.109 218.941H104.216V221.491H195.109V218.941Z" fill="#1281E5"/>
<path opacity="0.1" d="M195.109 218.941H104.216V221.491H195.109V218.941Z" fill="black"/>
<path d="M192.762 98.4744H106.563L102.141 135.176H197.185L192.762 98.4744Z" fill="#1281E5"/>
<path opacity="0.6" d="M192.762 98.4744H106.563L102.141 135.176H197.185L192.762 98.4744Z" fill="black"/>
<g opacity="0.1">
<path d="M102.693 130.589L114.437 130.496L126.182 130.464L149.67 130.395L173.159 130.464L184.912 130.496L196.656 130.589L184.912 130.69L173.159 130.721L149.67 130.783L126.182 130.721L114.437 130.682L102.693 130.589Z" fill="black"/>
<path d="M103.244 126.01L114.849 125.917L126.454 125.886L149.663 125.816L172.872 125.886L184.476 125.917L196.081 126.01L184.476 126.103L172.872 126.142L149.663 126.204L126.454 126.142L114.849 126.103L103.244 126.01Z" fill="black"/>
<path d="M103.796 121.431L115.261 121.338L126.726 121.307L149.663 121.237L172.592 121.299L184.057 121.338L195.529 121.431L184.057 121.524L172.592 121.563L149.663 121.625L126.726 121.563L115.261 121.524L103.796 121.431Z" fill="black"/>
<path d="M104.348 116.852L115.681 116.759L127.005 116.72L149.663 116.658L172.32 116.72L183.645 116.759L194.977 116.852L183.645 116.946L172.32 116.984L149.663 117.047L127.005 116.977L115.681 116.946L104.348 116.852Z" fill="black"/>
<path d="M104.9 112.274L116.093 112.18L127.277 112.142L149.663 112.079L172.04 112.142L183.233 112.18L194.425 112.274L183.233 112.367L172.04 112.398L149.663 112.468L127.277 112.398L116.093 112.367L104.9 112.274Z" fill="black"/>
<path d="M105.452 107.694L116.505 107.601L127.557 107.562L149.663 107.5L171.768 107.562L182.821 107.593L193.874 107.694L182.821 107.787L171.768 107.818L149.663 107.888L127.557 107.818L116.505 107.787L105.452 107.694Z" fill="black"/>
<path d="M106.004 103.108L116.916 103.014L127.837 102.983L149.663 102.921L171.488 102.983L182.401 103.014L193.322 103.108L182.401 103.209L171.488 103.24L149.663 103.302L127.837 103.24L116.916 103.209L106.004 103.108Z" fill="black"/>
</g>
<path d="M158.912 174.1H140.405V216.259H158.912V174.1Z" fill="#263238"/>
<path d="M158.259 195.907H156.58V200.5H158.259V195.907Z" fill="#1281E5"/>
<path opacity="0.32" d="M158.096 196.707C158.094 196.842 158.053 196.974 157.977 197.085C157.901 197.196 157.793 197.283 157.668 197.333C157.543 197.384 157.406 197.397 157.274 197.369C157.142 197.342 157.021 197.276 156.926 197.18C156.831 197.084 156.766 196.962 156.741 196.83C156.715 196.698 156.729 196.56 156.781 196.436C156.833 196.311 156.92 196.205 157.033 196.13C157.145 196.055 157.277 196.015 157.412 196.015C157.594 196.017 157.768 196.091 157.896 196.221C158.024 196.35 158.096 196.525 158.096 196.707Z" fill="black"/>
<path d="M148.427 176.463H142.807V182.022H148.427V176.463Z" fill="#C7C7C7"/>
<path d="M148.427 183.538H142.807V195.145H148.427V183.538Z" fill="#C7C7C7"/>
<path d="M148.427 196.669H142.807V210.934H148.427V196.669Z" fill="#C7C7C7"/>
<path d="M155.896 176.463H150.284V182.022H155.896V176.463Z" fill="#C7C7C7"/>
<path d="M155.896 183.538H150.284V195.145H155.896V183.538Z" fill="#C7C7C7"/>
<path d="M155.896 196.669H150.284V210.934H155.896V196.669Z" fill="#C7C7C7"/>
<path d="M168.682 218.654H130.643V221.46H168.682V218.654Z" fill="#DBDBDB"/>
<path d="M169.164 218.079H130.161V218.654H169.164V218.079Z" fill="#C7C7C7"/>
<path d="M166.141 215.272H133.185V218.078H166.141V215.272Z" fill="#DBDBDB"/>
<path d="M166.622 214.697H132.703V215.272H166.622V214.697Z" fill="#C7C7C7"/>
<path d="M141.4 115.453C141.4 113.261 142.271 111.159 143.82 109.61C145.37 108.06 147.471 107.189 149.663 107.189C151.854 107.189 153.956 108.06 155.505 109.61C157.055 111.159 157.925 113.261 157.925 115.453H141.4Z" fill="#1281E5"/>
<path d="M155.857 126.757H143.421V115.375C143.421 113.726 144.076 112.144 145.242 110.978C146.409 109.811 147.99 109.156 149.639 109.156C151.288 109.156 152.87 109.811 154.036 110.978C155.202 112.144 155.857 113.726 155.857 115.375V126.757Z" fill="#263238"/>
<path d="M154.855 115.375V125.769H144.471V115.375C144.471 113.998 145.018 112.677 145.991 111.703C146.965 110.729 148.286 110.182 149.663 110.182C151.04 110.182 152.361 110.729 153.334 111.703C154.308 112.677 154.855 113.998 154.855 115.375Z" fill="#C7C7C7"/>
<g opacity="0.3">
<path d="M154.21 112.848L144.471 122.589V117.707L151.606 110.578C152.254 110.836 152.841 111.225 153.332 111.721C153.675 112.054 153.971 112.433 154.21 112.848Z" fill="white"/>
<path d="M154.847 120.887V125.745H149.989L154.847 120.887Z" fill="white"/>
<path d="M154.847 118.733V119.767L148.87 125.746H147.836L154.847 118.733Z" fill="white"/>
<path d="M150.805 110.29L144.471 116.626V115.375C144.47 115.096 144.494 114.817 144.541 114.543L148.839 110.244C149.112 110.203 149.387 110.183 149.663 110.181C150.047 110.174 150.43 110.21 150.805 110.29Z" fill="white"/>
</g>
<path d="M154.847 118.143H144.471V119.153H154.847V118.143Z" fill="#263238"/>
<path d="M150.168 125.745V110.158H149.158V125.745H150.168Z" fill="#263238"/>
<path d="M157.194 126.756H142.139V129.368H157.194V126.756Z" fill="#1281E5"/>
<path opacity="0.1" d="M157.194 126.756H142.139V129.368H157.194V126.756Z" fill="black"/>
<path d="M167.959 115.453C167.959 113.261 168.83 111.159 170.379 109.61C171.929 108.06 174.03 107.189 176.222 107.189C178.413 107.189 180.514 108.06 182.064 109.61C183.613 111.159 184.484 113.261 184.484 115.453H167.959Z" fill="#1281E5"/>
<path d="M182.416 126.757H170.05V115.375C170.05 113.726 170.705 112.144 171.871 110.978C173.037 109.811 174.619 109.156 176.268 109.156C177.917 109.156 179.499 109.811 180.665 110.978C181.831 112.144 182.486 113.726 182.486 115.375L182.416 126.757Z" fill="#263238"/>
<path d="M181.414 115.375V125.769H171.03V115.375C171.03 113.998 171.577 112.677 172.55 111.703C173.524 110.729 174.845 110.182 176.222 110.182C177.599 110.182 178.919 110.729 179.893 111.703C180.867 112.677 181.414 113.998 181.414 115.375Z" fill="#C7C7C7"/>
<g opacity="0.3">
<path d="M180.769 112.848L171.03 122.589V117.707L178.165 110.578C178.813 110.836 179.4 111.225 179.891 111.721C180.234 112.054 180.53 112.433 180.769 112.848Z" fill="white"/>
<path d="M181.406 120.887V125.745H176.556L181.406 120.887Z" fill="white"/>
<path d="M181.406 118.733V119.767L175.437 125.746H174.395L181.406 118.733Z" fill="white"/>
<path d="M177.364 110.29L171.03 116.626V115.375C171.03 115.096 171.053 114.817 171.1 114.543L175.398 110.244C175.671 110.203 175.946 110.183 176.222 110.181C176.606 110.174 176.989 110.21 177.364 110.29Z" fill="white"/>
</g>
<path d="M181.406 118.143H171.03V119.153H181.406V118.143Z" fill="#263238"/>
<path d="M176.727 125.745V110.158H175.716V125.745H176.727Z" fill="#263238"/>
<path d="M183.753 126.756H168.698V129.368H183.753V126.756Z" fill="#1281E5"/>
<path opacity="0.1" d="M183.753 126.756H168.698V129.368H183.753V126.756Z" fill="black"/>
<path d="M114.468 115.453C114.468 114.367 114.682 113.292 115.098 112.289C115.514 111.286 116.123 110.374 116.891 109.607C117.659 108.839 118.571 108.231 119.574 107.816C120.577 107.401 121.653 107.188 122.738 107.189C124.93 107.189 127.031 108.06 128.581 109.61C130.13 111.159 131.001 113.261 131.001 115.453H114.468Z" fill="#1281E5"/>
<path d="M128.933 126.757H116.536V115.375C116.536 113.726 117.191 112.144 118.357 110.978C119.523 109.811 121.105 109.156 122.754 109.156C124.403 109.156 125.985 109.811 127.151 110.978C128.317 112.144 128.972 113.726 128.972 115.375L128.933 126.757Z" fill="#263238"/>
<path d="M127.922 115.375V125.769H117.546V115.375C117.546 113.998 118.093 112.677 119.067 111.703C120.04 110.729 121.361 110.182 122.738 110.182C124.114 110.184 125.432 110.732 126.404 111.706C127.376 112.679 127.922 113.999 127.922 115.375Z" fill="#C7C7C7"/>
<g opacity="0.3">
<path d="M127.3 112.848L117.569 122.589V117.707L124.697 110.578C125.348 110.834 125.938 111.224 126.43 111.721C126.771 112.054 127.064 112.434 127.3 112.848Z" fill="white"/>
<path d="M127.922 120.887V125.745H123.064L127.922 120.887Z" fill="white"/>
<path d="M127.922 118.733V119.767L121.945 125.746H120.911L127.922 118.733Z" fill="white"/>
<path d="M123.881 110.29L117.546 116.626V115.375C117.546 115.096 117.569 114.817 117.616 114.543L121.906 110.244C122.179 110.203 122.454 110.183 122.73 110.181C123.117 110.174 123.503 110.21 123.881 110.29Z" fill="white"/>
</g>
<path d="M127.922 118.143H117.546V119.153H127.922V118.143Z" fill="#263238"/>
<path d="M123.236 125.745V110.158H122.225V125.745H123.236Z" fill="#263238"/>
<path d="M130.262 126.756H115.207V129.368H130.262V126.756Z" fill="#1281E5"/>
<path opacity="0.1" d="M130.262 126.756H115.207V129.368H130.262V126.756Z" fill="black"/>
<path d="M130.837 164.671H114.631V147.949C114.631 146.884 114.841 145.83 115.248 144.846C115.656 143.862 116.253 142.968 117.006 142.215C117.759 141.462 118.652 140.865 119.636 140.458C120.619 140.05 121.674 139.84 122.738 139.84C123.802 139.84 124.856 140.05 125.839 140.458C126.823 140.865 127.716 141.463 128.468 142.216C129.22 142.969 129.816 143.863 130.223 144.846C130.63 145.83 130.838 146.884 130.837 147.949V164.671Z" fill="#263238"/>
<path d="M129.523 147.948V163.349H115.952V147.948C115.951 147.057 116.126 146.174 116.467 145.35C116.807 144.526 117.307 143.777 117.938 143.147C118.568 142.516 119.316 142.017 120.14 141.676C120.964 141.335 121.847 141.16 122.738 141.161C124.538 141.161 126.263 141.876 127.536 143.149C128.809 144.422 129.523 146.148 129.523 147.948Z" fill="#C7C7C7"/>
<g opacity="0.3">
<path d="M128.676 144.675L115.953 157.409V150.98L125.28 141.651C126.127 141.991 126.896 142.498 127.542 143.144C127.993 143.596 128.375 144.112 128.676 144.675Z" fill="white"/>
<path d="M129.524 155.186V161.615L127.79 163.349H121.362L129.524 155.186Z" fill="white"/>
<path d="M129.524 152.363V153.724L119.901 163.348H118.541L129.524 152.363Z" fill="white"/>
<path d="M124.23 141.325L115.953 149.581V147.948C115.95 147.584 115.978 147.219 116.038 146.86L121.658 141.239C122.013 141.183 122.371 141.154 122.73 141.154C123.235 141.154 123.738 141.212 124.23 141.325Z" fill="white"/>
</g>
<path d="M129.523 151.594H115.952V152.916H129.523V151.594Z" fill="#263238"/>
<path d="M123.391 163.349V141.161H122.07V163.349H123.391Z" fill="#263238"/>
<path opacity="0.1" d="M132.57 164.671H112.89V168.083H132.57V164.671Z" fill="black"/>
<path d="M157.77 164.671H141.556V147.949C141.556 146.884 141.766 145.83 142.173 144.846C142.58 143.862 143.178 142.968 143.93 142.215C144.683 141.462 145.577 140.865 146.56 140.458C147.544 140.05 148.598 139.84 149.663 139.84C151.813 139.84 153.875 140.695 155.395 142.215C156.916 143.736 157.77 145.798 157.77 147.949V164.671Z" fill="#263238"/>
<path d="M156.448 147.948V163.349H142.846V147.948C142.846 146.148 143.561 144.422 144.833 143.149C146.106 141.876 147.832 141.161 149.631 141.161C150.525 141.157 151.411 141.33 152.238 141.669C153.065 142.008 153.816 142.508 154.45 143.138C155.083 143.769 155.586 144.518 155.929 145.344C156.272 146.169 156.448 147.054 156.448 147.948Z" fill="#C7C7C7"/>
<g opacity="0.3">
<path d="M155.609 144.675L142.846 157.409V150.98L152.173 141.651C153.622 142.237 154.824 143.306 155.578 144.675H155.609Z" fill="white"/>
<path d="M156.448 155.186V161.615L154.715 163.349H148.287L156.448 155.186Z" fill="white"/>
<path d="M156.448 152.363V153.724L146.826 163.348H145.473L156.448 152.363Z" fill="white"/>
<path d="M151.163 141.325L142.846 149.581V147.948C142.845 147.583 142.877 147.219 142.939 146.86L148.551 141.239C148.908 141.183 149.27 141.154 149.631 141.154C150.147 141.153 150.66 141.21 151.163 141.325Z" fill="white"/>
</g>
<path d="M156.448 151.594H142.877V152.916H156.448V151.594Z" fill="#263238"/>
<path d="M150.323 163.349V141.161H149.002V163.349H150.323Z" fill="#263238"/>
<path opacity="0.1" d="M159.503 164.671H139.822V168.083H159.503V164.671Z" fill="black"/>
<path d="M184.694 164.671H168.496V147.949C168.496 146.884 168.705 145.83 169.113 144.846C169.52 143.862 170.117 142.968 170.87 142.215C171.623 141.462 172.517 140.865 173.5 140.458C174.484 140.05 175.538 139.84 176.602 139.84C177.667 139.84 178.721 140.05 179.705 140.458C180.688 140.865 181.582 141.462 182.335 142.215C183.088 142.968 183.685 143.862 184.092 144.846C184.5 145.83 184.709 146.884 184.709 147.949L184.694 164.671Z" fill="#263238"/>
<path d="M183.373 147.948V163.349H169.802V147.948C169.802 146.148 170.516 144.422 171.789 143.149C173.061 141.876 174.787 141.161 176.587 141.161C178.387 141.161 180.113 141.876 181.385 143.149C182.658 144.422 183.373 146.148 183.373 147.948Z" fill="#C7C7C7"/>
<g opacity="0.3">
<path d="M182.533 144.676L169.802 157.41V150.981L179.129 141.652C180.582 142.231 181.786 143.301 182.533 144.676Z" fill="white"/>
<path d="M183.373 155.186V161.615L181.639 163.349H175.211L183.373 155.186Z" fill="white"/>
<path d="M183.373 152.364V153.724L173.75 163.348H172.398L183.373 152.364Z" fill="white"/>
<path d="M178.087 141.325L169.802 149.581V147.948C169.801 147.583 169.832 147.219 169.895 146.86L175.507 141.239C175.864 141.183 176.226 141.155 176.587 141.154C177.092 141.154 177.595 141.212 178.087 141.325Z" fill="white"/>
</g>
<path d="M183.373 151.594H169.802V152.916H183.373V151.594Z" fill="#263238"/>
<path d="M177.248 163.341V141.154H175.926V163.341H177.248Z" fill="#263238"/>
<path opacity="0.1" d="M186.427 164.671H166.747V168.083H186.427V164.671Z" fill="black"/>
<path d="M130.837 198.923H114.631V182.232C114.631 180.081 115.485 178.019 117.006 176.498C118.526 174.978 120.588 174.123 122.738 174.123C123.802 174.123 124.856 174.333 125.839 174.741C126.823 175.148 127.716 175.746 128.468 176.499C129.22 177.252 129.816 178.146 130.223 179.129C130.63 180.113 130.838 181.167 130.837 182.232V198.923Z" fill="#263238"/>
<path d="M129.523 182.232V197.632H115.952V182.232C115.951 181.34 116.126 180.457 116.467 179.632C116.807 178.808 117.307 178.059 117.937 177.428C118.567 176.797 119.316 176.296 120.139 175.955C120.963 175.613 121.846 175.437 122.738 175.438C123.63 175.437 124.513 175.613 125.336 175.955C126.16 176.296 126.909 176.797 127.539 177.428C128.169 178.059 128.669 178.808 129.009 179.632C129.35 180.457 129.524 181.34 129.523 182.232Z" fill="#C7C7C7"/>
<g opacity="0.3">
<path d="M128.676 178.935L115.953 191.669V185.24L125.28 175.911C126.127 176.25 126.896 176.758 127.542 177.404C127.993 177.856 128.375 178.372 128.676 178.935Z" fill="white"/>
<path d="M129.524 189.446V195.875L127.79 197.608H121.362L129.524 189.446Z" fill="white"/>
<path d="M129.524 186.625V187.985L119.901 197.609H118.541L129.524 186.625Z" fill="white"/>
<path d="M124.23 175.585L115.953 183.872V182.232C115.95 181.865 115.978 181.498 116.038 181.136L121.658 175.523C122.013 175.467 122.371 175.438 122.73 175.437C123.234 175.43 123.738 175.48 124.23 175.585Z" fill="white"/>
</g>
<path d="M129.523 185.855H115.952V187.177H129.523V185.855Z" fill="#263238"/>
<path d="M123.391 197.61V175.422H122.07V197.61H123.391Z" fill="#263238"/>
<path opacity="0.1" d="M132.57 198.924H112.89V202.336H132.57V198.924Z" fill="black"/>
<path d="M184.694 198.923H168.496V182.232C168.496 180.081 169.35 178.019 170.87 176.498C172.39 174.978 174.452 174.123 176.602 174.123C178.75 174.127 180.808 174.983 182.325 176.504C183.842 178.024 184.694 180.084 184.694 182.232V198.923Z" fill="#263238"/>
<path d="M183.373 182.232V197.632H169.802V182.232C169.8 181.34 169.975 180.457 170.316 179.632C170.656 178.808 171.156 178.059 171.786 177.428C172.416 176.797 173.165 176.296 173.989 175.955C174.812 175.613 175.695 175.437 176.587 175.438C177.479 175.437 178.362 175.613 179.186 175.955C180.009 176.296 180.758 176.797 181.388 177.428C182.018 178.059 182.518 178.808 182.858 179.632C183.199 180.457 183.374 181.34 183.373 182.232Z" fill="#C7C7C7"/>
<g opacity="0.3">
<path d="M182.533 178.935L169.802 191.669V185.24L179.129 175.911C180.582 176.491 181.786 177.56 182.533 178.935Z" fill="white"/>
<path d="M183.373 189.446V195.875L181.639 197.608H175.211L183.373 189.446Z" fill="white"/>
<path d="M183.373 186.625V187.985L173.75 197.609H172.398L183.373 186.625Z" fill="white"/>
<path d="M178.087 175.585L169.802 183.872V182.232C169.801 181.864 169.832 181.498 169.895 181.136L175.507 175.523C175.864 175.467 176.226 175.438 176.587 175.437C177.091 175.43 177.594 175.48 178.087 175.585Z" fill="white"/>
</g>
<path d="M183.373 185.855H169.802V187.177H183.373V185.855Z" fill="#263238"/>
<path d="M177.248 197.601V175.414H175.926V197.601H177.248Z" fill="#263238"/>
<path opacity="0.1" d="M186.427 198.924H166.747V202.336H186.427V198.924Z" fill="black"/>
<path d="M184.849 254.181H114.476V274.845H184.849V254.181Z" fill="#1281E5"/>
<path d="M136.88 267.991V261.166H139.38C139.864 261.166 140.265 261.246 140.583 261.406C140.9 261.564 141.138 261.778 141.296 262.049C141.454 262.318 141.532 262.621 141.532 262.959C141.532 263.243 141.48 263.483 141.376 263.679C141.271 263.872 141.131 264.028 140.956 264.145C140.783 264.261 140.592 264.345 140.383 264.399V264.465C140.609 264.476 140.83 264.55 141.046 264.685C141.264 264.818 141.444 265.008 141.586 265.255C141.728 265.502 141.799 265.802 141.799 266.155C141.799 266.504 141.717 266.817 141.552 267.095C141.39 267.37 141.139 267.589 140.799 267.751C140.459 267.911 140.025 267.991 139.496 267.991H136.88ZM137.91 267.108H139.396C139.89 267.108 140.243 267.012 140.456 266.821C140.669 266.63 140.776 266.391 140.776 266.105C140.776 265.889 140.722 265.692 140.613 265.512C140.504 265.332 140.348 265.188 140.146 265.082C139.946 264.975 139.708 264.922 139.433 264.922H137.91V267.108ZM137.91 264.119H139.29C139.521 264.119 139.728 264.074 139.913 263.985C140.099 263.897 140.247 263.772 140.356 263.612C140.467 263.45 140.523 263.259 140.523 263.039C140.523 262.757 140.424 262.52 140.226 262.329C140.028 262.138 139.725 262.043 139.316 262.043H137.91V264.119ZM148.817 261.166H149.85V265.655C149.85 266.133 149.738 266.556 149.513 266.925C149.289 267.291 148.973 267.58 148.567 267.791C148.16 268 147.684 268.104 147.137 268.104C146.593 268.104 146.118 268 145.711 267.791C145.304 267.58 144.989 267.291 144.765 266.925C144.54 266.556 144.428 266.133 144.428 265.655V261.166H145.458V265.572C145.458 265.88 145.525 266.155 145.661 266.395C145.799 266.635 145.993 266.824 146.244 266.961C146.495 267.097 146.793 267.165 147.137 267.165C147.484 267.165 147.783 267.097 148.034 266.961C148.287 266.824 148.48 266.635 148.614 266.395C148.749 266.155 148.817 265.88 148.817 265.572V261.166ZM152.228 261.166H153.398L155.181 264.269H155.254L157.037 261.166H158.206L155.73 265.312V267.991H154.704V265.312L152.228 261.166Z" fill="white"/>
<path d="M190.29 240.894H109.043V241.508H190.29V240.894Z" fill="#DBDBDB"/>
<path d="M186.482 246.415H112.844V247.029H186.482V246.415Z" fill="#DBDBDB"/>
<path d="M184.119 243.655H115.214V244.269H184.119V243.655Z" fill="#DBDBDB"/>
<path d="M198.63 74.53H100.695V75.2684H198.63V74.53Z" fill="#C7C7C7"/>
<path d="M191.192 77.8574H108.133V78.5958H191.192V77.8574Z" fill="#C7C7C7"/>
<path d="M145.465 277.666V266.261C145.465 263.152 149.351 263.377 149.351 266.261V275.707H149.445V271.695C149.416 271.449 149.44 271.2 149.515 270.964C149.589 270.727 149.713 270.51 149.878 270.325C150.043 270.14 150.245 269.992 150.471 269.89C150.697 269.789 150.942 269.736 151.19 269.736C151.437 269.736 151.682 269.789 151.908 269.89C152.134 269.992 152.336 270.14 152.501 270.325C152.666 270.51 152.79 270.727 152.864 270.964C152.939 271.2 152.963 271.449 152.935 271.695V275.707H153.028V272.551C153.028 270.001 156.58 269.876 156.58 272.768V276.741H156.689V274.502C156.689 271.719 160.249 271.618 160.249 274.587V285.09C160.249 287.049 159.316 289.335 155.196 289.335H147.812C145.916 289.335 144.509 284.367 143.568 282.439C142.628 280.511 140.724 278.747 139.48 276.92C138.236 275.093 140.257 273.289 142.224 274.758C143.386 275.632 144.471 276.605 145.465 277.666Z" fill="white"/>
<path d="M155.181 289.708H147.797C146.095 289.708 144.898 286.731 143.911 284.328C143.646 283.668 143.398 283.046 143.18 282.603C142.528 281.423 141.746 280.32 140.848 279.314C140.257 278.599 139.651 277.868 139.146 277.13C138.832 276.736 138.673 276.242 138.699 275.739C138.724 275.236 138.933 274.76 139.286 274.401C139.721 274.027 140.279 273.827 140.852 273.838C141.426 273.85 141.975 274.072 142.395 274.463C143.33 275.166 144.218 275.93 145.053 276.749V266.262C145.021 265.548 145.27 264.851 145.745 264.318C145.944 264.105 146.184 263.936 146.452 263.821C146.72 263.706 147.008 263.647 147.299 263.649C147.626 263.663 147.946 263.742 148.241 263.882C148.536 264.022 148.8 264.219 149.017 264.463C149.235 264.706 149.401 264.991 149.507 265.3C149.612 265.609 149.654 265.936 149.631 266.262V269.97C149.894 269.712 150.219 269.529 150.576 269.438C150.932 269.346 151.305 269.351 151.659 269.45C152.013 269.549 152.335 269.74 152.591 270.004C152.848 270.267 153.031 270.593 153.121 270.949C153.313 270.727 153.549 270.548 153.814 270.423C154.08 270.299 154.369 270.231 154.662 270.225C154.955 270.219 155.246 270.275 155.516 270.389C155.787 270.503 156.03 270.673 156.23 270.887C156.669 271.384 156.905 272.028 156.891 272.691C157.084 272.486 157.316 272.323 157.574 272.211C157.832 272.098 158.11 272.04 158.391 272.038C159.425 272.038 160.544 272.815 160.544 274.611V285.114C160.614 286.816 159.945 289.708 155.181 289.708ZM140.739 274.595C140.398 274.589 140.067 274.715 139.814 274.945C139.59 275.184 139.466 275.5 139.466 275.828C139.466 276.155 139.59 276.471 139.814 276.71C140.296 277.417 140.895 278.133 141.47 278.832C142.42 279.881 143.244 281.037 143.926 282.276C144.151 282.743 144.408 283.38 144.703 284.056C145.481 286.008 146.662 288.962 147.859 288.962H155.243C159.129 288.962 159.907 286.855 159.907 285.075V274.588C159.907 273.328 159.207 272.761 158.508 272.761C157.808 272.761 157.093 273.305 157.093 274.502V277.114H156.238V272.768C156.268 272.272 156.104 271.784 155.779 271.408C155.656 271.276 155.506 271.172 155.341 271.101C155.175 271.03 154.996 270.994 154.816 270.996C154.62 270.998 154.426 271.041 154.248 271.122C154.07 271.204 153.91 271.321 153.78 271.468C153.65 271.614 153.552 271.786 153.492 271.972C153.432 272.159 153.411 272.356 153.432 272.551V276.08H152.593V271.696C152.614 271.502 152.595 271.306 152.537 271.12C152.478 270.934 152.381 270.762 152.252 270.616C152.124 270.469 151.966 270.351 151.789 270.27C151.612 270.188 151.42 270.144 151.225 270.141C151.03 270.146 150.839 270.192 150.663 270.274C150.486 270.357 150.329 270.474 150.2 270.62C150.071 270.766 149.973 270.936 149.913 271.121C149.852 271.306 149.831 271.502 149.849 271.696V276.08H149.009V266.262C149.033 266.031 149.009 265.799 148.939 265.578C148.87 265.358 148.756 265.154 148.604 264.979C148.453 264.804 148.267 264.662 148.059 264.562C147.85 264.462 147.624 264.405 147.393 264.396C147.201 264.395 147.011 264.433 146.835 264.507C146.658 264.582 146.499 264.692 146.367 264.831C146.03 265.229 145.858 265.741 145.885 266.262V278.63L145.232 277.915C144.252 276.867 143.181 275.91 142.03 275.054C141.665 274.758 141.209 274.596 140.739 274.595Z" fill="#263238"/>
<path d="M148.862 262.567C148.911 261.559 149.309 260.6 149.989 259.854C149.978 260.356 149.867 260.85 149.662 261.308C149.479 261.775 149.208 262.203 148.862 262.567Z" fill="#263238"/>
<path d="M146.118 262.568C145.781 262.202 145.517 261.775 145.341 261.309C145.139 260.847 145.029 260.351 145.014 259.848C145.704 260.59 146.104 261.556 146.141 262.568H146.118Z" fill="#263238"/>
<path d="M144.183 264.505C143.17 264.467 142.205 264.067 141.462 263.378C141.966 263.393 142.461 263.504 142.923 263.704C143.389 263.891 143.816 264.163 144.183 264.505Z" fill="#263238"/>
<path d="M144.175 267.249C143.434 267.937 142.472 268.337 141.462 268.376C141.826 268.036 142.254 267.772 142.721 267.599C143.179 267.389 143.672 267.27 144.175 267.249Z" fill="#263238"/>
<path d="M150.797 267.257C151.3 267.27 151.796 267.378 152.258 267.576C152.725 267.749 153.153 268.014 153.518 268.353C153.014 268.339 152.518 268.228 152.056 268.027C151.591 267.853 151.164 267.592 150.797 267.257Z" fill="#263238"/>
<path d="M150.797 264.512C151.161 264.172 151.589 263.908 152.056 263.734C152.517 263.53 153.014 263.419 153.518 263.408C152.775 264.097 151.81 264.497 150.797 264.535V264.512Z" fill="#263238"/>
<path d="M237.101 141.605C237.101 141.605 235.569 144.705 234.444 145.148C233.319 145.591 222.79 129.966 222.79 129.966C222.499 129.157 222.074 128.402 221.532 127.734C220.779 126.928 216.732 125.467 215.12 125.529C213.509 125.591 212.464 128.345 211.915 129.594C211.366 130.843 211.764 131.206 214.173 131.941C216.582 132.677 217.954 133.713 219.486 132.42C219.486 132.42 228.289 152.544 233.169 153.04C239.545 153.696 243.504 143.908 243.504 143.908L237.101 141.605Z" fill="#E4897B"/>
<path d="M241.467 126.148C241.467 126.148 236.729 140.232 235.383 144.112C235.383 144.112 240.386 149.896 244.531 150.02L249.11 136.432L241.467 126.148Z" fill="#1281E5"/>
<path opacity="0.2" d="M241.467 126.148C241.467 126.148 236.729 140.232 235.383 144.112C235.383 144.112 240.386 149.896 244.531 150.02L249.11 136.432L241.467 126.148Z" fill="white"/>
<path d="M253.918 320.192L252.953 315.816L252.785 307.924H246.187C245.479 305.497 243.53 306.853 243.53 306.853L242.645 314.134C240.971 315.63 237.048 317.207 231.832 318.341C230.672 318.598 231.035 321.406 233.877 321.406C236.72 321.406 242.928 321.193 244.983 321.193C248.321 321.193 250.296 321.352 252.953 321.397C253.027 321.406 253.101 321.406 253.175 321.397C253.302 321.367 253.423 321.311 253.53 321.234C253.637 321.158 253.727 321.06 253.796 320.949C253.865 320.837 253.911 320.712 253.932 320.583C253.953 320.453 253.949 320.32 253.918 320.192Z" fill="#263238"/>
<path d="M291.999 320.192L291.034 315.817L289.564 307.925H282.966C282.942 307.628 282.835 307.345 282.659 307.105C282.483 306.866 282.244 306.68 281.968 306.569C281.693 306.458 281.391 306.426 281.099 306.476C280.806 306.526 280.532 306.656 280.309 306.853L280.708 314.134C279.034 315.631 275.111 317.207 269.895 318.341C268.735 318.598 269.098 321.406 271.94 321.406C274.783 321.406 280.991 321.193 283.046 321.193C286.384 321.193 288.359 321.353 291.016 321.397C291.09 321.406 291.164 321.406 291.238 321.397C291.367 321.369 291.49 321.315 291.598 321.239C291.707 321.163 291.799 321.066 291.87 320.954C291.941 320.842 291.989 320.717 292.011 320.586C292.033 320.455 292.029 320.322 291.999 320.192Z" fill="#263238"/>
<path d="M291.14 312.548H279.415C279.415 312.548 267.158 250.111 266.175 243.211C265.582 239.012 264.351 198.462 264.2 196.531C263.509 198.462 253.431 238.968 253.431 238.968C253.431 238.968 255.335 287.862 254.166 310.714H242.122C242.122 310.714 237.074 264.15 238.199 238.968C239.899 200.96 247.941 166.575 248.871 161.482H284.79C289.927 185.344 284.861 243.857 284.861 243.857C284.861 243.857 289.59 289.74 291.14 312.548Z" fill="#263238"/>
<path d="M248.472 163.422L284.498 160.428L284.852 164.715L248.33 167.31L248.472 163.422Z" fill="black"/>
<path d="M272.761 159.45L271.473 159.557L272.106 167.175L273.394 167.068L272.761 159.45Z" fill="#263238"/>
<path d="M254.52 160.989L253.232 161.096L253.865 168.714L255.153 168.607L254.52 160.989Z" fill="#263238"/>
<path d="M264.832 161.312L258.168 161.866L258.567 166.667L265.23 166.114L264.832 161.312Z" fill="white"/>
<path d="M253.971 111.481C262.305 106.53 275.97 112.119 275.97 112.119C276.306 113.757 284.471 130.25 284.781 161.509L248.472 163.422C248.472 163.422 244.929 132.42 241.467 126.149C241.467 126.149 242.91 118.036 253.971 111.481Z" fill="#1281E5"/>
<path opacity="0.4" d="M284.781 161.509L248.472 163.422C248.472 163.422 244.929 132.42 241.467 126.149C241.467 126.149 242.91 118.053 253.971 111.481C262.305 106.53 275.97 112.119 275.97 112.119C279.494 121.088 281.923 130.451 283.205 140.002C284.202 147.129 284.729 154.313 284.781 161.509Z" fill="white"/>
<path d="M249.482 110.577C250.067 111.375 250.378 112.342 250.367 113.332C250.135 114.079 249.696 114.746 249.101 115.254C250.087 115.89 251.204 116.296 252.369 116.441L256.894 114.377C256.894 114.377 259.143 113.89 259.719 113.093C260.197 112.437 260.711 111.791 261.136 111.1C261.348 110.739 261.535 110.363 261.694 109.975C260.508 109.942 259.375 109.472 258.515 108.655C256.557 106.45 253.405 97.3352 253.405 97.3352L245.656 105.635C245.656 105.635 245.833 105.812 246.107 106.131C247.355 107.516 248.484 109.003 249.482 110.577Z" fill="#E4897B"/>
<path opacity="0.2" d="M254.352 103.367C254.352 103.367 254.255 108.566 249.482 110.577C248.483 109.009 247.354 107.527 246.107 106.148C246.4 105.847 246.594 105.661 246.594 105.661L254.352 103.367Z" fill="black"/>
<path d="M233.16 89.2391C233.16 89.2391 234.09 98.3624 239.625 100.533C245.16 102.703 240.936 86.3604 240.936 86.3604L233.16 89.2391Z" fill="#263238"/>
<path d="M254.946 104.023C254.34 105.719 253.196 107.17 251.688 108.154C250.18 109.138 248.39 109.6 246.594 109.47C244.27 109.336 242.081 108.33 240.466 106.653C240.245 106.423 240.032 106.175 239.829 105.918C236.153 101.144 233.001 91.9497 237.765 86.9717C238.812 85.8672 240.125 85.0489 241.577 84.5945C243.029 84.14 244.574 84.0645 246.064 84.3751C247.554 84.6858 248.939 85.3722 250.089 86.3693C251.239 87.3663 252.115 88.6409 252.634 90.0719C254.946 96.1659 256.593 99.6381 254.946 104.023Z" fill="#E4897B"/>
<path d="M244.354 95.7849C244.477 95.9583 244.527 96.1731 244.494 96.3833C244.461 96.5935 244.347 96.7823 244.177 96.9096C243.849 97.0601 243.424 96.7767 243.211 96.2896C242.999 95.8026 243.079 95.2978 243.389 95.1649C243.698 95.0321 244.132 95.2978 244.354 95.7849Z" fill="#263238"/>
<path d="M238.89 98.238C239.012 98.4126 239.061 98.6281 239.026 98.8384C238.991 99.0486 238.876 99.2368 238.704 99.3628C238.385 99.5044 237.951 99.2299 237.738 98.7428C237.526 98.2558 237.606 97.751 237.916 97.6181C238.226 97.4853 238.677 97.7775 238.89 98.238Z" fill="#263238"/>
<path d="M240.732 97.6628C240.818 99.4001 240.663 101.141 240.271 102.836C240.711 102.924 241.165 102.915 241.601 102.81C242.037 102.704 242.445 102.504 242.795 102.224L240.732 97.6628Z" fill="#DE5753"/>
<path d="M235.808 96.7768C235.864 96.7856 235.922 96.7777 235.974 96.7541C236.026 96.7305 236.07 96.6922 236.1 96.644C236.31 96.3134 236.596 96.0369 236.933 95.8369C237.269 95.6369 237.649 95.519 238.04 95.4927C238.122 95.4927 238.201 95.4601 238.259 95.4019C238.317 95.3438 238.35 95.265 238.35 95.1828C238.35 95.1005 238.317 95.0217 238.259 94.9636C238.201 94.9055 238.122 94.8728 238.04 94.8728C237.547 94.8963 237.068 95.0372 236.641 95.2837C236.214 95.5302 235.853 95.8751 235.587 96.2897C235.54 96.3573 235.522 96.4401 235.535 96.5209C235.548 96.6017 235.592 96.6743 235.657 96.7237L235.808 96.7768Z" fill="#263238"/>
<path d="M244.46 93.1101C244.517 93.0802 244.563 93.0339 244.593 92.9773C244.605 92.9389 244.61 92.8985 244.606 92.8584C244.602 92.8183 244.591 92.7793 244.572 92.7438C244.553 92.7083 244.527 92.677 244.495 92.6517C244.464 92.6264 244.428 92.6076 244.389 92.5965C243.916 92.4494 243.415 92.4169 242.927 92.5016C242.439 92.5863 241.978 92.7857 241.582 93.0836C241.525 93.1415 241.493 93.2194 241.493 93.3005C241.493 93.3817 241.525 93.4596 241.582 93.5175C241.64 93.5743 241.718 93.6061 241.799 93.6061C241.88 93.6061 241.958 93.5743 242.016 93.5175C242.336 93.2912 242.704 93.1422 243.091 93.0823C243.478 93.0224 243.874 93.0531 244.248 93.1721C244.324 93.1767 244.399 93.1548 244.46 93.1101Z" fill="#263238"/>
<path d="M239.138 83.0126L245.673 87.4414C246.209 87.4813 246.71 87.7211 247.078 88.1131C247.445 88.5052 247.652 89.021 247.657 89.5583C247.657 92.1447 250.314 95.1298 252.59 95.8472C252.59 95.8472 252.262 94.8552 253.174 94.7577C254.087 94.6603 255.831 99.8331 255.194 102.88C255.194 102.88 256.761 99.7357 256.079 93.8808C255.406 88.4511 252.873 81.0905 250.659 80.4173C245.611 78.8761 239.138 83.0126 239.138 83.0126Z" fill="#263238"/>
<path d="M257.417 93.7831C257.361 95.4234 256.657 96.9747 255.459 98.0968C253.856 99.576 252.076 98.3802 251.687 96.3253C251.359 94.5538 251.758 91.5422 253.777 90.8513C254.218 90.7026 254.69 90.6676 255.148 90.7494C255.607 90.8312 256.037 91.0273 256.4 91.3195C256.763 91.6117 257.046 91.9905 257.224 92.4211C257.401 92.8517 257.468 93.3201 257.417 93.7831Z" fill="#E4897B"/>
<path d="M243.858 103.632C244.47 104.18 245.041 104.772 245.567 105.403C245.691 105.332 245.824 105.262 245.939 105.182C247.639 104.172 248.091 103.136 248.073 102.304C248.058 101.895 247.943 101.497 247.737 101.144C247.632 100.939 247.498 100.751 247.338 100.586C246.567 101.668 245.574 102.574 244.425 103.242L243.858 103.632Z" fill="#263238"/>
<path d="M244.425 103.278L244.947 103.791C246.541 102.826 247.533 101.932 247.737 101.135C247.632 100.93 247.498 100.742 247.338 100.577C246.572 101.675 245.578 102.596 244.425 103.278Z" fill="white"/>
<path d="M245.939 105.191C247.64 104.182 248.091 103.145 248.073 102.313C247.436 102.708 246.875 103.215 246.417 103.81C246.119 104.209 245.952 104.692 245.939 105.191Z" fill="#DE5753"/>
<path d="M233.16 89.2395C233.16 90.0012 235.232 91.7727 238.111 91.7373C240.989 91.7019 237.34 90.4884 237.34 90.4884C237.34 90.4884 242.875 89.8683 242.716 89.204C242.556 88.5397 240.67 88.3183 240.67 88.3183C240.67 88.3183 245.514 88.3183 248.357 85.9976C251.2 83.6769 242.822 81.1259 239.138 82.9949C235.454 84.8638 233.275 86.9188 233.16 89.2395Z" fill="#263238"/>
<path d="M244.549 101.852C244.549 101.852 246.639 99.0622 247.56 98.9027C248.481 98.7433 252.962 105.989 252.962 105.989C252.962 105.989 253.626 107.654 249.544 109.116C245.461 110.577 245.541 109.603 244.54 107.849C243.539 106.095 241.99 105.112 241.812 103.952C241.635 102.791 244.195 102.26 244.195 102.26L244.478 102.499C244.478 102.499 242.981 103.261 243.176 104.129C243.371 104.997 244.717 107.627 246.152 107.796C247.587 107.964 246.976 106.494 246.976 106.494L248.109 105.652C248.109 105.652 249.101 106.689 249.933 106.219C250.766 105.75 250.102 103.34 249.181 102.029C248.26 100.719 248.109 100.435 247.312 100.559C246.432 100.921 245.627 101.444 244.939 102.1L244.549 101.852Z" fill="#263238"/>
<path d="M239.107 99.085L236.207 100.204C236.024 100.275 235.934 100.48 236.004 100.662L236.482 101.902C236.553 102.084 236.758 102.175 236.94 102.105L239.84 100.985C240.023 100.915 240.113 100.71 240.043 100.527L239.565 99.288C239.494 99.1055 239.289 99.0146 239.107 99.085Z" stroke="#263238" stroke-width="0.200499" stroke-linecap="round" stroke-linejoin="round"/>
<path d="M244.82 96.8748L241.92 97.994C241.738 98.0645 241.647 98.2696 241.717 98.4521L242.195 99.6914C242.266 99.874 242.471 99.9648 242.653 99.8944L245.553 98.7752C245.736 98.7047 245.827 98.4997 245.756 98.3171L245.278 97.0778C245.208 96.8953 245.003 96.8044 244.82 96.8748Z" stroke="#263238" stroke-width="0.200499" stroke-linecap="round" stroke-linejoin="round"/>
<path d="M239.811 99.9215C240.03 99.5692 240.357 99.2975 240.743 99.1474C241.13 98.9972 241.555 98.9768 241.954 99.089" stroke="#263238" stroke-width="0.200499" stroke-linecap="round" stroke-linejoin="round"/>
<path d="M255.22 114.722L258.178 107.22L263.191 108.983L260.436 118.992L255.096 115.608L252.944 121.171L247.772 115.847L249.995 111.56L255.22 114.722Z" fill="#1281E5"/>
<path opacity="0.2" d="M255.22 114.722L258.178 107.22L263.191 108.983L260.436 118.992L255.096 115.608L252.944 121.171L247.772 115.847L249.995 111.56L255.22 114.722Z" fill="white"/>
<path opacity="0.1" d="M283.205 140.002C269.7 130.613 275.97 112.118 275.97 112.118C279.494 121.088 281.924 130.45 283.205 140.002Z" fill="black"/>
<path d="M211.304 129.55C208.107 130.232 199.49 146.043 198.409 145.919C195.23 145.538 195.389 137.062 193.618 137.947C193.064 138.275 192.608 138.746 192.296 139.309C191.985 139.873 191.83 140.51 191.847 141.154C191.847 141.154 192.325 149.055 195.389 151.987C200.765 157.159 211.33 140.1 211.33 140.1L211.304 129.55Z" fill="#1281E5"/>
<path opacity="0.7" d="M211.304 129.55V140.179C211.304 140.179 200.986 156.885 195.558 152.217L195.389 152.066C192.343 149.134 191.847 141.233 191.847 141.233C191.83 140.59 191.985 139.953 192.296 139.389C192.608 138.825 193.064 138.355 193.618 138.027C195.301 137.141 195.239 144.741 197.949 145.839C198.095 145.903 198.25 145.945 198.409 145.963C199.49 146.079 208.107 130.268 211.304 129.55Z" fill="white"/>
<path opacity="0.2" d="M211.304 129.55V140.179C211.304 140.179 200.986 156.885 195.558 152.217C198.392 151.331 197.949 146.902 197.949 145.839C198.095 145.903 198.25 145.945 198.409 145.963C199.49 146.079 208.107 130.268 211.304 129.55Z" fill="black"/>
<path d="M204.068 175.388C204.068 175.388 195.044 223.503 192.635 243.255C189.483 269.031 176.624 306.702 176.624 306.702L181.769 308.031C181.769 308.031 199.906 275.993 203.44 247.17C217.848 217.71 219.008 181.429 219.008 181.429L204.068 175.388Z" fill="#EEC1BB"/>
<path d="M167.042 318.394C167.879 318.01 168.779 317.782 169.698 317.721C169.698 317.721 172.869 315.861 176.004 308.624H179.546C180.141 308.629 180.72 308.819 181.204 309.166C181.688 309.513 182.052 310.001 182.247 310.564C182.309 310.719 182.345 310.884 182.354 311.051C182.319 311.904 182.228 312.753 182.079 313.593C181.56 316.396 180.871 319.165 180.016 321.884L179.422 321.733L180.511 316.472C180.866 314.7 178.988 316.41 178.12 318.243C177.252 320.077 175.915 321.857 172.019 320.971C167.449 319.864 165.616 319.209 167.042 318.394Z" fill="#2E353A"/>
<path d="M213.438 174.618C213.438 174.618 214.563 223.565 216.29 243.388C218.539 269.252 213.748 308.801 213.748 308.801L219.062 309.041C219.062 309.041 230.176 273.929 227.723 245.009C235.693 213.201 229.361 177.47 229.361 177.47L213.438 174.618Z" fill="#EEC1BB"/>
<path d="M205.485 319.989C206.274 319.518 207.141 319.194 208.045 319.032C208.045 319.032 210.985 316.836 213.358 309.289L216.856 308.89C217.45 308.833 218.047 308.96 218.566 309.253C219.086 309.546 219.503 309.991 219.761 310.529C219.833 310.678 219.884 310.836 219.912 310.998C219.965 311.851 219.965 312.706 219.912 313.558C219.697 316.401 219.313 319.229 218.76 322.026L218.149 321.938L218.654 316.623C218.822 314.807 217.14 316.729 216.475 318.616C215.811 320.503 214.704 322.451 210.701 321.982C206.052 321.424 204.166 320.972 205.485 319.989Z" fill="#2E353A"/>
<path d="M202.04 168.098L183.62 269.164C183.62 269.164 225.544 274.168 239.758 271.245C239.758 271.245 243.238 198.383 228.404 169.631L202.04 168.098Z" fill="#1281E5"/>
<path opacity="0.2" d="M202.04 168.098L183.62 269.164C183.62 269.164 225.544 274.168 239.758 271.245C239.758 271.245 243.238 198.383 228.404 169.631L202.04 168.098Z" fill="white"/>
<path d="M176.623 306.703C176.623 306.703 172.196 315.915 169.68 317.695C169.68 317.695 173.081 319.723 176.623 315.215C181.193 309.378 182.318 311.008 182.318 311.008C182.225 310.001 182.041 309.005 181.769 308.031C181.078 306.18 176.623 306.703 176.623 306.703Z" fill="#EEC1BB"/>
<path d="M214.288 306.702C214.288 306.702 213.039 310.112 211.375 313.859C210.611 315.802 209.48 317.579 208.045 319.094C208.045 319.094 210.932 320.033 212.473 318.208C214.014 316.383 216.706 309.847 219.699 310.599C219.539 310.067 219.316 309.556 219.035 309.076C218.61 308.297 214.288 306.702 214.288 306.702Z" fill="#EEC1BB"/>
<path d="M220.124 117.575C220.124 117.575 215.696 105.387 226.872 103.234C238.049 101.082 243.583 110.223 240.502 119.116C240.502 119.116 244.593 120.79 242.538 123.926C240.484 127.061 244.797 125.883 245.55 129.081C246.302 132.279 242.299 131.65 244.531 132.792C246.763 133.935 250.783 137.735 244.363 140.977C237.942 144.219 221.337 145.592 218.131 140.684C214.926 135.777 215.882 131.969 218.548 130.135C221.213 128.301 217.467 129.905 217.662 125.883C217.857 121.862 219.734 123.226 219.602 121.587C219.469 119.949 218.76 118.036 220.124 117.575Z" fill="#263238"/>
<path d="M238.952 147.912C237.278 150.808 235.914 153.324 234.763 155.6C231.946 160.985 229.733 166.665 228.165 172.536L203.192 165.592C206.212 147.619 208.877 137.974 210.445 133.199C212.127 128.115 212.969 128.106 212.969 128.106C212.969 128.106 218.725 128.841 223.596 129.993C227.361 130.982 231.051 132.237 234.639 133.748C238.057 135.141 241.369 136.781 244.549 138.656C243.61 140.153 242.734 141.587 241.892 142.934C240.83 144.714 239.855 146.379 238.952 147.912Z" fill="#1281E5"/>
<path opacity="0.8" d="M244.549 138.656C243.669 140.044 242.852 141.37 242.096 142.633L241.91 142.934C241.272 143.988 240.67 144.998 240.094 145.972C239.714 146.646 239.324 147.283 238.97 147.912C238.846 148.125 238.713 148.337 238.607 148.541C237.083 151.198 235.835 153.501 234.781 155.627C233.399 158.329 232.328 160.694 231.433 162.926C231.15 163.617 230.884 164.299 230.636 164.972C230.335 165.814 230.052 166.646 229.751 167.479C229.095 169.419 228.785 170.419 228.156 172.563L203.174 165.619C206.203 147.655 208.868 138.001 210.436 133.226C212.118 128.151 212.96 128.133 212.96 128.133C212.96 128.133 218.716 128.868 223.587 130.02C227.35 131.005 231.038 132.26 234.621 133.776C238.045 135.159 241.363 136.79 244.549 138.656Z" fill="white"/>
<path d="M229.733 169.313L202.935 164.999L201.863 169.286L230.22 173.493L229.733 169.313Z" fill="#263238"/>
<path d="M210.011 167.47L209.86 169.525C209.837 169.912 209.956 170.295 210.196 170.6C210.436 170.906 210.78 171.112 211.162 171.181L214.359 171.704H214.501C214.901 171.732 215.298 171.612 215.616 171.367C215.944 171.099 216.156 170.715 216.21 170.295L216.36 168.24C216.392 167.839 216.271 167.441 216.021 167.126C215.771 166.81 215.412 166.601 215.014 166.54L211.817 166.026C211.598 165.99 211.373 166.001 211.158 166.058C210.943 166.114 210.742 166.215 210.569 166.354C210.406 166.493 210.274 166.664 210.178 166.856C210.082 167.047 210.025 167.256 210.011 167.47ZM210.684 169.578L210.737 168.905L211.622 169.037C211.758 169.043 211.891 168.998 211.995 168.912C212.1 168.825 212.169 168.703 212.189 168.569C212.208 168.435 212.178 168.298 212.103 168.185C212.028 168.072 211.913 167.99 211.782 167.957L210.896 167.824H210.772V167.514C210.78 167.407 210.81 167.303 210.861 167.208C210.911 167.114 210.98 167.031 211.065 166.965C211.216 166.841 211.41 166.781 211.605 166.796H211.667L214.864 167.31C215.057 167.339 215.232 167.44 215.354 167.593C215.476 167.746 215.535 167.939 215.519 168.134L215.368 170.189C215.361 170.296 215.331 170.4 215.28 170.494C215.23 170.589 215.16 170.672 215.076 170.738C214.992 170.807 214.893 170.857 214.788 170.884C214.683 170.912 214.573 170.916 214.465 170.897L211.268 170.375C211.086 170.339 210.923 170.238 210.809 170.092C210.696 169.946 210.638 169.763 210.648 169.578H210.684Z" fill="white"/>
<path d="M213.163 122.65L215.953 149.48C215.973 149.625 215.962 149.772 215.92 149.912C215.878 150.052 215.806 150.181 215.71 150.291C215.613 150.4 215.493 150.487 215.359 150.546C215.226 150.605 215.081 150.634 214.934 150.631H198.108C197.794 150.623 197.494 150.502 197.261 150.291C197.029 150.079 196.88 149.792 196.842 149.48L194.052 122.65C194.032 122.505 194.043 122.357 194.085 122.217C194.127 122.076 194.199 121.947 194.295 121.836C194.392 121.726 194.511 121.638 194.645 121.578C194.779 121.519 194.924 121.488 195.071 121.49H211.897C212.212 121.5 212.512 121.623 212.745 121.836C212.977 122.049 213.125 122.337 213.163 122.65Z" fill="#263238"/>
<path opacity="0.2" d="M212.278 122.65L215.067 149.48C215.088 149.625 215.077 149.772 215.035 149.912C214.993 150.052 214.921 150.181 214.824 150.291C214.727 150.4 214.608 150.487 214.474 150.546C214.34 150.605 214.195 150.634 214.049 150.631H198.108C197.794 150.623 197.494 150.502 197.261 150.291C197.029 150.079 196.88 149.792 196.842 149.48L194.052 122.65C194.032 122.505 194.043 122.357 194.085 122.217C194.127 122.076 194.199 121.947 194.295 121.836C194.392 121.726 194.511 121.638 194.645 121.578C194.779 121.519 194.924 121.488 195.071 121.49H211.011C211.326 121.5 211.627 121.623 211.859 121.836C212.091 122.049 212.24 122.337 212.278 122.65Z" fill="white"/>
<path opacity="0.6" d="M204.847 132.438C204.765 132.433 204.682 132.433 204.6 132.438C203.413 132.438 202.58 133.695 202.74 135.237C202.899 136.778 203.997 138.045 205.184 138.045C206.371 138.045 207.203 136.787 207.044 135.237C206.425 135.069 205.877 134.706 205.481 134.202C205.086 133.697 204.863 133.079 204.847 132.438Z" fill="white"/>
<path d="M196.727 132.81C196.727 132.81 191.741 135.901 191.874 137.602C191.945 138.488 192.113 141.083 193.052 141.455C194.628 142.084 199.02 138.496 198.923 138.018C198.826 137.54 198.401 133.155 196.727 132.81Z" fill="#EEC1BB"/>
<path d="M229.768 130.276C229.768 130.276 239.864 133.908 237.898 138.895C235.932 143.882 225.952 137.699 225.952 137.699L221.284 147.38L224.225 137.309C224.225 137.309 217.733 139.648 218.025 135.024C218.318 130.4 222.896 129.328 229.768 130.276Z" fill="white"/>
<path d="M235.383 124.776C234.809 125.5 234.317 126.284 233.913 127.115C232.948 129.09 232.142 131.977 233.842 134.52C233.842 134.52 231.504 136.628 225.455 136.043C225.455 136.043 222.976 133.466 224.747 131.419C224.747 131.419 225.633 131.597 226.456 130.445C227.051 129.563 227.45 128.563 227.625 127.513C227.83 126.511 227.963 125.496 228.024 124.475L235.383 124.776Z" fill="#EEC1BB"/>
<path opacity="0.2" d="M235.383 124.776C234.81 125.5 234.317 126.284 233.913 127.115C233.029 128.228 231.889 129.111 230.591 129.691C229.293 130.271 227.875 130.529 226.456 130.445C227.051 129.563 227.45 128.563 227.625 127.513C227.83 126.511 227.964 125.496 228.024 124.475L235.383 124.776Z" fill="black"/>
<path d="M227.82 106.795C221.541 107.468 219.85 111.056 220.124 117.575C220.416 125.724 222.834 131.278 230.494 128.709C240.909 125.21 238.252 105.635 227.82 106.795Z" fill="#EEC1BB"/>
<path d="M224.18 116.787C223.776 117.778 223.256 118.717 222.63 119.585C222.848 119.828 223.129 120.007 223.441 120.1C223.754 120.194 224.086 120.2 224.402 120.116L224.18 116.787Z" fill="#D4827D"/>
<path d="M227.935 115.856C227.935 116.37 228.289 116.742 228.635 116.742C228.98 116.742 229.219 116.273 229.184 115.75C229.148 115.228 228.821 114.865 228.475 114.865C228.13 114.865 227.891 115.378 227.935 115.856Z" fill="#263238"/>
<path d="M228.608 114.882L227.439 114.536C227.439 114.536 228.103 115.431 228.608 114.882Z" fill="#263238"/>
<path d="M221.523 116.263C221.568 116.786 221.887 117.149 222.232 117.149C222.577 117.149 222.816 116.68 222.772 116.157C222.728 115.635 222.418 115.271 222.072 115.271C221.727 115.271 221.453 115.776 221.523 116.263Z" fill="#263238"/>
<path d="M222.188 115.316L221.019 114.971C221.019 114.971 221.665 115.865 222.188 115.316Z" fill="#263238"/>
<path d="M227.528 111.517C228.017 111.401 228.527 111.4 229.017 111.514C229.507 111.628 229.964 111.853 230.353 112.172" stroke="#263238" stroke-width="0.290595" stroke-linecap="round" stroke-linejoin="round"/>
<path d="M222.932 111.738C222.491 111.675 222.042 111.713 221.619 111.85C221.195 111.987 220.808 112.218 220.487 112.526" stroke="#263238" stroke-width="0.290595" stroke-linecap="round" stroke-linejoin="round"/>
<path d="M225.509 122.464C225.883 123.143 226.208 123.847 226.483 124.572L226.881 124.483C228.653 124.102 229.397 123.332 229.645 122.588C229.751 122.223 229.772 121.838 229.707 121.463C229.673 121.249 229.61 121.041 229.521 120.843C228.508 121.571 227.352 122.076 226.129 122.322C225.748 122.464 225.509 122.464 225.509 122.464Z" fill="#263238"/>
<path d="M226.129 122.349L226.43 122.969C228.13 122.597 229.281 122.083 229.706 121.49C229.673 121.276 229.61 121.067 229.52 120.87C228.508 121.598 227.351 122.102 226.129 122.349Z" fill="white"/>
<path d="M226.881 124.51C228.653 124.129 229.396 123.359 229.644 122.615C228.957 122.772 228.303 123.051 227.714 123.439C227.328 123.697 227.037 124.073 226.881 124.51Z" fill="#DE5753"/>
<path d="M235.826 116.636C235.826 116.636 232.336 111.791 232.345 107.778C232.345 107.778 219.353 104.04 220.106 116.742C220.106 116.742 217.68 105.652 228.449 104.235C239.217 102.818 240.847 118.62 235.808 123.935C235.808 123.917 237.995 119.674 235.826 116.636Z" fill="#263238"/>
<path d="M234.94 118.08C234.923 117.345 235.198 116.634 235.704 116.101C236.21 115.568 236.907 115.257 237.641 115.237C239.607 115.237 240.962 119.134 236.233 120.622C235.551 120.835 235.082 120.197 234.94 118.08Z" fill="#EEC1BB"/>
<path d="M233.089 107.663C233.089 107.663 226.793 106.777 225.783 108.602C224.774 110.426 219.938 109.62 219.841 114.581C219.841 114.581 217.432 108.15 223.994 106.157C230.557 104.164 233.089 107.663 233.089 107.663Z" fill="#263238"/>
<path opacity="0.2" d="M241.334 160.136L241.821 160.499L241.316 160.153L241.334 160.136Z" fill="black"/>
<path opacity="0.2" d="M242.087 142.634L241.901 142.935C241.263 143.989 240.661 144.999 240.085 145.973C239.705 146.646 239.315 147.284 238.961 147.913C238.837 148.125 238.704 148.338 238.598 148.542C237.074 151.199 235.826 153.502 234.772 155.628C233.39 158.329 232.319 160.694 231.424 162.926C228.218 158.117 228.679 144.582 228.679 144.582H230.911C230.911 144.582 233.957 150.632 235.339 150.924C236.72 151.217 241.272 141.553 241.272 141.553L242.087 142.634Z" fill="black"/>
<path d="M232.726 146.38L231.159 143.341C231.186 142.64 231.059 141.942 230.787 141.295C230.397 140.773 222.4 139.931 221.293 139.887C220.186 139.843 220.921 145.547 221.293 146.087C221.665 146.628 228.059 146.734 228.936 146.087L230.22 148.993L232.726 146.38Z" fill="#EEC1BB"/>
<path d="M244.549 138.656C248.508 141.552 246.32 162.944 240.121 163.989C234.108 164.998 228.909 147.717 228.909 147.717L232.7 145.122C232.7 145.122 237.42 155.919 238.686 155.477C240.874 154.715 240.059 145.972 240.059 145.972C240.38 144.473 240.791 142.994 241.29 141.544C242.016 139.621 244.549 138.656 244.549 138.656Z" fill="#1281E5"/>
<path opacity="0.7" d="M244.549 138.656C248.508 141.552 246.32 162.944 240.121 163.989C234.108 164.998 228.909 147.717 228.909 147.717L232.7 145.122C232.7 145.122 237.42 155.919 238.686 155.477C240.874 154.715 240.059 145.972 240.059 145.972C240.38 144.473 240.791 142.994 241.29 141.544C242.016 139.621 244.549 138.656 244.549 138.656Z" fill="white"/>
<path d="M272.427 127.185C272.427 127.185 272.135 136.477 270.727 139.541C269.319 142.606 250.234 132.81 250.234 132.81C249.451 132.129 248.596 131.535 247.684 131.038C246.55 130.516 238.19 130.896 236.941 131.924C235.693 132.951 238.031 137.929 238.031 137.929C238.031 137.929 246.187 139.249 247.772 139.081C248.28 138.991 248.762 138.793 249.186 138.501C249.611 138.209 249.968 137.83 250.234 137.389C250.234 137.389 264.404 145.68 269.478 145.804C274.553 145.928 277.28 142.925 278.963 131.481L272.427 127.185Z" fill="#E4897B"/>
<path d="M275.97 112.118C271.825 109.869 270.727 131.038 270.727 131.038L279.84 136.14C279.84 136.14 284.401 116.68 275.97 112.118Z" fill="#1281E5"/>
<path opacity="0.2" d="M275.97 112.118C271.825 109.869 270.727 131.038 270.727 131.038L279.84 136.14C279.84 136.14 284.401 116.68 275.97 112.118Z" fill="white"/>
</svg>
