<svg width="326" height="325" viewBox="0 0 326 325" fill="none" xmlns="http://www.w3.org/2000/svg">
<path d="M28.5435 73.7014C28.5435 73.7014 30.5514 66.0059 44.0791 65.9659C57.6067 65.926 65.5345 79.4471 65.5345 79.4471C65.5345 79.4471 71.2064 73.5576 78.0622 77.4892C84.9181 81.4209 84.9021 83.6505 84.9021 83.6505H102.502" stroke="#263238" stroke-width="0.34443" stroke-linecap="round" stroke-linejoin="round"/>
<path d="M314.184 85.9506C314.184 85.9506 312.176 78.2471 298.649 78.2071C285.121 78.1672 277.193 91.6963 277.193 91.6963C277.193 91.6963 271.521 85.8068 264.665 89.7384C257.81 93.6701 257.826 95.8997 257.826 95.8997H240.226" stroke="#263238" stroke-width="0.34443" stroke-linecap="round" stroke-linejoin="round"/>
<path d="M281.705 72.0077H271.786C271.786 72.0077 274.497 66.2939 268.37 59.5334C262.242 52.7728 256.01 57.2719 256.01 57.2719C256.01 57.2719 249.994 36.7025 232.45 39.1158C214.907 41.5292 213.059 58.4226 213.059 58.4226C213.059 58.4226 209.307 54.2752 201.667 57.0002C194.027 59.7252 192.867 70.1697 194.763 74.5808C194.763 74.5808 186.068 76.267 185.484 83.6828C185.484 83.6828 184.948 77.122 176.764 76.9223C168.58 76.7225 166.532 86.8713 166.532 86.8713H157.34" stroke="#263238" stroke-width="0.34443" stroke-linecap="round" stroke-linejoin="round"/>
<path d="M58.3906 57.287L104.277 55.0015C109.325 38.1481 128.413 45.1963 128.413 45.1963C135.637 27.7115 152.54 36.0464 152.54 36.0464C152.54 36.0464 161.116 19.2009 178.044 22.725C182.815 23.6204 187.246 25.8162 190.846 29.0697C194.446 32.3232 197.075 36.5077 198.443 41.1607L210.123 41.6482" stroke="#263238" stroke-width="0.34443" stroke-linecap="round" stroke-linejoin="round"/>
<path d="M35.8071 228.923V180.545H43.4069L50.0468 173.904V164.314H52.2627V207.403" stroke="#263238" stroke-width="0.34443" stroke-linecap="round" stroke-linejoin="round"/>
<path d="M45.4551 235.955V210.719H68.2385V256.844" stroke="#263238" stroke-width="0.34443" stroke-linecap="round" stroke-linejoin="round"/>
<path d="M58.3906 207.403V191.061H68.2384V177.38H70.8303V155.372H72.9103V172.114H75.8942V191.476L79.8941 195.472V206.308H87.2859" stroke="#263238" stroke-width="0.34443" stroke-linecap="round" stroke-linejoin="round"/>
<path d="M74.9819 259.785V229.611H81.3738V215.067H89.8136V191.477H93.6615" stroke="#263238" stroke-width="0.34443" stroke-linecap="round" stroke-linejoin="round"/>
<path d="M263.242 214.331V207.403H258.186V193.945H256.074V207.243H247.874V212.861" stroke="#263238" stroke-width="0.34443" stroke-linecap="round" stroke-linejoin="round"/>
<path d="M289.249 208.177V191.164L279.281 181.207H275.482V193.945H272.954V196.223H275.482V216.664H253.538V250.874V269.622" stroke="#263238" stroke-width="0.34443" stroke-linecap="round" stroke-linejoin="round"/>
<path d="M281.705 251.834V210.719H302.913V221.059" stroke="#263238" stroke-width="0.34443" stroke-linecap="round" stroke-linejoin="round"/>
<path d="M295.737 207.402V177.379H297.849V207.402" stroke="#263238" stroke-width="0.34443" stroke-linecap="round" stroke-linejoin="round"/>
<path d="M247.874 267.752V238.472H226.698V200.163L209.523 182.997V165.121H205.867V240.047" stroke="#263238" stroke-width="0.34443" stroke-linecap="round" stroke-linejoin="round"/>
<path d="M211.803 276.207V244.019H189.267V221.963H186.331V190.398H183.627V160.351H180.019V124.278H176.852V158.976L172.668 163.148V180.544H165.068V221.931H149.756V248.294H139.564V276.207" stroke="#263238" stroke-width="0.34443" stroke-linecap="round" stroke-linejoin="round"/>
<path d="M96.0537 206.309H107.989V235.181H117.461V258.851" stroke="#263238" stroke-width="0.34443" stroke-linecap="round" stroke-linejoin="round"/>
<path d="M109.854 216.089H117.461V188.823H153.74V216.665" stroke="#263238" stroke-width="0.34443" stroke-linecap="round" stroke-linejoin="round"/>
<path d="M189.443 210.719H202.387" stroke="#263238" stroke-width="0.34443" stroke-linecap="round" stroke-linejoin="round"/>
<path d="M236.666 235.956V185.18H233.922V236.627" stroke="#263238" stroke-width="0.34443" stroke-linecap="round" stroke-linejoin="round"/>
<path d="M233.922 72.4072V97.172H231.434V76.243H216.267V97.172H213.779V76.243H127.989V97.172H125.501V76.243H110.333V97.172H107.845V72.4072H233.922Z" fill="#1281E5"/>
<mask id="mask0_861_3114" style="mask-type:luminance" maskUnits="userSpaceOnUse" x="107" y="72" width="127" height="26">
<path d="M233.922 72.4082V97.173H231.434V76.244H216.267V97.173H213.779V76.244H127.989V97.173H125.501V76.244H110.333V97.173H107.845V72.4082H233.922Z" fill="white"/>
</mask>
<g mask="url(#mask0_861_3114)">
<path opacity="0.5" d="M233.922 72.4082V82.9246H231.434V76.244H216.267V82.9246H213.779V76.244H127.989V82.9246H125.501V76.244H110.333V82.9246H107.845V72.4082H233.922Z" fill="black"/>
</g>
<path d="M233.922 72.4072V97.172H231.434V76.243H216.267V97.172H213.779V76.243H127.989V97.172H125.501V76.243H110.333V97.172H107.845V72.4072H233.922Z" stroke="#263238" stroke-width="0.34443" stroke-linecap="round" stroke-linejoin="round"/>
<path d="M230.218 66.9971H195.235H178.292H111.317L93.6616 77.8092H161.468H188.059H247.874L230.218 66.9971Z" fill="#1281E5"/>
<mask id="mask1_861_3114" style="mask-type:luminance" maskUnits="userSpaceOnUse" x="93" y="66" width="155" height="12">
<path d="M230.218 66.998H195.235H178.292H111.317L93.6616 77.8102H161.468H188.059H247.874L230.218 66.998Z" fill="white"/>
</mask>
<g mask="url(#mask1_861_3114)">
<path opacity="0.1" d="M230.218 66.998H195.235H178.292H111.317L93.6616 77.8102H161.468H188.059H247.874L230.218 66.998Z" fill="black"/>
<path opacity="0.1" d="M199.363 66.998H146.468V77.8102H213.035L199.363 66.998Z" fill="black"/>
</g>
<path d="M230.218 66.9971H195.235H178.292H111.317L93.6616 77.8092H161.468H188.059H247.874L230.218 66.9971Z" stroke="#263238" stroke-width="0.34443" stroke-linecap="round" stroke-linejoin="round"/>
<path d="M135.861 69.0752H227.323" stroke="#263238" stroke-width="0.34443" stroke-linecap="round" stroke-linejoin="round"/>
<path d="M204.659 71.376H139.876" stroke="#263238" stroke-width="0.34443" stroke-linecap="round" stroke-linejoin="round"/>
<path d="M124.557 74.0371H199.003" stroke="#263238" stroke-width="0.34443" stroke-linecap="round" stroke-linejoin="round"/>
<path d="M207.595 71.376H209.811" stroke="#263238" stroke-width="0.34443" stroke-linecap="round" stroke-linejoin="round"/>
<path d="M216.915 71.376H225.482" stroke="#263238" stroke-width="0.34443" stroke-linecap="round" stroke-linejoin="round"/>
<path d="M231.194 69.0752H232.754" stroke="#263238" stroke-width="0.34443" stroke-linecap="round" stroke-linejoin="round"/>
<path d="M203.483 74.0371H221.682" stroke="#263238" stroke-width="0.34443" stroke-linecap="round" stroke-linejoin="round"/>
<path d="M225.482 74.0371H227.914" stroke="#263238" stroke-width="0.34443" stroke-linecap="round" stroke-linejoin="round"/>
<path d="M233.922 74.0371H241.706" stroke="#263238" stroke-width="0.34443" stroke-linecap="round" stroke-linejoin="round"/>
<path d="M104.165 71.376H121.037" stroke="#263238" stroke-width="0.34443" stroke-linecap="round" stroke-linejoin="round"/>
<path d="M129.581 71.376H131.805" stroke="#263238" stroke-width="0.34443" stroke-linecap="round" stroke-linejoin="round"/>
<path d="M129.581 69.0752H112.597" stroke="#263238" stroke-width="0.34443" stroke-linecap="round" stroke-linejoin="round"/>
<path d="M107.845 74.0371H111.861" stroke="#263238" stroke-width="0.34443" stroke-linecap="round" stroke-linejoin="round"/>
<path d="M240.61 96.4531V274.441C219.339 285.629 193.283 292.222 161.964 292.821C140.755 293.11 119.798 288.213 100.917 278.557V96.4531H240.61Z" fill="#1281E5" stroke="#1281E5" stroke-width="0.34443" stroke-miterlimit="10"/>
<path opacity="0.4" d="M240.61 96.4531V274.441C219.339 285.629 193.283 292.222 161.964 292.821C140.755 293.11 119.798 288.213 100.917 278.557V96.4531H240.61Z" fill="white"/>
<path opacity="0.2" d="M199.683 97.1719H193.499V288.298H199.683V97.1719Z" fill="black"/>
<path opacity="0.2" d="M131.173 278.445L127.989 286.436V99.6172L131.173 107.608V278.445Z" fill="black"/>
<path opacity="0.2" d="M215.219 266.825L221.283 272.883H240.61V266.825H215.219Z" fill="black"/>
<path opacity="0.2" d="M215.219 231.528L221.283 237.586H240.61V231.528H215.219Z" fill="black"/>
<path opacity="0.2" d="M215.219 196.223L221.283 202.28H240.61V196.223H215.219Z" fill="black"/>
<path opacity="0.2" d="M215.219 160.927L221.283 166.984H240.61V160.927H215.219Z" fill="black"/>
<path opacity="0.2" d="M215.219 125.628L221.283 131.685H240.61V125.628H215.219Z" fill="black"/>
<path opacity="0.2" d="M100.821 266.825L106.885 272.883H127.813V266.825H100.821Z" fill="black"/>
<path opacity="0.2" d="M100.821 231.528L106.885 237.586H127.813V231.528H100.821Z" fill="black"/>
<path opacity="0.2" d="M100.821 196.223L106.885 202.28H127.813V196.223H100.821Z" fill="black"/>
<path opacity="0.2" d="M100.821 160.927L106.885 166.984H127.813V160.927H100.821Z" fill="black"/>
<path opacity="0.2" d="M100.821 125.628L106.885 131.685H127.813V125.628H100.821Z" fill="black"/>
<path d="M102.837 88.5889H238.69" stroke="#263238" stroke-width="0.34443" stroke-linecap="round" stroke-linejoin="round"/>
<path d="M102.837 90.6113H238.69" stroke="#263238" stroke-width="0.34443" stroke-linecap="round" stroke-linejoin="round"/>
<path d="M102.837 92.6328H238.69" stroke="#263238" stroke-width="0.34443" stroke-linecap="round" stroke-linejoin="round"/>
<path d="M102.837 94.6543H238.69" stroke="#263238" stroke-width="0.34443" stroke-linecap="round" stroke-linejoin="round"/>
<path d="M238.69 86.791H102.837V96.4524H238.69V86.791Z" stroke="#263238" stroke-width="0.34443" stroke-linecap="round" stroke-linejoin="round"/>
<path d="M249.602 76.2432H91.9258V78.8563H249.602V76.2432Z" fill="#1281E5"/>
<mask id="mask2_861_3114" style="mask-type:luminance" maskUnits="userSpaceOnUse" x="91" y="76" width="159" height="3">
<path d="M249.602 76.2432H91.9258V78.8563H249.602V76.2432Z" fill="white"/>
</mask>
<g mask="url(#mask2_861_3114)">
<path opacity="0.2" d="M249.602 76.2432H91.9258V78.8563H249.602V76.2432Z" fill="black"/>
<path opacity="0.2" d="M213.779 76.2432H146.468V78.8563H213.779V76.2432Z" fill="black"/>
</g>
<path d="M249.602 76.2432H91.9258V78.8563H249.602V76.2432Z" stroke="#263238" stroke-width="0.34443" stroke-linecap="round" stroke-linejoin="round"/>
<path d="M100.917 278.541V96.4531H240.61V274.441" stroke="#263238" stroke-width="0.34443" stroke-linecap="round" stroke-linejoin="round"/>
<path d="M145.853 294.083V66.9971H195.675V292.485" fill="#1281E5"/>
<mask id="mask3_861_3114" style="mask-type:luminance" maskUnits="userSpaceOnUse" x="145" y="66" width="51" height="229">
<path d="M145.853 294.084V66.998H195.675V292.486" fill="white"/>
</mask>
<g mask="url(#mask3_861_3114)">
<path opacity="0.5" d="M195.675 69.0752H145.853V74.9887H195.675V69.0752Z" fill="black"/>
</g>
<path d="M145.853 294.083V66.9971H195.675V292.485" stroke="#263238" stroke-width="0.34443" stroke-linecap="round" stroke-linejoin="round"/>
<path d="M163.38 102.925H149.564V113.441H163.38V102.925Z" fill="white" stroke="#263238" stroke-width="0.34443" stroke-linecap="round" stroke-linejoin="round"/>
<path d="M162.98 103.325H156.876V113.043H162.98V103.325Z" fill="white"/>
<path d="M162.58 103.724V112.642H157.276V103.724H162.58ZM163.38 102.925H156.476V113.441H163.38V102.925Z" fill="#263238"/>
<path d="M124.613 102.925H103.286V123.103H124.613V102.925Z" fill="white" stroke="#263238" stroke-width="0.34443" stroke-linecap="round" stroke-linejoin="round"/>
<path d="M110.333 102.925V123.103" stroke="#263238" stroke-width="0.34443" stroke-linecap="round" stroke-linejoin="round"/>
<path d="M123.821 103.724V122.303H118.261V103.724H123.821ZM124.621 102.925H117.461V123.103H124.621V102.925Z" fill="#263238"/>
<path d="M126.309 123.104H96.0537V125.733H126.309V123.104Z" fill="#1281E5" stroke="#263238" stroke-width="0.34443" stroke-linecap="round" stroke-linejoin="round"/>
<path d="M96.0537 115.24H126.309" stroke="#263238" stroke-width="0.34443" stroke-linecap="round" stroke-linejoin="round"/>
<path d="M96.0537 117.263H126.309" stroke="#263238" stroke-width="0.34443" stroke-linecap="round" stroke-linejoin="round"/>
<path d="M96.0537 119.283H126.309" stroke="#263238" stroke-width="0.34443" stroke-linecap="round" stroke-linejoin="round"/>
<path d="M96.0537 121.306H126.309" stroke="#263238" stroke-width="0.34443" stroke-linecap="round" stroke-linejoin="round"/>
<path d="M126.309 113.442H96.0537V123.104H126.309V113.442Z" stroke="#263238" stroke-width="0.34443" stroke-linecap="round" stroke-linejoin="round"/>
<path d="M139.148 102.925H134.604V113.441H139.148V102.925Z" fill="white" stroke="#263238" stroke-width="0.34443" stroke-linecap="round" stroke-linejoin="round"/>
<path d="M178.148 113.442H191.963V102.926H178.148V113.442Z" fill="white" stroke="#263238" stroke-width="0.34443" stroke-linecap="round" stroke-linejoin="round"/>
<path d="M184.651 103.325H178.547V113.043H184.651V103.325Z" fill="white"/>
<path d="M184.259 103.724V112.642H178.94V103.724H184.252M185.051 102.925H178.14V113.441H185.051V102.925Z" fill="#263238"/>
<path d="M216.915 123.104H238.242V102.926H216.915V123.104Z" fill="white" stroke="#263238" stroke-width="0.34443" stroke-linecap="round" stroke-linejoin="round"/>
<path d="M231.194 102.925V123.103" stroke="#263238" stroke-width="0.34443" stroke-linecap="round" stroke-linejoin="round"/>
<path d="M223.266 103.724V122.303H217.715V103.724H223.266ZM224.066 102.925H216.915V123.103H224.066V102.925Z" fill="#263238"/>
<path d="M215.227 125.74H245.482V123.111H215.227V125.74Z" fill="#1281E5" stroke="#263238" stroke-width="0.34443" stroke-linecap="round" stroke-linejoin="round"/>
<path d="M245.474 115.24H215.219" stroke="#263238" stroke-width="0.34443" stroke-linecap="round" stroke-linejoin="round"/>
<path d="M245.474 117.263H215.219" stroke="#263238" stroke-width="0.34443" stroke-linecap="round" stroke-linejoin="round"/>
<path d="M245.474 119.283H215.219" stroke="#263238" stroke-width="0.34443" stroke-linecap="round" stroke-linejoin="round"/>
<path d="M245.474 121.306H215.219" stroke="#263238" stroke-width="0.34443" stroke-linecap="round" stroke-linejoin="round"/>
<path d="M215.227 123.111H245.482V113.45H215.227V123.111Z" stroke="#263238" stroke-width="0.34443" stroke-linecap="round" stroke-linejoin="round"/>
<path d="M202.379 113.442H206.923V102.926H202.379V113.442Z" fill="white" stroke="#263238" stroke-width="0.34443" stroke-linecap="round" stroke-linejoin="round"/>
<path d="M163.38 138.199H149.564V148.716H163.38V138.199Z" fill="white" stroke="#263238" stroke-width="0.34443" stroke-linecap="round" stroke-linejoin="round"/>
<path d="M162.98 138.599H156.876V148.316H162.98V138.599Z" fill="white"/>
<path d="M162.58 138.998V147.925H157.276V138.998H162.58ZM163.38 138.199H156.476V148.724H163.38V138.199Z" fill="#263238"/>
<path d="M124.613 138.199H103.286V158.377H124.613V138.199Z" fill="white" stroke="#263238" stroke-width="0.34443" stroke-linecap="round" stroke-linejoin="round"/>
<path d="M110.333 138.199V158.377" stroke="#263238" stroke-width="0.34443" stroke-linecap="round" stroke-linejoin="round"/>
<path d="M123.821 138.998V157.578H118.261V138.998H123.821ZM124.621 138.199H117.461V158.377H124.621V138.199Z" fill="#263238"/>
<path d="M126.309 158.376H96.0537V161.005H126.309V158.376Z" fill="#1281E5" stroke="#263238" stroke-width="0.34443" stroke-linecap="round" stroke-linejoin="round"/>
<path d="M96.0537 150.514H126.309" stroke="#263238" stroke-width="0.34443" stroke-linecap="round" stroke-linejoin="round"/>
<path d="M96.0537 152.535H126.309" stroke="#263238" stroke-width="0.34443" stroke-linecap="round" stroke-linejoin="round"/>
<path d="M96.0537 154.557H126.309" stroke="#263238" stroke-width="0.34443" stroke-linecap="round" stroke-linejoin="round"/>
<path d="M96.0537 156.578H126.309" stroke="#263238" stroke-width="0.34443" stroke-linecap="round" stroke-linejoin="round"/>
<path d="M126.309 148.715H96.0537V158.376H126.309V148.715Z" stroke="#263238" stroke-width="0.34443" stroke-linecap="round" stroke-linejoin="round"/>
<path d="M139.148 138.199H134.604V148.716H139.148V138.199Z" fill="white" stroke="#263238" stroke-width="0.34443" stroke-linecap="round" stroke-linejoin="round"/>
<path d="M178.148 148.715H191.963V138.198H178.148V148.715Z" fill="white" stroke="#263238" stroke-width="0.34443" stroke-linecap="round" stroke-linejoin="round"/>
<path d="M184.651 138.599H178.547V148.316H184.651V138.599Z" fill="white"/>
<path d="M184.259 138.998V147.925H178.94V138.998H184.252M185.051 138.199H178.14V148.724H185.051V138.199Z" fill="#263238"/>
<path d="M216.915 158.376H238.242V138.198H216.915V158.376Z" fill="white" stroke="#263238" stroke-width="0.34443" stroke-linecap="round" stroke-linejoin="round"/>
<path d="M231.194 138.199V158.377" stroke="#263238" stroke-width="0.34443" stroke-linecap="round" stroke-linejoin="round"/>
<path d="M223.266 138.998V157.578H217.715V138.998H223.266ZM224.066 138.199H216.915V158.377H224.066V138.199Z" fill="#263238"/>
<path d="M215.227 161.006H245.482V158.377H215.227V161.006Z" fill="#1281E5" stroke="#263238" stroke-width="0.34443" stroke-linecap="round" stroke-linejoin="round"/>
<path d="M245.474 150.514H215.219" stroke="#263238" stroke-width="0.34443" stroke-linecap="round" stroke-linejoin="round"/>
<path d="M245.474 152.535H215.219" stroke="#263238" stroke-width="0.34443" stroke-linecap="round" stroke-linejoin="round"/>
<path d="M245.474 154.557H215.219" stroke="#263238" stroke-width="0.34443" stroke-linecap="round" stroke-linejoin="round"/>
<path d="M245.474 156.578H215.219" stroke="#263238" stroke-width="0.34443" stroke-linecap="round" stroke-linejoin="round"/>
<path d="M215.227 158.376H245.482V148.715H215.227V158.376Z" stroke="#263238" stroke-width="0.34443" stroke-linecap="round" stroke-linejoin="round"/>
<path d="M202.379 148.715H206.923V138.198H202.379V148.715Z" fill="white" stroke="#263238" stroke-width="0.34443" stroke-linecap="round" stroke-linejoin="round"/>
<path d="M163.38 173.473H149.564V183.989H163.38V173.473Z" fill="white" stroke="#263238" stroke-width="0.34443" stroke-linecap="round" stroke-linejoin="round"/>
<path d="M162.98 173.871H156.876V183.588H162.98V173.871Z" fill="white"/>
<path d="M162.58 174.295V183.213H157.276V174.295H162.58ZM163.38 173.496H156.476V184.013H163.38V173.496Z" fill="#263238"/>
<path d="M124.613 173.473H103.286V193.65H124.613V173.473Z" fill="white" stroke="#263238" stroke-width="0.34443" stroke-linecap="round" stroke-linejoin="round"/>
<path d="M110.333 173.473V193.65" stroke="#263238" stroke-width="0.34443" stroke-linecap="round" stroke-linejoin="round"/>
<path d="M123.821 174.295V192.875H118.261V174.295H123.821ZM124.621 173.496H117.461V193.674H124.621V173.496Z" fill="#263238"/>
<path d="M126.309 193.65H96.0537V196.28H126.309V193.65Z" fill="#1281E5" stroke="#263238" stroke-width="0.34443" stroke-linecap="round" stroke-linejoin="round"/>
<path d="M96.0537 185.786H126.309" stroke="#263238" stroke-width="0.34443" stroke-linecap="round" stroke-linejoin="round"/>
<path d="M96.0537 187.809H126.309" stroke="#263238" stroke-width="0.34443" stroke-linecap="round" stroke-linejoin="round"/>
<path d="M96.0537 189.83H126.309" stroke="#263238" stroke-width="0.34443" stroke-linecap="round" stroke-linejoin="round"/>
<path d="M96.0537 191.851H126.309" stroke="#263238" stroke-width="0.34443" stroke-linecap="round" stroke-linejoin="round"/>
<path d="M126.309 183.988H96.0537V193.65H126.309V183.988Z" stroke="#263238" stroke-width="0.34443" stroke-linecap="round" stroke-linejoin="round"/>
<path d="M139.148 173.473H134.604V183.989H139.148V173.473Z" fill="white" stroke="#263238" stroke-width="0.34443" stroke-linecap="round" stroke-linejoin="round"/>
<path d="M178.148 183.988H191.963V173.472H178.148V183.988Z" fill="white" stroke="#263238" stroke-width="0.34443" stroke-linecap="round" stroke-linejoin="round"/>
<path d="M184.651 173.871H178.547V183.588H184.651V173.871Z" fill="white"/>
<path d="M184.259 174.295V183.213H178.94V174.295H184.252M185.051 173.496H178.14V184.013H185.051V173.496Z" fill="#263238"/>
<path d="M216.915 193.65H238.242V173.473H216.915V193.65Z" fill="white" stroke="#263238" stroke-width="0.34443" stroke-linecap="round" stroke-linejoin="round"/>
<path d="M231.194 173.473V193.65" stroke="#263238" stroke-width="0.34443" stroke-linecap="round" stroke-linejoin="round"/>
<path d="M223.266 174.295V192.875H217.715V174.295H223.266ZM224.066 173.496H216.915V193.674H224.066V173.496Z" fill="#263238"/>
<path d="M215.227 196.279H245.482V193.65H215.227V196.279Z" fill="#1281E5" stroke="#263238" stroke-width="0.34443" stroke-linecap="round" stroke-linejoin="round"/>
<path d="M245.474 185.786H215.219" stroke="#263238" stroke-width="0.34443" stroke-linecap="round" stroke-linejoin="round"/>
<path d="M245.474 187.809H215.219" stroke="#263238" stroke-width="0.34443" stroke-linecap="round" stroke-linejoin="round"/>
<path d="M245.474 189.83H215.219" stroke="#263238" stroke-width="0.34443" stroke-linecap="round" stroke-linejoin="round"/>
<path d="M245.474 191.851H215.219" stroke="#263238" stroke-width="0.34443" stroke-linecap="round" stroke-linejoin="round"/>
<path d="M215.227 193.65H245.482V183.989H215.227V193.65Z" stroke="#263238" stroke-width="0.34443" stroke-linecap="round" stroke-linejoin="round"/>
<path d="M202.379 183.988H206.923V173.472H202.379V183.988Z" fill="white" stroke="#263238" stroke-width="0.34443" stroke-linecap="round" stroke-linejoin="round"/>
<path d="M163.38 208.745H149.564V219.262H163.38V208.745Z" fill="white" stroke="#263238" stroke-width="0.34443" stroke-linecap="round" stroke-linejoin="round"/>
<path d="M162.98 209.144H156.876V218.861H162.98V209.144Z" fill="white"/>
<path d="M162.58 209.544V218.462H157.276V209.544H162.58ZM163.38 208.745H156.476V219.262H163.38V208.745Z" fill="#263238"/>
<path d="M124.613 208.745H103.286V228.923H124.613V208.745Z" fill="white" stroke="#263238" stroke-width="0.34443" stroke-linecap="round" stroke-linejoin="round"/>
<path d="M110.333 208.745V228.923" stroke="#263238" stroke-width="0.34443" stroke-linecap="round" stroke-linejoin="round"/>
<path d="M123.821 209.544V228.124H118.261V209.544H123.821ZM124.621 208.745H117.461V228.923H124.621V208.745Z" fill="#263238"/>
<path d="M126.309 228.924H96.0537V231.553H126.309V228.924Z" fill="#1281E5" stroke="#263238" stroke-width="0.34443" stroke-linecap="round" stroke-linejoin="round"/>
<path d="M96.0537 221.059H126.309" stroke="#263238" stroke-width="0.34443" stroke-linecap="round" stroke-linejoin="round"/>
<path d="M96.0537 223.081H126.309" stroke="#263238" stroke-width="0.34443" stroke-linecap="round" stroke-linejoin="round"/>
<path d="M96.0537 225.104H126.309" stroke="#263238" stroke-width="0.34443" stroke-linecap="round" stroke-linejoin="round"/>
<path d="M96.0537 227.125H126.309" stroke="#263238" stroke-width="0.34443" stroke-linecap="round" stroke-linejoin="round"/>
<path d="M126.309 219.262H96.0537V228.923H126.309V219.262Z" stroke="#263238" stroke-width="0.34443" stroke-linecap="round" stroke-linejoin="round"/>
<path d="M139.148 208.745H134.604V219.262H139.148V208.745Z" fill="white" stroke="#263238" stroke-width="0.34443" stroke-linecap="round" stroke-linejoin="round"/>
<path d="M178.148 219.262H191.963V208.745H178.148V219.262Z" fill="white" stroke="#263238" stroke-width="0.34443" stroke-linecap="round" stroke-linejoin="round"/>
<path d="M184.651 209.144H178.547V218.861H184.651V209.144Z" fill="white"/>
<path d="M184.259 209.544V218.462H178.94V209.544H184.252M185.051 208.745H178.14V219.262H185.051V208.745Z" fill="#263238"/>
<path d="M216.915 228.924H238.242V208.746H216.915V228.924Z" fill="white" stroke="#263238" stroke-width="0.34443" stroke-linecap="round" stroke-linejoin="round"/>
<path d="M231.194 208.745V228.923" stroke="#263238" stroke-width="0.34443" stroke-linecap="round" stroke-linejoin="round"/>
<path d="M223.266 209.544V228.124H217.715V209.544H223.266ZM224.066 208.745H216.915V228.923H224.066V208.745Z" fill="#263238"/>
<path d="M215.227 231.553H245.482V228.924H215.227V231.553Z" fill="#1281E5" stroke="#263238" stroke-width="0.34443" stroke-linecap="round" stroke-linejoin="round"/>
<path d="M245.474 221.059H215.219" stroke="#263238" stroke-width="0.34443" stroke-linecap="round" stroke-linejoin="round"/>
<path d="M245.474 223.081H215.219" stroke="#263238" stroke-width="0.34443" stroke-linecap="round" stroke-linejoin="round"/>
<path d="M245.474 225.104H215.219" stroke="#263238" stroke-width="0.34443" stroke-linecap="round" stroke-linejoin="round"/>
<path d="M245.474 227.125H215.219" stroke="#263238" stroke-width="0.34443" stroke-linecap="round" stroke-linejoin="round"/>
<path d="M215.227 228.924H245.482V219.262H215.227V228.924Z" stroke="#263238" stroke-width="0.34443" stroke-linecap="round" stroke-linejoin="round"/>
<path d="M202.379 219.262H206.923V208.745H202.379V219.262Z" fill="white" stroke="#263238" stroke-width="0.34443" stroke-linecap="round" stroke-linejoin="round"/>
<path d="M163.38 244.019H149.564V254.535H163.38V244.019Z" fill="white" stroke="#263238" stroke-width="0.34443" stroke-linecap="round" stroke-linejoin="round"/>
<path d="M162.98 244.418H156.876V254.135H162.98V244.418Z" fill="white"/>
<path d="M162.58 244.818V253.736H157.276V244.818H162.58ZM163.38 244.019H156.476V254.535H163.38V244.019Z" fill="#263238"/>
<path d="M124.613 244.019H103.286V264.196H124.613V244.019Z" fill="white" stroke="#263238" stroke-width="0.34443" stroke-linecap="round" stroke-linejoin="round"/>
<path d="M110.333 244.019V264.196" stroke="#263238" stroke-width="0.34443" stroke-linecap="round" stroke-linejoin="round"/>
<path d="M123.821 244.818V263.397H118.261V244.818H123.821ZM124.621 244.019H117.461V264.196H124.621V244.019Z" fill="#263238"/>
<path d="M126.309 264.197H96.0537V266.826H126.309V264.197Z" fill="#1281E5" stroke="#263238" stroke-width="0.34443" stroke-linecap="round" stroke-linejoin="round"/>
<path d="M96.0537 256.332H126.309" stroke="#263238" stroke-width="0.34443" stroke-linecap="round" stroke-linejoin="round"/>
<path d="M96.0537 258.354H126.309" stroke="#263238" stroke-width="0.34443" stroke-linecap="round" stroke-linejoin="round"/>
<path d="M96.0537 260.376H126.309" stroke="#263238" stroke-width="0.34443" stroke-linecap="round" stroke-linejoin="round"/>
<path d="M96.0537 262.398H126.309" stroke="#263238" stroke-width="0.34443" stroke-linecap="round" stroke-linejoin="round"/>
<path d="M126.309 254.534H96.0537V264.196H126.309V254.534Z" stroke="#263238" stroke-width="0.34443" stroke-linecap="round" stroke-linejoin="round"/>
<path d="M139.148 244.019H134.604V254.535H139.148V244.019Z" fill="white" stroke="#263238" stroke-width="0.34443" stroke-linecap="round" stroke-linejoin="round"/>
<path d="M178.148 254.534H191.963V244.018H178.148V254.534Z" fill="white" stroke="#263238" stroke-width="0.34443" stroke-linecap="round" stroke-linejoin="round"/>
<path d="M184.651 244.418H178.547V254.135H184.651V244.418Z" fill="white"/>
<path d="M184.259 244.818V253.736H178.94V244.818H184.252M185.051 244.019H178.14V254.535H185.051V244.019Z" fill="#263238"/>
<path d="M216.915 264.197H238.242V244.019H216.915V264.197Z" fill="white" stroke="#263238" stroke-width="0.34443" stroke-linecap="round" stroke-linejoin="round"/>
<path d="M231.194 244.019V264.196" stroke="#263238" stroke-width="0.34443" stroke-linecap="round" stroke-linejoin="round"/>
<path d="M223.266 244.818V263.397H217.715V244.818H223.266ZM224.066 244.019H216.915V264.196H224.066V244.019Z" fill="#263238"/>
<path d="M215.227 266.825H245.482V264.196H215.227V266.825Z" fill="#1281E5" stroke="#263238" stroke-width="0.34443" stroke-linecap="round" stroke-linejoin="round"/>
<path d="M245.474 256.332H215.219" stroke="#263238" stroke-width="0.34443" stroke-linecap="round" stroke-linejoin="round"/>
<path d="M245.474 258.354H215.219" stroke="#263238" stroke-width="0.34443" stroke-linecap="round" stroke-linejoin="round"/>
<path d="M245.474 260.376H215.219" stroke="#263238" stroke-width="0.34443" stroke-linecap="round" stroke-linejoin="round"/>
<path d="M245.474 262.398H215.219" stroke="#263238" stroke-width="0.34443" stroke-linecap="round" stroke-linejoin="round"/>
<path d="M215.227 264.197H245.482V254.536H215.227V264.197Z" stroke="#263238" stroke-width="0.34443" stroke-linecap="round" stroke-linejoin="round"/>
<path d="M202.379 254.534H206.923V244.018H202.379V254.534Z" fill="white" stroke="#263238" stroke-width="0.34443" stroke-linecap="round" stroke-linejoin="round"/>
<path d="M195.675 72.4072H145.853V82.9237H195.675V72.4072Z" fill="white"/>
<mask id="mask4_861_3114" style="mask-type:luminance" maskUnits="userSpaceOnUse" x="145" y="72" width="51" height="11">
<path d="M195.675 72.4082H145.853V82.9246H195.675V72.4082Z" fill="white"/>
</mask>
<g mask="url(#mask4_861_3114)">
<path opacity="0.3" d="M195.683 72.4082H145.853V75.4209H195.683V72.4082Z" fill="black"/>
</g>
<path d="M195.675 72.4072H145.853V82.9237H195.675V72.4072Z" stroke="#263238" stroke-width="0.34443" stroke-linecap="round" stroke-linejoin="round"/>
<path d="M151.468 72.4072V82.9237" stroke="#263238" stroke-width="0.34443" stroke-linecap="round" stroke-linejoin="round"/>
<path d="M157.9 72.4072V82.9237" stroke="#263238" stroke-width="0.34443" stroke-linecap="round" stroke-linejoin="round"/>
<path d="M164.332 72.4072V82.9237" stroke="#263238" stroke-width="0.34443" stroke-linecap="round" stroke-linejoin="round"/>
<path d="M170.764 72.4072V82.9237" stroke="#263238" stroke-width="0.34443" stroke-linecap="round" stroke-linejoin="round"/>
<path d="M177.196 72.4072V82.9237" stroke="#263238" stroke-width="0.34443" stroke-linecap="round" stroke-linejoin="round"/>
<path d="M183.627 72.4072V82.9237" stroke="#263238" stroke-width="0.34443" stroke-linecap="round" stroke-linejoin="round"/>
<path d="M190.067 72.4072V82.9237" stroke="#263238" stroke-width="0.34443" stroke-linecap="round" stroke-linejoin="round"/>
<path d="M201.971 67.7722H139.564L148.388 56.9521H193.139L201.971 67.7722Z" fill="#1281E5"/>
<mask id="mask5_861_3114" style="mask-type:luminance" maskUnits="userSpaceOnUse" x="139" y="56" width="63" height="12">
<path d="M201.971 67.7732H139.564L148.388 56.9531H193.139L201.971 67.7732Z" fill="white"/>
</mask>
<g mask="url(#mask5_861_3114)">
<path opacity="0.1" d="M201.971 67.7732H139.564L148.388 56.9531H193.139L201.971 67.7732Z" fill="black"/>
</g>
<path d="M201.971 67.7722H139.564L148.388 56.9521H193.139L201.971 67.7722Z" stroke="#263238" stroke-width="0.34443" stroke-linecap="round" stroke-linejoin="round"/>
<path d="M202.819 66.4619H138.717V69.075H202.819V66.4619Z" fill="#1281E5"/>
<mask id="mask6_861_3114" style="mask-type:luminance" maskUnits="userSpaceOnUse" x="138" y="66" width="65" height="4">
<path d="M202.819 66.4619H138.717V69.075H202.819V66.4619Z" fill="white"/>
</mask>
<g mask="url(#mask6_861_3114)">
<path opacity="0.2" d="M202.819 66.4619H138.717V69.075H202.819V66.4619Z" fill="black"/>
</g>
<path d="M202.819 66.4619H138.717V69.075H202.819V66.4619Z" stroke="#263238" stroke-width="0.34443" stroke-linecap="round" stroke-linejoin="round"/>
<path opacity="0.2" d="M151.924 87.8857H156.588V86.0158H151.924V87.8857Z" fill="black"/>
<path opacity="0.2" d="M155.66 90.0205H160.324V88.1506H155.66V90.0205Z" fill="black"/>
<path opacity="0.2" d="M168.772 100.561H173.436V98.6906H168.772V100.561Z" fill="black"/>
<path opacity="0.2" d="M166.436 103.029H171.1V101.159H166.436V103.029Z" fill="black"/>
<path opacity="0.2" d="M149.596 119.731H154.26V117.861H149.596V119.731Z" fill="black"/>
<path opacity="0.2" d="M152.148 122.056H156.812V120.186H152.148V122.056Z" fill="black"/>
<path opacity="0.2" d="M179.307 124.278H183.971V122.408H179.307V124.278Z" fill="black"/>
<path opacity="0.2" d="M176.843 126.771H181.507V124.902H176.843V126.771Z" fill="black"/>
<path opacity="0.2" d="M151.068 136.552H155.732V134.682H151.068V136.552Z" fill="black"/>
<path opacity="0.2" d="M154.82 119.731H159.484V117.861H154.82V119.731Z" fill="black"/>
<path opacity="0.2" d="M174.276 172.113H169.612V173.983H174.276V172.113Z" fill="black"/>
<path opacity="0.2" d="M153.74 169.973H149.076V171.843H153.74V169.973Z" fill="black"/>
<path opacity="0.2" d="M159.836 157.841H155.172V159.711H159.836V157.841Z" fill="black"/>
<path opacity="0.2" d="M162.164 155.372H157.5V157.242H162.164V155.372Z" fill="black"/>
<path opacity="0.2" d="M176.603 140.269H171.939V142.138H176.603V140.269Z" fill="black"/>
<path opacity="0.2" d="M174.052 137.935H169.388V139.805H174.052V137.935Z" fill="black"/>
<path opacity="0.2" d="M185.187 93.2393H180.523V95.1092H185.187V93.2393Z" fill="black"/>
<path opacity="0.2" d="M187.651 90.7471H182.987V92.617H187.651V90.7471Z" fill="black"/>
<path opacity="0.2" d="M186.26 132.669H181.596V134.539H186.26V132.669Z" fill="black"/>
<path opacity="0.2" d="M171.38 140.269H166.716V142.138H171.38V140.269Z" fill="black"/>
<path opacity="0.2" d="M190.563 158.977H185.899V160.847H190.563V158.977Z" fill="black"/>
<path opacity="0.2" d="M186.827 156.835H182.164V158.705H186.827V156.835Z" fill="black"/>
<path opacity="0.2" d="M174.524 257.38H169.86V259.25H174.524V257.38Z" fill="black"/>
<path opacity="0.2" d="M185.652 272.483H180.988V274.353H185.652V272.483Z" fill="black"/>
<path opacity="0.2" d="M194.491 241.397H189.827V243.267H194.491V241.397Z" fill="black"/>
<path opacity="0.2" d="M191.939 239.071H187.275V240.941H191.939V239.071Z" fill="black"/>
<path opacity="0.2" d="M155.98 240.046H151.316V241.916H155.98V240.046Z" fill="black"/>
<path opacity="0.2" d="M158.444 237.554H153.78V239.424H158.444V237.554Z" fill="black"/>
<path opacity="0.2" d="M193.019 224.575H188.355V226.445H193.019V224.575Z" fill="black"/>
<path opacity="0.2" d="M189.267 241.397H184.604V243.267H189.267V241.397Z" fill="black"/>
<path opacity="0.2" d="M167.1 241.517C171.636 241.469 176.308 241.469 180.7 241.517H167.1Z" fill="black"/>
<path opacity="0.2" d="M159.42 186.617H164.084V184.747H159.42V186.617Z" fill="black"/>
<path opacity="0.2" d="M163.148 188.76H167.812V186.89H163.148V188.76Z" fill="black"/>
<path opacity="0.2" d="M173.86 200.891H178.523V199.021H173.86V200.891Z" fill="black"/>
<path opacity="0.2" d="M171.524 228.133H176.188V226.263H171.524V228.133Z" fill="black"/>
<path opacity="0.2" d="M157.084 215.274H161.748V213.404H157.084V215.274Z" fill="black"/>
<path opacity="0.2" d="M159.644 217.599H164.308V215.729H159.644V217.599Z" fill="black"/>
<path opacity="0.2" d="M155.7 266.29H160.364V264.42H155.7V266.29Z" fill="black"/>
<path opacity="0.2" d="M153.237 268.783H157.9V266.913H153.237V268.783Z" fill="black"/>
<path opacity="0.2" d="M147.428 222.857H152.092V220.987H147.428V222.857Z" fill="black"/>
<path opacity="0.2" d="M162.308 215.274H166.972V213.404H162.308V215.274Z" fill="black"/>
<path opacity="0.1" d="M146.436 259.921H151.1V258.051H146.436V259.921Z" fill="black"/>
<path opacity="0.1" d="M150.18 257.779H154.844V255.909H150.18V257.779Z" fill="black"/>
<path opacity="0.1" d="M185.604 262.254H190.268V260.384H185.604V262.254Z" fill="black"/>
<path opacity="0.1" d="M183.267 259.785H187.931V257.915H183.267V259.785Z" fill="black"/>
<path opacity="0.1" d="M181.883 234.148H186.547V232.278H181.883V234.148Z" fill="black"/>
<path opacity="0.1" d="M184.444 231.832H189.107V229.962H184.444V231.832Z" fill="black"/>
<path opacity="0.1" d="M167.852 246.08H172.516V244.21H167.852V246.08Z" fill="black"/>
<path opacity="0.1" d="M165.388 243.588H170.052V241.718H165.388V243.588Z" fill="black"/>
<path opacity="0.1" d="M170.9 269.623H175.563V267.753H170.9V269.623Z" fill="black"/>
<path opacity="0.1" d="M187.108 234.148H191.771V232.278H187.108V234.148Z" fill="black"/>
<path opacity="0.1" d="M174.276 186.385H169.612V188.255H174.276V186.385Z" fill="black"/>
<path opacity="0.1" d="M153.74 188.527H149.076V190.397H153.74V188.527Z" fill="black"/>
<path opacity="0.1" d="M157.98 198.284H153.316V200.154H157.98V198.284Z" fill="black"/>
<path opacity="0.1" d="M160.308 200.762H155.644V202.632H160.308V200.762Z" fill="black"/>
<path opacity="0.1" d="M165.148 226.35H160.484V228.22H165.148V226.35Z" fill="black"/>
<path opacity="0.1" d="M162.596 228.675H157.932V230.545H162.596V228.675Z" fill="black"/>
<path opacity="0.1" d="M151.9 206.309H147.236V208.179H151.9V206.309Z" fill="black"/>
<path opacity="0.1" d="M159.924 226.35H155.26V228.22H159.924V226.35Z" fill="black"/>
<path opacity="0.1" d="M190.563 199.523H185.899V201.393H190.563V199.523Z" fill="black"/>
<path opacity="0.1" d="M186.827 201.666H182.164V203.536H186.827V201.666Z" fill="black"/>
<path opacity="0.1" d="M155.172 93.2393H150.508V95.1092H155.172V93.2393Z" fill="black"/>
<path opacity="0.1" d="M189.699 86.4248H185.035V88.2948H189.699V86.4248Z" fill="black"/>
<path opacity="0.1" d="M192.595 115.935H187.931V117.805H192.595V115.935Z" fill="black"/>
<path opacity="0.1" d="M190.035 118.26H185.371V120.13H190.035V118.26Z" fill="black"/>
<path opacity="0.1" d="M170.644 89.8125H165.98V91.6824H170.644V89.8125Z" fill="black"/>
<path opacity="0.1" d="M173.108 92.3047H168.444V94.1746H173.108V92.3047Z" fill="black"/>
<path opacity="0.1" d="M193.019 133.915H188.355V135.785H193.019V133.915Z" fill="black"/>
<path opacity="0.1" d="M187.371 115.935H182.708V117.805H187.371V115.935Z" fill="black"/>
<path opacity="0.1" d="M153.74 130.735H158.404V128.865H153.74V130.735Z" fill="black"/>
<path opacity="0.1" d="M157.468 128.594H162.132V126.724H157.468V128.594Z" fill="black"/>
<path opacity="0.1" d="M164.756 166.991H169.42V165.121H164.756V166.991Z" fill="black"/>
<path opacity="0.1" d="M171.524 134.099H176.188V132.229H171.524V134.099Z" fill="black"/>
<path opacity="0.1" d="M168.042 164.938L172.701 165.137L172.781 163.268L168.121 163.07L168.042 164.938Z" fill="black"/>
<path opacity="0.1" d="M169.981 163.066L174.645 163.252L174.719 161.382L170.056 161.196L169.981 163.066Z" fill="black"/>
<path opacity="0.1" d="M169.18 115.2H173.844V113.33H169.18V115.2Z" fill="black"/>
<path opacity="0.1" d="M166.716 112.707H171.379V110.837H166.716V112.707Z" fill="black"/>
<path opacity="0.1" d="M167.812 151.286L172.472 151.484L172.551 149.616L167.892 149.418L167.812 151.286Z" fill="black"/>
<path opacity="0.1" d="M173.255 165.156L177.915 165.354L177.995 163.486L173.335 163.288L173.255 165.156Z" fill="black"/>
<path d="M127.989 99.6172V280.474" stroke="#263238" stroke-width="0.34443" stroke-linecap="round" stroke-linejoin="round"/>
<path d="M213.779 99.6172V280.474" stroke="#263238" stroke-width="0.34443" stroke-linecap="round" stroke-linejoin="round"/>
<path d="M188.011 59.2607H190.691" stroke="#263238" stroke-width="0.34443" stroke-linecap="round" stroke-linejoin="round"/>
<path d="M157.34 59.2227C165.212 59.2227 173.083 59.2227 180.955 59.2227" stroke="#263238" stroke-width="0.34443" stroke-linecap="round" stroke-linejoin="round"/>
<path d="M146.508 59.2607H154.692" stroke="#263238" stroke-width="0.34443" stroke-linecap="round" stroke-linejoin="round"/>
<path d="M163.02 61.5635H159.14" stroke="#263238" stroke-width="0.34443" stroke-linecap="round" stroke-linejoin="round"/>
<path d="M196.587 61.5635C189.003 61.5955 181.419 61.5955 173.835 61.5635" stroke="#263238" stroke-width="0.34443" stroke-linecap="round" stroke-linejoin="round"/>
<path d="M194.779 64.2158H196.587" stroke="#263238" stroke-width="0.34443" stroke-linecap="round" stroke-linejoin="round"/>
<path d="M165.812 64.2158H181.411" stroke="#263238" stroke-width="0.34443" stroke-linecap="round" stroke-linejoin="round"/>
<path d="M149.484 64.2158H163.372" stroke="#263238" stroke-width="0.34443" stroke-linecap="round" stroke-linejoin="round"/>
<path d="M142.46 64.2158H144.78" stroke="#263238" stroke-width="0.34443" stroke-linecap="round" stroke-linejoin="round"/>
<path d="M168.748 61.5635H170.02" stroke="#263238" stroke-width="0.34443" stroke-linecap="round" stroke-linejoin="round"/>
<path d="M98.0858 138.462L91.038 133.228V136.065H56.5428C55.482 136.065 54.4646 135.644 53.7145 134.895C52.9643 134.145 52.5429 133.129 52.5429 132.069V126.348H80.3102C81.1193 126.346 81.8946 126.023 82.4659 125.451C83.0373 124.879 83.3582 124.103 83.3582 123.295V109.398C83.3582 108.59 83.0373 107.815 82.4659 107.243C81.8946 106.67 81.1193 106.348 80.3102 106.346H19.9597C19.5588 106.346 19.1618 106.425 18.7915 106.578C18.4212 106.732 18.0848 106.957 17.8017 107.24C17.5185 107.524 17.2942 107.86 17.1415 108.231C16.9888 108.601 16.9107 108.998 16.9118 109.398V123.271C16.9076 123.674 16.9833 124.073 17.1345 124.446C17.2858 124.819 17.5097 125.159 17.7931 125.445C18.0766 125.731 18.414 125.958 18.7859 126.113C19.1578 126.268 19.5567 126.348 19.9597 126.348H47.743V133.26C47.743 135.281 48.546 137.219 49.9755 138.648C51.405 140.077 53.3441 140.882 55.3668 140.884H91.054V143.729L98.0858 138.462Z" fill="white" stroke="#263238" stroke-width="0.34443" stroke-linecap="round" stroke-linejoin="round"/>
<path d="M27.3433 111.899L28.7832 114.816L32.0072 115.288L29.6792 117.557L30.2312 120.77L27.3433 119.259L24.4553 120.77L25.0073 117.557L22.6714 115.288L25.8953 114.816L27.3433 111.899Z" fill="#1281E5" stroke="#263238" stroke-width="0.34443" stroke-linecap="round" stroke-linejoin="round"/>
<path d="M38.7354 111.899L40.1753 114.816L43.4072 115.288L41.0713 117.557L41.6233 120.77L38.7354 119.259L35.8474 120.77L36.3994 117.557L34.0635 115.288L37.2874 114.816L38.7354 111.899Z" fill="#1281E5" stroke="#263238" stroke-width="0.34443" stroke-linecap="round" stroke-linejoin="round"/>
<path d="M50.127 111.899L51.5669 114.816L54.7988 115.288L52.4629 117.557L53.0149 120.77L50.127 119.259L47.239 120.77L47.791 117.557L45.4551 115.288L48.679 114.816L50.127 111.899Z" fill="#1281E5" stroke="#263238" stroke-width="0.34443" stroke-linecap="round" stroke-linejoin="round"/>
<path d="M61.5186 111.899L62.9665 114.816L66.1904 115.288L63.8545 117.557L64.4065 120.77L61.5186 119.259L58.6306 120.77L59.1826 117.557L56.8467 115.288L60.0786 114.816L61.5186 111.899Z" fill="#1281E5" stroke="#263238" stroke-width="0.34443" stroke-linecap="round" stroke-linejoin="round"/>
<path d="M72.9102 111.899L74.3581 114.816L77.5821 115.288L75.2461 117.557L75.7981 120.77L72.9102 119.259L70.0222 120.77L70.5742 117.557L68.2383 115.288L71.4702 114.816L72.9102 111.899Z" fill="#1281E5" stroke="#263238" stroke-width="0.34443" stroke-linecap="round" stroke-linejoin="round"/>
<path d="M325 118.269V148.156C325 148.156 256.674 170.859 242.858 177.579C229.043 184.3 214.187 198.269 214.187 198.269C209.227 203.399 190.988 207.642 191.876 202.895C192.167 201.173 192.205 199.418 191.988 197.685C191.813 196.082 191.481 194.5 190.996 192.962C189.396 195.967 185.86 199.355 185.86 199.355C185.86 202.887 183.732 208.729 183.732 208.729L182.932 220.045C186.564 226.589 183.364 229.235 181.988 229.059C180.612 228.883 179.052 226.486 179.052 226.486L176.996 226.765C176.996 226.765 174.516 231.888 172.564 232.071C170.612 232.255 169.524 229.418 169.524 229.418C169.524 229.418 168.492 231.36 166.02 230.217C165.38 229.812 164.882 229.217 164.596 228.515C163.052 225.423 162.196 219.301 161.948 217.072C161.588 214.243 161.236 201.153 161.236 199.563C161.236 197.973 170.092 184.38 172.748 179.753C175.404 175.126 177.348 169.5 180.884 167.558C184.42 165.616 188.324 167.199 199.827 166.496C211.331 165.792 221.251 163.491 226.459 161.541C231.667 159.591 232.931 156.946 240.546 155.148C248.162 153.35 324.472 118.452 325 118.269Z" fill="white"/>
<path opacity="0.4" d="M193.443 191.875C193.109 193.84 192.622 195.777 191.988 197.668C191.813 196.065 191.481 194.483 190.996 192.945C189.396 195.95 185.86 199.338 185.86 199.338C185.86 202.87 183.732 208.712 183.732 208.712L182.932 220.028C186.564 226.572 183.364 229.217 181.988 229.042C180.612 228.866 179.052 226.469 179.052 226.469L176.996 226.748C176.996 226.748 174.516 231.871 172.564 232.054C170.612 232.238 169.524 229.401 169.524 229.401C169.524 229.401 168.492 231.343 166.02 230.2C165.38 229.795 164.882 229.2 164.596 228.498C165.484 228.898 166.556 228.498 167.524 225.893C168.175 224.133 168.421 222.249 168.242 220.381C168.064 218.513 167.465 216.71 166.492 215.105C166.492 215.105 170.172 207.242 170.02 205.34C169.868 203.438 167.828 201.608 168.58 200.313C169.332 199.019 171.148 201.336 172.58 199.866C174.012 198.395 179.292 190.132 179.076 189.197C178.86 188.263 180.412 188.318 181.22 187.599C182.028 186.88 181.844 183.388 182.932 183.819C184.02 184.251 185.18 184.89 185.18 184.89C185.289 184.095 185.289 183.288 185.18 182.493C184.972 182.093 189.036 186.249 190.22 186.417C191.404 186.584 193.899 187.647 193.443 191.875Z" fill="#1281E5"/>
<path d="M325 118.269C324.472 118.452 248.202 153.35 240.562 155.124C232.923 156.898 231.675 159.543 226.475 161.517C221.275 163.491 211.355 165.76 199.843 166.472C188.332 167.183 184.444 165.585 180.9 167.534C177.356 169.484 175.412 175.134 172.764 179.729C170.116 184.324 161.252 197.949 161.252 199.539C161.252 201.129 161.604 214.219 161.964 217.048C162.324 219.877 163.564 229.035 166.036 230.193C168.508 231.352 169.54 229.394 169.54 229.394C169.54 229.394 170.636 232.223 172.58 232.047C174.524 231.872 177.012 226.741 177.012 226.741L179.068 226.462C179.068 226.462 180.62 228.859 182.004 229.035C183.388 229.211 186.58 226.565 182.948 220.021L183.748 208.705C183.748 208.705 185.868 202.864 185.868 199.331C185.868 199.331 189.412 195.967 191.004 192.938C191.004 192.938 192.772 198.125 191.884 202.872C190.996 207.618 209.235 203.375 214.195 198.245" stroke="#263238" stroke-width="0.34443" stroke-linecap="round" stroke-linejoin="round"/>
<path d="M169.54 229.434C169.54 229.434 172.476 221.443 169.54 216.521C170.152 215.354 170.592 214.105 170.844 212.813C171.252 210.687 172.188 204.718 171.916 203.791C171.644 202.864 172.58 201.801 172.58 201.801C173.823 200.588 174.936 199.249 175.9 197.805C177.628 195.288 180.02 190.613 180.02 190.613C180.02 190.613 181.748 190.086 183.868 187.56C183.868 187.56 186.124 186.897 187.324 187.56" stroke="#263238" stroke-width="0.34443" stroke-linecap="round" stroke-linejoin="round"/>
<path d="M191.572 188.104C191.572 188.104 192.764 191.923 191.572 194.856" stroke="#263238" stroke-width="0.34443" stroke-linecap="round" stroke-linejoin="round"/>
<path d="M190.995 192.962C190.995 192.962 190.507 190.093 189.443 189.158" stroke="#263238" stroke-width="0.34443" stroke-linecap="round" stroke-linejoin="round"/>
<path d="M180.02 190.62C180.02 190.62 182.587 193.928 188.019 192.962" stroke="#263238" stroke-width="0.34443" stroke-linecap="round" stroke-linejoin="round"/>
<path d="M184.004 194.856C184.004 194.856 180.548 201.513 179.204 202.896L178.404 207.403" stroke="#263238" stroke-width="0.34443" stroke-linecap="round" stroke-linejoin="round"/>
<path d="M173.244 202.896C173.91 203.204 174.634 203.364 175.368 203.364C176.102 203.364 176.827 203.204 177.492 202.896" stroke="#263238" stroke-width="0.34443" stroke-linecap="round" stroke-linejoin="round"/>
<path d="M185.86 199.331C185.86 199.331 183.164 201.728 182.004 201.129" stroke="#263238" stroke-width="0.34443" stroke-linecap="round" stroke-linejoin="round"/>
<path d="M182.004 183.884C183.08 184.837 183.747 186.168 183.868 187.6" stroke="#263238" stroke-width="0.34443" stroke-linecap="round" stroke-linejoin="round"/>
<path d="M184.684 181.207C184.532 181.599 186.524 184.915 187.988 186.377" stroke="#263238" stroke-width="0.34443" stroke-linecap="round" stroke-linejoin="round"/>
<path d="M168.596 201.218C169.181 201.599 169.843 201.846 170.535 201.94C171.227 202.034 171.931 201.973 172.596 201.762" stroke="#263238" stroke-width="0.34443" stroke-linecap="round" stroke-linejoin="round"/>
<path d="M167.54 216.08C167.54 216.08 169.78 216.248 170.18 215.065" stroke="#263238" stroke-width="0.34443" stroke-linecap="round" stroke-linejoin="round"/>
<path d="M173.53 239.446C176.995 239.112 179.461 235.284 179.037 230.895C178.613 226.507 175.46 223.22 171.995 223.554C168.53 223.887 166.064 227.716 166.488 232.105C166.911 236.493 170.064 239.78 173.53 239.446Z" stroke="#263238" stroke-width="0.34443" stroke-linecap="round" stroke-linejoin="round"/>
<path d="M173.636 239.087C173.076 237.847 172.16 236.801 171.005 236.08C169.85 235.36 168.506 234.997 167.145 235.039C165.784 235.081 164.465 235.525 163.357 236.316C162.248 237.106 161.399 238.207 160.916 239.479L156.332 251.57C155.686 253.277 155.746 255.17 156.497 256.834C157.249 258.497 158.631 259.795 160.34 260.44C162.049 261.085 163.945 261.026 165.61 260.275C167.275 259.524 168.574 258.144 169.22 256.436L173.796 244.354C174.118 243.509 174.27 242.608 174.242 241.705C174.215 240.801 174.009 239.911 173.636 239.087ZM168.452 239.015C168.237 238.932 168.051 238.787 167.918 238.599C167.785 238.41 167.711 238.187 167.705 237.956C167.7 237.726 167.763 237.498 167.886 237.304C168.009 237.109 168.188 236.955 168.399 236.861C168.61 236.767 168.844 236.738 169.071 236.777C169.299 236.817 169.509 236.922 169.677 237.081C169.844 237.239 169.961 237.444 170.012 237.669C170.063 237.894 170.046 238.129 169.964 238.344C169.853 238.634 169.631 238.868 169.348 238.995C169.065 239.123 168.743 239.133 168.452 239.023V239.015Z" fill="#1281E5" stroke="#263238" stroke-width="0.34443" stroke-linecap="round" stroke-linejoin="round"/>
<path d="M171.94 243.65L167.364 255.733C166.87 256.899 165.944 257.829 164.779 258.327C163.613 258.826 162.3 258.854 161.114 258.407C159.929 257.959 158.962 257.07 158.418 255.927C157.874 254.783 157.795 253.473 158.196 252.272L162.772 240.182C163.171 239.124 163.93 238.241 164.916 237.688C165.166 238.361 165.557 238.973 166.063 239.481C166.569 239.99 167.179 240.384 167.851 240.638C168.523 240.891 169.241 240.997 169.958 240.948C170.674 240.9 171.372 240.699 172.004 240.358C172.363 241.43 172.34 242.593 171.94 243.65Z" fill="white" stroke="#263238" stroke-width="0.34443" stroke-linecap="round" stroke-linejoin="round"/>
<path d="M166.236 253.408C165.992 253.4 165.752 253.34 165.532 253.232L164.668 252.904C164.156 252.705 163.868 252.808 163.748 253.2L163.636 253.504L165.876 254.359L165.548 255.222L160.036 253.12L160.54 251.81C160.577 251.625 160.658 251.451 160.775 251.304C160.893 251.156 161.044 251.038 161.215 250.96C161.387 250.882 161.575 250.846 161.764 250.855C161.952 250.864 162.136 250.917 162.3 251.01L162.732 251.178C162.964 251.233 163.175 251.357 163.335 251.534C163.495 251.711 163.597 251.933 163.628 252.169C163.972 251.802 164.428 251.817 165.012 252.033L165.86 252.361C166.083 252.464 166.326 252.518 166.572 252.521L166.236 253.408ZM161.148 252.553L162.844 253.2L162.972 252.864C163.1 252.537 163.028 252.289 162.588 252.121L162.044 251.913C161.652 251.762 161.428 251.833 161.308 252.137L161.148 252.553Z" fill="#1281E5"/>
<path d="M163.9 249.971L164.348 248.781L165.148 249.084L164.692 250.275L166.292 250.89L166.86 249.396L167.66 249.692L166.756 252.089L161.244 249.987L162.14 247.59L162.94 247.894L162.372 249.388L163.9 249.971Z" fill="#1281E5"/>
<path d="M164.172 246.846L168.172 248.364L167.876 249.163L162.364 247.062L162.772 245.975L166.412 246.358L163.108 245.104L163.404 244.305L168.916 246.406L168.58 247.301L164.172 246.846Z" fill="#1281E5"/>
<path d="M163.54 243.946L164.556 241.269L165.356 241.564L165.012 242.475L169.74 244.273L169.404 245.136L164.676 243.338L164.332 244.241L163.54 243.946Z" fill="#1281E5"/>
<path d="M173.068 236.354L163.74 240.725C163.542 240.811 163.363 240.936 163.215 241.093C163.067 241.25 162.952 241.435 162.877 241.637C162.803 241.84 162.77 242.055 162.78 242.27C162.791 242.486 162.845 242.697 162.94 242.891L168.668 255.149C168.754 255.347 168.879 255.525 169.036 255.673C169.193 255.821 169.379 255.936 169.581 256.011C169.784 256.086 169.999 256.118 170.215 256.108C170.43 256.097 170.642 256.043 170.836 255.948L173.556 254.678L183.315 275.559C183.378 275.694 183.467 275.816 183.577 275.917C183.687 276.018 183.816 276.097 183.957 276.148C184.097 276.199 184.247 276.222 184.396 276.216C184.545 276.209 184.692 276.173 184.827 276.11L186.691 275.239C186.827 275.176 186.949 275.087 187.05 274.977C187.152 274.867 187.23 274.739 187.281 274.598C187.333 274.458 187.356 274.309 187.349 274.16C187.343 274.01 187.307 273.864 187.243 273.729L177.484 252.848L180.212 251.577C180.41 251.491 180.588 251.366 180.736 251.209C180.885 251.052 181 250.867 181.074 250.665C181.149 250.462 181.182 250.247 181.171 250.032C181.16 249.816 181.106 249.605 181.012 249.411L175.284 237.145C175.197 236.942 175.07 236.758 174.909 236.607C174.748 236.455 174.558 236.338 174.349 236.264C174.141 236.19 173.92 236.159 173.699 236.175C173.479 236.19 173.264 236.251 173.068 236.354ZM174.668 238.951C174.745 239.113 174.789 239.29 174.798 239.469C174.806 239.649 174.779 239.829 174.718 239.998C174.658 240.167 174.564 240.323 174.442 240.456C174.321 240.589 174.175 240.697 174.012 240.773L173.716 240.909C173.387 241.061 173.011 241.077 172.67 240.952C172.33 240.828 172.053 240.574 171.9 240.245L171.764 239.958C171.61 239.629 171.593 239.253 171.716 238.912C171.839 238.571 172.092 238.292 172.42 238.136L172.716 238C172.879 237.925 173.056 237.882 173.235 237.875C173.415 237.869 173.594 237.897 173.763 237.959C173.932 238.022 174.086 238.117 174.218 238.239C174.35 238.361 174.457 238.508 174.532 238.671L174.668 238.951Z" fill="#BFBFBF" stroke="#263238" stroke-width="0.34443" stroke-linecap="round" stroke-linejoin="round"/>
<path d="M185.02 274.136L175.428 253.607L176.428 253.144" stroke="#263238" stroke-width="0.34443" stroke-linecap="round" stroke-linejoin="round"/>
<path d="M179.028 230.913C179.452 235.3 176.98 239.128 173.516 239.456" stroke="#263238" stroke-width="0.34443" stroke-linecap="round" stroke-linejoin="round"/>
<path d="M325 125.164V159.646L322.288 160.349C309.225 163.738 253.61 178.162 249.082 179.88C243.946 181.822 238.818 184.826 237.082 185.178C235.346 185.53 226.107 195.966 223.275 198.619C220.443 201.272 213.539 204.277 205.571 206.403C197.603 208.528 190.171 214.186 188.228 215.952C186.284 217.718 176.364 231.135 174.06 230.097C172.252 229.258 169.66 228.754 169.604 224.942C169.618 223.636 169.809 222.338 170.172 221.083C172.116 213.651 176.364 207.817 180.436 206.403C184.508 204.988 194.243 192.434 194.595 189.246L325 125.164Z" fill="white"/>
<path opacity="0.4" d="M322.264 160.351C309.201 163.739 253.586 178.163 249.058 179.881C243.922 181.823 238.794 184.828 237.058 185.179C235.322 185.531 226.083 195.967 223.251 198.62C220.419 201.274 213.515 204.278 205.547 206.404C197.579 208.53 190.148 214.187 188.204 215.953C186.26 217.719 176.34 231.137 174.036 230.098C172.228 229.259 169.636 228.755 169.58 224.944C170.724 226.758 172.548 228.867 173.284 228.068C173.284 228.068 171.132 227.908 173.284 222.69C175.436 217.472 176.484 214.947 179.124 216.84C181.764 218.734 184.844 219.374 185.908 215.578C186.972 211.782 187.356 213.524 192.148 210.36C196.939 207.195 202.003 201.889 203.427 202.017C204.851 202.145 215.931 201.098 219.251 199.332C222.571 197.566 232.051 186.913 232.299 183.853C232.547 180.792 244.37 176.373 247.322 174.639C250.274 172.905 261.818 170.683 266.25 169.74C270.682 168.797 259.602 172.841 256.282 175.158C252.962 177.476 284.281 167.207 292.513 165.625C300.537 164.082 321.448 160.494 322.264 160.351Z" fill="#1281E5"/>
<path d="M325 159.646C325 159.646 254.194 177.93 249.058 179.888C243.922 181.846 238.794 184.835 237.058 185.186C235.322 185.538 226.083 195.975 223.251 198.628C220.419 201.281 213.515 204.285 205.547 206.411C197.579 208.537 190.148 214.195 188.204 215.961C186.26 217.727 176.34 231.144 174.036 230.105C171.732 229.066 168.196 228.507 170.148 221.091C172.1 213.675 176.34 207.825 180.412 206.411C184.484 204.997 194.219 192.442 194.571 189.254" stroke="#263238" stroke-width="0.34443" stroke-linecap="round" stroke-linejoin="round"/>
<path d="M200.243 292.133C195.923 296.465 182.852 302.642 178.172 305.958C174.86 308.308 161.06 310.441 157.044 311.616C154.196 312.455 150.396 315.715 146.597 314.637C142.797 313.558 111.149 298.375 103.558 294.587C95.9658 290.799 56.7187 296.744 33.3033 295.977C31.7754 295.929 30.3114 295.881 28.9114 295.849C8.75992 295.314 1.01611 295.977 1.01611 295.977L11.7758 254.423C11.7758 254.423 31.7434 255.382 62.1426 260.76C68.2785 261.847 73.8383 262.718 78.8142 263.429C98.4937 266.234 108.973 266.426 108.973 266.426C108.973 266.426 119.101 257.635 128.597 265.187C138.093 272.739 140.597 279.092 140.597 279.092L153.892 286.683C153.892 286.683 159.276 285.732 162.596 286.683C165.916 287.634 170.596 284.47 172.996 283.207C177.228 281.074 181.796 279.682 186.5 279.092C186.5 279.092 194.683 275.935 200.699 277.493C200.699 277.493 205.131 275.6 208.931 275.6C209.914 275.59 210.888 275.791 211.787 276.191C212.809 276.636 213.682 277.362 214.307 278.285C214.587 279.378 214.798 280.489 214.939 281.609C215.275 283.839 209.891 282.448 200.243 292.133Z" fill="white"/>
<path opacity="0.4" d="M200.243 292.134C195.923 296.466 182.851 302.643 178.171 305.959C174.86 308.309 161.06 310.442 157.044 311.617C154.196 312.456 150.396 315.716 146.596 314.638C142.796 313.559 111.149 298.375 103.557 294.588C95.9655 290.8 56.7184 296.745 33.303 295.978C31.7751 295.93 30.3111 295.882 28.9111 295.85C39.0389 295.187 49.7106 294.412 52.9985 293.876C59.7504 292.766 93.4296 291.032 98.1094 290.632C102.789 290.232 139.708 309.419 143.932 311.313C148.156 313.207 151.132 313.423 153.876 311.313C156.62 309.204 167.54 307.318 167.54 307.318L161.252 307.885C161.252 307.885 169.612 304.864 175.036 303.522C180.459 302.179 185.851 297.281 189.435 296.146C193.019 295.011 199.243 287.907 202.371 286.445C205.499 284.982 202.371 280.643 202.371 280.643C202.371 280.643 206.155 280.499 207.643 282.841C207.643 282.841 213.179 283.024 214.315 278.31C214.595 279.403 214.806 280.514 214.947 281.634C215.275 283.839 209.891 282.449 200.243 292.134Z" fill="#1281E5"/>
<path opacity="0.4" d="M211.803 276.207C202.659 278.604 200.715 280.131 200.715 280.131C199.051 279.635 188.243 286.444 187.323 286.995C186.403 287.546 185.859 290.192 185.859 290.192C185.859 290.192 182.755 286.995 177.492 290.663C172.228 294.331 171.652 296.608 171.652 296.608L169.54 293.907C169.54 293.907 160.604 294.707 157.876 294.267C155.623 293.98 153.483 293.119 151.66 291.766C149.572 290.375 138.468 285.708 137.325 285.373C136.181 285.037 134.733 282.912 134.733 282.912C132.709 274.792 122.621 265.523 117.133 266.258C113.826 266.712 110.683 267.981 107.989 269.95C107.989 269.95 97.7175 268.895 92.4456 268.687C87.1738 268.479 55.1025 262.574 55.1025 262.574L78.766 263.373C98.4455 266.178 108.925 266.37 108.925 266.37C108.925 266.37 119.053 257.579 128.549 265.131C138.044 272.683 140.548 279.036 140.548 279.036L153.844 286.627C153.844 286.627 159.228 285.677 162.548 286.627C165.868 287.578 170.548 284.414 172.948 283.151C177.18 281.018 181.747 279.626 186.451 279.036C186.451 279.036 194.635 275.879 200.651 277.438C200.651 277.438 205.083 275.544 208.883 275.544C209.893 275.547 210.89 275.773 211.803 276.207Z" fill="#1281E5"/>
<path opacity="0.4" d="M117.189 288.816C117.189 288.816 117.245 291.054 116.077 290.846C114.909 290.638 118.197 293.923 120.301 293.395C122.405 292.868 127.581 297.615 129.589 299.724C131.597 301.834 149.052 304.567 152.788 304.463C156.524 304.359 159.34 300.516 156.708 296.64C156.708 296.64 156.228 300.46 153.892 300.036C153.892 300.036 156.132 299.197 152.788 296.04C149.444 292.884 144.477 291.509 143.421 292.141C142.365 292.772 135.949 290.143 135.573 289.743C135.197 289.344 136.141 298.861 130.549 298.534C130.549 298.534 124.285 293.915 123.037 292.005C121.789 290.095 117.189 288.816 117.189 288.816Z" fill="#1281E5"/>
<path d="M11.7437 254.438C11.7437 254.438 31.7432 255.381 62.1425 260.76C92.5417 266.138 108.973 266.425 108.973 266.425C108.973 266.425 119.101 257.635 128.597 265.187C138.093 272.738 140.597 279.091 140.597 279.091L153.892 286.683C153.892 286.683 159.276 285.732 162.596 286.683C165.916 287.634 170.596 284.469 172.996 283.207C177.228 281.073 181.796 279.681 186.499 279.091C186.499 279.091 194.683 275.935 200.699 277.493C200.699 277.493 205.131 275.599 208.931 275.599C209.98 275.562 211.022 275.788 211.961 276.258C212.9 276.727 213.707 277.423 214.307 278.284C214.587 279.378 214.798 280.488 214.939 281.609C215.259 283.822 209.875 282.408 200.227 292.117C195.907 296.448 182.835 302.625 178.156 305.942C174.844 308.291 161.044 310.425 157.028 311.6C154.18 312.439 150.38 315.699 146.58 314.62C142.781 313.541 111.133 298.358 103.541 294.57C95.9496 290.783 56.7026 296.728 33.2872 295.961C9.87178 295.194 1 295.961 1 295.961" stroke="#263238" stroke-width="0.34443" stroke-linecap="round" stroke-linejoin="round"/>
<path d="M159.892 292.213H169.7C169.7 292.213 178.084 289.017 184.419 287.315C184.419 287.315 193.595 281.305 196.603 280.362C199.611 279.419 203.091 280.362 204.355 282.096C205.14 283.285 205.578 284.668 205.619 286.092C205.619 286.092 196.755 291.885 194.227 294.083C191.699 296.281 186.315 298.35 180.46 302.146C174.604 305.942 163.948 306.142 159.892 308.467" stroke="#263238" stroke-width="0.34443" stroke-linecap="round" stroke-linejoin="round"/>
<path d="M200.715 277.511C200.715 277.511 190.451 281.299 185.771 286.437" stroke="#263238" stroke-width="0.34443" stroke-linecap="round" stroke-linejoin="round"/>
<path d="M182.756 286.971C182.756 286.971 175.084 289.024 169.54 290.607" stroke="#263238" stroke-width="0.34443" stroke-linecap="round" stroke-linejoin="round"/>
<path d="M164.324 286.834C164.324 286.834 163.62 287.785 164.324 289.759" stroke="#263238" stroke-width="0.34443" stroke-linecap="round" stroke-linejoin="round"/>
<path d="M116.062 288.297C116.062 288.297 119.853 289.999 121.909 291.11C123.965 292.221 126.421 297.663 129.189 298.933C131.957 300.204 136.309 300.747 141.989 301.539C147.669 302.33 155.301 303.752 156.541 298.774C157.781 293.795 149.189 290.551 144.757 288.297C142.396 287.045 139.893 286.082 137.301 285.428C137.301 285.428 135.101 283.359 134.309 282.567C133.517 281.776 133.509 277.669 132.709 275.535" stroke="#263238" stroke-width="0.34443" stroke-linecap="round" stroke-linejoin="round"/>
<path d="M136.373 277.511C136.373 277.511 136.165 281.067 134.773 282.969" stroke="#263238" stroke-width="0.34443" stroke-linecap="round" stroke-linejoin="round"/>
<path d="M151.66 290.168C152.159 288.873 152.912 287.691 153.876 286.691" stroke="#263238" stroke-width="0.34443" stroke-linecap="round" stroke-linejoin="round"/>
<path d="M114.941 290.631C114.941 290.631 119.165 291.583 121.029 290.631" stroke="#263238" stroke-width="0.34443" stroke-linecap="round" stroke-linejoin="round"/>
<path d="M138.293 281.546C137.787 282.621 136.971 283.52 135.949 284.127" stroke="#263238" stroke-width="0.34443" stroke-linecap="round" stroke-linejoin="round"/>
<path d="M134.733 290.631C134.733 290.631 135.365 294.898 131.725 297.112" stroke="#263238" stroke-width="0.34443" stroke-linecap="round" stroke-linejoin="round"/>
</svg>
