<svg width="217" height="40" viewBox="0 0 217 40" fill="none" xmlns="http://www.w3.org/2000/svg">
<rect x="0.5" y="0.5" width="216" height="39" rx="3.5" fill="white"/>
<rect x="0.5" y="0.5" width="216" height="39" rx="3.5" stroke="black"/>
<rect width="40" height="40" rx="1" fill="white"/>
<path d="M20.2363 14.986C21.016 14.986 21.9932 14.4589 22.5752 13.7562C23.1023 13.1193 23.4866 12.2298 23.4866 11.3404C23.4866 11.2196 23.4756 11.0988 23.4537 11C22.5862 11.0329 21.543 11.582 20.9171 12.3177C20.423 12.8777 19.9728 13.7562 19.9728 14.6566C19.9728 14.7884 19.9947 14.9201 20.0057 14.9641C20.0606 14.975 20.1485 14.986 20.2363 14.986ZM17.4911 28.2727C18.5563 28.2727 19.0284 27.559 20.3571 27.559C21.7077 27.559 22.0042 28.2508 23.1901 28.2508C24.3541 28.2508 25.1337 27.1747 25.8694 26.1205C26.693 24.9126 27.0334 23.7267 27.0554 23.6718C26.9785 23.6498 24.7494 22.7384 24.7494 20.1799C24.7494 17.9618 26.5063 16.9625 26.6052 16.8857C25.4412 15.2166 23.6733 15.1727 23.1901 15.1727C21.8834 15.1727 20.8183 15.9633 20.1485 15.9633C19.4237 15.9633 18.4684 15.2166 17.3374 15.2166C15.1852 15.2166 13 16.9955 13 20.3556C13 22.4419 13.8126 24.6491 14.8118 26.0766C15.6683 27.2845 16.415 28.2727 17.4911 28.2727Z" fill="black"/>
<path d="M69.082 22.7793C69.082 23.3717 68.9362 23.8822 68.6445 24.3105C68.3574 24.7389 67.9427 25.0671 67.4004 25.2949C66.8626 25.5228 66.2201 25.6367 65.4727 25.6367C65.1081 25.6367 64.7594 25.6162 64.4268 25.5752C64.0941 25.5342 63.7796 25.4749 63.4834 25.3975C63.1917 25.3154 62.9251 25.2174 62.6836 25.1035V23.5586C63.0892 23.7363 63.5426 23.8981 64.0439 24.0439C64.5452 24.1852 65.0557 24.2559 65.5752 24.2559C65.999 24.2559 66.3499 24.2012 66.6279 24.0918C66.9105 23.9779 67.1201 23.8184 67.2568 23.6133C67.3936 23.4036 67.4619 23.1598 67.4619 22.8818C67.4619 22.5856 67.3822 22.335 67.2227 22.1299C67.0632 21.9248 66.8216 21.738 66.498 21.5693C66.179 21.3962 65.778 21.2116 65.2949 21.0156C64.9668 20.8835 64.6523 20.7331 64.3516 20.5645C64.0553 20.3958 63.791 20.1976 63.5586 19.9697C63.3262 19.7419 63.1416 19.473 63.0049 19.1631C62.8727 18.8486 62.8066 18.4795 62.8066 18.0557C62.8066 17.4906 62.9411 17.0075 63.21 16.6064C63.4834 16.2054 63.8662 15.8978 64.3584 15.6836C64.8551 15.4694 65.4339 15.3623 66.0947 15.3623C66.6188 15.3623 67.111 15.417 67.5713 15.5264C68.0361 15.6357 68.4919 15.7907 68.9385 15.9912L68.4189 17.3105C68.0088 17.1419 67.61 17.0075 67.2227 16.9072C66.8398 16.807 66.4479 16.7568 66.0469 16.7568C65.7005 16.7568 65.4066 16.8092 65.165 16.9141C64.9235 17.0189 64.7389 17.167 64.6113 17.3584C64.4883 17.5452 64.4268 17.7686 64.4268 18.0283C64.4268 18.32 64.4974 18.5661 64.6387 18.7666C64.7845 18.9626 65.0078 19.1426 65.3086 19.3066C65.6139 19.4707 66.0059 19.653 66.4844 19.8535C67.0358 20.0814 67.5029 20.3206 67.8857 20.5713C68.2731 20.8219 68.5693 21.1227 68.7744 21.4736C68.9795 21.82 69.082 22.2552 69.082 22.7793ZM72.4521 17.9326V25.5H70.8457V17.9326H72.4521ZM71.6592 15.0342C71.9053 15.0342 72.1172 15.1003 72.2949 15.2324C72.4772 15.3646 72.5684 15.5924 72.5684 15.916C72.5684 16.235 72.4772 16.4629 72.2949 16.5996C72.1172 16.7318 71.9053 16.7979 71.6592 16.7979C71.404 16.7979 71.1875 16.7318 71.0098 16.5996C70.8366 16.4629 70.75 16.235 70.75 15.916C70.75 15.5924 70.8366 15.3646 71.0098 15.2324C71.1875 15.1003 71.404 15.0342 71.6592 15.0342ZM76.916 28.8633C75.8906 28.8633 75.1045 28.6787 74.5576 28.3096C74.0107 27.9404 73.7373 27.4232 73.7373 26.7578C73.7373 26.293 73.8831 25.8988 74.1748 25.5752C74.4665 25.2562 74.8835 25.0352 75.4258 24.9121C75.2207 24.821 75.043 24.6797 74.8926 24.4883C74.7467 24.2923 74.6738 24.0758 74.6738 23.8389C74.6738 23.5563 74.7536 23.3148 74.9131 23.1143C75.0726 22.9137 75.3118 22.7201 75.6309 22.5332C75.2344 22.3646 74.9154 22.0911 74.6738 21.7129C74.4368 21.3301 74.3184 20.8812 74.3184 20.3662C74.3184 19.8193 74.4346 19.3545 74.667 18.9717C74.8994 18.5843 75.2389 18.2904 75.6855 18.0898C76.1322 17.8848 76.6722 17.7822 77.3057 17.7822C77.4424 17.7822 77.5905 17.7913 77.75 17.8096C77.9141 17.8232 78.0645 17.8415 78.2012 17.8643C78.3424 17.8825 78.4495 17.903 78.5225 17.9258H81.1406V18.8213L79.8555 19.0605C79.9785 19.2337 80.0765 19.432 80.1494 19.6553C80.2223 19.874 80.2588 20.1133 80.2588 20.373C80.2588 21.1569 79.9876 21.7744 79.4453 22.2256C78.9076 22.6722 78.1647 22.8955 77.2168 22.8955C76.9889 22.8864 76.7679 22.8682 76.5537 22.8408C76.3896 22.9411 76.2643 23.0527 76.1777 23.1758C76.0911 23.2943 76.0479 23.4287 76.0479 23.5791C76.0479 23.7021 76.0911 23.8024 76.1777 23.8799C76.2643 23.9528 76.3919 24.0075 76.5605 24.0439C76.7337 24.0804 76.9434 24.0986 77.1895 24.0986H78.4951C79.3245 24.0986 79.958 24.2741 80.3955 24.625C80.833 24.9759 81.0518 25.4909 81.0518 26.1699C81.0518 27.0312 80.6963 27.6943 79.9854 28.1592C79.2744 28.6286 78.2513 28.8633 76.916 28.8633ZM76.9775 27.7354C77.5381 27.7354 78.0098 27.6807 78.3926 27.5713C78.7754 27.4619 79.0648 27.3047 79.2607 27.0996C79.4567 26.8991 79.5547 26.6598 79.5547 26.3818C79.5547 26.1357 79.4932 25.9466 79.3701 25.8145C79.2471 25.6823 79.0625 25.5911 78.8164 25.541C78.5703 25.4909 78.265 25.4658 77.9004 25.4658H76.7109C76.4147 25.4658 76.1527 25.5114 75.9248 25.6025C75.6969 25.6982 75.5192 25.835 75.3916 26.0127C75.2686 26.1904 75.207 26.4046 75.207 26.6553C75.207 27.0016 75.3597 27.2682 75.665 27.4551C75.9749 27.6419 76.4124 27.7354 76.9775 27.7354ZM77.292 21.8428C77.7614 21.8428 78.11 21.7152 78.3379 21.46C78.5658 21.2002 78.6797 20.8356 78.6797 20.3662C78.6797 19.8558 78.5612 19.473 78.3242 19.2178C78.0918 18.9626 77.7454 18.835 77.2852 18.835C76.834 18.835 76.4899 18.9648 76.2529 19.2246C76.0205 19.4844 75.9043 19.8695 75.9043 20.3799C75.9043 20.8402 76.0205 21.2002 76.2529 21.46C76.4899 21.7152 76.8363 21.8428 77.292 21.8428ZM86.4658 17.7891C87.318 17.7891 87.9811 18.0101 88.4551 18.4521C88.9336 18.8896 89.1729 19.5938 89.1729 20.5645V25.5H87.5664V20.8652C87.5664 20.2773 87.4456 19.8376 87.2041 19.5459C86.9626 19.2497 86.5889 19.1016 86.083 19.1016C85.3493 19.1016 84.8389 19.3271 84.5518 19.7783C84.2692 20.2295 84.1279 20.8835 84.1279 21.7402V25.5H82.5215V17.9326H83.7725L83.998 18.958H84.0869C84.251 18.6937 84.4538 18.4772 84.6953 18.3086C84.9414 18.1354 85.2148 18.0055 85.5156 17.9189C85.821 17.8324 86.1377 17.7891 86.4658 17.7891ZM96.665 17.9326V25.5H95.0586V17.9326H96.665ZM95.8721 15.0342C96.1182 15.0342 96.3301 15.1003 96.5078 15.2324C96.6901 15.3646 96.7812 15.5924 96.7812 15.916C96.7812 16.235 96.6901 16.4629 96.5078 16.5996C96.3301 16.7318 96.1182 16.7979 95.8721 16.7979C95.6169 16.7979 95.4004 16.7318 95.2227 16.5996C95.0495 16.4629 94.9629 16.235 94.9629 15.916C94.9629 15.5924 95.0495 15.3646 95.2227 15.2324C95.4004 15.1003 95.6169 15.0342 95.8721 15.0342ZM102.913 17.7891C103.765 17.7891 104.428 18.0101 104.902 18.4521C105.381 18.8896 105.62 19.5938 105.62 20.5645V25.5H104.014V20.8652C104.014 20.2773 103.893 19.8376 103.651 19.5459C103.41 19.2497 103.036 19.1016 102.53 19.1016C101.797 19.1016 101.286 19.3271 100.999 19.7783C100.716 20.2295 100.575 20.8835 100.575 21.7402V25.5H98.9688V17.9326H100.22L100.445 18.958H100.534C100.698 18.6937 100.901 18.4772 101.143 18.3086C101.389 18.1354 101.662 18.0055 101.963 17.9189C102.268 17.8324 102.585 17.7891 102.913 17.7891ZM117.692 25.4932L116.735 21.9727C116.69 21.7995 116.635 21.5898 116.571 21.3438C116.507 21.0977 116.444 20.8447 116.38 20.585C116.316 20.3206 116.257 20.0768 116.202 19.8535C116.152 19.6302 116.113 19.457 116.086 19.334H116.031C116.008 19.457 115.972 19.6302 115.922 19.8535C115.872 20.0768 115.815 20.3206 115.751 20.585C115.687 20.8493 115.623 21.1068 115.56 21.3574C115.5 21.6081 115.446 21.8223 115.396 22L114.391 25.4932H112.627L110.508 17.9258H112.135L113.119 21.6855C113.183 21.9408 113.244 22.2165 113.304 22.5127C113.368 22.8089 113.422 23.0915 113.468 23.3604C113.513 23.6292 113.548 23.8503 113.57 24.0234H113.625C113.643 23.9004 113.668 23.7454 113.7 23.5586C113.732 23.3672 113.769 23.1689 113.81 22.9639C113.851 22.7542 113.892 22.5583 113.933 22.376C113.974 22.1891 114.012 22.0387 114.049 21.9248L115.211 17.9258H116.968L118.082 21.9248C118.132 22.098 118.187 22.3167 118.246 22.5811C118.305 22.8408 118.358 23.1029 118.403 23.3672C118.453 23.627 118.485 23.8434 118.499 24.0166H118.554C118.572 23.8617 118.604 23.652 118.649 23.3877C118.7 23.1188 118.757 22.834 118.82 22.5332C118.884 22.2279 118.95 21.9453 119.019 21.6855L120.023 17.9258H121.623L119.49 25.4932H117.692ZM124.528 17.9326V25.5H122.922V17.9326H124.528ZM123.735 15.0342C123.981 15.0342 124.193 15.1003 124.371 15.2324C124.553 15.3646 124.645 15.5924 124.645 15.916C124.645 16.235 124.553 16.4629 124.371 16.5996C124.193 16.7318 123.981 16.7979 123.735 16.7979C123.48 16.7979 123.264 16.7318 123.086 16.5996C122.913 16.4629 122.826 16.235 122.826 15.916C122.826 15.5924 122.913 15.3646 123.086 15.2324C123.264 15.1003 123.48 15.0342 123.735 15.0342ZM129.648 24.3379C129.858 24.3379 130.065 24.3197 130.271 24.2832C130.476 24.2422 130.662 24.1943 130.831 24.1396V25.3564C130.653 25.4339 130.423 25.5 130.141 25.5547C129.858 25.6094 129.564 25.6367 129.259 25.6367C128.83 25.6367 128.445 25.5661 128.104 25.4248C127.762 25.279 127.491 25.0306 127.29 24.6797C127.09 24.3288 126.989 23.8434 126.989 23.2236V19.1562H125.957V18.4385L127.064 17.8711L127.591 16.251H128.603V17.9326H130.77V19.1562H128.603V23.2031C128.603 23.5859 128.698 23.8708 128.89 24.0576C129.081 24.2445 129.334 24.3379 129.648 24.3379ZM133.976 14.8633V17.5361C133.976 17.8141 133.966 18.0853 133.948 18.3496C133.935 18.6139 133.919 18.819 133.9 18.9648H133.989C134.149 18.7005 134.345 18.484 134.577 18.3154C134.81 18.1423 135.069 18.0124 135.356 17.9258C135.648 17.8392 135.958 17.7959 136.286 17.7959C136.865 17.7959 137.357 17.8939 137.763 18.0898C138.168 18.2812 138.478 18.5798 138.692 18.9854C138.911 19.391 139.021 19.9173 139.021 20.5645V25.5H137.414V20.8652C137.414 20.2773 137.293 19.8376 137.052 19.5459C136.81 19.2497 136.437 19.1016 135.931 19.1016C135.443 19.1016 135.056 19.2041 134.769 19.4092C134.486 19.6097 134.283 19.9082 134.16 20.3047C134.037 20.6966 133.976 21.1751 133.976 21.7402V25.5H132.369V14.8633H133.976ZM151.264 25.5L150.286 22.7246H146.465L145.487 25.5H143.758L147.477 15.4648H149.295L153.007 25.5H151.264ZM149.862 21.3164L148.912 18.582C148.876 18.4635 148.823 18.2972 148.755 18.083C148.687 17.8643 148.618 17.6432 148.55 17.4199C148.481 17.1921 148.424 17.0007 148.379 16.8457C148.333 17.0326 148.276 17.2422 148.208 17.4746C148.144 17.7025 148.08 17.9167 148.017 18.1172C147.957 18.3177 147.912 18.4727 147.88 18.582L146.923 21.3164H149.862ZM158.045 17.7891C158.943 17.7891 159.663 18.1172 160.205 18.7734C160.752 19.4297 161.025 20.4049 161.025 21.6992C161.025 22.556 160.898 23.2783 160.643 23.8662C160.392 24.4495 160.039 24.8916 159.583 25.1924C159.132 25.4886 158.605 25.6367 158.004 25.6367C157.621 25.6367 157.288 25.5866 157.006 25.4863C156.723 25.3861 156.482 25.2562 156.281 25.0967C156.081 24.9326 155.912 24.7549 155.775 24.5635H155.68C155.702 24.7458 155.723 24.9486 155.741 25.1719C155.764 25.3906 155.775 25.5911 155.775 25.7734V28.8564H154.162V17.9326H155.475L155.7 18.9785H155.775C155.917 18.7643 156.088 18.5661 156.288 18.3838C156.493 18.2015 156.739 18.0579 157.026 17.9531C157.318 17.8438 157.658 17.7891 158.045 17.7891ZM157.614 19.1016C157.172 19.1016 156.817 19.1904 156.548 19.3682C156.284 19.5413 156.09 19.8034 155.967 20.1543C155.848 20.5052 155.785 20.945 155.775 21.4736V21.6992C155.775 22.2598 155.832 22.736 155.946 23.1279C156.065 23.5153 156.258 23.8115 156.527 24.0166C156.801 24.2171 157.17 24.3174 157.635 24.3174C158.027 24.3174 158.35 24.2103 158.605 23.9961C158.865 23.7819 159.059 23.4766 159.187 23.0801C159.314 22.6836 159.378 22.2165 159.378 21.6787C159.378 20.863 159.232 20.2295 158.94 19.7783C158.653 19.3271 158.211 19.1016 157.614 19.1016ZM166.768 17.7891C167.665 17.7891 168.385 18.1172 168.928 18.7734C169.475 19.4297 169.748 20.4049 169.748 21.6992C169.748 22.556 169.62 23.2783 169.365 23.8662C169.115 24.4495 168.761 24.8916 168.306 25.1924C167.854 25.4886 167.328 25.6367 166.727 25.6367C166.344 25.6367 166.011 25.5866 165.729 25.4863C165.446 25.3861 165.204 25.2562 165.004 25.0967C164.803 24.9326 164.635 24.7549 164.498 24.5635H164.402C164.425 24.7458 164.446 24.9486 164.464 25.1719C164.487 25.3906 164.498 25.5911 164.498 25.7734V28.8564H162.885V17.9326H164.197L164.423 18.9785H164.498C164.639 18.7643 164.81 18.5661 165.011 18.3838C165.216 18.2015 165.462 18.0579 165.749 17.9531C166.041 17.8438 166.38 17.7891 166.768 17.7891ZM166.337 19.1016C165.895 19.1016 165.539 19.1904 165.271 19.3682C165.006 19.5413 164.812 19.8034 164.689 20.1543C164.571 20.5052 164.507 20.945 164.498 21.4736V21.6992C164.498 22.2598 164.555 22.736 164.669 23.1279C164.787 23.5153 164.981 23.8115 165.25 24.0166C165.523 24.2171 165.893 24.3174 166.357 24.3174C166.749 24.3174 167.073 24.2103 167.328 23.9961C167.588 23.7819 167.782 23.4766 167.909 23.0801C168.037 22.6836 168.101 22.2165 168.101 21.6787C168.101 20.863 167.955 20.2295 167.663 19.7783C167.376 19.3271 166.934 19.1016 166.337 19.1016ZM173.221 25.5H171.607V14.8633H173.221V25.5ZM178.532 17.7891C179.207 17.7891 179.785 17.9281 180.269 18.2061C180.752 18.484 181.123 18.8783 181.383 19.3887C181.643 19.8991 181.772 20.5098 181.772 21.2207V22.082H176.721C176.739 22.8158 176.935 23.3809 177.309 23.7773C177.687 24.1738 178.215 24.3721 178.895 24.3721C179.378 24.3721 179.811 24.3265 180.193 24.2354C180.581 24.1396 180.979 24.0007 181.39 23.8184V25.124C181.011 25.3018 180.626 25.4316 180.234 25.5137C179.842 25.5957 179.373 25.6367 178.826 25.6367C178.083 25.6367 177.429 25.4932 176.864 25.2061C176.304 24.9144 175.864 24.4814 175.545 23.9072C175.23 23.333 175.073 22.6198 175.073 21.7676C175.073 20.9199 175.217 20.1999 175.504 19.6074C175.791 19.015 176.194 18.5638 176.714 18.2539C177.233 17.944 177.84 17.7891 178.532 17.7891ZM178.532 18.999C178.026 18.999 177.616 19.1631 177.302 19.4912C176.992 19.8193 176.81 20.3001 176.755 20.9336H180.2C180.196 20.5553 180.132 20.2204 180.009 19.9287C179.89 19.637 179.708 19.4092 179.462 19.2451C179.22 19.0811 178.91 18.999 178.532 18.999Z" fill="black"/>
</svg>
