<svg width="217" height="40" viewBox="0 0 217 40" fill="none" xmlns="http://www.w3.org/2000/svg">
<rect x="0.5" y="0.5" width="216" height="39" rx="1.5" fill="white"/>
<rect x="0.5" y="0.5" width="216" height="39" rx="1.5" stroke="black"/>
<rect x="1" y="1" width="38" height="38" rx="1" fill="white"/>
<path fill-rule="evenodd" clip-rule="evenodd" d="M28.208 20.1943C28.208 19.588 28.1536 19.0051 28.0525 18.4454H20V21.7527H24.6015C24.4032 22.8215 23.8009 23.727 22.8953 24.3333V26.4785H25.6585C27.2753 24.9901 28.208 22.7982 28.208 20.1943Z" fill="#4285F4"/>
<path fill-rule="evenodd" clip-rule="evenodd" d="M20.0002 28.55C22.3087 28.55 24.2441 27.7843 25.6588 26.4785L22.8956 24.3332C22.1299 24.8462 21.1506 25.1494 20.0002 25.1494C17.7733 25.1494 15.8884 23.6454 15.2161 21.6245H12.3596V23.8397C13.7665 26.634 16.6579 28.55 20.0002 28.55Z" fill="#34A853"/>
<path fill-rule="evenodd" clip-rule="evenodd" d="M15.2161 21.6245C15.0451 21.1115 14.9479 20.5635 14.9479 20C14.9479 19.4365 15.0451 18.8885 15.2161 18.3755V16.1603H12.3596C11.7805 17.3145 11.4502 18.6203 11.4502 20C11.4502 21.3797 11.7805 22.6855 12.3596 23.8397L15.2161 21.6245Z" fill="#FBBC05"/>
<path fill-rule="evenodd" clip-rule="evenodd" d="M20.0002 14.8505C21.2555 14.8505 22.3826 15.2819 23.2686 16.1291L25.7209 13.6768C24.2402 12.2972 22.3048 11.45 20.0002 11.45C16.6579 11.45 13.7665 13.3659 12.3596 16.1602L15.2161 18.3755C15.8884 16.3545 17.7733 14.8505 20.0002 14.8505Z" fill="#EA4335"/>
<path d="M65.582 22.7793C65.582 23.3717 65.4362 23.8822 65.1445 24.3105C64.8574 24.7389 64.4427 25.0671 63.9004 25.2949C63.3626 25.5228 62.7201 25.6367 61.9727 25.6367C61.6081 25.6367 61.2594 25.6162 60.9268 25.5752C60.5941 25.5342 60.2796 25.4749 59.9834 25.3975C59.6917 25.3154 59.4251 25.2174 59.1836 25.1035V23.5586C59.5892 23.7363 60.0426 23.8981 60.5439 24.0439C61.0452 24.1852 61.5557 24.2559 62.0752 24.2559C62.499 24.2559 62.8499 24.2012 63.1279 24.0918C63.4105 23.9779 63.6201 23.8184 63.7568 23.6133C63.8936 23.4036 63.9619 23.1598 63.9619 22.8818C63.9619 22.5856 63.8822 22.335 63.7227 22.1299C63.5632 21.9248 63.3216 21.738 62.998 21.5693C62.679 21.3962 62.278 21.2116 61.7949 21.0156C61.4668 20.8835 61.1523 20.7331 60.8516 20.5645C60.5553 20.3958 60.291 20.1976 60.0586 19.9697C59.8262 19.7419 59.6416 19.473 59.5049 19.1631C59.3727 18.8486 59.3066 18.4795 59.3066 18.0557C59.3066 17.4906 59.4411 17.0075 59.71 16.6064C59.9834 16.2054 60.3662 15.8978 60.8584 15.6836C61.3551 15.4694 61.9339 15.3623 62.5947 15.3623C63.1188 15.3623 63.611 15.417 64.0713 15.5264C64.5361 15.6357 64.9919 15.7907 65.4385 15.9912L64.9189 17.3105C64.5088 17.1419 64.11 17.0075 63.7227 16.9072C63.3398 16.807 62.9479 16.7568 62.5469 16.7568C62.2005 16.7568 61.9066 16.8092 61.665 16.9141C61.4235 17.0189 61.2389 17.167 61.1113 17.3584C60.9883 17.5452 60.9268 17.7686 60.9268 18.0283C60.9268 18.32 60.9974 18.5661 61.1387 18.7666C61.2845 18.9626 61.5078 19.1426 61.8086 19.3066C62.1139 19.4707 62.5059 19.653 62.9844 19.8535C63.5358 20.0814 64.0029 20.3206 64.3857 20.5713C64.7731 20.8219 65.0693 21.1227 65.2744 21.4736C65.4795 21.82 65.582 22.2552 65.582 22.7793ZM68.9521 17.9326V25.5H67.3457V17.9326H68.9521ZM68.1592 15.0342C68.4053 15.0342 68.6172 15.1003 68.7949 15.2324C68.9772 15.3646 69.0684 15.5924 69.0684 15.916C69.0684 16.235 68.9772 16.4629 68.7949 16.5996C68.6172 16.7318 68.4053 16.7979 68.1592 16.7979C67.904 16.7979 67.6875 16.7318 67.5098 16.5996C67.3366 16.4629 67.25 16.235 67.25 15.916C67.25 15.5924 67.3366 15.3646 67.5098 15.2324C67.6875 15.1003 67.904 15.0342 68.1592 15.0342ZM73.416 28.8633C72.3906 28.8633 71.6045 28.6787 71.0576 28.3096C70.5107 27.9404 70.2373 27.4232 70.2373 26.7578C70.2373 26.293 70.3831 25.8988 70.6748 25.5752C70.9665 25.2562 71.3835 25.0352 71.9258 24.9121C71.7207 24.821 71.543 24.6797 71.3926 24.4883C71.2467 24.2923 71.1738 24.0758 71.1738 23.8389C71.1738 23.5563 71.2536 23.3148 71.4131 23.1143C71.5726 22.9137 71.8118 22.7201 72.1309 22.5332C71.7344 22.3646 71.4154 22.0911 71.1738 21.7129C70.9368 21.3301 70.8184 20.8812 70.8184 20.3662C70.8184 19.8193 70.9346 19.3545 71.167 18.9717C71.3994 18.5843 71.7389 18.2904 72.1855 18.0898C72.6322 17.8848 73.1722 17.7822 73.8057 17.7822C73.9424 17.7822 74.0905 17.7913 74.25 17.8096C74.4141 17.8232 74.5645 17.8415 74.7012 17.8643C74.8424 17.8825 74.9495 17.903 75.0225 17.9258H77.6406V18.8213L76.3555 19.0605C76.4785 19.2337 76.5765 19.432 76.6494 19.6553C76.7223 19.874 76.7588 20.1133 76.7588 20.373C76.7588 21.1569 76.4876 21.7744 75.9453 22.2256C75.4076 22.6722 74.6647 22.8955 73.7168 22.8955C73.4889 22.8864 73.2679 22.8682 73.0537 22.8408C72.8896 22.9411 72.7643 23.0527 72.6777 23.1758C72.5911 23.2943 72.5479 23.4287 72.5479 23.5791C72.5479 23.7021 72.5911 23.8024 72.6777 23.8799C72.7643 23.9528 72.8919 24.0075 73.0605 24.0439C73.2337 24.0804 73.4434 24.0986 73.6895 24.0986H74.9951C75.8245 24.0986 76.458 24.2741 76.8955 24.625C77.333 24.9759 77.5518 25.4909 77.5518 26.1699C77.5518 27.0312 77.1963 27.6943 76.4854 28.1592C75.7744 28.6286 74.7513 28.8633 73.416 28.8633ZM73.4775 27.7354C74.0381 27.7354 74.5098 27.6807 74.8926 27.5713C75.2754 27.4619 75.5648 27.3047 75.7607 27.0996C75.9567 26.8991 76.0547 26.6598 76.0547 26.3818C76.0547 26.1357 75.9932 25.9466 75.8701 25.8145C75.7471 25.6823 75.5625 25.5911 75.3164 25.541C75.0703 25.4909 74.765 25.4658 74.4004 25.4658H73.2109C72.9147 25.4658 72.6527 25.5114 72.4248 25.6025C72.1969 25.6982 72.0192 25.835 71.8916 26.0127C71.7686 26.1904 71.707 26.4046 71.707 26.6553C71.707 27.0016 71.8597 27.2682 72.165 27.4551C72.4749 27.6419 72.9124 27.7354 73.4775 27.7354ZM73.792 21.8428C74.2614 21.8428 74.61 21.7152 74.8379 21.46C75.0658 21.2002 75.1797 20.8356 75.1797 20.3662C75.1797 19.8558 75.0612 19.473 74.8242 19.2178C74.5918 18.9626 74.2454 18.835 73.7852 18.835C73.334 18.835 72.9899 18.9648 72.7529 19.2246C72.5205 19.4844 72.4043 19.8695 72.4043 20.3799C72.4043 20.8402 72.5205 21.2002 72.7529 21.46C72.9899 21.7152 73.3363 21.8428 73.792 21.8428ZM82.9658 17.7891C83.818 17.7891 84.4811 18.0101 84.9551 18.4521C85.4336 18.8896 85.6729 19.5938 85.6729 20.5645V25.5H84.0664V20.8652C84.0664 20.2773 83.9456 19.8376 83.7041 19.5459C83.4626 19.2497 83.0889 19.1016 82.583 19.1016C81.8493 19.1016 81.3389 19.3271 81.0518 19.7783C80.7692 20.2295 80.6279 20.8835 80.6279 21.7402V25.5H79.0215V17.9326H80.2725L80.498 18.958H80.5869C80.751 18.6937 80.9538 18.4772 81.1953 18.3086C81.4414 18.1354 81.7148 18.0055 82.0156 17.9189C82.321 17.8324 82.6377 17.7891 82.9658 17.7891ZM93.165 17.9326V25.5H91.5586V17.9326H93.165ZM92.3721 15.0342C92.6182 15.0342 92.8301 15.1003 93.0078 15.2324C93.1901 15.3646 93.2812 15.5924 93.2812 15.916C93.2812 16.235 93.1901 16.4629 93.0078 16.5996C92.8301 16.7318 92.6182 16.7979 92.3721 16.7979C92.1169 16.7979 91.9004 16.7318 91.7227 16.5996C91.5495 16.4629 91.4629 16.235 91.4629 15.916C91.4629 15.5924 91.5495 15.3646 91.7227 15.2324C91.9004 15.1003 92.1169 15.0342 92.3721 15.0342ZM99.4131 17.7891C100.265 17.7891 100.928 18.0101 101.402 18.4521C101.881 18.8896 102.12 19.5938 102.12 20.5645V25.5H100.514V20.8652C100.514 20.2773 100.393 19.8376 100.151 19.5459C99.9098 19.2497 99.5361 19.1016 99.0303 19.1016C98.2965 19.1016 97.7861 19.3271 97.499 19.7783C97.2165 20.2295 97.0752 20.8835 97.0752 21.7402V25.5H95.4688V17.9326H96.7197L96.9453 18.958H97.0342C97.1982 18.6937 97.401 18.4772 97.6426 18.3086C97.8887 18.1354 98.1621 18.0055 98.4629 17.9189C98.7682 17.8324 99.085 17.7891 99.4131 17.7891ZM114.192 25.4932L113.235 21.9727C113.19 21.7995 113.135 21.5898 113.071 21.3438C113.007 21.0977 112.944 20.8447 112.88 20.585C112.816 20.3206 112.757 20.0768 112.702 19.8535C112.652 19.6302 112.613 19.457 112.586 19.334H112.531C112.508 19.457 112.472 19.6302 112.422 19.8535C112.372 20.0768 112.315 20.3206 112.251 20.585C112.187 20.8493 112.123 21.1068 112.06 21.3574C112 21.6081 111.946 21.8223 111.896 22L110.891 25.4932H109.127L107.008 17.9258H108.635L109.619 21.6855C109.683 21.9408 109.744 22.2165 109.804 22.5127C109.868 22.8089 109.922 23.0915 109.968 23.3604C110.013 23.6292 110.048 23.8503 110.07 24.0234H110.125C110.143 23.9004 110.168 23.7454 110.2 23.5586C110.232 23.3672 110.269 23.1689 110.31 22.9639C110.351 22.7542 110.392 22.5583 110.433 22.376C110.474 22.1891 110.512 22.0387 110.549 21.9248L111.711 17.9258H113.468L114.582 21.9248C114.632 22.098 114.687 22.3167 114.746 22.5811C114.805 22.8408 114.858 23.1029 114.903 23.3672C114.953 23.627 114.985 23.8434 114.999 24.0166H115.054C115.072 23.8617 115.104 23.652 115.149 23.3877C115.2 23.1188 115.257 22.834 115.32 22.5332C115.384 22.2279 115.45 21.9453 115.519 21.6855L116.523 17.9258H118.123L115.99 25.4932H114.192ZM121.028 17.9326V25.5H119.422V17.9326H121.028ZM120.235 15.0342C120.481 15.0342 120.693 15.1003 120.871 15.2324C121.053 15.3646 121.145 15.5924 121.145 15.916C121.145 16.235 121.053 16.4629 120.871 16.5996C120.693 16.7318 120.481 16.7979 120.235 16.7979C119.98 16.7979 119.764 16.7318 119.586 16.5996C119.413 16.4629 119.326 16.235 119.326 15.916C119.326 15.5924 119.413 15.3646 119.586 15.2324C119.764 15.1003 119.98 15.0342 120.235 15.0342ZM126.148 24.3379C126.358 24.3379 126.565 24.3197 126.771 24.2832C126.976 24.2422 127.162 24.1943 127.331 24.1396V25.3564C127.153 25.4339 126.923 25.5 126.641 25.5547C126.358 25.6094 126.064 25.6367 125.759 25.6367C125.33 25.6367 124.945 25.5661 124.604 25.4248C124.262 25.279 123.991 25.0306 123.79 24.6797C123.59 24.3288 123.489 23.8434 123.489 23.2236V19.1562H122.457V18.4385L123.564 17.8711L124.091 16.251H125.103V17.9326H127.27V19.1562H125.103V23.2031C125.103 23.5859 125.198 23.8708 125.39 24.0576C125.581 24.2445 125.834 24.3379 126.148 24.3379ZM130.476 14.8633V17.5361C130.476 17.8141 130.466 18.0853 130.448 18.3496C130.435 18.6139 130.419 18.819 130.4 18.9648H130.489C130.649 18.7005 130.845 18.484 131.077 18.3154C131.31 18.1423 131.569 18.0124 131.856 17.9258C132.148 17.8392 132.458 17.7959 132.786 17.7959C133.365 17.7959 133.857 17.8939 134.263 18.0898C134.668 18.2812 134.978 18.5798 135.192 18.9854C135.411 19.391 135.521 19.9173 135.521 20.5645V25.5H133.914V20.8652C133.914 20.2773 133.793 19.8376 133.552 19.5459C133.31 19.2497 132.937 19.1016 132.431 19.1016C131.943 19.1016 131.556 19.2041 131.269 19.4092C130.986 19.6097 130.783 19.9082 130.66 20.3047C130.537 20.6966 130.476 21.1751 130.476 21.7402V25.5H128.869V14.8633H130.476ZM145.604 20.0723H149.336V25.0898C148.812 25.263 148.27 25.3975 147.709 25.4932C147.148 25.5889 146.52 25.6367 145.822 25.6367C144.806 25.6367 143.945 25.4362 143.238 25.0352C142.536 24.6296 142.003 24.0439 141.639 23.2783C141.274 22.5081 141.092 21.5807 141.092 20.4961C141.092 19.4525 141.295 18.5479 141.7 17.7822C142.106 17.012 142.696 16.4173 143.471 15.998C144.245 15.5742 145.184 15.3623 146.287 15.3623C146.829 15.3623 147.354 15.417 147.859 15.5264C148.37 15.6312 148.837 15.777 149.261 15.9639L148.687 17.3174C148.349 17.1579 147.971 17.0234 147.552 16.9141C147.132 16.8047 146.697 16.75 146.246 16.75C145.531 16.75 144.913 16.9049 144.394 17.2148C143.879 17.5247 143.482 17.9622 143.204 18.5273C142.926 19.0879 142.787 19.751 142.787 20.5166C142.787 21.2594 142.899 21.9111 143.122 22.4717C143.345 23.0322 143.694 23.4697 144.168 23.7842C144.646 24.0941 145.264 24.249 146.021 24.249C146.399 24.249 146.72 24.2285 146.984 24.1875C147.249 24.1465 147.493 24.1009 147.716 24.0508V21.4736H145.604V20.0723ZM158.264 21.6992C158.264 22.3281 158.182 22.8864 158.018 23.374C157.854 23.8617 157.614 24.2741 157.3 24.6113C156.985 24.944 156.607 25.1992 156.165 25.377C155.723 25.5501 155.224 25.6367 154.668 25.6367C154.148 25.6367 153.672 25.5501 153.239 25.377C152.806 25.1992 152.43 24.944 152.111 24.6113C151.797 24.2741 151.553 23.8617 151.38 23.374C151.207 22.8864 151.12 22.3281 151.12 21.6992C151.12 20.8652 151.264 20.1589 151.551 19.5801C151.842 18.9967 152.257 18.5524 152.795 18.2471C153.333 17.9417 153.973 17.7891 154.716 17.7891C155.413 17.7891 156.028 17.9417 156.562 18.2471C157.095 18.5524 157.512 18.9967 157.812 19.5801C158.113 20.1634 158.264 20.8698 158.264 21.6992ZM152.774 21.6992C152.774 22.2507 152.84 22.7223 152.973 23.1143C153.109 23.5062 153.319 23.807 153.602 24.0166C153.884 24.2217 154.249 24.3242 154.695 24.3242C155.142 24.3242 155.507 24.2217 155.789 24.0166C156.072 23.807 156.279 23.5062 156.411 23.1143C156.543 22.7223 156.609 22.2507 156.609 21.6992C156.609 21.1478 156.543 20.6807 156.411 20.2979C156.279 19.9105 156.072 19.6165 155.789 19.416C155.507 19.2109 155.14 19.1084 154.688 19.1084C154.023 19.1084 153.538 19.3317 153.232 19.7783C152.927 20.2249 152.774 20.8652 152.774 21.6992ZM166.809 21.6992C166.809 22.3281 166.727 22.8864 166.562 23.374C166.398 23.8617 166.159 24.2741 165.845 24.6113C165.53 24.944 165.152 25.1992 164.71 25.377C164.268 25.5501 163.769 25.6367 163.213 25.6367C162.693 25.6367 162.217 25.5501 161.784 25.377C161.351 25.1992 160.975 24.944 160.656 24.6113C160.342 24.2741 160.098 23.8617 159.925 23.374C159.752 22.8864 159.665 22.3281 159.665 21.6992C159.665 20.8652 159.809 20.1589 160.096 19.5801C160.387 18.9967 160.802 18.5524 161.34 18.2471C161.878 17.9417 162.518 17.7891 163.261 17.7891C163.958 17.7891 164.573 17.9417 165.106 18.2471C165.64 18.5524 166.057 18.9967 166.357 19.5801C166.658 20.1634 166.809 20.8698 166.809 21.6992ZM161.319 21.6992C161.319 22.2507 161.385 22.7223 161.518 23.1143C161.654 23.5062 161.864 23.807 162.146 24.0166C162.429 24.2217 162.794 24.3242 163.24 24.3242C163.687 24.3242 164.051 24.2217 164.334 24.0166C164.617 23.807 164.824 23.5062 164.956 23.1143C165.088 22.7223 165.154 22.2507 165.154 21.6992C165.154 21.1478 165.088 20.6807 164.956 20.2979C164.824 19.9105 164.617 19.6165 164.334 19.416C164.051 19.2109 163.685 19.1084 163.233 19.1084C162.568 19.1084 162.083 19.3317 161.777 19.7783C161.472 20.2249 161.319 20.8652 161.319 21.6992ZM170.814 28.8633C169.789 28.8633 169.003 28.6787 168.456 28.3096C167.909 27.9404 167.636 27.4232 167.636 26.7578C167.636 26.293 167.782 25.8988 168.073 25.5752C168.365 25.2562 168.782 25.0352 169.324 24.9121C169.119 24.821 168.941 24.6797 168.791 24.4883C168.645 24.2923 168.572 24.0758 168.572 23.8389C168.572 23.5563 168.652 23.3148 168.812 23.1143C168.971 22.9137 169.21 22.7201 169.529 22.5332C169.133 22.3646 168.814 22.0911 168.572 21.7129C168.335 21.3301 168.217 20.8812 168.217 20.3662C168.217 19.8193 168.333 19.3545 168.565 18.9717C168.798 18.5843 169.137 18.2904 169.584 18.0898C170.031 17.8848 170.571 17.7822 171.204 17.7822C171.341 17.7822 171.489 17.7913 171.648 17.8096C171.812 17.8232 171.963 17.8415 172.1 17.8643C172.241 17.8825 172.348 17.903 172.421 17.9258H175.039V18.8213L173.754 19.0605C173.877 19.2337 173.975 19.432 174.048 19.6553C174.121 19.874 174.157 20.1133 174.157 20.373C174.157 21.1569 173.886 21.7744 173.344 22.2256C172.806 22.6722 172.063 22.8955 171.115 22.8955C170.887 22.8864 170.666 22.8682 170.452 22.8408C170.288 22.9411 170.163 23.0527 170.076 23.1758C169.99 23.2943 169.946 23.4287 169.946 23.5791C169.946 23.7021 169.99 23.8024 170.076 23.8799C170.163 23.9528 170.29 24.0075 170.459 24.0439C170.632 24.0804 170.842 24.0986 171.088 24.0986H172.394C173.223 24.0986 173.856 24.2741 174.294 24.625C174.731 24.9759 174.95 25.4909 174.95 26.1699C174.95 27.0312 174.595 27.6943 173.884 28.1592C173.173 28.6286 172.15 28.8633 170.814 28.8633ZM170.876 27.7354C171.437 27.7354 171.908 27.6807 172.291 27.5713C172.674 27.4619 172.963 27.3047 173.159 27.0996C173.355 26.8991 173.453 26.6598 173.453 26.3818C173.453 26.1357 173.392 25.9466 173.269 25.8145C173.146 25.6823 172.961 25.5911 172.715 25.541C172.469 25.4909 172.163 25.4658 171.799 25.4658H170.609C170.313 25.4658 170.051 25.5114 169.823 25.6025C169.595 25.6982 169.418 25.835 169.29 26.0127C169.167 26.1904 169.105 26.4046 169.105 26.6553C169.105 27.0016 169.258 27.2682 169.563 27.4551C169.873 27.6419 170.311 27.7354 170.876 27.7354ZM171.19 21.8428C171.66 21.8428 172.008 21.7152 172.236 21.46C172.464 21.2002 172.578 20.8356 172.578 20.3662C172.578 19.8558 172.46 19.473 172.223 19.2178C171.99 18.9626 171.644 18.835 171.184 18.835C170.732 18.835 170.388 18.9648 170.151 19.2246C169.919 19.4844 169.803 19.8695 169.803 20.3799C169.803 20.8402 169.919 21.2002 170.151 21.46C170.388 21.7152 170.735 21.8428 171.19 21.8428ZM178.033 25.5H176.42V14.8633H178.033V25.5ZM183.345 17.7891C184.019 17.7891 184.598 17.9281 185.081 18.2061C185.564 18.484 185.936 18.8783 186.195 19.3887C186.455 19.8991 186.585 20.5098 186.585 21.2207V22.082H181.533C181.551 22.8158 181.747 23.3809 182.121 23.7773C182.499 24.1738 183.028 24.3721 183.707 24.3721C184.19 24.3721 184.623 24.3265 185.006 24.2354C185.393 24.1396 185.792 24.0007 186.202 23.8184V25.124C185.824 25.3018 185.439 25.4316 185.047 25.5137C184.655 25.5957 184.186 25.6367 183.639 25.6367C182.896 25.6367 182.242 25.4932 181.677 25.2061C181.116 24.9144 180.676 24.4814 180.357 23.9072C180.043 23.333 179.886 22.6198 179.886 21.7676C179.886 20.9199 180.029 20.1999 180.316 19.6074C180.604 19.015 181.007 18.5638 181.526 18.2539C182.046 17.944 182.652 17.7891 183.345 17.7891ZM183.345 18.999C182.839 18.999 182.429 19.1631 182.114 19.4912C181.804 19.8193 181.622 20.3001 181.567 20.9336H185.013C185.008 20.5553 184.944 20.2204 184.821 19.9287C184.703 19.637 184.521 19.4092 184.274 19.2451C184.033 19.0811 183.723 18.999 183.345 18.999Z" fill="black"/>
</svg>
