<svg width="18" height="18" viewBox="0 0 18 18" fill="none" xmlns="http://www.w3.org/2000/svg">
<path d="M9.39128 9.21601H14.7739M14.7739 9.21601L12.7805 6.82373M14.7739 9.21601L12.7805 11.6083M9.98935 6.22566V5.13358C9.98934 4.96814 9.95501 4.8045 9.88853 4.653C9.82205 4.5015 9.72487 4.36544 9.60312 4.25342C9.48138 4.1414 9.33772 4.05585 9.18122 4.00218C9.02473 3.94852 8.8588 3.9279 8.69393 3.94163L3.90936 4.33994C3.61036 4.36485 3.33163 4.50121 3.12846 4.722C2.92529 4.94278 2.81251 5.23186 2.8125 5.5319V12.9001C2.81251 13.2002 2.92529 13.4892 3.12846 13.71C3.33163 13.9308 3.61036 14.0672 3.90936 14.0921L8.69393 14.491C8.85885 14.5047 9.02483 14.4841 9.18136 14.4304C9.3379 14.3767 9.48159 14.2911 9.60334 14.179C9.7251 14.0669 9.82227 13.9308 9.88871 13.7792C9.95515 13.6276 9.98942 13.4639 9.98935 13.2984V12.2064" stroke="white" stroke-width="1.19614" stroke-linecap="round" stroke-linejoin="round"/>
</svg>
