<svg width="17" height="16" viewBox="0 0 17 16" fill="none" xmlns="http://www.w3.org/2000/svg">
<path d="M15.8517 13.069L16.2926 13.5124L15.8509 13.069H15.8517ZM5.34673 11.2724L5.78673 10.8291L5.3459 11.2724H5.34673ZM1.9084 2.44572L1.4684 2.00322L1.90923 2.44655L1.9084 2.44572ZM11.8567 10.5757L12.2376 10.1982L11.3551 9.31155L10.9767 9.68905L11.8567 10.5757ZM13.5117 10.0399L15.1042 10.9057L15.7001 9.80738L14.1084 8.94238L13.5117 10.0399ZM15.4101 12.6257L14.2267 13.8032L15.1076 14.6891L16.2909 13.5124L15.4101 12.6257ZM13.5051 14.1816C12.2967 14.2949 9.17173 14.1941 5.78673 10.8291L4.90506 11.7149C8.5984 15.3874 12.1142 15.5674 13.6217 15.4265L13.5042 14.1816H13.5051ZM5.78673 10.8291C2.5609 7.62072 2.0259 4.92322 1.95923 3.75238L0.710896 3.82322C0.79423 5.29655 1.45673 8.28655 4.90506 11.7149L5.78673 10.8291ZM6.93256 5.67905L7.17173 5.44072L6.29173 4.55488L6.05256 4.79239L6.9334 5.67822L6.93256 5.67905ZM7.36173 2.41155L6.31173 1.00822L5.3109 1.75822L6.3609 3.16072L7.36173 2.41155ZM2.77756 0.702385L1.46923 2.00239L2.3509 2.88905L3.6584 1.58905L2.77756 0.702385ZM6.49256 5.23572C6.0509 4.79238 6.0509 4.79238 6.0509 4.79405H6.04923L6.04673 4.79738C6.00738 4.83754 5.97195 4.88135 5.9409 4.92822C5.8959 4.99488 5.84673 5.08239 5.80506 5.19322C5.70359 5.47931 5.67832 5.78689 5.73173 6.08572C5.8434 6.80655 6.34006 7.75905 7.61173 9.02405L8.4934 8.13738C7.30256 6.95405 7.01923 6.23405 6.96673 5.89405C6.94173 5.73238 6.96756 5.65238 6.97506 5.63405C6.97923 5.62238 6.9809 5.62155 6.97506 5.62905C6.96771 5.64061 6.95935 5.65148 6.95006 5.66155L6.94173 5.66988C6.93904 5.67248 6.93626 5.67498 6.9334 5.67738L6.49173 5.23572H6.49256ZM7.61173 9.02405C8.88423 10.2891 9.84173 10.7824 10.5634 10.8924C10.9326 10.9491 11.2301 10.9041 11.4559 10.8199C11.5822 10.7731 11.7003 10.7068 11.8059 10.6232C11.8202 10.6112 11.8341 10.5987 11.8476 10.5857L11.8534 10.5807L11.8559 10.5782L11.8567 10.5766C11.8567 10.5766 11.8576 10.5757 11.4167 10.1324C10.9751 9.68905 10.9776 9.68822 10.9776 9.68822L10.9792 9.68655L10.9809 9.68488L10.9859 9.68072L10.9942 9.67238C11.0042 9.66339 11.0148 9.65504 11.0259 9.64738C11.0342 9.64155 11.0317 9.64405 11.0201 9.64905C10.9992 9.65655 10.9176 9.68238 10.7534 9.65738C10.4084 9.60405 9.6834 9.32072 8.4934 8.13738L7.61173 9.02405ZM6.31173 1.00739C5.46173 -0.125948 3.79173 -0.305948 2.77756 0.702385L3.6584 1.58905C4.10173 1.14822 4.8884 1.19405 5.3109 1.75822L6.3109 1.00739H6.31173ZM1.96006 3.75322C1.9434 3.46488 2.0759 3.16322 2.3509 2.88989L1.4684 2.00322C1.0209 2.44822 0.668396 3.07822 0.710896 3.82322L1.96006 3.75322ZM14.2267 13.8032C13.9984 14.0316 13.7517 14.1599 13.5059 14.1824L13.6217 15.4265C14.2342 15.3691 14.7351 15.0607 15.1084 14.6899L14.2267 13.8032ZM7.17173 5.44072C7.99256 4.62489 8.0534 3.33572 7.36256 2.41238L6.36173 3.16155C6.69756 3.61072 6.64756 4.19988 6.2909 4.55572L7.17173 5.44072ZM15.1051 10.9066C15.7859 11.2766 15.8917 12.1482 15.4109 12.6265L16.2926 13.5124C17.4092 12.4016 17.0651 10.5491 15.7009 9.80822L15.1051 10.9066ZM12.2376 10.1991C12.5576 9.88072 13.0726 9.80238 13.5126 10.0407L14.1092 8.94322C13.2059 8.45155 12.0859 8.58738 11.3559 9.31238L12.2376 10.1991Z" fill="white"/>
</svg>
