<svg width="42" height="43" viewBox="0 0 42 43" fill="none" xmlns="http://www.w3.org/2000/svg">
<g clip-path="url(#clip0_1844_2342)">
<path d="M33.4412 3.927H14.1738V11.917H37.5563V8.04042C37.5563 5.77206 35.7102 3.927 33.4412 3.927Z" fill="#CBE6FF"/>
<path d="M22.5352 13.1465H0V5.73264C0 3.01599 2.21068 0.806274 4.92828 0.806274H12.1336C12.8497 0.806274 13.5396 0.957199 14.1664 1.24078C15.0418 1.63524 15.7939 2.2854 16.3213 3.13487L22.5352 13.1465Z" fill="#0D66B7"/>
<path d="M42 14.8064V38.6877C42 40.959 40.1511 42.8063 37.8789 42.8063H4.12111C1.84891 42.8063 0 40.959 0 38.6877V10.6869H37.8789C40.1511 10.6869 42 12.5348 42 14.8064Z" fill="#4FA9FA"/>
<path d="M42 14.8064V38.6877C42 40.959 40.1511 42.8063 37.8789 42.8063H21V10.6869H37.8789C40.1511 10.6869 42 12.5348 42 14.8064Z" fill="#1281E6"/>
<path d="M32.0471 26.7461C32.0471 32.8385 27.0909 37.795 20.9991 37.795C14.9073 37.795 9.95117 32.8385 9.95117 26.7461C9.95117 20.6546 14.9073 15.6981 20.9991 15.6981C27.0909 15.6981 32.0471 20.6546 32.0471 26.7461Z" fill="#E7ECFC"/>
<path d="M32.0479 26.7461C32.0479 32.8385 27.0918 37.795 21 37.795V15.6981C27.0918 15.6981 32.0479 20.6546 32.0479 26.7461Z" fill="#CED9F9"/>
<path d="M24.5612 26.8816C24.3308 27.0767 24.0485 27.1719 23.7688 27.1719C23.4185 27.1719 23.0705 27.0235 22.827 26.7345L22.2307 26.0276V30.6557C22.2307 31.335 21.6795 31.8861 21.0002 31.8861C20.3209 31.8861 19.7698 31.335 19.7698 30.6557V26.0276L19.1734 26.7345C18.7344 27.2539 17.9587 27.3203 17.4392 26.8816C16.9201 26.4435 16.8535 25.6675 17.2915 25.148L19.7271 22.2606C20.0447 21.885 20.508 21.6691 21.0002 21.6691C21.4924 21.6691 21.9558 21.885 22.2733 22.2606L24.7089 25.148C25.147 25.6675 25.0803 26.4435 24.5612 26.8816Z" fill="#1281E6"/>
<path d="M24.561 26.8816C24.3306 27.0767 24.0483 27.1719 23.7686 27.1719C23.4183 27.1719 23.0703 27.0235 22.8268 26.7345L22.2305 26.0276V30.6557C22.2305 31.335 21.6793 31.8861 21 31.8861V21.6691C21.4922 21.6691 21.9555 21.885 22.2731 22.2606L24.7087 25.148C25.1467 25.6675 25.0801 26.4435 24.561 26.8816Z" fill="#0D66B7"/>
</g>
<defs>
<clipPath id="clip0_1844_2342">
<rect width="42" height="42" fill="white" transform="translate(0 0.806274)"/>
</clipPath>
</defs>
</svg>
