<svg width="881" height="812" viewBox="0 0 881 812" fill="none" xmlns="http://www.w3.org/2000/svg">
<path d="M106.739 593.664L49.6435 527.507C20.5319 493.775 22.1873 443.407 53.5738 411.78C171.553 292.9 436.984 25.9992 441.96 26C446.958 26.0008 710.798 295.247 826.277 413.336C856.596 444.341 858.79 493.14 831.423 526.78L777.01 593.664M106.739 593.664L162.781 653.694C195.32 688.549 189.645 744.101 150.729 771.656V771.656C124.212 790.431 88.8196 790.942 61.7266 773.009V773.009C20.0655 745.433 14.0045 686.525 49.3081 651.173L106.739 593.664ZM106.739 593.664C106.739 593.664 437.692 252.212 441.96 252.212C446.228 252.212 777.01 593.664 777.01 593.664M777.01 593.664L829.771 644.471C863.543 676.992 862.656 731.328 827.841 762.73L826.694 763.765C800.978 786.959 763.128 790.633 733.432 772.815V772.815C688.807 746.04 681.961 684.113 719.661 648.238L777.01 593.664Z" stroke="white" stroke-width="51.2178"/>
</svg>
