<svg width="24" height="24" viewBox="0 0 24 24" fill="none" xmlns="http://www.w3.org/2000/svg">
<path fill-rule="evenodd" clip-rule="evenodd" d="M7.52062 2.14622C8.29253 2.08459 9.02532 1.78098 9.61462 1.27862C10.2802 0.711732 11.1259 0.400391 12.0002 0.400391C12.8745 0.400391 13.7202 0.711732 14.3858 1.27862C14.9751 1.78098 15.7079 2.08459 16.4798 2.14622C17.3515 2.21589 18.1699 2.59378 18.7883 3.21214C19.4067 3.8305 19.7846 4.6489 19.8542 5.52062C19.9154 6.29222 20.219 7.02542 20.7218 7.61462C21.2887 8.28022 21.6001 9.12593 21.6001 10.0002C21.6001 10.8745 21.2887 11.7202 20.7218 12.3858C20.2195 12.9751 19.9159 13.7079 19.8542 14.4798C19.7846 15.3515 19.4067 16.1699 18.7883 16.7883C18.1699 17.4067 17.3515 17.7846 16.4798 17.8542C15.7079 17.9159 14.9751 18.2195 14.3858 18.7218C13.7202 19.2887 12.8745 19.6001 12.0002 19.6001C11.1259 19.6001 10.2802 19.2887 9.61462 18.7218C9.02532 18.2195 8.29253 17.9159 7.52062 17.8542C6.6489 17.7846 5.8305 17.4067 5.21214 16.7883C4.59378 16.1699 4.21589 15.3515 4.14622 14.4798C4.08459 13.7079 3.78098 12.9751 3.27862 12.3858C2.71173 11.7202 2.40039 10.8745 2.40039 10.0002C2.40039 9.12593 2.71173 8.28022 3.27862 7.61462C3.78098 7.02532 4.08459 6.29253 4.14622 5.52062C4.21589 4.6489 4.59378 3.8305 5.21214 3.21214C5.8305 2.59378 6.6489 2.21589 7.52062 2.14622ZM16.4486 8.44862C16.6672 8.2223 16.7882 7.91918 16.7854 7.60454C16.7827 7.28991 16.6565 6.98893 16.434 6.76644C16.2115 6.54395 15.9105 6.41775 15.5959 6.41501C15.2813 6.41228 14.9781 6.53323 14.7518 6.75182L10.8002 10.7034L9.24862 9.15182C9.0223 8.93323 8.71918 8.81228 8.40454 8.81501C8.0899 8.81775 7.78893 8.94395 7.56644 9.16644C7.34395 9.38893 7.21775 9.68991 7.21501 10.0045C7.21228 10.3192 7.33323 10.6223 7.55182 10.8486L9.95182 13.2486C10.1769 13.4736 10.482 13.6 10.8002 13.6C11.1184 13.6 11.4236 13.4736 11.6486 13.2486L16.4486 8.44862Z" fill="#FFD700"/>
</svg>
